<svg xmlns="http://www.w3.org/2000/svg" width="40.37mm" height="8.36mm" viewBox="0 0 114.43 23.71"><title>footer-title</title><path d="M569.86,1030h-1.42a0.72,0.72,0,0,1,1.42,0m-5.42-.22a4.73,4.73,0,0,1-1.36.22,0.7,0.7,0,0,1,.71-0.61,0.72,0.72,0,0,1,.65.39M562,1030h-1.42a0.72,0.72,0,0,1,1.42,0m-2.49,0H558.1a0.7,0.7,0,0,1,.71-0.61,0.69,0.69,0,0,1,.7.61m10.94,0a1,1,0,0,1,.35-0.73V1030h-0.35Zm-1.31-.73a0.82,0.82,0,0,0-.84.73H568a1.19,1.19,0,0,1,2.36,0H570a0.82,0.82,0,0,0-.84-0.73m-4.59.47a0.85,0.85,0,0,0-.77-0.47,0.82,0.82,0,0,0-.84.73h-0.35a1.15,1.15,0,0,1,1.18-1,1.2,1.2,0,0,1,.68.2,1.16,1.16,0,0,1,.41.46l-0.32.13m-5.75-.47a0.82,0.82,0,0,0-.84.73h-0.35a1.19,1.19,0,0,1,2.37,0h-0.35a0.82,0.82,0,0,0-.83-0.73m2.49,0a0.82,0.82,0,0,0-.84.73h-0.34a1.19,1.19,0,0,1,2.36,0h-0.34a0.81,0.81,0,0,0-.84-0.73m6.67-.63h2.84v0.47a1.22,1.22,0,0,0-.41.57,1.34,1.34,0,0,0-2.42-.15v-0.89Zm-3,.92a1.27,1.27,0,0,0-.44-0.5,1.39,1.39,0,0,0-.75-0.22,1.3,1.3,0,0,0-1.24.85,3.4,3.4,0,0,1-3.74-.85,1.33,1.33,0,0,0-1.19.7v-0.89h8.56a3.57,3.57,0,0,1-1.2.92m3-1.64a0.69,0.69,0,0,1,.64.61H568v-0.61Zm-10.34,0a0.69,0.69,0,0,1,.65.61h-0.65v-0.61Zm12.05,0.61a0.7,0.7,0,0,1,.71-0.61,0.77,0.77,0,0,1,.41.12v0.49h-1.13Zm-3.93,0h-1.42a0.72,0.72,0,0,1,1.42,0m-2.49,0h-1.42a0.7,0.7,0,0,1,.71-0.61,0.69,0.69,0,0,1,.7.61m-2.49,0h-1.42a0.72,0.72,0,0,1,1.42,0m2.61,0a0.84,0.84,0,0,0-1.67,0h-0.34a1,1,0,0,1,.28-0.67,1.24,1.24,0,0,1,.71-0.38h0.37a1.22,1.22,0,0,1,.71.38,1.06,1.06,0,0,1,.29.67h-0.35Zm-2.74-1H562a1.38,1.38,0,0,0-.41.3,1.29,1.29,0,0,0-.26.43,1.25,1.25,0,0,0-.66-0.73m8.09,1a0.81,0.81,0,0,0-.77-0.73v-0.32a1.15,1.15,0,0,1,1.12,1h-0.35Zm-10.33,0a0.81,0.81,0,0,0-.77-0.73v-0.32a1.14,1.14,0,0,1,1.12,1H558.4Zm12-.73a0.82,0.82,0,0,0-.84.73h-0.35a1.15,1.15,0,0,1,1.18-1.06,1.26,1.26,0,0,1,.41.07v0.36a0.83,0.83,0,0,0-.41-0.1m-4.52.73a0.84,0.84,0,0,0-1.67,0h-0.35a1.19,1.19,0,0,1,2.36,0h-0.35Zm-5,0a0.84,0.84,0,0,0-1.67,0h-0.34a1.19,1.19,0,0,1,2.36,0h-0.35Zm9.5-1.17a1.29,1.29,0,0,1-2.42,0v-0.19h2.84v0.25a1.45,1.45,0,0,0-.41-0.06m-4,1.1a1.33,1.33,0,0,0-2.55-.25,1.18,1.18,0,0,0-.26-0.43,1.26,1.26,0,0,0-.42-0.3,1.2,1.2,0,0,0,.72-0.31h3.09a3.34,3.34,0,0,1-.58,1.29m-8.72-1.29h2.84v0.25a1.37,1.37,0,0,0-.41-0.06,1.29,1.29,0,0,1-2.43,0v-0.19Zm6.53-.64a0.68,0.68,0,0,1,.35.53h-0.57a1.1,1.1,0,0,0,.22-0.53m5.7,0.53h-1.42a0.72,0.72,0,0,1,1.42,0m-4.28,0a0.7,0.7,0,0,1,.71-0.62,0.72,0.72,0,0,1,.68.47l0,0.14h-1.37Zm-6.06,0H558.1a0.7,0.7,0,0,1,.71-0.62,0.69,0.69,0,0,1,.7.62m11.29,0h-0.35a1.08,1.08,0,0,1,.35-0.73V1027Zm-10.34,0h-0.34a1.07,1.07,0,0,1,.34-0.73V1027Zm4.17,0a0.79,0.79,0,0,0-.46-0.65v0a1.18,1.18,0,0,0,0-.32,1.13,1.13,0,0,1,.85,1h-0.34Zm5.35,0a0.84,0.84,0,0,0-1.67,0H568a1.19,1.19,0,0,1,2.36,0H570Zm-3.7-.73a0.82,0.82,0,0,0-.84.73h-0.35a1.15,1.15,0,0,1,1.18-1.06,1.22,1.22,0,0,1,.72.23v0.14a2.43,2.43,0,0,1,0,.32,0.86,0.86,0,0,0-.7-0.36m-6.64.73a0.84,0.84,0,0,0-1.66,0h-0.35a1.19,1.19,0,0,1,2.37,0h-0.35Zm8.32-1.37h2.84v0.47a1.22,1.22,0,0,0-.41.57,1.34,1.34,0,0,0-2.42-.14v-0.9Zm-1,0a3.87,3.87,0,0,1,.06.39,1.38,1.38,0,0,0-.71-0.19,1.31,1.31,0,0,0-1.25.85,1.27,1.27,0,0,0-1-.82,1.43,1.43,0,0,0-.13-0.22h3Zm-9.32,0h2.84v0.47a1.25,1.25,0,0,0-.41.57,1.3,1.3,0,0,0-1.24-.85,1.32,1.32,0,0,0-1.19.71v-0.9Zm10.34-.73a0.69,0.69,0,0,1,.64.61H568v-0.61Zm-4.82.3H562a0.66,0.66,0,0,1,.2-0.18,0.74,0.74,0,0,1,.39-0.1,0.72,0.72,0,0,1,.59.3m-5.52-.3a0.69,0.69,0,0,1,.65.61h-0.65v-0.61Zm12.05,0.61a0.7,0.7,0,0,1,.71-0.61,0.77,0.77,0,0,1,.41.12v0.49h-1.13Zm-5.35,0a0.72,0.72,0,0,1,1.42,0h-1.42Zm-4.28-.61a0.76,0.76,0,0,1,.38.1,0.79,0.79,0,0,1,.21.19h-0.18v0.32h-1.12a0.7,0.7,0,0,1,.71-0.61m6.87,0.61h-0.57a1.09,1.09,0,0,1,.33-0.72,3.67,3.67,0,0,1,.24.72m1.81,0a0.81,0.81,0,0,0-.77-0.73v-0.32a1.15,1.15,0,0,1,1.12,1h-0.35Zm-10.33,0a0.81,0.81,0,0,0-.77-0.73v-0.32a1.14,1.14,0,0,1,1.12,1H558.4Zm12-.73a0.82,0.82,0,0,0-.84.73h-0.35a1.16,1.16,0,0,1,1.18-1.06,1.27,1.27,0,0,1,.41.07v0.36a0.91,0.91,0,0,0-.41-0.1m-4.52.73a0.84,0.84,0,0,0-1.67,0h-0.35a1.05,1.05,0,0,1,.35-0.73,1.21,1.21,0,0,1,.83-0.32,1.15,1.15,0,0,1,1.18,1.06h-0.35Zm-2.57-.28a0.84,0.84,0,0,0-.75-0.44,0.89,0.89,0,0,0-.45.12,0.77,0.77,0,0,0-.28.28h-0.38a1.16,1.16,0,0,1,.39-0.5,1.27,1.27,0,0,1,.73-0.23,1.21,1.21,0,0,1,.83.32,1.08,1.08,0,0,1,.34.63,1.26,1.26,0,0,0-.41-0.19m-2.51,0a0.83,0.83,0,0,0-.28-0.28,0.89,0.89,0,0,0-.45-0.12,0.82,0.82,0,0,0-.84.73h-0.34a1.15,1.15,0,0,1,1.18-1.06,1.22,1.22,0,0,1,.72.23,1.15,1.15,0,0,1,.39.51h-0.38Zm9.6-.85a1.31,1.31,0,0,0-1.24.85,1.29,1.29,0,0,0-1.18-.85v-0.19h2.84v0.25a1.26,1.26,0,0,0-.41-0.06m-3.76.34a1.17,1.17,0,0,0-.34.51,1.31,1.31,0,0,0-1.25-.85,1.36,1.36,0,0,0-.92.36,0.35,0.35,0,1,1-.65,0,1.37,1.37,0,0,0-1.71-.1,1.27,1.27,0,0,0-.46.6,1.25,1.25,0,0,0-.45-0.6,1.37,1.37,0,0,0-.79-0.25,1.3,1.3,0,0,0-1.24.85,1.29,1.29,0,0,0-1.19-.85v-0.19h8.66a3.06,3.06,0,0,1,.34.53m-0.44-.65h-0.61a0.65,0.65,0,0,1,.2-0.41,3,3,0,0,1,.41.41m3.67,0h-1.42a0.72,0.72,0,0,1,1.42,0m-5.35,0h-1.42a0.72,0.72,0,0,1,1.42,0m-2.49,0h-1.42a0.72,0.72,0,0,1,1.42,0m-2.49,0H558.1a0.7,0.7,0,0,1,.71-0.62,0.69,0.69,0,0,1,.7.62m5.89-.69a3,3,0,0,1,.28.2,0.77,0.77,0,0,0-.23.49h-0.35a1.06,1.06,0,0,1,.3-0.69m5.4,0.69h-0.35a1.08,1.08,0,0,1,.35-0.73v0.73Zm-0.82,0a0.84,0.84,0,0,0-1.67,0H568a1.19,1.19,0,0,1,2.36,0H570Zm-5.35,0a0.84,0.84,0,0,0-1.67,0h-0.35a1.19,1.19,0,0,1,2.36,0h-0.34Zm-2.49,0a0.84,0.84,0,0,0-1.67,0h-0.34a1.19,1.19,0,0,1,2.36,0h-0.34Zm-2.49,0a0.84,0.84,0,0,0-1.66,0h-0.35a1.19,1.19,0,0,1,2.37,0h-0.35Zm8.32-1.37h2.84v0.47a1.22,1.22,0,0,0-.41.57,1.3,1.3,0,0,0-1.24-.85,1.31,1.31,0,0,0-1.18.71v-0.9Zm-10.34,0H563a4.54,4.54,0,0,1,2.34.61,0.78,0.78,0,1,1-1.51-.41,1.34,1.34,0,0,1-2.49,0,1.33,1.33,0,0,1-2.49,0,1.33,1.33,0,0,0-1.19.71v-0.9Zm12.05-.12a0.7,0.7,0,0,1,.71-0.61,0.77,0.77,0,0,1,.41.12v0.49h-1.13ZM568,1022a0.69,0.69,0,0,1,.64.61H568V1022Zm-7.91,0a0.74,0.74,0,0,1,.41.12v0.49h-1.12a0.69,0.69,0,0,1,.71-0.61m-2.43,0a0.69,0.69,0,0,1,.65.61h-0.65V1022Zm11.11,0.61a0.82,0.82,0,0,0-.77-0.73v-0.32a1.15,1.15,0,0,1,1.12,1h-0.35Zm-10.33,0a0.82,0.82,0,0,0-.77-0.73v-0.32a1.14,1.14,0,0,1,1.12,1H558.4Zm12-.73a0.82,0.82,0,0,0-.84.73h-0.35a1.16,1.16,0,0,1,1.18-1.06,1.26,1.26,0,0,1,.41.07V1022a0.91,0.91,0,0,0-.41-0.1m-10.33-.33a1.25,1.25,0,0,1,.41.07V1022a0.88,0.88,0,0,0-.41-0.1,0.81,0.81,0,0,0-.84.73h-0.34a1.15,1.15,0,0,1,1.18-1.06m10.33-.12a1.29,1.29,0,0,1-2.42,0v-0.19h2.84v0.25a1.45,1.45,0,0,0-.41-0.06m-9.93-.19v0.25a1.44,1.44,0,0,0-.41-0.06,1.29,1.29,0,0,1-2.43,0v-0.19h2.84Zm9.39-.12h-1.42a0.72,0.72,0,0,1,1.42,0m-10.34,0H558.1a0.7,0.7,0,0,1,.71-0.62,0.69,0.69,0,0,1,.7.62m10.93,0a1.11,1.11,0,0,1,.34-0.73h0v0.73h-0.35Zm-0.3-.73h0.47a1.25,1.25,0,0,0-.23.4,1.15,1.15,0,0,0-.24-0.4m0.17,0.73H570a0.81,0.81,0,0,0-.73-0.73H570a1.08,1.08,0,0,1,.34.73m-2.36-.73H569a0.81,0.81,0,0,0-.73.73H568v-0.73Zm-7.5,0v0.73h-0.34a1.07,1.07,0,0,1,.34-0.73h0Zm-0.41.4a1.28,1.28,0,0,0-.23-0.4h0.47a1.14,1.14,0,0,0-.23.4m-0.06.32h-0.35a0.81,0.81,0,0,0-.73-0.73h0.75a1.11,1.11,0,0,1,.34.73m-1.28-.73a0.81,0.81,0,0,0-.73.73h-0.35v-0.73h1.08Zm-4.32,9.58a1.94,1.94,0,0,0,.37-0.24l0.12-.12V1030h-0.48Zm-6.1-.36V1030h-0.48a1.81,1.81,0,0,0,.48-0.36m6.58-.35h0a1,1,0,0,1-.77.69h-1.28c0.23-.12.49-0.23,0.75-0.33a3.79,3.79,0,0,0,1.31-.73v0.35Zm-6.58-.36v0.37a1.07,1.07,0,0,1-.78.69h-1.28c0.23-.12.49-0.23,0.75-0.33a3.76,3.76,0,0,0,1.31-.73m6.58-.35h0a0.68,0.68,0,0,1-.41.5,6.57,6.57,0,0,1-1,.45,7.58,7.58,0,0,0-1,.45h-0.47v0a2.48,2.48,0,0,1,1.49-1,3.8,3.8,0,0,0,1.31-.73v0.35Zm-9.39,1.37a2.53,2.53,0,0,1,1.49-1,3.78,3.78,0,0,0,1.31-.73v0.36a0.68,0.68,0,0,1-.41.5,6.68,6.68,0,0,1-1,.45,8.18,8.18,0,0,0-1,.45h-0.47v0Zm9.39-2.08h0a0.69,0.69,0,0,1-.41.51,7.44,7.44,0,0,1-1,.45,3.69,3.69,0,0,0-1.44.83v-0.42a2.45,2.45,0,0,1,1.49-1,3.79,3.79,0,0,0,1.31-.73v0.35Zm-6.58-.35v0.36a0.69,0.69,0,0,1-.41.51,7.57,7.57,0,0,1-1,.45,4,4,0,0,0-1.44.82v-0.41a2.5,2.5,0,0,1,1.49-1,3.76,3.76,0,0,0,1.31-.73m6.58-.35h0a0.68,0.68,0,0,1-.41.51,7.44,7.44,0,0,1-1,.45,3.69,3.69,0,0,0-1.44.83v-0.42a2.51,2.51,0,0,1,1.49-1,3.79,3.79,0,0,0,1.31-.73v0.35Zm-6.58-.36v0.36a0.68,0.68,0,0,1-.41.51,7.57,7.57,0,0,1-1,.45,4,4,0,0,0-1.44.82v-0.41a2.56,2.56,0,0,1,1.49-1,3.76,3.76,0,0,0,1.31-.73m4.37-.43a0.17,0.17,0,1,1,0,.33,0.17,0.17,0,1,1,0-.33m-6.57,0a0.17,0.17,0,1,1-.18.17,0.17,0.17,0,0,1,.18-0.17m6.57,0.5a0.3,0.3,0,1,0-.32-0.3,0.3,0.3,0,0,0,.32.3m-6.57,0a0.3,0.3,0,1,0-.32-0.3,0.31,0.31,0,0,0,.32.3m8.78-.35h0a0.68,0.68,0,0,1-.41.5,6.57,6.57,0,0,1-1,.45,3.79,3.79,0,0,0-1.44.82v-0.41a2.48,2.48,0,0,1,1.49-1,3.8,3.8,0,0,0,1.31-.73v0.35Zm-6.58-.36v0.37a0.68,0.68,0,0,1-.41.5,6.68,6.68,0,0,1-1,.45,3.88,3.88,0,0,0-1.44.82v-0.41a2.53,2.53,0,0,1,1.49-1,3.68,3.68,0,0,0,1.31-.73m5.19-.43a0.17,0.17,0,1,1-.18.17,0.18,0.18,0,0,1,.18-0.17m-6.59,0a0.17,0.17,0,1,1-.18.17,0.17,0.17,0,0,1,.18-0.17m6.59,0.5a0.3,0.3,0,1,0-.32-0.3,0.31,0.31,0,0,0,.32.3m-6.59,0a0.3,0.3,0,1,0-.32-0.29,0.31,0.31,0,0,0,.32.29m7.4-1.06a0.17,0.17,0,1,1,0,.33,0.17,0.17,0,1,1,0-.33m-1.63,0a0.17,0.17,0,1,1-.18.17,0.17,0.17,0,0,1,.18-0.17m-5,0a0.17,0.17,0,1,1-.18.17,0.17,0.17,0,0,1,.18-0.17m-1.6,0a0.17,0.17,0,1,1-.18.17,0.17,0.17,0,0,1,.18-0.17m8.2,0.5a0.3,0.3,0,1,0-.31-0.29,0.3,0.3,0,0,0,.31.29m-1.63,0a0.3,0.3,0,1,0,0-.59,0.3,0.3,0,1,0,0,.59m-5,0a0.3,0.3,0,1,0-.32-0.3,0.31,0.31,0,0,0,.32.3m-1.6,0a0.3,0.3,0,1,0-.32-0.3,0.31,0.31,0,0,0,.32.3m7.38-1.13a0.17,0.17,0,1,1-.18.16,0.17,0.17,0,0,1,.18-0.16m-6.59,0a0.17,0.17,0,1,1-.18.17,0.17,0.17,0,0,1,.18-0.17m6.59,0.5a0.3,0.3,0,1,0-.32-0.3,0.31,0.31,0,0,0,.32.3m-6.59,0a0.3,0.3,0,1,0-.32-0.29,0.31,0.31,0,0,0,.32.29m4.62,0.89a0.07,0.07,0,0,0-.07.06,0.07,0.07,0,0,0,.07.07,0.19,0.19,0,0,1,.21.19,0.23,0.23,0,0,1-.25.24,0.24,0.24,0,0,1-.26-0.27,1.78,1.78,0,0,1,.29-0.69,2,2,0,0,0,.34-0.85,0.37,0.37,0,0,0-.39-0.4,0.4,0.4,0,0,0-.3.11,0.37,0.37,0,0,0-.1.26,0.33,0.33,0,0,0,.35.32,0.07,0.07,0,0,0,.07-0.07,0.07,0.07,0,0,0-.07-0.07,0.19,0.19,0,0,1-.21-0.19,0.23,0.23,0,0,1,.26-0.24,0.24,0.24,0,0,1,.25.27,1.85,1.85,0,0,1-.32.78,1.81,1.81,0,0,0-.31.75,0.37,0.37,0,0,0,.39.4,0.4,0.4,0,0,0,.29-0.11,0.37,0.37,0,0,0,.1-0.26,0.33,0.33,0,0,0-.34-0.32m-0.85,0a0.07,0.07,0,0,0-.07.06,0.06,0.06,0,0,0,.07.07,0.2,0.2,0,0,1,.21.19,0.23,0.23,0,0,1-.26.24,0.24,0.24,0,0,1-.26-0.27,1.71,1.71,0,0,1,.3-0.69,2,2,0,0,0,.34-0.85,0.37,0.37,0,0,0-.39-0.4,0.39,0.39,0,0,0-.29.11,0.34,0.34,0,0,0-.1.26,0.33,0.33,0,0,0,.35.32,0.07,0.07,0,0,0,.07-0.07,0.06,0.06,0,0,0-.07-0.07,0.2,0.2,0,0,1-.21-0.19,0.23,0.23,0,0,1,.26-0.24,0.24,0.24,0,0,1,.26.27,1.87,1.87,0,0,1-.32.78,1.81,1.81,0,0,0-.31.75,0.37,0.37,0,0,0,.39.4,0.41,0.41,0,0,0,.3-0.11,0.37,0.37,0,0,0,.1-0.26,0.33,0.33,0,0,0-.35-0.32m-0.86,0a0.07,0.07,0,0,0-.07.06,0.07,0.07,0,0,0,.07.07,0.19,0.19,0,0,1,.21.19,0.22,0.22,0,0,1-.25.24,0.24,0.24,0,0,1-.26-0.27,1.68,1.68,0,0,1,.29-0.69,2,2,0,0,0,.34-0.85,0.37,0.37,0,0,0-.39-0.4,0.4,0.4,0,0,0-.3.11,0.37,0.37,0,0,0-.1.26,0.33,0.33,0,0,0,.35.32,0.07,0.07,0,0,0,.07-0.07,0.07,0.07,0,0,0-.07-0.07,0.19,0.19,0,0,1-.21-0.19,0.22,0.22,0,0,1,.26-0.24,0.24,0.24,0,0,1,.25.27,1.86,1.86,0,0,1-.32.78,1.88,1.88,0,0,0-.3.75,0.37,0.37,0,0,0,.39.4,0.4,0.4,0,0,0,.29-0.11,0.37,0.37,0,0,0,.1-0.26,0.33,0.33,0,0,0-.34-0.32m-0.85,0a0.07,0.07,0,0,0-.07.06,0.06,0.06,0,0,0,.07.07,0.19,0.19,0,0,1,.21.19,0.23,0.23,0,0,1-.26.24,0.23,0.23,0,0,1-.25-0.27,1.68,1.68,0,0,1,.29-0.69,2,2,0,0,0,.34-0.85,0.37,0.37,0,0,0-.39-0.4,0.39,0.39,0,0,0-.29.11,0.34,0.34,0,0,0-.1.26,0.33,0.33,0,0,0,.34.32,0.07,0.07,0,0,0,.07-0.07,0.06,0.06,0,0,0-.07-0.07,0.19,0.19,0,0,1-.2-0.19,0.22,0.22,0,0,1,.25-0.24,0.24,0.24,0,0,1,.26.27,1.86,1.86,0,0,1-.32.78,1.78,1.78,0,0,0-.3.75,0.36,0.36,0,0,0,.39.4,0.4,0.4,0,0,0,.3-0.11,0.37,0.37,0,0,0,.1-0.26,0.33,0.33,0,0,0-.35-0.32m-0.52-1.72h3.51v2.51h-3.51v-2.51Zm5.86-.22a0.17,0.17,0,1,1,0,.33,0.17,0.17,0,1,1,0-.33m-1.63,0a0.17,0.17,0,1,1-.18.17,0.17,0.17,0,0,1,.18-0.17m-5,0a0.17,0.17,0,1,1-.18.17,0.17,0.17,0,0,1,.18-0.17m-1.6,0a0.17,0.17,0,1,1-.18.17,0.17,0.17,0,0,1,.18-0.17m8.2,0.5a0.3,0.3,0,1,0-.31-0.29,0.3,0.3,0,0,0,.31.29m-1.63,0a0.3,0.3,0,1,0,0-.59,0.3,0.3,0,1,0,0,.59m-5,0a0.3,0.3,0,1,0-.32-0.3,0.31,0.31,0,0,0,.32.3m-1.6,0a0.3,0.3,0,1,0-.32-0.3,0.31,0.31,0,0,0,.32.3m7.38-1.13a0.17,0.17,0,1,1-.18.16,0.17,0.17,0,0,1,.18-0.16m-6.59,0a0.17,0.17,0,1,1-.18.17,0.17,0.17,0,0,1,.18-0.17m6.59,0.5a0.3,0.3,0,1,0-.32-0.3,0.31,0.31,0,0,0,.32.3m-6.59,0a0.3,0.3,0,1,0-.32-0.29,0.31,0.31,0,0,0,.32.29m7.4-1.06a0.17,0.17,0,1,1,0,.33,0.17,0.17,0,1,1,0-.33m-1.63,0a0.17,0.17,0,1,1-.18.17,0.17,0.17,0,0,1,.18-0.17m-5,0a0.17,0.17,0,1,1,0,.34,0.17,0.17,0,1,1,0-.34m-1.6,0a0.17,0.17,0,1,1-.18.17,0.17,0.17,0,0,1,.18-0.17m8.2,0.5a0.3,0.3,0,1,0-.31-0.29,0.3,0.3,0,0,0,.31.29m-1.63,0a0.3,0.3,0,1,0,0-.59,0.3,0.3,0,1,0,0,.59m-5,0a0.3,0.3,0,1,0-.32-0.3,0.31,0.31,0,0,0,.32.3m-1.6,0a0.3,0.3,0,1,0-.32-0.3,0.31,0.31,0,0,0,.32.3m6-.85h2.8v3.8h0a0.68,0.68,0,0,1-.41.5,6.64,6.64,0,0,1-1,.45,3.78,3.78,0,0,0-1.44.82V1022Zm-6.59,0h2.8v3.81a0.69,0.69,0,0,1-.41.5,6.75,6.75,0,0,1-1,.45,4,4,0,0,0-1.44.82V1022Zm8.95-1.36,0.39,1.23H554Zm-0.57,1.23H553.1l0.38-1.23Zm-1,0h-0.77l0.38-1.23Zm-4.66,0h-0.77l0.39-1.23Zm-0.95,0h-0.77l0.39-1.23Zm-1,0h-0.77l0.39-1.23Zm8.52-.28-0.37-1.15h0.37v1.15Zm-0.92.1-0.39-1.25h0.79Zm-1,0-0.39-1.26h0.79Zm-0.93-1.26h0.37l-0.37,1.19v-1.19Zm-3.79,1.1-0.34-1.1h0.34v1.1Zm-0.9.15-0.39-1.25h0.79Zm-0.95,0-0.4-1.26h0.79Zm-0.56-1.26-0.39,1.24v-1.24h0.39Zm-9.66,9.66a5.18,5.18,0,0,1-.82-0.31,0.46,0.46,0,0,1,.21-0.17,0.51,0.51,0,0,1,.34,0,0.41,0.41,0,0,1,.27.49m3.33,0a0.39,0.39,0,0,1,0-.27,0.45,0.45,0,0,1,.24-0.23,0.47,0.47,0,0,1,.56.16,6.4,6.4,0,0,1-.82.33m-1,.21a1.47,1.47,0,0,0,.86-1.31,1.39,1.39,0,0,0,0-.24,1.92,1.92,0,0,0,.17.18,1.58,1.58,0,0,0,1.11.43,1.81,1.81,0,0,0,.5-0.07,6.27,6.27,0,0,1-.67.41,0.62,0.62,0,0,0-.74-0.23,0.56,0.56,0,0,0-.34.65,5.48,5.48,0,0,1-.86.17m-1.42,0a5.34,5.34,0,0,1-.78-0.15,0.54,0.54,0,0,0-.35-0.65,0.61,0.61,0,0,0-.44,0,0.55,0.55,0,0,0-.28.23,6.14,6.14,0,0,1-.75-0.45,1.81,1.81,0,0,0,.5.07,1.61,1.61,0,0,0,1.11-.43,1.36,1.36,0,0,0,.17-0.18,1.39,1.39,0,0,0,0,.24,1.44,1.44,0,0,0,.46,1,1.47,1.47,0,0,0,.4.27m0.71-1a0.3,0.3,0,1,1,.33-0.3,0.31,0.31,0,0,1-.33.3m0,0.13a0.43,0.43,0,1,0-.46-0.43,0.45,0.45,0,0,0,.46.43m0,0.39a0.82,0.82,0,1,1,.88-0.82,0.85,0.85,0,0,1-.88.82m0,0.13a1,1,0,1,0-1-1,1,1,0,0,0,1,1m0,0.39a1.34,1.34,0,1,1,1.43-1.34,1.39,1.39,0,0,1-1.43,1.34m2.82-2.14a0.35,0.35,0,0,1-.23-0.08,0.29,0.29,0,0,1,0-.43,0.33,0.33,0,0,1,.23-0.09,0.34,0.34,0,0,1,.23.09,0.29,0.29,0,0,1,0,.43,0.36,0.36,0,0,1-.23.08m-5.64,0a0.36,0.36,0,0,1-.23-0.08,0.31,0.31,0,0,1,0-.43,0.34,0.34,0,0,1,.23-0.09,0.34,0.34,0,0,1,.23.09,0.29,0.29,0,0,1,0,.43,0.36,0.36,0,0,1-.23.08m5.64,0.13a0.47,0.47,0,0,0,.32-0.12,0.42,0.42,0,0,0,0-.62,0.47,0.47,0,0,0-.65,0,0.41,0.41,0,0,0,0,.62,0.47,0.47,0,0,0,.32.12m-5.64,0a0.49,0.49,0,0,0,.32-0.12,0.42,0.42,0,0,0,.14-0.31,0.41,0.41,0,0,0-.14-0.3,0.46,0.46,0,0,0-.32-0.13,0.48,0.48,0,0,0-.33.13,0.43,0.43,0,0,0-.13.3,0.44,0.44,0,0,0,.13.31,0.51,0.51,0,0,0,.33.12m4.09-.19a1.42,1.42,0,0,0-.17-0.18,1.6,1.6,0,0,0-.63-0.36,2.9,2.9,0,0,0,.51-0.14,2.94,2.94,0,0,0,.43-0.22,1.44,1.44,0,0,0-.17.66,1.39,1.39,0,0,0,0,.25m-2.55,0a0.94,0.94,0,0,0,0-.25,1.37,1.37,0,0,0-.17-0.66,3.44,3.44,0,0,0,.44.22,2.73,2.73,0,0,0,.51.14,1.62,1.62,0,0,0-.64.36l-0.17.18m4.1,0.58a0.91,0.91,0,0,1-.62-0.24,0.79,0.79,0,0,1-.26-0.58,0.78,0.78,0,0,1,.26-0.58,0.91,0.91,0,0,1,1.24,0,0.79,0.79,0,0,1,0,1.16,0.9,0.9,0,0,1-.62.24m-5.64,0a0.91,0.91,0,0,1-.62-0.24,0.78,0.78,0,0,1,0-1.16A0.91,0.91,0,0,1,535,1027a0.88,0.88,0,0,1,.61.25,0.79,0.79,0,0,1,.26.58,0.8,0.8,0,0,1-.26.58,0.88,0.88,0,0,1-.61.24m5.64,0.13a1,1,0,0,0,.72-0.28,0.92,0.92,0,0,0,0-1.35,1.07,1.07,0,0,0-1.44,0,0.91,0.91,0,0,0,0,1.35,1,1,0,0,0,.72.28m-5.64,0a1,1,0,0,0,.72-0.28,0.91,0.91,0,0,0,0-1.35,1.07,1.07,0,0,0-.72-0.28,1.06,1.06,0,0,0-.72.28,0.91,0.91,0,0,0,0,1.35,1,1,0,0,0,.72.28m-2-1.22a4.59,4.59,0,0,1-.34-0.77,0.51,0.51,0,0,1,.28,0,0.44,0.44,0,0,1,.24.22,0.41,0.41,0,0,1-.17.53m9.67-.08a0.47,0.47,0,0,1-.19-0.19,0.38,0.38,0,0,1,0-.32,0.45,0.45,0,0,1,.52-0.25,5.1,5.1,0,0,1-.33.77m-2,1.69a1.47,1.47,0,0,1-1-.39,1.28,1.28,0,0,1,0-1.9,1.48,1.48,0,0,1,2,0,1.29,1.29,0,0,1,.42.95,1.31,1.31,0,0,1-.42,1,1.47,1.47,0,0,1-1,.39m-5.64,0a1.48,1.48,0,0,1-1-.39,1.29,1.29,0,0,1,0-1.9,1.49,1.49,0,0,1,1-.4,1.47,1.47,0,0,1,1,.4,1.28,1.28,0,0,1,0,1.9,1.47,1.47,0,0,1-1,.39m7.12-.87a1.33,1.33,0,0,0,.08-0.47,1.42,1.42,0,0,0-.46-1,1.09,1.09,0,0,0-.19-0.16l0.26,0a1.64,1.64,0,0,0,1.11-.43,1.57,1.57,0,0,0,.29-0.38,5.42,5.42,0,0,1-.16.73,0.59,0.59,0,0,0-.69.33,0.51,0.51,0,0,0,0,.41,0.52,0.52,0,0,0,.24.27,5,5,0,0,1-.48.7m-8.61,0a4.64,4.64,0,0,1-.45-0.63,0.54,0.54,0,0,0,.24-0.69,0.61,0.61,0,0,0-.32-0.29,0.64,0.64,0,0,0-.38,0,4.67,4.67,0,0,1-.18-0.82,1.55,1.55,0,0,0,.29.38,1.61,1.61,0,0,0,1.1.43l0.26,0a1.38,1.38,0,0,0-.19.16,1.41,1.41,0,0,0-.46,1,1.31,1.31,0,0,0,.08.47m2.19-1.77a1.62,1.62,0,0,0-.7-0.16l-0.26,0,0.19-.15a1.45,1.45,0,0,0,.38-0.59,2.43,2.43,0,0,0,.16.48,2.36,2.36,0,0,0,.23.4m4.22,0a2,2,0,0,0,.23-0.4,2.31,2.31,0,0,0,.16-0.49,1.4,1.4,0,0,0,.38.6l0.19,0.16-0.26,0a1.67,1.67,0,0,0-.71.16m1.89-1a0.31,0.31,0,1,1,.33-0.3,0.31,0.31,0,0,1-.33.3m-8,0a0.31,0.31,0,1,1,.33-0.3,0.31,0.31,0,0,1-.33.3m8,0.13a0.43,0.43,0,1,0-.46-0.43,0.45,0.45,0,0,0,.46.43m-8,0a0.43,0.43,0,1,0-.46-0.43,0.45,0.45,0,0,0,.46.43m8,0.39a0.82,0.82,0,1,1,.88-0.82,0.85,0.85,0,0,1-.88.82m-8,0a0.82,0.82,0,1,1,.88-0.82,0.85,0.85,0,0,1-.88.82m8,0.13a1,1,0,1,0-1-1,1,1,0,0,0,1,1m-8,0a1,1,0,1,0-1-1,1,1,0,0,0,1,1m6.49-1.4a2.39,2.39,0,0,0-.16-0.48,1.8,1.8,0,0,0-.23-0.4,1.64,1.64,0,0,0,.71.16l0.26,0a1.44,1.44,0,0,0-.2.16,1.38,1.38,0,0,0-.38.59m1.49,1.79a1.34,1.34,0,1,1,1.43-1.34,1.39,1.39,0,0,1-1.43,1.34m-6.49-1.79a1.47,1.47,0,0,0-.38-0.58l-0.2-.16,0.26,0a1.57,1.57,0,0,0,.72-0.16,2.27,2.27,0,0,0-.24.41,2.38,2.38,0,0,0-.16.47m-1.49,1.79a1.34,1.34,0,1,1,1.43-1.34,1.38,1.38,0,0,1-1.43,1.34m-1.19-2.86a4.78,4.78,0,0,1,.33-0.78,0.45,0.45,0,0,1,.19.2,0.42,0.42,0,0,1,0,.32,0.45,0.45,0,0,1-.52.26m10.35-.08a0.45,0.45,0,0,1-.28,0,0.46,0.46,0,0,1-.25-0.23,0.41,0.41,0,0,1,.18-0.52,4.73,4.73,0,0,1,.35.76m-3.74-.38a2.06,2.06,0,0,0-.43-0.22,2.4,2.4,0,0,0-.51-0.14,1.59,1.59,0,0,0,.63-0.36,0.13,0.13,0,1,1,.14.06,1.41,1.41,0,0,0,.17.67m-2.85,0a1.44,1.44,0,0,0,.17-0.67,1.39,1.39,0,0,0,0-.25,1.47,1.47,0,0,0,.17.19,1.61,1.61,0,0,0,.64.36,2.28,2.28,0,0,0-.51.14,2.58,2.58,0,0,0-.44.23m4.25-.37a0.34,0.34,0,0,1-.23-0.09,0.29,0.29,0,0,1,0-.43,0.34,0.34,0,0,1,.23-0.09,0.33,0.33,0,0,1,.23.09,0.29,0.29,0,0,1,0,.43,0.33,0.33,0,0,1-.23.09m-5.64,0a0.33,0.33,0,0,1-.23-0.09,0.29,0.29,0,0,1-.1-0.21,0.3,0.3,0,0,1,.1-0.22,0.33,0.33,0,0,1,.23-0.08,0.31,0.31,0,0,1,.23.08,0.3,0.3,0,0,1,.1.22,0.29,0.29,0,0,1-.1.21,0.31,0.31,0,0,1-.23.09m5.64,0.13a0.46,0.46,0,0,0,.32-0.13,0.41,0.41,0,0,0,0-.61,0.46,0.46,0,0,0-.32-0.13,0.48,0.48,0,0,0-.33.13,0.41,0.41,0,0,0,0,.61,0.48,0.48,0,0,0,.33.13m-5.64,0a0.48,0.48,0,0,0,.33-0.13,0.43,0.43,0,0,0,0-.62,0.51,0.51,0,0,0-.33-0.12,0.47,0.47,0,0,0-.32.12,0.41,0.41,0,0,0,0,.62,0.45,0.45,0,0,0,.32.13m-2.56,1.55a3.83,3.83,0,0,1,.16-0.74h0.14a0.59,0.59,0,0,0,.55-0.34,0.52,0.52,0,0,0,0-.42,0.55,0.55,0,0,0-.25-0.26,4.51,4.51,0,0,1,.48-0.69,1.39,1.39,0,0,0,.39,1.49,1.12,1.12,0,0,0,.2.16l-0.26,0a1.61,1.61,0,0,0-1.1.43,1.33,1.33,0,0,0-.29.38m10.78,0a1.53,1.53,0,0,0-.29-0.37,1.61,1.61,0,0,0-1.11-.43,1.18,1.18,0,0,0-.26,0l0.19-.16a1.41,1.41,0,0,0,.46-1,1.53,1.53,0,0,0-.08-0.47,5.89,5.89,0,0,1,.44.63,0.54,0.54,0,0,0-.24.69,0.55,0.55,0,0,0,.32.29,0.63,0.63,0,0,0,.22,0l0.15,0a5.28,5.28,0,0,1,.19.8m-2.57-1.15a0.9,0.9,0,0,1-.62-0.24,0.79,0.79,0,0,1,0-1.17,0.9,0.9,0,0,1,.62-0.24,0.89,0.89,0,0,1,.61.24,0.78,0.78,0,0,1,0,1.17,0.89,0.89,0,0,1-.61.24m-5.64,0a0.91,0.91,0,0,1-.62-0.25,0.79,0.79,0,0,1,0-1.16,0.93,0.93,0,0,1,1.24,0,0.79,0.79,0,0,1,0,1.16,0.91,0.91,0,0,1-.62.25m5.64,0.13a1,1,0,0,0,.72-0.28,0.91,0.91,0,0,0,0-1.35,1,1,0,0,0-.72-0.28,1,1,0,0,0-.72.28,0.91,0.91,0,0,0,0,1.35,1,1,0,0,0,.72.28m-5.64,0a1.05,1.05,0,0,0,.72-0.28,0.91,0.91,0,0,0,0-1.34,1.07,1.07,0,0,0-1.44,0,0.91,0.91,0,0,0,0,1.34,1,1,0,0,0,.72.28m5.64,0.39a1.48,1.48,0,0,1-1-.4,1.29,1.29,0,0,1,0-1.89,1.49,1.49,0,0,1,2,0,1.29,1.29,0,0,1,0,1.89,1.47,1.47,0,0,1-1,.4m-5.64,0a1.47,1.47,0,0,1-1-.39,1.28,1.28,0,0,1,0-1.9,1.5,1.5,0,0,1,2,0,1.28,1.28,0,0,1,0,1.9,1.47,1.47,0,0,1-1,.39m2.82-2.13a0.31,0.31,0,1,1,.33-0.3,0.31,0.31,0,0,1-.33.3m0,0.13a0.43,0.43,0,1,0-.46-0.43,0.45,0.45,0,0,0,.46.43m0,0.39a0.82,0.82,0,1,1,.88-0.82,0.85,0.85,0,0,1-.88.82m0,0.13a1,1,0,1,0-1-1,1,1,0,0,0,1,1m1.93-1.55a0.46,0.46,0,0,1-.25-0.23,0.4,0.4,0,0,1,0-.28,5.66,5.66,0,0,1,.83.32,0.47,0.47,0,0,1-.56.19m-3.85,0a0.47,0.47,0,0,1-.58-0.19,6.42,6.42,0,0,1,.83-0.32,0.37,0.37,0,0,1,0,.28,0.42,0.42,0,0,1-.24.23m3.47,0.83a1.39,1.39,0,0,0,0-.24,1.42,1.42,0,0,0-.46-1,1.61,1.61,0,0,0-.39-0.27,5.93,5.93,0,0,1,.82.16,0.51,0.51,0,0,0,0,.38,0.55,0.55,0,0,0,.32.29,0.65,0.65,0,0,0,.22,0,0.59,0.59,0,0,0,.51-0.28l0.21,0.12a4.86,4.86,0,0,1,.5.32,1.58,1.58,0,0,0-.5-0.08,1.62,1.62,0,0,0-1.11.43l-0.16.17m-3.09,0a1.41,1.41,0,0,0-.17-0.19,1.61,1.61,0,0,0-1.11-.43,1.49,1.49,0,0,0-.48.07,5.15,5.15,0,0,1,.45-0.29l0.24-.13a0.62,0.62,0,0,0,.76.25,0.54,0.54,0,0,0,.32-0.67,5.83,5.83,0,0,1,.83-0.16,1.65,1.65,0,0,0-.4.27,1.44,1.44,0,0,0-.46,1,1.46,1.46,0,0,0,0,.25m1.55,1.09a1.34,1.34,0,1,1,1.43-1.34,1.39,1.39,0,0,1-1.43,1.34m-9.79,6.87h0.6v0.3a6.18,6.18,0,0,1-.6.15v-0.45Zm-0.75,0h0.61v0.47a5.53,5.53,0,0,1-.61.08v-0.55Zm-1.32.6v-0.6h0.6v0.6H526Zm-0.74-.6h0.6v0.6l-0.6,0v-0.57Zm-1.33,0h0.61v0.5l-0.61-.1v-0.4Zm-0.74,0h0.6V1030c-0.2-.05-0.41-0.12-0.6-0.19v-0.17Zm6.45-.16-0.26.16V1029h0.81a2.3,2.3,0,0,1-.55.53m-1,0h-1.35V1029h1.35v0.56Zm-2.07,0h-1.34V1029h1.34v0.56Zm-2.06,0h-1.35V1029h1.35v0.56Zm-2.07-.56v0.55a5.74,5.74,0,0,1-.84-0.55h0.84Zm0-.13h-0.72l0.72-.69v0.69Zm4.12-1v1H526v-1h0.6m-0.74,1h-0.6v-1c0.18,0,.38,0,0.6,0v1Zm0.88,1.41v-2.42a3.44,3.44,0,0,0,.45-0.08v2.47l-0.45,0m-2.06-2.5,0.44,0.06v2.41l-0.44,0v-2.43Zm-2.07.27,0.44-.43v2.19l-0.44-.19V1028Zm7.67,0.82h-0.17v-1.26h0.57a2.72,2.72,0,0,1-.41,1.26m-0.91-1.26H530v1.26h-0.6v-1.26Zm-0.72,1.26h-0.6v-1.26h0.6v1.26Zm-1.08-1.26h0.35v1.26h-0.61v-1.13a1,1,0,0,0,.26-0.13m-3,1.26h-0.61v-1.26h0.2a2.23,2.23,0,0,0,.41.14v1.12Zm-0.75,0h-0.6v-1.26h0.6v1.26Zm-0.28-1.68a3,3,0,0,0,.37.29h-0.68Zm7.19,0.29h-1.33v-0.57h1.32c0,0.08,0,.17,0,0.26s0,0.21,0,.31m-2.83-.42a1,1,0,0,0,0-.15h0.8v0.57h-0.93a0.64,0.64,0,0,0,.15-0.42m2.81-.27h-0.57v-1.19a2,2,0,0,1,.57,1.19m-2.62-1.26h0.6v1.26h-0.6v-1.26Zm-0.75.87v-0.87h0.61v1.26h-0.1a0.72,0.72,0,0,0-.51-0.39m-1.32-.87h0.6v0.81H526v-0.81Zm-0.74,0h0.6v0.81h-0.6v-0.81Zm-1.08,0h0.37v0.81h-0.37v-0.81Zm5.39-.34a2,2,0,0,1,.42.29v1.32h-0.6v-1.61h0.18Zm-0.9.21h-1.35v-0.56h1.35v0.56Zm-2.07,0h-1.34v-0.56h1.34v0.56Zm-2.42-.56h0.37v0.56h-0.37v-0.56Zm2.42-.13H526V1024h0.6v0.69Zm-0.74,0h-0.6V1024h0.6v0.69Zm-1.18-.69h0.44v2.33h-0.44V1024Zm-0.14.69h-0.37V1024h0.37v0.69Zm2.2-.69a2.06,2.06,0,0,0,.45-0.06v2.42a2.89,2.89,0,0,0-.45,0V1024Zm3.38-.57h0.38a2.12,2.12,0,0,1-.38,1.07v-1.07Zm-0.57,1.61h-0.17v-1.61H530v1.24a1.84,1.84,0,0,1-.44.38m-0.88-.35h-0.6v-1.26h0.6v1.26Zm-1-1.26h0.23v1.26h-0.61v-0.8a0.59,0.59,0,0,0,.37-0.47m-4.21-.16-0.28-.29v-0.21h1.09a2.33,2.33,0,0,0-.81.5m3.84-.53h1.35v0.56h-1a0.57,0.57,0,0,0-.38-0.56m3.18,0a3.5,3.5,0,0,1,0,.37,1.77,1.77,0,0,1,0,.19h-1.13v-0.56h1.11Zm-0.37-1.15a2.54,2.54,0,0,1,.36,1h-0.36v-1Zm-2.06-.25h0.6v1.26h-0.6v-1.26Zm-0.75,0h0.61v1.26h-0.61v-1.26Zm-1.32,1.22v-1.22h0.6v1.24l-0.6,0m-0.74-1.22h0.6v1.22l-0.6,0v-1.24Zm-1.33,0h0.61v1.3h-0.61v-1.3Zm-0.74,0h0.6v1.3h-0.6v-1.3Zm-1.46,0h0.74v0.91l-0.82-.85Zm0.74-.13h-0.56a5.11,5.11,0,0,1,.56-0.34v0.34Zm7.51,0.18v1.21h-0.6v-1.76a2.35,2.35,0,0,1,.6.54m-2.67-.74h1.35v0.56h-1.35v-0.56Zm-2.06,0h1.34v0.56h-1.34v-0.56Zm-0.72.56h-1.35v-0.56h1.35v0.56Zm-1.48,1.64-0.44-.46v-1.59l0.44-.2v2.25Zm5.75,7.08v-9.38a3.6,3.6,0,0,1,.45.22v9h0a3,3,0,0,1-.49.21m-4.26-9.41h-1.24a6.83,6.83,0,0,1,1.24-.28v0.28Zm4.12,0h-1.35v-0.3a5.1,5.1,0,0,1,1.35.3m-4,2.12v-2.42l0.44,0v2.42l-0.44,0m2.06-.05v-2.43l0.45,0v2.49a2.22,2.22,0,0,0-.45-0.1m-0.14-2.44v0.36H526v-0.37h0.6m-0.74.36h-0.6v-0.34l0.6,0v0.37ZM519,1030h0.59v-1l-0.59-.51V1030Zm-1.47,0h0.59v-1l-0.59-.51V1030Zm-3,0h0.61v-1l-0.61-.51V1030Zm-1.47,0h0.6v-1l-0.6-.51V1030Zm-0.62,0h0.48v-1.54l-0.48.41V1030Zm5.78,0h0.6v-1.55l-0.6.52v1Zm-1.48,0h0.61v-1.55l-0.61.52v1Zm-0.73,0h0.59v-1l-0.59-.51V1030Zm-0.73,0h0.59v-1.55l-0.59.51v1Zm-1.48,0h0.59v-1.55l-0.59.51v1Zm5.89,0h0.66v-1.59l-0.66.56v1Zm-7.25-2.08v0.77l0.46-.38Zm7.19-.16-0.64.54,0.64,0.54,0.64-.54Zm-1.48,0-0.64.54,0.64,0.54,0.64-.54Zm-1.47,0-0.64.54,0.64,0.54,0.64-.54Zm-1.48,0-0.64.54,0.64,0.54,0.64-.54Zm-1.48,0-0.64.54,0.64,0.54,0.64-.54Zm6-.07,0.6,0.51v-0.51h-0.6Zm-1.48,0,0.61,0.52,0.61-.52h-1.23Zm-1.47,0,0.61,0.52,0.61-.52h-1.22Zm-1.48,0,0.61,0.52,0.61-.52h-1.22Zm-0.21,0h0v0Zm-2.68.08,0.48,0.41v-1l-0.48-.41v1Zm2.09-.61v1l0.58-.49v-1Zm-1.47,1,0.6-.51v-1l-0.6.51v1Zm0.74-.51,0.59,0.51v-1l-0.59-.51v1Zm4.56-1.26h1.08l-0.54-.46Zm-1.48,0H518l-0.54-.46Zm-1.48,0h1.08l-0.54-.46Zm-0.93-.46-0.64.54,0.64,0.54,0.64-.54Zm-1.48,0-0.55.47v0.14L513,1027l0.64-.54Zm0-.14,0.69,0.59,0.69-.59a0.09,0.09,0,0,1,.1,0l0.69,0.59,0.69-.59a0.08,0.08,0,0,1,.09,0l0.69,0.59,0.69-.59a0.09,0.09,0,0,1,.1,0l0.69,0.59,0.69-.59a0.09,0.09,0,0,1,.1,0l0.65,0.56v-0.43h0l-0.69-.59-0.69.59,0,0,0,0-0.69-.59-0.69.59,0,0,0,0-0.69-.59-0.69.59,0,0,0,0-0.69-.59-0.69.59,0,0,0,0-0.69-.58-0.55.47v0.43l0.5-.43a0.09,0.09,0,0,1,.1,0m-0.6-1v0.78l0.46-.39Zm7.16-.12-0.6.51,0.6,0.51v-1Zm-2.08.51,0.64,0.54,0.64-.54-0.64-.54Zm-1.47,0,0.64,0.54,0.64-.54-0.64-.54Zm-1.48,0,0.64,0.54,0.64-.54-0.64-.54Zm-1.48,0,0.64,0.54,0.64-.54-0.64-.54Zm6.33-1.15h-1.06l0.52,0.45Zm-1.48,0H516.9l0.53,0.45Zm-1.48,0h-1.05l0.53,0.45Zm-2.78.47a0.08,0.08,0,0,1,.09,0l0.69,0.59,0.69-.59a0.09,0.09,0,0,1,.1,0l0.69,0.59,0.69-.59a0.08,0.08,0,0,1,.09,0l0.69,0.59,0.69-.59a0.09,0.09,0,0,1,.1,0l0.69,0.59,0.7-.6v-0.44l-0.66.56h-0.09l-0.69-.59h0l-0.69.59h-0.09l-0.69-.59h0l-0.68.59h-0.1l-0.68-.59h0l-0.68.59h-0.09l-0.7-.59-0.69.59H513l-0.5-.43v0.43l0.55,0.47Zm0.78,0,0.64-.54-0.64-.54-0.64.54Zm-0.84-.54-0.64-.54-0.55.47V1024l0.55,0.47Zm1.48-1.26v0l0.07,0.06Zm0,0-0.57-.48v1.06l0.57,0.49v-1.07Zm-1.45,0-0.6-.51v1.06l0.6,0.51v-1.06Zm-0.74-.51-0.48.41v1.06l0.48-.41v-1.06Zm0.88,0.5v1.07l0.61-.52v-1.07Zm6.52-.05v-0.47l-0.55.47h0.55Zm-0.83,0-0.6-.51-0.6.51h1.2Zm-1.48,0-0.6-.51-0.6.51H518Zm-1.47,0-0.6-.51-0.6.51h1.2Zm-4.1-1v0.77l0.46-.39Zm7.19,0.93,0.64-.54-0.64-.54-0.64.54Zm-1.48,0,0.64-.54-0.64-.54-0.64.54Zm-1.47,0,0.64-.54-0.64-.54-0.64.54Zm-1.48,0,0.64-.54-0.64-.54-0.64.54Zm-1.48,0,0.64-.54-0.64-.54-0.64.54Zm6.6-2.25h-0.63v1l0.63,0.54v-1.58Zm-0.77,0H519V1022l0.59-.51v-1.06Zm-0.73,0h-0.6v1l0.6,0.51v-1.56Zm-0.74,0H517.5v1.55l0.59-.51v-1Zm-0.73,0h-0.61v1l0.61,0.52v-1.57Zm-0.75,0H516V1022l0.59-.51v-1Zm-0.73,0h-0.59v1l0.59,0.51v-1.56Zm-0.73,0h-0.59v1.55l0.59-.51v-1Zm-0.73,0h-0.61v1l0.61,0.52v-1.57Zm-0.75,0h-0.6v1.55l0.6-.51v-1Zm-0.74,0h-0.48v1.15l0.48,0.41v-1.55Zm-6.64,9.88,0.47-.23,0.48,0.24-0.44,0a4.49,4.49,0,0,1-.51,0m0.43-.37-0.69.34a5.49,5.49,0,0,1-.72-0.14l1.44-.73,1.47,0.74a5.81,5.81,0,0,1-.73.14l-0.7-.36a0.07,0.07,0,0,0-.07,0m0.07-.67a0.06,0.06,0,0,0-.07,0l-1.61.81a4.37,4.37,0,0,1-.58-0.21l2.22-1.12,2.26,1.15c-0.19.08-.39,0.15-0.59,0.21Zm3.45-.08-0.15-.81,0.53,0.5a4.17,4.17,0,0,1-.37.31m-3.45-.58a0.06,0.06,0,0,0-.07,0l-2.35,1.19c-0.17-.08-0.33-0.17-0.5-0.27l2.89-1.44,2.92,1.48c-0.16.09-.33,0.18-0.49,0.26Zm1.65-1.5,0.08,0.38-0.37-.19a2.21,2.21,0,0,0,.29-0.19m-3.34,0a2.88,2.88,0,0,0,.29.21l-0.36.18Zm3.49-.08,0.55,0.51,0.21,1.08-1.93-1a2.67,2.67,0,0,0,.59-0.21l0.57,0.29c0.06,0,.12,0,0.11-0.07l-0.12-.61Zm-3.74.59c0,0.07,0,.1.11,0.07l0.57-.28a2.78,2.78,0,0,0,.59.23l-1.93,1,0.39-2.05a2.36,2.36,0,0,0,.39.47Zm-3-.82-0.1.49a5.29,5.29,0,0,1-.3-0.84Zm0.15,0a0.06,0.06,0,0,0,0-.07l-0.57-.51a4.66,4.66,0,0,1-.09-0.69l1.2,1.06-0.3,1.51a6.59,6.59,0,0,1-.36-0.59Zm0.66-.21a0.06,0.06,0,0,0,0-.06l-1.17-1.06-0.15-.13v-0.07a4.49,4.49,0,0,1,0-.52l1.83,1.64-0.45,2.33a4.87,4.87,0,0,1-.39-0.45Zm1.68-2.21a2.05,2.05,0,0,0-.12.34l-0.31-.28Zm-1.49,4.46,0.48-2.46a0.06,0.06,0,0,0,0-.07l-1.94-1.74a4.77,4.77,0,0,1,.11-0.52l2.36,2.12-0.58,3c-0.14-.11-0.28-0.23-0.41-0.36m1.56-4.61-0.66.09a0.06,0.06,0,0,0,0,.12l0.48,0.44a2.57,2.57,0,0,0,0,.4c0,0.07,0,.14,0,0.21l-1.61-1.45,2.18-.3a2.41,2.41,0,0,0-.33.49m2.13-1.38,0.17-.32,0.16,0.31a1.76,1.76,0,0,0-.32,0m0.5,0-0.27-.51a0.07,0.07,0,0,0-.13,0l-0.27.52a2.57,2.57,0,0,0-.62.16l1-1.81,0.94,1.77a2.7,2.7,0,0,0-.61-0.13m-3.38-1.45-0.52.07a4.81,4.81,0,0,1,.77-0.54Zm6.71,0.07-0.59-.08-0.28-.51a5.22,5.22,0,0,1,.86.6m-7.42.17,0.77-.1a0.06,0.06,0,0,0,.06,0l0.36-.69a6.37,6.37,0,0,1,.69-0.3l-0.75,1.42-1.62.22a5.78,5.78,0,0,1,.49-0.51m5.64-1.17a5,5,0,0,1,.7.29l0.38,0.73a0.07,0.07,0,0,0,.06,0l0.79,0.11-0.41.4-0.73-.1Zm-6.25,1.83,1.8-.25a0.06,0.06,0,0,0,.06,0l0.84-1.59a5,5,0,0,1,.61-0.16l-0.18.34-1,1.83-2.49.34c0.1-.17.21-0.33,0.33-0.49m6.06-1.89,0.85,1.6h0a0.06,0.06,0,0,0,0,0l0.67,0.1-0.41.4-0.3,0-0.33,0-1.15-2.16v0a4.93,4.93,0,0,1,.61.15m-6.47,2.53,2.64-.36a0.06,0.06,0,0,0,.06,0l1.21-2.3a5.52,5.52,0,0,1,.57-0.07l-1.47,2.8-3.23.44a4.58,4.58,0,0,1,.24-0.49m5.68-2.71,1.21,2.29a0.12,0.12,0,0,0,.12.07l0.51,0.07-0.41.4-0.5-.07-1.48-2.8a5.67,5.67,0,0,1,.57.05m-3.62,6a0.07,0.07,0,0,0,0-.08l-2.44-2.2c0-.11.07-0.22,0.11-0.33L505,1023a0.06,0.06,0,0,0,.06,0l1.53-2.9h0.31l1.53,2.9a0.1,0.1,0,0,0,.06,0l0.44,0.06-0.35.34a2.67,2.67,0,0,0-.7-0.44l-1.08-2a0.08,0.08,0,0,0-.13,0l-1.1,2.1a2.49,2.49,0,0,0-.66.46l-2.49.34a0.07,0.07,0,0,0,0,.12l1.84,1.66a2.24,2.24,0,0,0,.23.65l-0.45,2.36c0,0.08,0,.11.11,0.07l2.21-1.1a2.68,2.68,0,0,0,.46,0,2.47,2.47,0,0,0,.39,0l2.22,1.13c0.07,0,.12,0,0.11-0.07l-0.2-1,0.59,0.54,0.2,1.07-0.29.19-3-1.53a0.07,0.07,0,0,0-.07,0l-3,1.5-0.3-.21Z" transform="translate(-456.84 -1006.6)" style="fill:#fff"/><path d="M569.87,1016.49h0.59v-1l-0.59-.5v1.54Zm-1.47,0H569v-1l-0.59-.5v1.54Zm-3,0h0.61v-1l-0.61-.51v1.54Zm-1.47,0h0.6v-1l-0.6-.51v1.54Zm-0.62,0h0.48v-1.54l-0.48.41v1.13Zm5.78,0h0.6v-1.55l-0.6.52v1Zm-1.48,0h0.61v-1.55l-0.61.52v1Zm-0.73,0h0.59v-1l-0.59-.51v1.55Zm-0.73,0h0.59v-1.55l-0.59.51v1Zm-1.48,0h0.59v-1.55l-0.59.51v1Zm5.89,0h0.66v-1.59l-0.66.56v1Zm-7.25-2.08v0.77l0.46-.38Zm7.19-.16-0.64.54,0.64,0.54,0.64-.54Zm-1.48,0-0.64.54,0.64,0.54,0.64-.54Zm-1.47,0-0.64.54,0.64,0.54,0.64-.54Zm-1.48,0-0.64.54,0.64,0.54,0.64-.54Zm-1.48,0-0.64.54,0.64,0.54,0.64-.54Zm6-.07,0.6,0.51v-0.51h-0.6Zm-1.48,0,0.61,0.53,0.61-.53h-1.23Zm-1.47,0,0.61,0.53,0.61-.53h-1.22Zm-1.48,0,0.61,0.53,0.61-.53h-1.22Zm-0.21,0h0v0Zm-2.68.08,0.48,0.41v-1l-0.48-.41v1Zm2.09-.61v1l0.58-.49v-1Zm-1.47,1,0.6-.51v-1l-0.6.51v1Zm0.74-.51,0.59,0.51v-1l-0.59-.51v1Zm4.56-1.26h1.08l-0.54-.46Zm-1.48,0h1.08l-0.54-.46Zm-1.48,0h1.08l-0.54-.46Zm-0.93-.46-0.64.54,0.64,0.54L566,1013Zm-1.48,0-0.55.47V1013l0.55,0.47,0.64-.54Zm0-.14,0.69,0.59,0.69-.59a0.09,0.09,0,0,1,.1,0l0.69,0.59,0.69-.59a0.08,0.08,0,0,1,.09,0l0.69,0.59,0.69-.59a0.09,0.09,0,0,1,.1,0l0.69,0.59,0.69-.59a0.09,0.09,0,0,1,.1,0l0.65,0.56v-0.43h0l-0.69-.59-0.69.59,0,0,0,0-0.69-.59-0.69.59,0,0,0,0-0.69-.59-0.69.59,0,0,0,0-0.69-.59-0.69.59,0,0,0,0-0.69-.58-0.55.47v0.43l0.5-.43a0.09,0.09,0,0,1,.1,0m-0.6-1v0.78l0.46-.39Zm7.16-.12-0.6.51,0.6,0.51v-1Zm-2.08.51,0.64,0.54,0.64-.54-0.64-.54Zm-1.47,0,0.64,0.54,0.64-.54-0.64-.54Zm-1.48,0,0.64,0.54,0.64-.54-0.64-.54Zm-1.48,0,0.64,0.54,0.64-.54-0.64-.54Zm6.33-1.15h-1.06l0.53,0.45Zm-1.48,0H567.8l0.53,0.45Zm-1.48,0h-1.05l0.53,0.45Zm-2.78.47a0.08,0.08,0,0,1,.09,0l0.69,0.59,0.69-.59a0.09,0.09,0,0,1,.1,0l0.69,0.59,0.69-.59a0.08,0.08,0,0,1,.09,0l0.69,0.59L569,1011a0.09,0.09,0,0,1,.1,0l0.69,0.59,0.7-.6v-0.44l-0.66.56h-0.09l-0.69-.59h0l-0.69.59h-0.09l-0.69-.59h0l-0.68.59h-0.1l-0.68-.59h0l-0.68.59h-0.09l-0.7-.59-0.69.59h-0.09l-0.5-.43v0.43l0.55,0.47Zm0.78,0,0.64-.54-0.64-.54-0.64.54Zm-0.84-.54-0.64-.54-0.55.47v0.14l0.55,0.47Zm1.48-1.26v0l0.07,0.06Zm0,0-0.57-.48v1.06l0.57,0.49v-1.07Zm-1.45,0-0.6-.51v1.06l0.6,0.51v-1.06Zm-0.74-.51-0.48.41v1.06l0.48-.41v-1.06Zm0.88,0.5v1.07l0.61-.52v-1.07Zm6.52-.05v-0.47l-0.55.47h0.55Zm-0.83,0-0.6-.51-0.6.51h1.2Zm-1.48,0-0.6-.51-0.6.51h1.2Zm-1.47,0-0.6-.51-0.6.51h1.2Zm-4.1-1V1009l0.46-.39Zm7.19,0.93,0.64-.54-0.64-.54-0.64.54Zm-1.48,0,0.64-.54-0.64-.54-0.64.54Zm-1.47,0,0.64-.54-0.64-.54-0.64.54Zm-1.48,0,0.64-.54-0.64-.54-0.64.54Zm-1.48,0,0.64-.54-0.64-.54-0.64.54Zm6.6-2.25H570.6v1l0.63,0.54v-1.58Zm-0.77,0h-0.59v1.56l0.59-.51v-1.06Zm-0.73,0h-0.6v1l0.6,0.51v-1.56Zm-0.74,0H568.4v1.55l0.59-.5v-1Zm-0.73,0h-0.61v1l0.61,0.53v-1.57Zm-0.75,0h-0.59v1.56l0.59-.51v-1Zm-0.73,0h-0.59v1l0.59,0.51v-1.56Zm-0.73,0h-0.59v1.55l0.59-.51v-1Zm-0.73,0h-0.61v1l0.61,0.52v-1.57Zm-0.75,0H564v1.55l0.6-.51v-1Zm-0.74,0h-0.48V1008l0.48,0.41v-1.55Zm-6,9.16h2.8v0.42h-2.8v-0.42Zm-3.85.42H551.1v-0.42h3.12Zm3.85-1h2.8v0.42h-2.8v-0.42Zm-3.49.42h-3.2v-0.42h3.48Zm3.49-1h2.8v0.42h-2.8V1015Zm-3.12.42H551.1V1015H555Zm5.33-1h-0.45v-0.43H560v0.43Zm-1.62-.43h0.45v0.43h-0.45v-0.43Zm-3,.43h-0.14v-0.43h0.42Zm-1.31-.43h0.45v0.43H554v-0.43Zm-1.18,0h0.45v0.43h-0.45v-0.43Zm-1.17,0h0.45v0.43h-0.45v-0.43Zm7.72,0.56h0.73v-0.69h-0.73v0.69Zm-1.17,0H559v-0.69h-0.73v0.69Zm-4.33,0h0.73v-0.69h-0.73v0.69Zm-1.18,0h0.73v-0.69h-0.73v0.69Zm-1.17,0h0.73v-0.69h-0.73v0.69Zm6.24-1h2.8v1.37h-2.8v-1.37Zm-2.06.34h-0.65v0.69h0.19l-0.23.34H551.1v-1.37H556Zm-1-.47,0.37-.56,0.37,0.56h-0.75Zm1.27,0h-0.37l-0.53-.81-0.53.81h-0.49l1-1.55,1,1.46Zm4-.54h-0.45v-1.3a0.21,0.21,0,0,1,.22-0.21,0.22,0.22,0,0,1,.23.21v1.3Zm-1.17,0h-0.45v-1.3a0.21,0.21,0,0,1,.22-0.21,0.22,0.22,0,0,1,.23.21v1.3Zm-5.51,0h-0.45v-1.3a0.22,0.22,0,0,1,.23-0.21,0.21,0.21,0,0,1,.22.21v1.3Zm-1.62,0v-1.3a0.22,0.22,0,0,1,.23-0.21,0.21,0.21,0,0,1,.22.21v1.3h-0.45Zm8.08-1.64a0.35,0.35,0,0,0-.36.34v1.43h0.73v-1.43a0.35,0.35,0,0,0-.37-0.34m-1.17,0a0.35,0.35,0,0,0-.36.34v1.43H559v-1.43a0.35,0.35,0,0,0-.37-0.34m-5.5,0a0.35,0.35,0,0,0-.37.34v1.43h0.73v-1.43a0.35,0.35,0,0,0-.36-0.34m-1.17,0a0.35,0.35,0,0,0-.37.34v1.43h0.73v-1.43a0.35,0.35,0,0,0-.36-0.34m3.23-.38,1.3,2-0.26.39-1-1.58-1.11,1.68v-0.8Zm5.44,2.56h-2.8v-1.94h0a0.79,0.79,0,0,1,.81-0.76,0.84,0.84,0,0,1,.54.19l0,0,0,0a0.84,0.84,0,0,1,.54-0.19,0.79,0.79,0,0,1,.81.76h0v1.94Zm-9.48-1.94h0a0.79,0.79,0,0,1,.82-0.76,0.84,0.84,0,0,1,.54.19l0,0,0,0a0.84,0.84,0,0,1,.54-0.19,0.79,0.79,0,0,1,.81.76v1.95h-2.8v-1.94Zm5.43,1.22-1.3-2,0.26-.38,1.05,1.59,1.11-1.68V1011Zm3.24-2.12a1,1,0,0,1-1.17,0,1,1,0,0,0-.81.43v-0.87h2.8v0.87a1,1,0,0,0-.81-0.43m-2.86-.43-0.37.56-0.37-.56h0.75Zm-1.28,0H556l0.53,0.81,0.53-.81h0.49l-1,1.55-1-1.46Zm-4.52,0h2.8v0.87a1,1,0,0,0-.81-0.43,1,1,0,0,1-1.17,0,1,1,0,0,0-.82.43v-0.87Zm4.95-.62,0.21,0.21,0.48-.49,0.49,0.49,0.49-.49,0.49,0.49,0.49-.49,0.48,0.49,0.49-.49,0.48,0.49,0.43-.43v0.71h-4.87Zm-2.14.49h-2.8v-0.71l0.43,0.43,0.49-.49,0.48,0.49,0.48-.49,0.49,0.49,0.43-.43v0.71Zm2.65-1.25h4V1009l-0.43.43-0.48-.5-0.49.5-0.48-.5-0.49.5-0.49-.5-0.49.5-0.49-.5-0.48.5-0.13-.14Zm-2.65,0V1009l-0.43.43L553,1009l-0.48.5L552,1009l-0.49.5-0.43-.43v-0.34h2.8Zm5.8-.13h-1.05l0.53-.62Zm-6.68,0h-1l0.52-.62Zm4.06-.66,0.55,0.66h-1Zm3.49,0.62-0.75-.9h0.75v0.9Zm-3.31-.9h1.26l-0.75.9-0.61-.73Zm-4.12,0h0.75v0.9Zm-2.05,0h0.75l-0.75.9v-0.9Zm9.35,0.95h-0.56l-0.7-.82-0.7.82h-0.56l1.26-1.52Zm-7.24,0h0l-0.7-.82-0.7.82h-0.57l1.26-1.52,1.26,1.52h-0.56Zm7.38-1.07h-0.86l-0.48-.58h1.34v0.58Zm-2.83-.58h1.37l-0.48.58h-1.27Zm-3.85.58h-0.86l-0.48-.58h1.34v0.58Zm-1.46-.58-0.48.58H551.1v-0.58h1.34Zm-4.74,9.59,0.15-.27,0.14,0.27h-0.28Zm-5.85,0v-0.09l0.51-.47v0.56h-0.5Zm-2.33-.56,0.51,0.47v0.09h-0.5v-0.56Zm6.37,0.23-0.2-.3,0.46,0.07Zm-5.56-.23,0.41-.06,0.19-.36,0.19,0.36,0.42,0.06-0.3.28,0,0.28h-0.71l0.06-.28Zm7.81,0.56-0.3-.56-0.3.56h-1.09l0-.09,0.67-.61,0.74-.37,0.73,0.36,0.82,0.68v0h-1.26Zm-6.43,0h-0.28l0-.23,0.46-.41-0.63-.08-0.28-.54-0.28.54-0.62.08,0.45,0.41,0,0.23h-0.28l0-.14-0.66-.6v-0.1l0.95-.13,0.47-.88,0.46,0.88,0.95,0.13v0.1l-0.66.6Zm5.53-2.15,0.42-.05,0.14-.28,0.38,0.58,0,0,0.07,0.4-0.37-.19-0.38.19,0.08-.4Zm-2.07.72-0.48-.75,0.1-.08,0.76-.38,0.77,0.38,0.64,0.59-0.13.69-0.73-.1-0.55-1.06Zm-2.82.47-0.86-.12-0.55-1.06-0.56,1.06-0.86.12v-0.71l0.65-.6,0.77-.38,0.75,0.37,0.66,0.61v0.7Zm-2.82-2.76,0.51,0.47-0.12.69-0.39-.05v-1.1Zm7.94,0.73-0.17.33-0.73.1-0.12-.69,0.54-.49Zm-1.92-.24-0.37.19,0.07-.4-0.3-.28,0.42-.06,0.19-.36,0.19,0.36,0.42,0.06-0.3.28,0.07,0.4Zm-4.3-.21,0.07,0.4-0.37-.19-0.38.19,0.08-.4-0.3-.28,0.41-.06,0.19-.36,0.19,0.36,0.42,0.06Zm2.49-.12h-1.32a0.07,0.07,0,0,0-.07.07v0.88l-0.39.05-0.12-.69,0.68-.61,0.72-.36,0.73,0.36,0.67,0.61-0.17.74-0.66-1a0.07,0.07,0,0,0-.06,0m2.71-.25-0.63-.08-0.28-.53-0.28.53-0.62.08,0.45,0.41-0.1.58,0.56-.27,0.56,0.27-0.11-.58Zm-5.51-.61-0.28.53-0.62.08,0.45,0.41-0.1.58,0.56-.27,0.56,0.27-0.11-.58,0.46-.41-0.63-.08Zm2.29-.4-0.37.18,0.07-.39-0.3-.28,0.42-.06,0.19-.36,0.19,0.36,0.42,0.06-0.3.28,0.08,0.39Zm3.05,0,0.42,0.65-0.61-.08-0.55-1.06-0.56,1.06-0.72.1-0.12-.7,0.64-.58,0.77-.38,0.77,0.38,0.2,0.18-0.23.36a0.06,0.06,0,0,0,0,.07m-6.76,0,0.64-.58,0.77-.38,0.75,0.37,0.64,0.59-0.12.69-0.72-.1-0.55-1.06-0.56,1.06-0.86.12v-0.71Zm4.61-.56-0.62-.08-0.28-.53L543,1011l-0.63.08,0.46,0.41-0.11.58,0.56-.28,0.56,0.28-0.1-.58Zm-0.42-.67a0.07,0.07,0,0,0,.06,0l0.44-.69,0.42,0.38-0.12.68-0.73-.1-0.13-.24h0.06Zm-0.91,0-0.12.24-0.72.1-0.12-.68,0.51-.47v0.74a0.07,0.07,0,0,0,.07.07h0.39Zm-3.28-.81,0.51,0.47-0.12.68-0.39-.05v-1.09Zm5.41,0,0.42-.06,0.19-.36,0.19,0.36,0.42,0.06-0.3.28,0.07,0.4-0.37-.19-0.37.19,0.07-.4Zm-4,.49-0.38.19,0.08-.4-0.3-.28,0.41-.06,0.19-.36,0.19,0.36,0.42,0.06-0.3.28,0.07,0.4Zm5.92,0.62-0.3,0-0.12-.68,0.67-.61,0.74-.36h0Zm-1.88-.2,0.56-.27,0.56,0.27-0.11-.58,0.46-.41-0.63-.08-0.28-.53-0.28.53-0.62.08,0.45,0.41Zm-3.14-1-0.63-.08-0.28-.53-0.28.53-0.62.08,0.45,0.41-0.1.58,0.56-.27,0.56,0.27-0.11-.58Zm3.74-1.95,0.78,0.39,0.59,0.53-0.13.69-0.73-.1-0.55-1.06-0.56,1.06-0.41.06Zm-6.06.93,0.59-.54,0.82-.4,0.8,0.4,0.61,0.56v0.71l-0.86-.12-0.55-1.06-0.56,1.06-0.86.12v-0.71Zm8.62,0.21-0.3-.14-0.43.21,0.08-.45-0.35-.32,0.48-.07,0.21-.41,0.21,0.41,0.52,0.07Zm0.73-1.14-0.48-.07-0.31-.59h1.21Zm-1.28-.65-0.31.59-0.73.1-0.12-.69h1.16Zm-5.25.63-0.39.05-0.12-.65,0,0h0.48v0.63Zm-1-.33-0.43-.21-0.43.21,0.06-.3h0.74Zm-1.84-.3H540l-0.12.69-0.39-.05v-0.63Zm6.44,9.38,0.48-.44-0.84-.12-0.35-.53,0.29-.54,0.46,0.88,0.93,0.13,0.16-.89-0.7-.65-0.85-.42-0.84.42-0.09.08,0-.07,0.22-.94-0.74-.68-0.81-.4-0.79.4-0.75.68,0.17,0.87,0.5-.06v0.65l-0.58-.53-0.83-.41-0.85.42-0.57.52V1014l0.5,0.07,0.16-.88-0.66-.6v-0.1l0.95-.12,0.47-.89,0.46,0.89,0.92,0.12,0.17-.89-0.71-.65-0.84-.41-0.86.42-0.56.51v-0.64l0.5,0.07,0.16-.87-0.66-.6v-0.09l0.95-.13,0.47-.89,0.46,0.89,0.95,0.13v0.09l-0.66.6,0.17,0.87,0.92-.13,0.19-.36h0.55l0.19,0.36,0.93,0.13,0.16-.87-0.49-.45,0.19-.3,0.59-.08,0.46-.89,0.46,0.89,0.93,0.12,0.16-.89-0.65-.6-0.79-.39,0.36-.55h0.28l0.15,0.84,0.94-.13,0.37-.71h0.18l0.37,0.71,0.49,0.07-0.14.21-0.51-.07-0.3-.58-0.3.58-0.68.09,0.49,0.45-0.12.64,0.61-.3,0.23,0.11L548,1009l-0.1-.05-0.82.41-0.73.67,0.16,0.87,0.31,0-0.17.28-0.19-.18-0.86-.42-0.85.42-0.7.64,0.17,0.89,0.93-.12,0.46-.89,0.46,0.89,0.79,0.1,0.1,0.16-0.61.56,0.16,0.88,0.93-.13,0.17-.32,0.17,0.26-0.15.28-0.62.08,0.45,0.41-0.1.59,0.56-.28,0.56,0.28-0.08-.43,0.83,1.27-0.49-.41-0.81-.4-0.82.4-0.73.67,0,0.14H546.1Zm-6.44-8.61,0.5,0.07,0.15-.84h0.25l-0.1.54,0.61-.3,0.61,0.3-0.1-.54h0.24l0.15,0.84,0.5-.07v0.65l-0.53-.48-0.88-.43-0.9.44-0.51.47v-0.64Zm-6.15,9.12,0.47-.23,0.48,0.24-0.44,0a4.35,4.35,0,0,1-.51,0m0.44-.37-0.69.34a5.36,5.36,0,0,1-.72-0.14l1.44-.73,1.47,0.74a5.84,5.84,0,0,1-.73.14l-0.7-.36a0.07,0.07,0,0,0-.07,0m0.07-.67a0.07,0.07,0,0,0-.07,0l-1.61.81a4.44,4.44,0,0,1-.58-0.21l2.22-1.12,2.26,1.15a6.29,6.29,0,0,1-.59.21Zm3.45-.08-0.15-.81,0.53,0.5a4.27,4.27,0,0,1-.37.31m-3.45-.58a0.07,0.07,0,0,0-.07,0l-2.36,1.19c-0.17-.08-0.33-0.17-0.5-0.27l2.89-1.44,2.91,1.48c-0.16.09-.32,0.18-0.49,0.26Zm1.65-1.5,0.08,0.38-0.37-.19a2.14,2.14,0,0,0,.29-0.19m-3.34,0a3,3,0,0,0,.29.21l-0.36.17Zm3.49-.08,0.55,0.51,0.21,1.08-1.93-1a2.65,2.65,0,0,0,.59-0.21l0.57,0.29c0.06,0,.12,0,0.11-0.07l-0.12-.61Zm-3.74.59c0,0.07,0,.1.11,0.07l0.57-.28a2.8,2.8,0,0,0,.59.23l-1.93,1,0.39-2.05a2.38,2.38,0,0,0,.39.47Zm-3-.82-0.1.49a5.37,5.37,0,0,1-.3-0.84Zm0.15,0a0.06,0.06,0,0,0,0-.07l-0.57-.51a4.45,4.45,0,0,1-.09-0.69l1.19,1.06-0.3,1.51a6.42,6.42,0,0,1-.36-0.59Zm0.66-.21a0.06,0.06,0,0,0,0-.07l-1.17-1.06-0.15-.13v-0.07a4.5,4.5,0,0,1,0-.52l1.83,1.65-0.45,2.33a4.87,4.87,0,0,1-.39-0.45Zm1.68-2.21a2,2,0,0,0-.12.34l-0.31-.28Zm-1.49,4.46,0.48-2.46a0.06,0.06,0,0,0,0-.06L528.5,1011a4.59,4.59,0,0,1,.11-0.52l2.36,2.12-0.58,3c-0.14-.11-0.28-0.23-0.41-0.36m1.56-4.61-0.66.09a0.06,0.06,0,0,0,0,.12l0.48,0.44a2.58,2.58,0,0,0,0,.4c0,0.07,0,.14,0,0.21l-1.61-1.45,2.18-.3a2.45,2.45,0,0,0-.33.49m2.13-1.38,0.17-.32,0.16,0.31a1.84,1.84,0,0,0-.33,0m0.5,0-0.27-.51a0.08,0.08,0,0,0-.13,0l-0.27.53a2.55,2.55,0,0,0-.62.15l1-1.81,0.94,1.77a2.79,2.79,0,0,0-.61-0.13m-3.38-1.45-0.53.07a4.81,4.81,0,0,1,.77-0.54Zm6.71,0.07-0.59-.08-0.28-.51a5.23,5.23,0,0,1,.86.6m-7.42.17,0.77-.1a0.06,0.06,0,0,0,.06,0l0.36-.69a6.38,6.38,0,0,1,.69-0.3l-0.75,1.42-1.62.22a6,6,0,0,1,.49-0.51m5.64-1.17a5,5,0,0,1,.7.28l0.38,0.73a0.07,0.07,0,0,0,.06,0l0.79,0.11-0.41.4-0.73-.1Zm-6.25,1.83,1.8-.25a0.05,0.05,0,0,0,.06,0l0.84-1.59a5,5,0,0,1,.61-0.16l-0.18.34-1,1.83-2.49.34c0.1-.17.21-0.33,0.33-0.49m6.06-1.89,0.85,1.6h0a0.06,0.06,0,0,0,0,0l0.67,0.1-0.41.4-0.3,0-0.32,0-1.15-2.16v0a5.09,5.09,0,0,1,.61.15m-6.47,2.53,2.64-.36a0.06,0.06,0,0,0,.06,0l1.21-2.3a5.53,5.53,0,0,1,.57-0.06l-1.47,2.8-3.23.44a4.65,4.65,0,0,1,.23-0.49m5.68-2.71,1.21,2.29a0.12,0.12,0,0,0,.12.07l0.51,0.07-0.41.4-0.5-.07-1.49-2.8a5.69,5.69,0,0,1,.57.05m-3.62,6a0.07,0.07,0,0,0,0-.08l-2.45-2.2c0-.11.07-0.22,0.11-0.33l3.34-.45a0.06,0.06,0,0,0,.06,0l1.53-2.9H534l1.53,2.9,0.06,0,0.44,0.06-0.35.34a2.62,2.62,0,0,0-.7-0.44l-1.08-2a0.07,0.07,0,0,0-.13,0l-1.1,2.1a2.49,2.49,0,0,0-.66.46l-2.49.34a0.07,0.07,0,0,0,0,.12l1.84,1.66a2.24,2.24,0,0,0,.23.65l-0.45,2.36c0,0.08,0,.11.11,0.07l2.21-1.1a2.76,2.76,0,0,0,.46,0,2.57,2.57,0,0,0,.39,0l2.22,1.13c0.07,0,.12,0,0.11-0.07l-0.2-1,0.59,0.54,0.2,1.07-0.29.19-3-1.53a0.06,0.06,0,0,0-.07,0l-3,1.5-0.3-.21Zm-13.2,3.88h0.59v-1.75h-0.59v1.75Zm-0.41,0h0.28v-1.75H517.5v1.75Zm1.57-1.75h-0.43v1.75h0.58v-1.82l-0.12.06h0m0.29,1.75h0.59v-2.21l-0.59.32v1.89Zm7.23-1.52a2.49,2.49,0,0,0,.26-0.85h-0.26V1015Zm-0.73.87a2.48,2.48,0,0,0,.59-0.63v-1.09h-0.59v1.72Zm-0.72.41a2.72,2.72,0,0,0,.58-0.3v-1.83h-0.58v2.13Zm-0.73.19a3.35,3.35,0,0,0,.59-0.14v-2.18h-0.59v2.33Zm-0.72,0h0.12a3.38,3.38,0,0,0,.46,0v-2.34h-0.58v2.37Zm-0.73,0h0.59v-2.37H523v2.37Zm-0.72,0h0.58v-2.37h-0.58v2.37Zm-0.73,0h0.59v-2.37h-0.59v2.37Zm-0.73,0h0.59v-2.37H520.8v2.37Zm-0.72-2.29v2.29h0.58v-2.37h-0.42Zm6.52-1.65a2.88,2.88,0,0,0-.23-0.39V1014h0.48a2,2,0,0,0,0-.21,3,3,0,0,0-.26-1.23m-0.37-.49h-0.6V1014h0.6v-1.92Zm-0.74,0h-0.61V1014h0.61v-1.92Zm-0.75,0h-0.6v1.26a0.65,0.65,0,0,1,0,.17,0.62,0.62,0,0,1-.19.45l-0.06.05h0.83v-1.92ZM524,1012v-0.09h0Zm0,1,0,0v-1l-0.61-.23v1h0.1a0.7,0.7,0,0,1,.48.18m-0.74-1.36v-0.06h0Zm0,0.09-0.6-.23v1.32h0.6v-1.09Zm-0.74-.28-0.09,0h-0.51v1.41h0.6v-1.37Zm-0.74,0h-0.61v1.41h0.61v-1.41Zm-0.75,0h-0.6v1.41H521v-1.41Zm-0.87,1.48a0.07,0.07,0,0,1,.07-0.06h0.06v-1.41h-0.61v2.82l0.48-.25v-1.09Zm-0.61,1.42h0v-2.88H519v3.17H519Zm-0.74-2.89h-0.61v3.17h0.61v-3.17Zm-0.75,0H517.5v3.17h0.57v-3.17Zm5-1h-0.6v0.85l0.6,0.23v-1.08Zm-0.74,0h-0.59v0.84h0.59v-0.84Zm-0.73,0H521v0.84h0.59v-0.84Zm-0.73,0h-0.59v0.84h0.59v-0.84Zm2.94-.21a0.65,0.65,0,0,1-.5.21h-0.09v1.14l0.59,0.23v-1.58Zm2.33,0.9a2.61,2.61,0,0,0,.46-1.56c0-.06,0-0.14,0-0.21h-0.46v1.77Zm-0.32.47a0.06,0.06,0,0,1,0,0,0.05,0.05,0,0,1,0-.05l0.19-.19v-1.94h-0.59v2.54h0.75a2.48,2.48,0,0,0-.34-0.3m-0.55-2.23h-0.59v2.54h0.59v-2.54Zm-1.33.48v2l0.09,0h0.5v-2.54h-0.82a0.58,0.58,0,0,1,.23.48m-3.81-.49-0.59-.19v2.12h0.59v-1.93Zm-0.73-.23-0.59-.19v2.36h0.59v-2.16Zm-0.73-.23-0.59-.19v2.59h0.59v-2.4Zm-0.73-.23-0.48-.16v2.79H518v-2.63Zm8.44-.17a2.48,2.48,0,0,0-.45-0.67v1.42h0.65a2.52,2.52,0,0,0-.2-0.75m-0.59-.82,0,0a2.7,2.7,0,0,0-.55-0.38v2h0.59v-1.57Zm-0.73-.49-0.26-.1-0.34-.1v2.26h0.59v-2.06Zm-0.73-.23a3.44,3.44,0,0,0-.59-0.07v2.36h0.59V1007Zm-0.73-.07H523v2.36h0.59v-2.36Zm-0.73,0H522.3v2.36h0.59v-2.36Zm-0.73,0h-0.59v2.36h0.59v-2.36Zm-0.73,0h-0.59v2.36h0.59v-2.36Zm-0.73,2.36v-2.36h-0.59v2.32l0.14,0h0.45ZM520,1006.9h-0.59V1009l0.59,0.19v-2.28Zm-0.73,0h-0.59v1.85l0.59,0.19v-2Zm-0.73,0h-0.59v1.62l0.59,0.19v-1.81Zm-0.73,0H517.5v1.49l0.28,0.09v-1.58Zm-9.55,9.66a5.23,5.23,0,0,1-.82-0.31,0.47,0.47,0,0,1,.21-0.18,0.51,0.51,0,0,1,.34,0,0.41,0.41,0,0,1,.27.49m3.33,0a0.39,0.39,0,0,1,0-.27,0.44,0.44,0,0,1,.24-0.23,0.46,0.46,0,0,1,.56.16,6.24,6.24,0,0,1-.81.33m-1,.21a1.47,1.47,0,0,0,.86-1.31,1.32,1.32,0,0,0,0-.24l0.17,0.18a1.58,1.58,0,0,0,1.11.43,1.8,1.8,0,0,0,.5-0.07,6.31,6.31,0,0,1-.67.41,0.62,0.62,0,0,0-.74-0.23,0.56,0.56,0,0,0-.31.3,0.55,0.55,0,0,0,0,.35,5.42,5.42,0,0,1-.86.17m-1.42,0a5.44,5.44,0,0,1-.78-0.15,0.54,0.54,0,0,0-.35-0.65,0.62,0.62,0,0,0-.44,0,0.54,0.54,0,0,0-.28.23,6,6,0,0,1-.75-0.45,1.81,1.81,0,0,0,.5.07,1.61,1.61,0,0,0,1.11-.43,1.42,1.42,0,0,0,.17-0.18,1.32,1.32,0,0,0,0,.24,1.44,1.44,0,0,0,.46,1,1.46,1.46,0,0,0,.4.27m0.71-1a0.31,0.31,0,1,1,.33-0.3,0.31,0.31,0,0,1-.33.3m0,0.13a0.43,0.43,0,1,0-.46-0.43,0.45,0.45,0,0,0,.46.43m0,0.39a0.82,0.82,0,1,1,.88-0.82,0.85,0.85,0,0,1-.88.82m0,0.13a1,1,0,1,0-1-1,1,1,0,0,0,1,1m0,0.39a1.34,1.34,0,1,1,1.43-1.34,1.39,1.39,0,0,1-1.43,1.34m2.82-2.14a0.35,0.35,0,0,1-.23-0.08,0.29,0.29,0,0,1,0-.43,0.32,0.32,0,0,1,.23-0.09,0.33,0.33,0,0,1,.23.09,0.29,0.29,0,0,1,0,.43,0.36,0.36,0,0,1-.23.08m-5.64,0a0.37,0.37,0,0,1-.24-0.08,0.32,0.32,0,0,1-.09-0.22,0.32,0.32,0,0,1,.09-0.21A0.34,0.34,0,0,1,507,1014a0.33,0.33,0,0,1,.23.09,0.29,0.29,0,0,1,.1.21,0.3,0.3,0,0,1-.1.22,0.36,0.36,0,0,1-.23.08m5.64,0.13a0.47,0.47,0,0,0,.32-0.12,0.42,0.42,0,0,0,0-.61,0.47,0.47,0,0,0-.65,0,0.41,0.41,0,0,0,0,.61,0.48,0.48,0,0,0,.33.12m-5.64,0a0.49,0.49,0,0,0,.32-0.12,0.42,0.42,0,0,0,.14-0.31,0.41,0.41,0,0,0-.14-0.3,0.46,0.46,0,0,0-.32-0.13,0.48,0.48,0,0,0-.33.13,0.43,0.43,0,0,0-.13.3,0.44,0.44,0,0,0,.13.31,0.51,0.51,0,0,0,.33.12m4.09-.19a1.32,1.32,0,0,0-.17-0.18,1.6,1.6,0,0,0-.63-0.36,2.85,2.85,0,0,0,.51-0.14,2.94,2.94,0,0,0,.43-0.22,1.44,1.44,0,0,0-.17.66,1.47,1.47,0,0,0,0,.25m-2.55,0a1,1,0,0,0,0-.25,1.37,1.37,0,0,0-.17-0.66,3.39,3.39,0,0,0,.44.22,2.68,2.68,0,0,0,.51.14,1.62,1.62,0,0,0-.64.36l-0.17.18m4.1,0.58a0.9,0.9,0,0,1-.62-0.24,0.79,0.79,0,0,1-.26-0.58,0.78,0.78,0,0,1,.26-0.58,0.91,0.91,0,0,1,1.24,0,0.79,0.79,0,0,1,0,1.16,0.9,0.9,0,0,1-.62.24m-5.64,0a0.9,0.9,0,0,1-.62-0.24,0.78,0.78,0,0,1,0-1.16,0.91,0.91,0,0,1,.62-0.25,0.88,0.88,0,0,1,.61.25,0.79,0.79,0,0,1,.26.58,0.8,0.8,0,0,1-.26.58,0.87,0.87,0,0,1-.61.24m5.64,0.13a1,1,0,0,0,.72-0.28,0.92,0.92,0,0,0,0-1.35,1.07,1.07,0,0,0-1.44,0,0.92,0.92,0,0,0-.3.67,0.91,0.91,0,0,0,.3.67,1,1,0,0,0,.72.28m-5.64,0a1,1,0,0,0,.72-0.28,0.93,0.93,0,0,0,.3-0.67,0.94,0.94,0,0,0-.3-0.67,1.08,1.08,0,0,0-.72-0.28,1.06,1.06,0,0,0-.72.28,0.92,0.92,0,0,0,0,1.35,1,1,0,0,0,.72.28m-2-1.22a4.58,4.58,0,0,1-.34-0.77,0.51,0.51,0,0,1,.28,0,0.44,0.44,0,0,1,.24.22,0.41,0.41,0,0,1-.17.53m9.67-.08a0.48,0.48,0,0,1-.19-0.19,0.38,0.38,0,0,1,0-.32,0.45,0.45,0,0,1,.52-0.25,5.16,5.16,0,0,1-.33.77m-2,1.69a1.46,1.46,0,0,1-1-.39,1.28,1.28,0,0,1,0-1.9,1.48,1.48,0,0,1,2,0,1.28,1.28,0,0,1,0,1.9,1.47,1.47,0,0,1-1,.39m-5.64,0a1.48,1.48,0,0,1-1-.39,1.29,1.29,0,0,1,0-1.9,1.49,1.49,0,0,1,1-.4,1.47,1.47,0,0,1,1,.4,1.28,1.28,0,0,1,0,1.9,1.47,1.47,0,0,1-1,.39m7.12-.87a1.33,1.33,0,0,0,.08-0.47,1.41,1.41,0,0,0-.46-1,1.12,1.12,0,0,0-.19-0.16l0.26,0a1.64,1.64,0,0,0,1.11-.43,1.54,1.54,0,0,0,.29-0.38,5.32,5.32,0,0,1-.16.73,0.6,0.6,0,0,0-.69.33,0.51,0.51,0,0,0,0,.41,0.52,0.52,0,0,0,.24.27,4.87,4.87,0,0,1-.48.7m-8.61,0a4.65,4.65,0,0,1-.45-0.63,0.54,0.54,0,0,0,.24-0.69,0.62,0.62,0,0,0-.32-0.29,0.64,0.64,0,0,0-.38,0,4.7,4.7,0,0,1-.18-0.82,1.52,1.52,0,0,0,.29.38,1.61,1.61,0,0,0,1.1.43l0.26,0a1.44,1.44,0,0,0-.19.16,1.41,1.41,0,0,0-.46,1,1.31,1.31,0,0,0,.08.47m2.19-1.77a1.63,1.63,0,0,0-.7-0.16l-0.26,0,0.19-.15a1.44,1.44,0,0,0,.38-0.59,2.44,2.44,0,0,0,.16.48,2.33,2.33,0,0,0,.23.4m4.22,0a2,2,0,0,0,.23-0.4,2.37,2.37,0,0,0,.16-0.49,1.4,1.4,0,0,0,.38.6l0.19,0.16-0.26,0a1.68,1.68,0,0,0-.71.16m1.89-1a0.3,0.3,0,1,1,.32-0.3,0.31,0.31,0,0,1-.32.3m-8,0a0.3,0.3,0,1,1,.33-0.3,0.31,0.31,0,0,1-.33.3m8,0.13a0.43,0.43,0,1,0-.46-0.43,0.45,0.45,0,0,0,.46.43m-8,0a0.43,0.43,0,1,0-.46-0.43,0.45,0.45,0,0,0,.46.43m8,0.39a0.82,0.82,0,1,1,.88-0.82,0.85,0.85,0,0,1-.88.82m-8,0a0.82,0.82,0,1,1,.88-0.82,0.85,0.85,0,0,1-.88.82m8,0.13a1,1,0,1,0-1-1,1,1,0,0,0,1,1m-8,0a1,1,0,1,0-1-1,1,1,0,0,0,1,1m6.49-1.4a2.44,2.44,0,0,0-.16-0.48,1.81,1.81,0,0,0-.23-0.4,1.65,1.65,0,0,0,.71.16l0.26,0-0.2.16a1.38,1.38,0,0,0-.38.59m1.49,1.79a1.34,1.34,0,1,1,1.43-1.34,1.39,1.39,0,0,1-1.43,1.34m-6.49-1.79a1.46,1.46,0,0,0-.38-0.58l-0.2-.16,0.26,0a1.57,1.57,0,0,0,.72-0.16,2.27,2.27,0,0,0-.23.41,2.39,2.39,0,0,0-.16.47m-1.49,1.79a1.34,1.34,0,1,1,1.43-1.34,1.38,1.38,0,0,1-1.43,1.34m-1.2-2.86a4.85,4.85,0,0,1,.33-0.78,0.45,0.45,0,0,1,.19.2,0.42,0.42,0,0,1,0,.32,0.45,0.45,0,0,1-.52.26m10.35-.08a0.45,0.45,0,0,1-.28,0,0.46,0.46,0,0,1-.25-0.23,0.41,0.41,0,0,1,.18-0.52,4.7,4.7,0,0,1,.35.76m-3.74-.38a2,2,0,0,0-.43-0.22,2.4,2.4,0,0,0-.51-0.14A1.6,1.6,0,0,0,511,1009a1.33,1.33,0,0,0,.17-0.18,1.44,1.44,0,0,0,0,.24,1.4,1.4,0,0,0,.17.67m-2.85,0a1.44,1.44,0,0,0,.17-0.67,1.39,1.39,0,0,0,0-.25,1.42,1.42,0,0,0,.17.19,1.62,1.62,0,0,0,.64.36,2.28,2.28,0,0,0-.51.14,2.49,2.49,0,0,0-.44.23m4.25-.37a0.34,0.34,0,0,1-.24-0.09,0.29,0.29,0,0,1,0-.43,0.34,0.34,0,0,1,.24-0.09,0.34,0.34,0,0,1,.23.09,0.29,0.29,0,0,1,0,.43,0.34,0.34,0,0,1-.23.09m-5.64,0a0.34,0.34,0,0,1-.23-0.09,0.29,0.29,0,0,1,0-.43,0.33,0.33,0,0,1,.23-0.08,0.31,0.31,0,0,1,.23.08,0.29,0.29,0,0,1,0,.43,0.31,0.31,0,0,1-.23.09m5.64,0.13a0.46,0.46,0,0,0,.32-0.13,0.41,0.41,0,0,0,0-.61,0.46,0.46,0,0,0-.32-0.13,0.48,0.48,0,0,0-.33.13,0.41,0.41,0,0,0,0,.61,0.48,0.48,0,0,0,.33.13m-5.64,0a0.48,0.48,0,0,0,.33-0.13,0.43,0.43,0,0,0,0-.61,0.51,0.51,0,0,0-.33-0.12,0.48,0.48,0,0,0-.32.12,0.41,0.41,0,0,0,0,.61,0.45,0.45,0,0,0,.32.13m-2.56,1.55a3.78,3.78,0,0,1,.16-0.74h0.14a0.59,0.59,0,0,0,.55-0.34,0.53,0.53,0,0,0,0-.42,0.54,0.54,0,0,0-.25-0.26,4.45,4.45,0,0,1,.48-0.69,1.4,1.4,0,0,0-.08.45,1.42,1.42,0,0,0,.46,1,1.19,1.19,0,0,0,.2.16l-0.26,0a1.61,1.61,0,0,0-1.1.43,1.32,1.32,0,0,0-.29.38m10.78,0a1.52,1.52,0,0,0-.29-0.37,1.61,1.61,0,0,0-1.11-.43,1.14,1.14,0,0,0-.26,0l0.19-.16a1.41,1.41,0,0,0,.46-1,1.55,1.55,0,0,0-.08-0.47,5.86,5.86,0,0,1,.44.64,0.54,0.54,0,0,0,.08,1,0.63,0.63,0,0,0,.22,0l0.15,0a5.15,5.15,0,0,1,.19.8m-2.57-1.15a0.9,0.9,0,0,1-.62-0.24,0.79,0.79,0,0,1,0-1.17,0.9,0.9,0,0,1,.62-0.24,0.89,0.89,0,0,1,.61.24,0.78,0.78,0,0,1,0,1.17,0.89,0.89,0,0,1-.61.24m-5.64,0a0.91,0.91,0,0,1-.62-0.25,0.79,0.79,0,0,1,0-1.16,0.93,0.93,0,0,1,1.24,0,0.79,0.79,0,0,1,0,1.16,0.91,0.91,0,0,1-.62.25m5.64,0.13a1,1,0,0,0,.72-0.28,0.91,0.91,0,0,0,0-1.35,1,1,0,0,0-.72-0.28,1,1,0,0,0-.72.28,0.91,0.91,0,0,0,0,1.35,1,1,0,0,0,.72.28m-5.64,0a1,1,0,0,0,.72-0.29,0.91,0.91,0,0,0,0-1.34,1.07,1.07,0,0,0-1.44,0,0.91,0.91,0,0,0,0,1.34,1,1,0,0,0,.72.29m5.64,0.39a1.47,1.47,0,0,1-1-.4,1.29,1.29,0,0,1,0-1.89,1.49,1.49,0,0,1,2,0,1.29,1.29,0,0,1,0,1.89,1.47,1.47,0,0,1-1,.4m-5.64,0a1.46,1.46,0,0,1-1-.39,1.28,1.28,0,0,1,0-1.9,1.5,1.5,0,0,1,2,0,1.28,1.28,0,0,1,0,1.9,1.46,1.46,0,0,1-1,.39m2.82-2.13a0.3,0.3,0,1,1,.33-0.3,0.31,0.31,0,0,1-.33.3m0,0.13a0.43,0.43,0,1,0-.46-0.43,0.45,0.45,0,0,0,.46.43m0,0.39a0.82,0.82,0,1,1,.88-0.82,0.85,0.85,0,0,1-.88.82m0,0.13a1,1,0,1,0-1-1,1,1,0,0,0,1,1m1.93-1.55a0.46,0.46,0,0,1-.25-0.23,0.4,0.4,0,0,1,0-.28,5.54,5.54,0,0,1,.83.32,0.47,0.47,0,0,1-.56.19m-3.85,0a0.47,0.47,0,0,1-.58-0.19,6.29,6.29,0,0,1,.83-0.32,0.37,0.37,0,0,1,0,.28,0.42,0.42,0,0,1-.24.23m3.47,0.83a1.32,1.32,0,0,0,0-.24,1.42,1.42,0,0,0-.46-1,1.63,1.63,0,0,0-.39-0.27,5.93,5.93,0,0,1,.82.16,0.5,0.5,0,0,0,0,.38,0.54,0.54,0,0,0,.32.29,0.65,0.65,0,0,0,.22,0,0.58,0.58,0,0,0,.51-0.28l0.21,0.12a4.89,4.89,0,0,1,.5.32,1.6,1.6,0,0,0-.5-0.08,1.62,1.62,0,0,0-1.11.43l-0.16.18m-3.09,0a1.46,1.46,0,0,0-.17-0.19,1.61,1.61,0,0,0-1.11-.43,1.51,1.51,0,0,0-.48.07,5,5,0,0,1,.45-0.29l0.23-.13a0.62,0.62,0,0,0,.76.25,0.54,0.54,0,0,0,.33-0.67,5.84,5.84,0,0,1,.83-0.16,1.67,1.67,0,0,0-.4.27,1.44,1.44,0,0,0-.46,1,1.39,1.39,0,0,0,0,.25m1.55,1.09a1.34,1.34,0,1,1,1.43-1.34,1.39,1.39,0,0,1-1.43,1.34m-7.79,7.2,0.15-.27,0.14,0.27h-0.28Zm-5.85,0v-0.09l0.51-.47v0.56h-0.5Zm-2.33-.56,0.51,0.47v0.09h-0.5v-0.56Zm6.37,0.23-0.2-.3,0.46,0.07Zm-5.56-.23,0.41-.06,0.19-.36,0.19,0.36,0.42,0.06-0.3.28,0,0.28h-0.71l0.06-.28Zm7.81,0.56-0.3-.56-0.3.56h-1.09l0-.09,0.67-.61,0.74-.37,0.73,0.36,0.81,0.68v0H502.5Zm-6.43,0h-0.28l0-.23,0.46-.41-0.63-.08-0.28-.54-0.28.54-0.62.08,0.45,0.41,0,0.23h-0.28l0-.14-0.66-.6v-0.1l0.95-.13,0.47-.88,0.46,0.88,0.95,0.13v0.1l-0.66.6Zm5.53-2.15,0.42-.05,0.14-.28,0.38,0.58,0,0,0.07,0.4-0.37-.19-0.38.19,0.08-.4Zm-2.07.72-0.48-.75,0.1-.08,0.76-.38,0.77,0.38,0.64,0.59-0.13.69-0.73-.1-0.55-1.06Zm-2.82.47-0.86-.12-0.55-1.06-0.56,1.06-0.86.12v-0.71l0.65-.6,0.77-.38,0.75,0.37,0.66,0.61v0.7Zm-2.82-2.76,0.51,0.47-0.12.69-0.39-.05v-1.1Zm7.94,0.73-0.17.33-0.73.1-0.12-.69,0.54-.49Zm-1.92-.24-0.37.19,0.07-.4-0.3-.28,0.42-.06,0.19-.36,0.19,0.36,0.42,0.06-0.3.28,0.07,0.4Zm-4.3-.21,0.07,0.4-0.37-.19-0.38.19,0.08-.4-0.3-.28,0.41-.06,0.19-.36,0.19,0.36,0.42,0.06Zm2.49-.12h-1.32a0.07,0.07,0,0,0-.07.07v0.88l-0.39.05-0.12-.69,0.68-.61,0.72-.36,0.73,0.36,0.67,0.61-0.17.74-0.66-1a0.07,0.07,0,0,0-.06,0m2.71-.25-0.63-.08-0.28-.53-0.28.53-0.62.08,0.45,0.41-0.1.58,0.56-.27,0.56,0.27-0.11-.58Zm-5.51-.61-0.28.53-0.62.08,0.45,0.41-0.1.58,0.56-.27,0.56,0.27-0.11-.58,0.46-.41-0.63-.08Zm2.29-.4-0.37.18,0.07-.39-0.3-.28,0.42-.06,0.19-.36,0.19,0.36,0.42,0.06-0.3.28,0.08,0.39Zm3.05,0,0.42,0.65-0.61-.08-0.55-1.06-0.56,1.06-0.72.1-0.12-.7,0.64-.58,0.77-.38,0.77,0.38,0.2,0.18-0.23.36a0.06,0.06,0,0,0,0,.07m-6.76,0,0.64-.58,0.77-.38,0.75,0.37,0.64,0.59-0.12.69-0.72-.1-0.55-1.06-0.56,1.06-0.86.12v-0.71Zm4.61-.56-0.62-.08-0.28-.53-0.28.53-0.63.08,0.46,0.41-0.11.58,0.56-.28,0.56,0.28-0.1-.58Zm-0.42-.67a0.07,0.07,0,0,0,.06,0l0.44-.69,0.42,0.38-0.12.68-0.73-.1-0.13-.24h0.06Zm-0.91,0-0.12.24-0.72.1-0.12-.68,0.51-.47v0.74a0.07,0.07,0,0,0,.07.07h0.39Zm-3.28-.81,0.51,0.47-0.12.68-0.39-.05v-1.09Zm5.41,0,0.42-.06,0.19-.36,0.19,0.36,0.42,0.06-0.3.28,0.07,0.4-0.37-.19-0.37.19,0.07-.4Zm-4,.49-0.38.19,0.08-.4-0.3-.28,0.41-.06,0.19-.36,0.19,0.36,0.42,0.06-0.3.28,0.07,0.4Zm5.92,0.62-0.3,0-0.12-.68,0.67-.61,0.74-.36h0Zm-1.88-.2,0.56-.27,0.56,0.27-0.11-.58,0.46-.41-0.63-.08-0.28-.53-0.28.53-0.62.08,0.45,0.41Zm-3.14-1-0.63-.08-0.28-.53-0.28.53-0.62.08,0.45,0.41-0.1.58,0.56-.27,0.56,0.27-0.11-.58Zm3.74-1.95,0.78,0.39,0.59,0.53-0.13.69-0.73-.1L499.9,1008l-0.56,1.06-0.41.06Zm-6.06.93,0.59-.54,0.82-.4,0.8,0.4,0.61,0.56v0.71l-0.86-.12L495.3,1008l-0.56,1.06-0.86.12v-0.71Zm8.62,0.21-0.3-.14-0.43.21,0.08-.45-0.35-.32,0.48-.07,0.21-.41,0.21,0.41,0.52,0.07Zm0.73-1.14-0.48-.07-0.31-.59h1.21Zm-1.28-.65-0.31.59-0.73.1-0.12-.69H502Zm-5.25.63-0.39.05-0.12-.65,0,0h0.48v0.63Zm-1-.33-0.43-.21-0.43.21,0.06-.3h0.74Zm-1.84-.3h0.52l-0.12.69-0.39-.05v-0.63Zm6.44,9.38,0.48-.44-0.84-.12-0.35-.53,0.29-.54,0.46,0.88,0.93,0.13,0.16-.89-0.7-.65-0.85-.42-0.84.42-0.09.08,0-.07,0.22-.94-0.74-.68-0.81-.4-0.79.4-0.75.68,0.17,0.87,0.5-.06v0.65l-0.58-.53-0.83-.41-0.85.42-0.57.52V1014l0.5,0.07,0.16-.88-0.66-.6v-0.1l0.95-.12,0.47-.89,0.46,0.89,0.92,0.12,0.17-.89-0.71-.65-0.84-.41-0.86.42-0.56.51v-0.64l0.5,0.07,0.16-.87-0.66-.6v-0.09l0.95-.13,0.47-.89,0.46,0.89,0.95,0.13v0.09l-0.66.6,0.17,0.87,0.92-.13,0.19-.36h0.55l0.19,0.36,0.93,0.13,0.16-.87-0.49-.45,0.19-.3,0.59-.08,0.46-.89,0.46,0.89,0.93,0.12,0.16-.89-0.65-.6-0.79-.39,0.36-.55h0.28l0.15,0.84,0.94-.13,0.37-.71h0.18l0.37,0.71,0.49,0.07-0.14.21-0.51-.07-0.3-.58-0.3.58-0.68.09,0.49,0.45-0.12.64,0.61-.3,0.23,0.11-0.12.19-0.1-.05-0.82.41-0.73.67,0.16,0.87,0.31,0-0.17.28-0.19-.18-0.86-.42L499,1011l-0.7.64,0.17,0.89,0.93-.12,0.46-.89,0.46,0.89,0.79,0.1,0.1,0.16-0.61.56,0.16,0.88,0.93-.13,0.17-.32,0.17,0.26-0.15.28-0.62.08,0.45,0.41-0.1.59,0.56-.28,0.56,0.28-0.08-.43,0.83,1.27-0.49-.41-0.81-.4-0.82.4-0.73.67,0,0.14h-0.21Zm-6.44-8.61,0.5,0.07,0.15-.84h0.25l-0.1.54,0.61-.3,0.61,0.3-0.1-.54H496l0.15,0.84,0.5-.07v0.65l-0.53-.48-0.88-.43-0.9.44-0.51.47v-0.64Zm-6.15,9.12,0.47-.23,0.48,0.24-0.44,0a4.35,4.35,0,0,1-.51,0m0.44-.37-0.69.34a5.41,5.41,0,0,1-.72-0.14l1.44-.73,1.47,0.74a5.82,5.82,0,0,1-.73.14l-0.7-.36a0.07,0.07,0,0,0-.07,0m0.07-.67a0.07,0.07,0,0,0-.07,0l-1.61.81a4.44,4.44,0,0,1-.58-0.21l2.22-1.12,2.26,1.15a6.27,6.27,0,0,1-.59.21Zm3.45-.08-0.15-.81,0.52,0.5a4.28,4.28,0,0,1-.37.31m-3.45-.58a0.07,0.07,0,0,0-.07,0l-2.36,1.19c-0.17-.08-0.33-0.17-0.5-0.27l2.89-1.44,2.91,1.48c-0.16.09-.32,0.18-0.49,0.26Zm1.65-1.5L490,1014l-0.37-.19a2.18,2.18,0,0,0,.29-0.19m-3.34,0a3,3,0,0,0,.29.21l-0.36.17Zm3.5-.08,0.55,0.51,0.21,1.08-1.93-1a2.65,2.65,0,0,0,.59-0.21l0.57,0.29c0.06,0,.12,0,0.11-0.07l-0.12-.61Zm-3.74.59c0,0.07,0,.1.11,0.07l0.57-.28a2.8,2.8,0,0,0,.59.23l-1.93,1L486,1013a2.38,2.38,0,0,0,.39.47Zm-3-.82-0.1.49a5.36,5.36,0,0,1-.3-0.84Zm0.15,0a0.06,0.06,0,0,0,0-.07l-0.57-.51a4.44,4.44,0,0,1-.09-0.69L484,1013l-0.3,1.51a6.59,6.59,0,0,1-.36-0.59Zm0.66-.21a0.06,0.06,0,0,0,0-.07l-1.17-1.06-0.15-.13v-0.07a4.52,4.52,0,0,1,0-.52l1.83,1.65-0.45,2.33a5,5,0,0,1-.39-0.45Zm1.68-2.21a2,2,0,0,0-.12.34l-0.31-.28Zm-1.49,4.46,0.48-2.46a0.06,0.06,0,0,0,0-.06l-1.94-1.74a4.59,4.59,0,0,1,.11-0.52l2.36,2.12-0.58,3c-0.14-.11-0.28-0.23-0.41-0.36m1.56-4.61-0.66.09a0.06,0.06,0,0,0,0,.12l0.48,0.44a2.49,2.49,0,0,0,0,.4c0,0.07,0,.14,0,0.21l-1.61-1.45,2.18-.3a2.42,2.42,0,0,0-.33.49m2.13-1.38,0.17-.32,0.16,0.31a1.84,1.84,0,0,0-.33,0m0.5,0-0.27-.51a0.08,0.08,0,0,0-.13,0l-0.27.53a2.55,2.55,0,0,0-.62.15l1-1.81,0.94,1.77a2.78,2.78,0,0,0-.61-0.13m-3.38-1.45-0.53.07a4.82,4.82,0,0,1,.77-0.54Zm6.71,0.07-0.59-.08-0.28-.51a5.23,5.23,0,0,1,.86.6m-7.42.17,0.77-.1a0.06,0.06,0,0,0,.06,0l0.36-.69a6.38,6.38,0,0,1,.69-0.3l-0.75,1.42-1.62.22a5.87,5.87,0,0,1,.49-0.51m5.64-1.17a5,5,0,0,1,.7.28l0.38,0.73a0.07,0.07,0,0,0,.06,0L492,1008l-0.41.4-0.73-.1Zm-6.25,1.83,1.8-.25a0.06,0.06,0,0,0,.06,0l0.84-1.59a5,5,0,0,1,.61-0.16l-0.18.34-1,1.83-2.49.34c0.1-.17.21-0.33,0.33-0.49m6.06-1.89,0.85,1.6h0a0.06,0.06,0,0,0,0,0l0.67,0.1-0.41.4-0.3,0-0.32,0-1.15-2.16v0a5.09,5.09,0,0,1,.61.15m-6.47,2.53L486,1009a0.06,0.06,0,0,0,.06,0l1.21-2.3a5.52,5.52,0,0,1,.57-0.06l-1.47,2.8-3.23.44a4.65,4.65,0,0,1,.23-0.49m5.68-2.71,1.21,2.29a0.12,0.12,0,0,0,.12.07l0.51,0.07-0.41.4-0.5-.07-1.49-2.8a5.69,5.69,0,0,1,.57.05m-3.62,6a0.07,0.07,0,0,0,0-.08l-2.45-2.2c0-.11.07-0.22,0.11-0.33l3.34-.45a0.06,0.06,0,0,0,.06,0l1.53-2.9h0.31l1.53,2.9,0.06,0,0.44,0.06-0.34.34a2.64,2.64,0,0,0-.7-0.44l-1.08-2a0.07,0.07,0,0,0-.13,0l-1.1,2.1a2.49,2.49,0,0,0-.66.46l-2.49.34a0.07,0.07,0,0,0,0,.12l1.84,1.66a2.26,2.26,0,0,0,.23.65l-0.45,2.36c0,0.08,0,.11.11,0.07l2.21-1.1a2.76,2.76,0,0,0,.46,0,2.57,2.57,0,0,0,.39,0l2.22,1.13c0.07,0,.12,0,0.11-0.07l-0.2-1,0.59,0.54,0.2,1.07-0.29.19-3-1.53a0.06,0.06,0,0,0-.07,0l-3,1.5-0.3-.21Zm-11.38,4a5.18,5.18,0,0,1-.82-0.31,0.46,0.46,0,0,1,.21-0.18,0.5,0.5,0,0,1,.34,0,0.41,0.41,0,0,1,.27.49m3.33,0a0.39,0.39,0,0,1,0-.27,0.45,0.45,0,0,1,.24-0.23,0.46,0.46,0,0,1,.56.16,6.29,6.29,0,0,1-.82.33m-1,.21a1.47,1.47,0,0,0,.86-1.31,1.39,1.39,0,0,0,0-.24l0.17,0.18a1.58,1.58,0,0,0,1.11.43,1.81,1.81,0,0,0,.5-0.07,6.4,6.4,0,0,1-.67.41,0.62,0.62,0,0,0-.74-0.23,0.56,0.56,0,0,0-.34.65,5.4,5.4,0,0,1-.86.17m-1.42,0a5.43,5.43,0,0,1-.78-0.15,0.54,0.54,0,0,0-.35-0.65,0.62,0.62,0,0,0-.44,0,0.55,0.55,0,0,0-.28.23,6,6,0,0,1-.75-0.45,1.81,1.81,0,0,0,.5.07,1.61,1.61,0,0,0,1.11-.43,0.13,0.13,0,1,1,.14.06,1.44,1.44,0,0,0,.86,1.31m0.71-1a0.31,0.31,0,1,1,.33-0.3,0.31,0.31,0,0,1-.33.3m0,0.13a0.43,0.43,0,1,0-.46-0.43,0.45,0.45,0,0,0,.46.43m0,0.39a0.82,0.82,0,1,1,.88-0.82,0.85,0.85,0,0,1-.88.82m0,0.13a1,1,0,1,0-1-1,1,1,0,0,0,1,1m0,0.39a1.34,1.34,0,1,1,1.43-1.34,1.39,1.39,0,0,1-1.43,1.34m2.82-2.14a0.35,0.35,0,0,1-.23-0.08,0.29,0.29,0,0,1,0-.43,0.32,0.32,0,0,1,.23-0.09,0.33,0.33,0,0,1,.23.09,0.29,0.29,0,0,1,0,.43,0.36,0.36,0,0,1-.23.08m-5.64,0a0.37,0.37,0,0,1-.23-0.08,0.32,0.32,0,0,1-.09-0.22,0.31,0.31,0,0,1,.09-0.21,0.34,0.34,0,0,1,.23-0.09,0.33,0.33,0,0,1,.23.09,0.29,0.29,0,0,1,.1.21,0.3,0.3,0,0,1-.1.22,0.36,0.36,0,0,1-.23.08m5.64,0.13a0.47,0.47,0,0,0,.32-0.12,0.42,0.42,0,0,0,0-.61,0.47,0.47,0,0,0-.65,0,0.41,0.41,0,0,0,0,.61,0.47,0.47,0,0,0,.32.12m-5.64,0a0.49,0.49,0,0,0,.32-0.12,0.42,0.42,0,0,0,.14-0.31,0.41,0.41,0,0,0-.14-0.3,0.46,0.46,0,0,0-.32-0.13,0.48,0.48,0,0,0-.33.13,0.43,0.43,0,0,0-.13.3,0.44,0.44,0,0,0,.13.31,0.51,0.51,0,0,0,.33.12m4.09-.19a1.38,1.38,0,0,0-.17-0.18,1.6,1.6,0,0,0-.63-0.36,2.85,2.85,0,0,0,.51-0.14,2.94,2.94,0,0,0,.43-0.22,1.44,1.44,0,0,0-.17.66,1.39,1.39,0,0,0,0,.25m-2.55,0a1,1,0,0,0,0-.25,1.37,1.37,0,0,0-.17-0.66,3.44,3.44,0,0,0,.44.22,2.68,2.68,0,0,0,.51.14,1.62,1.62,0,0,0-.64.36l-0.17.18m4.1,0.58a0.9,0.9,0,0,1-.62-0.24,0.79,0.79,0,0,1-.26-0.58,0.78,0.78,0,0,1,.26-0.58,0.91,0.91,0,0,1,1.24,0,0.79,0.79,0,0,1,0,1.16,0.9,0.9,0,0,1-.62.24m-5.64,0a0.9,0.9,0,0,1-.62-0.24,0.78,0.78,0,0,1,0-1.16,0.91,0.91,0,0,1,.62-0.25,0.88,0.88,0,0,1,.61.25,0.79,0.79,0,0,1,.26.58,0.8,0.8,0,0,1-.26.58,0.87,0.87,0,0,1-.61.24m5.64,0.13a1,1,0,0,0,.72-0.28,0.92,0.92,0,0,0,0-1.35,1.07,1.07,0,0,0-1.44,0,0.92,0.92,0,0,0-.3.67,0.91,0.91,0,0,0,.3.67,1,1,0,0,0,.72.28m-5.64,0a1,1,0,0,0,.72-0.28,0.93,0.93,0,0,0,.3-0.67,0.94,0.94,0,0,0-.3-0.67,1.07,1.07,0,0,0-1.44,0,0.92,0.92,0,0,0,0,1.35,1,1,0,0,0,.72.28m-2-1.22a4.59,4.59,0,0,1-.34-0.77,0.51,0.51,0,0,1,.28,0,0.44,0.44,0,0,1,.24.22,0.41,0.41,0,0,1-.17.53m9.67-.08a0.48,0.48,0,0,1-.19-0.19,0.38,0.38,0,0,1,0-.32,0.45,0.45,0,0,1,.52-0.25,5.09,5.09,0,0,1-.33.77m-2,1.69a1.46,1.46,0,0,1-1-.39,1.28,1.28,0,0,1,0-1.9,1.48,1.48,0,0,1,2,0,1.28,1.28,0,0,1,0,1.9,1.46,1.46,0,0,1-1,.39m-5.64,0a1.48,1.48,0,0,1-1-.39,1.29,1.29,0,0,1,0-1.9,1.49,1.49,0,0,1,1-.4,1.47,1.47,0,0,1,1,.4,1.28,1.28,0,0,1,0,1.9,1.46,1.46,0,0,1-1,.39m7.12-.87a1.34,1.34,0,0,0,.08-0.47,1.42,1.42,0,0,0-.46-1,1.13,1.13,0,0,0-.19-0.16l0.26,0a1.64,1.64,0,0,0,1.11-.43,1.56,1.56,0,0,0,.29-0.38,5.42,5.42,0,0,1-.16.73,0.6,0.6,0,0,0-.69.33,0.51,0.51,0,0,0,0,.41,0.52,0.52,0,0,0,.24.27,4.87,4.87,0,0,1-.48.7m-8.61,0a4.59,4.59,0,0,1-.45-0.63,0.54,0.54,0,0,0,.24-0.69,0.62,0.62,0,0,0-.32-0.29,0.64,0.64,0,0,0-.38,0,4.71,4.71,0,0,1-.18-0.82,1.54,1.54,0,0,0,.29.38,1.61,1.61,0,0,0,1.1.43l0.26,0a1.43,1.43,0,0,0-.19.16,1.41,1.41,0,0,0-.46,1,1.29,1.29,0,0,0,.08.47m2.19-1.77a1.63,1.63,0,0,0-.7-0.16l-0.26,0,0.19-.15a1.44,1.44,0,0,0,.38-0.59,2.49,2.49,0,0,0,.16.48,2.33,2.33,0,0,0,.23.4m4.22,0a2,2,0,0,0,.24-0.4,2.41,2.41,0,0,0,.16-0.49,1.4,1.4,0,0,0,.38.6l0.19,0.16-0.26,0a1.68,1.68,0,0,0-.71.16m1.89-1a0.3,0.3,0,1,1,.33-0.3,0.31,0.31,0,0,1-.33.3m-8,0a0.3,0.3,0,1,1,.33-0.3,0.31,0.31,0,0,1-.33.3m8,0.13a0.43,0.43,0,1,0-.46-0.43,0.45,0.45,0,0,0,.46.43m-8,0a0.43,0.43,0,1,0-.46-0.43,0.45,0.45,0,0,0,.46.43m8,0.39a0.82,0.82,0,1,1,.88-0.82,0.85,0.85,0,0,1-.88.82m-8,0a0.82,0.82,0,1,1,.88-0.82,0.85,0.85,0,0,1-.88.82m8,0.13a1,1,0,1,0-1-1,1,1,0,0,0,1,1m-8,0a1,1,0,1,0-1-1,1,1,0,0,0,1,1m6.49-1.4a2.49,2.49,0,0,0-.16-0.48,1.81,1.81,0,0,0-.24-0.4,1.65,1.65,0,0,0,.71.16l0.26,0-0.2.16a1.38,1.38,0,0,0-.38.59m1.49,1.79a1.34,1.34,0,1,1,1.43-1.34,1.39,1.39,0,0,1-1.43,1.34m-6.49-1.79a1.46,1.46,0,0,0-.38-0.58l-0.2-.16,0.26,0a1.57,1.57,0,0,0,.72-0.16,2.24,2.24,0,0,0-.24.41,2.43,2.43,0,0,0-.16.47m-1.49,1.79a1.34,1.34,0,1,1,1.43-1.34,1.38,1.38,0,0,1-1.43,1.34m-1.19-2.86a4.79,4.79,0,0,1,.33-0.78,0.45,0.45,0,0,1,.19.2,0.42,0.42,0,0,1,0,.32,0.45,0.45,0,0,1-.52.26m10.35-.08a0.45,0.45,0,0,1-.28,0,0.47,0.47,0,0,1-.25-0.23,0.41,0.41,0,0,1,.18-0.52,4.71,4.71,0,0,1,.35.76m-3.74-.38a2,2,0,0,0-.43-0.22,2.41,2.41,0,0,0-.51-0.14,1.6,1.6,0,0,0,.63-0.36,1.38,1.38,0,0,0,.17-0.18,1.37,1.37,0,0,0,0,.24,1.41,1.41,0,0,0,.17.67m-2.85,0a1.44,1.44,0,0,0,.17-0.67,1.38,1.38,0,0,0,0-.25,1.43,1.43,0,0,0,.17.19,1.62,1.62,0,0,0,.64.36,2.28,2.28,0,0,0-.51.14,2.48,2.48,0,0,0-.44.23m4.25-.37a0.34,0.34,0,0,1-.23-0.09,0.29,0.29,0,0,1,0-.43,0.34,0.34,0,0,1,.23-0.09,0.34,0.34,0,0,1,.23.09,0.29,0.29,0,0,1,0,.43,0.34,0.34,0,0,1-.23.09m-5.64,0a0.34,0.34,0,0,1-.23-0.09,0.29,0.29,0,0,1,0-.43,0.33,0.33,0,0,1,.23-0.08,0.31,0.31,0,0,1,.23.08,0.29,0.29,0,0,1,0,.43,0.32,0.32,0,0,1-.23.09m5.64,0.13a0.46,0.46,0,0,0,.32-0.13,0.41,0.41,0,0,0,0-.61,0.46,0.46,0,0,0-.32-0.13,0.48,0.48,0,0,0-.33.13,0.41,0.41,0,0,0,0,.61,0.48,0.48,0,0,0,.33.13m-5.64,0a0.48,0.48,0,0,0,.33-0.13,0.43,0.43,0,0,0,0-.61,0.51,0.51,0,0,0-.33-0.12,0.48,0.48,0,0,0-.32.12,0.41,0.41,0,0,0,0,.61,0.45,0.45,0,0,0,.32.13m-2.56,1.55a3.83,3.83,0,0,1,.16-0.74h0.14a0.59,0.59,0,0,0,.55-0.34,0.52,0.52,0,0,0,0-.42,0.55,0.55,0,0,0-.25-0.26,4.45,4.45,0,0,1,.48-0.69,1.4,1.4,0,0,0-.08.45,1.42,1.42,0,0,0,.46,1,1.18,1.18,0,0,0,.2.16l-0.26,0a1.61,1.61,0,0,0-1.1.43,1.34,1.34,0,0,0-.29.38m10.78,0a1.54,1.54,0,0,0-.29-0.37,1.61,1.61,0,0,0-1.11-.43,1.14,1.14,0,0,0-.26,0l0.19-.16a1.42,1.42,0,0,0,.46-1,1.53,1.53,0,0,0-.08-0.47,6,6,0,0,1,.44.64,0.54,0.54,0,0,0-.24.69,0.55,0.55,0,0,0,.32.29,0.63,0.63,0,0,0,.22,0l0.15,0a5.32,5.32,0,0,1,.19.8m-2.57-1.15a0.9,0.9,0,0,1-.62-0.24,0.79,0.79,0,0,1,0-1.17,0.9,0.9,0,0,1,.62-0.24,0.89,0.89,0,0,1,.61.24,0.78,0.78,0,0,1,0,1.17,0.89,0.89,0,0,1-.61.24m-5.64,0a0.91,0.91,0,0,1-.62-0.25,0.79,0.79,0,0,1,0-1.16,0.93,0.93,0,0,1,1.24,0,0.79,0.79,0,0,1,0,1.16,0.91,0.91,0,0,1-.62.25m5.64,0.13a1,1,0,0,0,.72-0.28,0.91,0.91,0,0,0,0-1.35,1,1,0,0,0-.72-0.28,1,1,0,0,0-.72.28,0.91,0.91,0,0,0,0,1.35,1,1,0,0,0,.72.28m-5.64,0a1.05,1.05,0,0,0,.72-0.29,0.91,0.91,0,0,0,0-1.34,1.07,1.07,0,0,0-1.44,0,0.91,0.91,0,0,0,0,1.34,1,1,0,0,0,.72.29m5.64,0.39a1.47,1.47,0,0,1-1-.4,1.29,1.29,0,0,1,0-1.89,1.49,1.49,0,0,1,2,0,1.29,1.29,0,0,1,0,1.89,1.47,1.47,0,0,1-1,.4m-5.64,0a1.46,1.46,0,0,1-1-.39,1.28,1.28,0,0,1,0-1.9,1.5,1.5,0,0,1,2,0,1.28,1.28,0,0,1,0,1.9,1.46,1.46,0,0,1-1,.39m2.82-2.13a0.3,0.3,0,1,1,.33-0.3,0.31,0.31,0,0,1-.33.3m0,0.13a0.43,0.43,0,1,0-.46-0.43,0.45,0.45,0,0,0,.46.43m0,0.39a0.82,0.82,0,1,1,.88-0.82,0.85,0.85,0,0,1-.88.82m0,0.13a1,1,0,1,0-1-1,1,1,0,0,0,1,1m1.93-1.55a0.46,0.46,0,0,1-.25-0.23,0.4,0.4,0,0,1,0-.28,5.57,5.57,0,0,1,.83.32,0.47,0.47,0,0,1-.56.19m-3.85,0a0.47,0.47,0,0,1-.58-0.19,6.37,6.37,0,0,1,.83-0.32,0.37,0.37,0,0,1,0,.28,0.42,0.42,0,0,1-.24.23m3.47,0.83a1.39,1.39,0,0,0,0-.24,1.42,1.42,0,0,0-.46-1,1.63,1.63,0,0,0-.39-0.27,5.93,5.93,0,0,1,.82.16,0.5,0.5,0,0,0,0,.38,0.54,0.54,0,0,0,.32.29,0.65,0.65,0,0,0,.22,0,0.59,0.59,0,0,0,.51-0.28l0.21,0.12a5,5,0,0,1,.5.32,1.64,1.64,0,0,0-1.61.36l-0.16.18m-3.09,0A1.42,1.42,0,0,0,474,1008a1.61,1.61,0,0,0-1.11-.43,1.51,1.51,0,0,0-.48.07,5,5,0,0,1,.45-0.29l0.24-.13a0.6,0.6,0,0,0,.52.29,0.62,0.62,0,0,0,.24,0,0.54,0.54,0,0,0,.31-0.3,0.54,0.54,0,0,0,0-.38,5.83,5.83,0,0,1,.83-0.16,1.66,1.66,0,0,0-.4.27,1.44,1.44,0,0,0-.46,1,1.45,1.45,0,0,0,0,.25m1.55,1.09a1.34,1.34,0,1,1,1.43-1.34,1.39,1.39,0,0,1-1.43,1.34m-8.18,7.2,0.53-.52v0.52h-0.53Zm-10.69-.52,0.53,0.52h-0.53V1016Zm8.39,0,0.55,0.53h-0.55V1016Zm-6.13.53,0.57-.55v0.55H459.1Zm7.55-.08-0.61-.6,0.61-.6,0.6,0.6Zm-8.41-1.19,0.61,0.6-0.61.6-0.6-.6Zm9.82,0.44-0.54-.53,0.54-.53v1.06Zm-11.22-1.06,0.55,0.53-0.55.53v-1.06Zm8.39,1.07v-1.09l0.56,0.55Zm-5.57-1.11v1.12l-0.57-.56Zm7,0.47-0.61-.59,0.61-.6,0.6,0.6Zm-8.41-1.19,0.61,0.6-0.61.59-0.6-.59Zm9.82,0.43-0.54-.52,0.54-.53v1.06Zm-11.22-1.06,0.55,0.54-0.55.53v-1.07Zm8.39,1.08v-1.09l0.56,0.55Zm-5.57-1.11v1.12l-0.57-.56Zm2.78,0.32-0.7-.66h1.41Zm4.21,0.14-0.61-.6,0.61-.59,0.6,0.59Zm-8.41-1.19,0.61,0.59-0.61.6-0.6-.6Zm5.94-.58-0.63.59v-0.59h0.63Zm-2.86.57-0.61-.57h0.61v0.57Zm6.74,0.45-0.54-.53,0.54-.53v1.06Zm-11.22-1.06,0.55,0.53-0.55.53v-1.06Zm8.39,1.08v-1.09l0.56,0.54Zm-5.57-1.11v1.11l-0.57-.56Zm2.31-.41h0.9v0.84H462v-0.84Zm4.67,0.87-0.61-.6,0.61-.59,0.6,0.59Zm-8.41-1.19,0.61,0.59-0.61.6-0.6-.6Zm9.82,0.43-0.54-.53,0.54-.53v1.06Zm-11.22-1.06,0.55,0.53-0.55.53v-1.06Zm8.39,1.08v-1.09l0.56,0.54Zm-5.57-1.11v1.12l-0.57-.56Zm3.41,0H464v0.84h-0.9v-0.84Zm-2.18,0h0.91v0.84h-0.91v-0.84Zm3.43,1.36h-0.91v0.84h0l-0.12.12H461.6l-0.14-.14v-0.83h-0.88l-0.77-.71v-0.68h0.94v1h1.09v1H463v-1h1.09v-1h1V1011Zm2.33-.85-0.61-.6,0.61-.6,0.6,0.6Zm-8.41-1.19,0.61,0.6-0.61.6-0.6-.6Zm5.93-.32h0.9v0.84h-0.9v-0.84Zm-4.35,0h0.9v0.84h-0.9v-0.84Zm3.71-.18v0.56h-0.59Zm-2.15,0,0.6,0.56h-0.6v-0.56Zm6.68,0.94-0.54-.53,0.54-.53v1.06Zm-11.22-1.06,0.55,0.53-0.55.53v-1.06Zm9.81,0.43-0.61-.59,0.61-.6,0.6,0.6Zm-8.41-1.19,0.61,0.6-0.61.59-0.6-.59Zm2.07-.14,0.6,0.56h-0.6v-0.56Zm4.32,0v0.6H464Zm3.43,0.61-0.54-.53,0.54-.53v1.06Zm-11.22-1.06,0.55,0.53-0.55.53v-1.06Zm8.25,1.22,0.7,0.69-0.57.56v-0.93H464v1h-1.1v1h-1v-1h-1.08v-1h-1.19v0.93l-0.58-.57,0.7-.69-0.7-.69,0.61-.6,0.46,0.43v0.82H461l0.2,0.19v0.82h0.88l0.29,0.27,0,0,0,0,0.29-.27h0.87v-0.82l0.19-.19h0.9v-0.84h0l0.41-.4,0.62,0.61Zm1.56-.78-0.61-.59,0.61-.6,0.6,0.6Zm-8.41-1.19,0.61,0.6-0.61.59-0.6-.59Zm9.82,0.43-0.52-.51h0.52v0.51Zm-1.31,9.08,0.69-.67-0.7-.69,0.7-.69-0.7-.69,0.7-.69-0.7-.69,0.7-.69-0.7-.69,0.7-.69-0.7-.69,0.7-.69-0.7-.69,0.7-.69-0.68-.67h0.59l0,0,0.66,0.65-0.7.69,0.7,0.69-0.7.69,0.7,0.69-0.7.69,0.7,0.69-0.7.69,0.7,0.69-0.7.69,0.7,0.69-0.7.69,0.7,0.69-0.69.67h-0.59Zm-0.23-9.59-0.68.67,0.7,0.69-0.7.69,0.7,0.69-0.7.69,0.7,0.69-0.7.69,0.7,0.69-0.7.69,0.7,0.69-0.7.69,0.7,0.69-0.7.69,0.69,0.67H466l-0.69-.67,0.7-.69-0.7-.69,0.7-.69-0.7-.69,0.7-.69-0.7-.69,0.7-.69-0.7-.69,0.7-.69-0.7-.69,0.7-.69-0.7-.69,0.66-.65h0.59Zm-6.91.65-0.7.69,0.7,0.69-0.7.69,0.7,0.69-0.7.69,0.7,0.69-0.7.69,0.7,0.69-0.7.69,0.7,0.69-0.7.69,0.7,0.69-0.69.68h-0.57l0.69-.67-0.7-.69,0.7-.69-0.7-.69,0.7-.69-0.7-.69,0.7-.69-0.7-.69,0.7-.69-0.7-.69,0.7-.69-0.7-.69,0.7-.69-0.68-.67h0.55Zm-2.08,8.9-0.66-.64,0.7-.69-0.7-.69,0.7-.69-0.7-.69,0.7-.69-0.7-.69,0.7-.69-0.7-.69,0.7-.69-0.7-.69,0.7-.69-0.7-.69,0.66-.65v0h0.57l-0.68.67,0.7,0.69-0.7.69,0.7,0.69-0.7.69,0.7,0.69-0.7.69,0.7,0.69-0.7.69,0.7,0.69-0.7.69,0.7,0.69-0.7.69,0.69,0.67h-0.59a0.06,0.06,0,0,0,0,0m-0.17-9.55-0.52.51v-0.51h0.52Z" transform="translate(-456.84 -1006.6)" style="fill:#fff"/></svg>