<svg xmlns="http://www.w3.org/2000/svg" width="40.37mm" height="8.36mm" viewBox="0 0 114.43 23.71"><title>header-title</title><path d="M569.86,32.91h-1.42a0.72,0.72,0,0,1,1.42,0m-5.42-.22a4.73,4.73,0,0,1-1.36.22,0.7,0.7,0,0,1,.71-0.61,0.72,0.72,0,0,1,.65.39m-2.43.22h-1.42a0.72,0.72,0,0,1,1.42,0m-2.49,0H558.1a0.7,0.7,0,0,1,.71-0.61,0.69,0.69,0,0,1,.7.61m10.94,0a1,1,0,0,1,.35-0.73v0.73h-0.35Zm-1.31-.73a0.82,0.82,0,0,0-.84.73H568a1.19,1.19,0,0,1,2.36,0H570a0.82,0.82,0,0,0-.84-0.73m-4.59.47a0.85,0.85,0,0,0-.77-0.47,0.82,0.82,0,0,0-.84.73h-0.35a1.15,1.15,0,0,1,1.18-1,1.2,1.2,0,0,1,.68.2,1.16,1.16,0,0,1,.41.46l-0.32.13m-5.75-.47a0.82,0.82,0,0,0-.84.73h-0.35a1.19,1.19,0,0,1,2.37,0h-0.35a0.82,0.82,0,0,0-.83-0.73m2.49,0a0.82,0.82,0,0,0-.84.73h-0.34a1.19,1.19,0,0,1,2.36,0h-0.34a0.81,0.81,0,0,0-.84-0.73m6.67-.63h2.84V32a1.22,1.22,0,0,0-.41.57,1.34,1.34,0,0,0-2.42-.15V31.55Zm-3,.92a1.27,1.27,0,0,0-.44-0.5,1.39,1.39,0,0,0-.75-0.22,1.3,1.3,0,0,0-1.24.85,3.4,3.4,0,0,1-3.74-.85,1.33,1.33,0,0,0-1.19.7V31.55h8.56a3.57,3.57,0,0,1-1.2.92m3-1.64a0.69,0.69,0,0,1,.64.61H568V30.83Zm-10.34,0a0.69,0.69,0,0,1,.65.61h-0.65V30.83Zm12.05,0.61a0.7,0.7,0,0,1,.71-0.61,0.77,0.77,0,0,1,.41.12v0.49h-1.13Zm-3.93,0h-1.42a0.72,0.72,0,0,1,1.42,0m-2.49,0h-1.42a0.7,0.7,0,0,1,.71-0.61,0.69,0.69,0,0,1,.7.61m-2.49,0h-1.42a0.72,0.72,0,0,1,1.42,0m2.61,0a0.84,0.84,0,0,0-1.67,0h-0.34a1,1,0,0,1,.28-0.67,1.24,1.24,0,0,1,.71-0.38h0.37a1.22,1.22,0,0,1,.71.38,1.06,1.06,0,0,1,.29.67h-0.35Zm-2.74-1H562a1.38,1.38,0,0,0-.41.3,1.29,1.29,0,0,0-.26.43,1.25,1.25,0,0,0-.66-0.73m8.09,1a0.81,0.81,0,0,0-.77-0.73V30.38a1.15,1.15,0,0,1,1.12,1h-0.35Zm-10.33,0a0.81,0.81,0,0,0-.77-0.73V30.38a1.14,1.14,0,0,1,1.12,1H558.4Zm12-.73a0.82,0.82,0,0,0-.84.73h-0.35a1.15,1.15,0,0,1,1.18-1.06,1.26,1.26,0,0,1,.41.07v0.36a0.83,0.83,0,0,0-.41-0.1m-4.52.73a0.84,0.84,0,0,0-1.67,0h-0.35a1.19,1.19,0,0,1,2.36,0h-0.35Zm-5,0a0.84,0.84,0,0,0-1.67,0h-0.34a1.19,1.19,0,0,1,2.36,0h-0.35Zm9.5-1.17a1.29,1.29,0,0,1-2.42,0V30.07h2.84v0.25a1.45,1.45,0,0,0-.41-0.06m-4,1.1a1.33,1.33,0,0,0-2.55-.25,1.18,1.18,0,0,0-.26-0.43,1.26,1.26,0,0,0-.42-0.3,1.2,1.2,0,0,0,.72-0.31h3.09a3.34,3.34,0,0,1-.58,1.29m-8.72-1.29h2.84v0.25a1.37,1.37,0,0,0-.41-0.06,1.29,1.29,0,0,1-2.43,0V30.07Zm6.53-.64a0.68,0.68,0,0,1,.35.53h-0.57a1.1,1.1,0,0,0,.22-0.53m5.7,0.53h-1.42a0.72,0.72,0,0,1,1.42,0m-4.28,0a0.7,0.7,0,0,1,.71-0.62,0.72,0.72,0,0,1,.68.47l0,0.14h-1.37Zm-6.06,0H558.1a0.7,0.7,0,0,1,.71-0.62,0.69,0.69,0,0,1,.7.62m11.29,0h-0.35a1.08,1.08,0,0,1,.35-0.73V30Zm-10.34,0h-0.34a1.07,1.07,0,0,1,.34-0.73V30Zm4.17,0a0.79,0.79,0,0,0-.46-0.65v0a1.18,1.18,0,0,0,0-.32,1.13,1.13,0,0,1,.85,1h-0.34ZM570,30a0.84,0.84,0,0,0-1.67,0H568a1.19,1.19,0,0,1,2.36,0H570Zm-3.7-.73a0.82,0.82,0,0,0-.84.73h-0.35a1.15,1.15,0,0,1,1.18-1.06,1.22,1.22,0,0,1,.72.23v0.14a2.43,2.43,0,0,1,0,.32,0.86,0.86,0,0,0-.7-0.36m-6.64.73A0.84,0.84,0,0,0,558,30h-0.35A1.19,1.19,0,0,1,560,30h-0.35ZM568,28.59h2.84v0.47a1.22,1.22,0,0,0-.41.57,1.34,1.34,0,0,0-2.42-.14v-0.9Zm-1,0A3.87,3.87,0,0,1,567,29a1.38,1.38,0,0,0-.71-0.19,1.31,1.31,0,0,0-1.25.85,1.27,1.27,0,0,0-1-.82,1.43,1.43,0,0,0-.13-0.22h3Zm-9.32,0h2.84v0.47a1.25,1.25,0,0,0-.41.57,1.3,1.3,0,0,0-1.24-.85,1.32,1.32,0,0,0-1.19.71v-0.9ZM568,27.87a0.69,0.69,0,0,1,.64.61H568V27.87Zm-4.82.3H562a0.66,0.66,0,0,1,.2-0.18,0.74,0.74,0,0,1,.39-0.1,0.72,0.72,0,0,1,.59.3m-5.52-.3a0.69,0.69,0,0,1,.65.61h-0.65V27.87Zm12.05,0.61a0.7,0.7,0,0,1,.71-0.61,0.77,0.77,0,0,1,.41.12v0.49h-1.13Zm-5.35,0a0.72,0.72,0,0,1,1.42,0h-1.42Zm-4.28-.61a0.76,0.76,0,0,1,.38.1,0.79,0.79,0,0,1,.21.19h-0.18v0.32h-1.12a0.7,0.7,0,0,1,.71-0.61m6.87,0.61h-0.57a1.09,1.09,0,0,1,.33-0.72,3.67,3.67,0,0,1,.24.72m1.81,0a0.81,0.81,0,0,0-.77-0.73V27.42a1.15,1.15,0,0,1,1.12,1h-0.35Zm-10.33,0a0.81,0.81,0,0,0-.77-0.73V27.42a1.14,1.14,0,0,1,1.12,1H558.4Zm12-.73a0.82,0.82,0,0,0-.84.73h-0.35a1.16,1.16,0,0,1,1.18-1.06,1.27,1.27,0,0,1,.41.07v0.36a0.91,0.91,0,0,0-.41-0.1m-4.52.73a0.84,0.84,0,0,0-1.67,0h-0.35a1.05,1.05,0,0,1,.35-0.73,1.21,1.21,0,0,1,.83-0.32,1.15,1.15,0,0,1,1.18,1.06h-0.35Zm-2.57-.28a0.84,0.84,0,0,0-.75-0.44,0.89,0.89,0,0,0-.45.12,0.77,0.77,0,0,0-.28.28h-0.38a1.16,1.16,0,0,1,.39-0.5,1.27,1.27,0,0,1,.73-0.23,1.21,1.21,0,0,1,.83.32,1.08,1.08,0,0,1,.34.63,1.26,1.26,0,0,0-.41-0.19m-2.51,0a0.83,0.83,0,0,0-.28-0.28,0.89,0.89,0,0,0-.45-0.12,0.82,0.82,0,0,0-.84.73h-0.34a1.15,1.15,0,0,1,1.18-1.06,1.22,1.22,0,0,1,.72.23,1.15,1.15,0,0,1,.39.51h-0.38Zm9.6-.85a1.31,1.31,0,0,0-1.24.85,1.29,1.29,0,0,0-1.18-.85V27.11h2.84v0.25a1.26,1.26,0,0,0-.41-0.06m-3.76.34a1.17,1.17,0,0,0-.34.51A1.31,1.31,0,0,0,565,27.3a1.36,1.36,0,0,0-.92.36,0.35,0.35,0,1,1-.65,0,1.37,1.37,0,0,0-1.71-.1,1.27,1.27,0,0,0-.46.6,1.25,1.25,0,0,0-.45-0.6,1.37,1.37,0,0,0-.79-0.25,1.3,1.3,0,0,0-1.24.85,1.29,1.29,0,0,0-1.19-.85V27.11h8.66a3.06,3.06,0,0,1,.34.53M566.19,27h-0.61a0.65,0.65,0,0,1,.2-0.41,3,3,0,0,1,.41.41m3.67,0h-1.42a0.72,0.72,0,0,1,1.42,0m-5.35,0h-1.42a0.72,0.72,0,0,1,1.42,0M562,27h-1.42A0.72,0.72,0,0,1,562,27m-2.49,0H558.1a0.7,0.7,0,0,1,.71-0.62,0.69,0.69,0,0,1,.7.62m5.89-.69a3,3,0,0,1,.28.2,0.77,0.77,0,0,0-.23.49h-0.35a1.06,1.06,0,0,1,.3-0.69M570.8,27h-0.35a1.08,1.08,0,0,1,.35-0.73V27ZM570,27a0.84,0.84,0,0,0-1.67,0H568a1.19,1.19,0,0,1,2.36,0H570Zm-5.35,0A0.84,0.84,0,0,0,563,27h-0.35A1.19,1.19,0,0,1,565,27h-0.34Zm-2.49,0a0.84,0.84,0,0,0-1.67,0h-0.34a1.19,1.19,0,0,1,2.36,0h-0.34Zm-2.49,0A0.84,0.84,0,0,0,558,27h-0.35A1.19,1.19,0,0,1,560,27h-0.35ZM568,25.63h2.84V26.1a1.22,1.22,0,0,0-.41.57,1.3,1.3,0,0,0-1.24-.85,1.31,1.31,0,0,0-1.18.71v-0.9Zm-10.34,0H563a4.54,4.54,0,0,1,2.34.61,0.78,0.78,0,1,1-1.51-.41,1.34,1.34,0,0,1-2.49,0,1.33,1.33,0,0,1-2.49,0,1.33,1.33,0,0,0-1.19.71v-0.9Zm12.05-.12a0.7,0.7,0,0,1,.71-0.61,0.77,0.77,0,0,1,.41.12v0.49h-1.13ZM568,24.91a0.69,0.69,0,0,1,.64.61H568V24.91Zm-7.91,0a0.74,0.74,0,0,1,.41.12v0.49h-1.12a0.69,0.69,0,0,1,.71-0.61m-2.43,0a0.69,0.69,0,0,1,.65.61h-0.65V24.91Zm11.11,0.61a0.82,0.82,0,0,0-.77-0.73V24.47a1.15,1.15,0,0,1,1.12,1h-0.35Zm-10.33,0a0.82,0.82,0,0,0-.77-0.73V24.47a1.14,1.14,0,0,1,1.12,1H558.4Zm12-.73a0.82,0.82,0,0,0-.84.73h-0.35a1.16,1.16,0,0,1,1.18-1.06,1.26,1.26,0,0,1,.41.07v0.36a0.91,0.91,0,0,0-.41-0.1m-10.33-.33a1.25,1.25,0,0,1,.41.07v0.36a0.88,0.88,0,0,0-.41-0.1,0.81,0.81,0,0,0-.84.73h-0.34a1.15,1.15,0,0,1,1.18-1.06m10.33-.12a1.29,1.29,0,0,1-2.42,0V24.15h2.84v0.25a1.45,1.45,0,0,0-.41-0.06m-9.93-.19v0.25a1.44,1.44,0,0,0-.41-0.06,1.29,1.29,0,0,1-2.43,0V24.15h2.84Zm9.39-.12h-1.42a0.72,0.72,0,0,1,1.42,0m-10.34,0H558.1a0.7,0.7,0,0,1,.71-0.62,0.69,0.69,0,0,1,.7.62m10.93,0a1.11,1.11,0,0,1,.34-0.73h0V24h-0.35Zm-0.3-.73h0.47a1.25,1.25,0,0,0-.23.4,1.15,1.15,0,0,0-.24-0.4M570.33,24H570a0.81,0.81,0,0,0-.73-0.73H570a1.08,1.08,0,0,1,.34.73M568,23.31H569a0.81,0.81,0,0,0-.73.73H568V23.31Zm-7.5,0V24h-0.34a1.07,1.07,0,0,1,.34-0.73h0Zm-0.41.4a1.28,1.28,0,0,0-.23-0.4h0.47a1.14,1.14,0,0,0-.23.4M560,24h-0.35a0.81,0.81,0,0,0-.73-0.73h0.75A1.11,1.11,0,0,1,560,24m-1.28-.73A0.81,0.81,0,0,0,558,24h-0.35V23.31h1.08Zm-4.32,9.58a1.94,1.94,0,0,0,.37-0.24l0.12-.12V32.9h-0.48Zm-6.1-.36V32.9h-0.48a1.81,1.81,0,0,0,.48-0.36m6.58-.35h0a1,1,0,0,1-.77.69h-1.28c0.23-.12.49-0.23,0.75-0.33a3.79,3.79,0,0,0,1.31-.73v0.35Zm-6.58-.36V32.2a1.07,1.07,0,0,1-.78.69h-1.28c0.23-.12.49-0.23,0.75-0.33a3.76,3.76,0,0,0,1.31-.73m6.58-.35h0a0.68,0.68,0,0,1-.41.5,6.57,6.57,0,0,1-1,.45,7.58,7.58,0,0,0-1,.45h-0.47v0a2.48,2.48,0,0,1,1.49-1,3.8,3.8,0,0,0,1.31-.73v0.35Zm-9.39,1.37a2.53,2.53,0,0,1,1.49-1,3.78,3.78,0,0,0,1.31-.73V31.5a0.68,0.68,0,0,1-.41.5,6.68,6.68,0,0,1-1,.45,8.18,8.18,0,0,0-1,.45h-0.47v0Zm9.39-2.08h0a0.69,0.69,0,0,1-.41.51,7.44,7.44,0,0,1-1,.45,3.69,3.69,0,0,0-1.44.83V32.15a2.45,2.45,0,0,1,1.49-1,3.79,3.79,0,0,0,1.31-.73v0.35Zm-6.58-.35v0.36a0.69,0.69,0,0,1-.41.51,7.57,7.57,0,0,1-1,.45,4,4,0,0,0-1.44.82V32.15a2.5,2.5,0,0,1,1.49-1,3.76,3.76,0,0,0,1.31-.73m6.58-.35h0a0.68,0.68,0,0,1-.41.51,7.44,7.44,0,0,1-1,.45,3.69,3.69,0,0,0-1.44.83V31.45a2.51,2.51,0,0,1,1.49-1,3.79,3.79,0,0,0,1.31-.73v0.35Zm-6.58-.36v0.36a0.68,0.68,0,0,1-.41.51,7.57,7.57,0,0,1-1,.45,4,4,0,0,0-1.44.82V31.45a2.56,2.56,0,0,1,1.49-1,3.76,3.76,0,0,0,1.31-.73m4.37-.43a0.17,0.17,0,1,1,0,.33,0.17,0.17,0,1,1,0-.33m-6.57,0a0.17,0.17,0,1,1-.18.17,0.17,0.17,0,0,1,.18-0.17m6.57,0.5a0.3,0.3,0,1,0-.32-0.3,0.3,0.3,0,0,0,.32.3m-6.57,0a0.3,0.3,0,1,0-.32-0.3,0.31,0.31,0,0,0,.32.3m8.78-.35h0a0.68,0.68,0,0,1-.41.5,6.57,6.57,0,0,1-1,.45,3.79,3.79,0,0,0-1.44.82V30.75a2.48,2.48,0,0,1,1.49-1,3.8,3.8,0,0,0,1.31-.73v0.35ZM548.29,29v0.37a0.68,0.68,0,0,1-.41.5,6.68,6.68,0,0,1-1,.45,3.88,3.88,0,0,0-1.44.82V30.75a2.53,2.53,0,0,1,1.49-1,3.68,3.68,0,0,0,1.31-.73m5.19-.43a0.17,0.17,0,1,1-.18.17,0.18,0.18,0,0,1,.18-0.17m-6.59,0a0.17,0.17,0,1,1-.18.17,0.17,0.17,0,0,1,.18-0.17m6.59,0.5a0.3,0.3,0,1,0-.32-0.3,0.31,0.31,0,0,0,.32.3m-6.59,0a0.3,0.3,0,1,0-.32-0.29,0.31,0.31,0,0,0,.32.29M554.3,28a0.17,0.17,0,1,1,0,.33,0.17,0.17,0,1,1,0-.33m-1.63,0a0.17,0.17,0,1,1-.18.17,0.17,0.17,0,0,1,.18-0.17m-5,0a0.17,0.17,0,1,1-.18.17,0.17,0.17,0,0,1,.18-0.17m-1.6,0a0.17,0.17,0,1,1-.18.17,0.17,0.17,0,0,1,.18-0.17m8.2,0.5a0.3,0.3,0,1,0-.31-0.29,0.3,0.3,0,0,0,.31.29m-1.63,0a0.3,0.3,0,1,0,0-.59,0.3,0.3,0,1,0,0,.59m-5,0a0.3,0.3,0,1,0-.32-0.3,0.31,0.31,0,0,0,.32.3m-1.6,0a0.3,0.3,0,1,0-.32-0.3,0.31,0.31,0,0,0,.32.3m7.38-1.13a0.17,0.17,0,1,1-.18.16,0.17,0.17,0,0,1,.18-0.16m-6.59,0a0.17,0.17,0,1,1-.18.17,0.17,0.17,0,0,1,.18-0.17m6.59,0.5a0.3,0.3,0,1,0-.32-0.3,0.31,0.31,0,0,0,.32.3m-6.59,0a0.3,0.3,0,1,0-.32-0.29,0.31,0.31,0,0,0,.32.29m4.62,0.89a0.07,0.07,0,0,0-.07.06,0.07,0.07,0,0,0,.07.07,0.19,0.19,0,0,1,.21.19,0.23,0.23,0,0,1-.25.24,0.24,0.24,0,0,1-.26-0.27,1.78,1.78,0,0,1,.29-0.69,2,2,0,0,0,.34-0.85,0.37,0.37,0,0,0-.39-0.4,0.4,0.4,0,0,0-.3.11,0.37,0.37,0,0,0-.1.26,0.33,0.33,0,0,0,.35.32,0.07,0.07,0,0,0,.07-0.07,0.07,0.07,0,0,0-.07-0.07,0.19,0.19,0,0,1-.21-0.19,0.23,0.23,0,0,1,.26-0.24,0.24,0.24,0,0,1,.25.27,1.85,1.85,0,0,1-.32.78,1.81,1.81,0,0,0-.31.75,0.37,0.37,0,0,0,.39.4,0.4,0.4,0,0,0,.29-0.11,0.37,0.37,0,0,0,.1-0.26,0.33,0.33,0,0,0-.34-0.32m-0.85,0a0.07,0.07,0,0,0-.07.06,0.06,0.06,0,0,0,.07.07,0.2,0.2,0,0,1,.21.19,0.23,0.23,0,0,1-.26.24,0.24,0.24,0,0,1-.26-0.27,1.71,1.71,0,0,1,.3-0.69,2,2,0,0,0,.34-0.85,0.37,0.37,0,0,0-.39-0.4,0.39,0.39,0,0,0-.29.11,0.34,0.34,0,0,0-.1.26,0.33,0.33,0,0,0,.35.32,0.07,0.07,0,0,0,.07-0.07,0.06,0.06,0,0,0-.07-0.07,0.2,0.2,0,0,1-.21-0.19,0.23,0.23,0,0,1,.26-0.24,0.24,0.24,0,0,1,.26.27,1.87,1.87,0,0,1-.32.78,1.81,1.81,0,0,0-.31.75,0.37,0.37,0,0,0,.39.4,0.41,0.41,0,0,0,.3-0.11,0.37,0.37,0,0,0,.1-0.26,0.33,0.33,0,0,0-.35-0.32m-0.86,0a0.07,0.07,0,0,0-.07.06,0.07,0.07,0,0,0,.07.07,0.19,0.19,0,0,1,.21.19,0.22,0.22,0,0,1-.25.24,0.24,0.24,0,0,1-.26-0.27,1.68,1.68,0,0,1,.29-0.69,2,2,0,0,0,.34-0.85,0.37,0.37,0,0,0-.39-0.4,0.4,0.4,0,0,0-.3.11,0.37,0.37,0,0,0-.1.26,0.33,0.33,0,0,0,.35.32,0.07,0.07,0,0,0,.07-0.07,0.07,0.07,0,0,0-.07-0.07,0.19,0.19,0,0,1-.21-0.19,0.22,0.22,0,0,1,.26-0.24,0.24,0.24,0,0,1,.25.27,1.86,1.86,0,0,1-.32.78,1.88,1.88,0,0,0-.3.75,0.37,0.37,0,0,0,.39.4,0.4,0.4,0,0,0,.29-0.11,0.37,0.37,0,0,0,.1-0.26,0.33,0.33,0,0,0-.34-0.32m-0.85,0a0.07,0.07,0,0,0-.07.06,0.06,0.06,0,0,0,.07.07,0.19,0.19,0,0,1,.21.19,0.23,0.23,0,0,1-.26.24,0.23,0.23,0,0,1-.25-0.27,1.68,1.68,0,0,1,.29-0.69,2,2,0,0,0,.34-0.85,0.37,0.37,0,0,0-.39-0.4,0.39,0.39,0,0,0-.29.11,0.34,0.34,0,0,0-.1.26,0.33,0.33,0,0,0,.34.32,0.07,0.07,0,0,0,.07-0.07,0.06,0.06,0,0,0-.07-0.07,0.19,0.19,0,0,1-.2-0.19,0.22,0.22,0,0,1,.25-0.24,0.24,0.24,0,0,1,.26.27,1.86,1.86,0,0,1-.32.78,1.78,1.78,0,0,0-.3.75,0.36,0.36,0,0,0,.39.4,0.4,0.4,0,0,0,.3-0.11,0.37,0.37,0,0,0,.1-0.26,0.33,0.33,0,0,0-.35-0.32m-0.52-1.72h3.51v2.51h-3.51V26.85Zm5.86-.22a0.17,0.17,0,1,1,0,.33,0.17,0.17,0,1,1,0-.33m-1.63,0a0.17,0.17,0,1,1-.18.17,0.17,0.17,0,0,1,.18-0.17m-5,0a0.17,0.17,0,1,1-.18.17,0.17,0.17,0,0,1,.18-0.17m-1.6,0a0.17,0.17,0,1,1-.18.17,0.17,0.17,0,0,1,.18-0.17m8.2,0.5A0.3,0.3,0,1,0,554,26.8a0.3,0.3,0,0,0,.31.29m-1.63,0a0.3,0.3,0,1,0,0-.59,0.3,0.3,0,1,0,0,.59m-5,0a0.3,0.3,0,1,0-.32-0.3,0.31,0.31,0,0,0,.32.3m-1.6,0a0.3,0.3,0,1,0-.32-0.3,0.31,0.31,0,0,0,.32.3m7.38-1.13a0.17,0.17,0,1,1-.18.16,0.17,0.17,0,0,1,.18-0.16m-6.59,0a0.17,0.17,0,1,1-.18.17,0.17,0.17,0,0,1,.18-0.17m6.59,0.5a0.3,0.3,0,1,0-.32-0.3,0.31,0.31,0,0,0,.32.3m-6.59,0a0.3,0.3,0,1,0-.32-0.29,0.31,0.31,0,0,0,.32.29m7.4-1.06a0.17,0.17,0,1,1,0,.33,0.17,0.17,0,1,1,0-.33m-1.63,0a0.17,0.17,0,1,1-.18.17,0.17,0.17,0,0,1,.18-0.17m-5,0a0.17,0.17,0,1,1,0,.34,0.17,0.17,0,1,1,0-.34m-1.6,0a0.17,0.17,0,1,1-.18.17,0.17,0.17,0,0,1,.18-0.17m8.2,0.5a0.3,0.3,0,1,0-.31-0.29,0.3,0.3,0,0,0,.31.29m-1.63,0a0.3,0.3,0,1,0,0-.59,0.3,0.3,0,1,0,0,.59m-5,0a0.3,0.3,0,1,0-.32-0.3,0.31,0.31,0,0,0,.32.3m-1.6,0a0.3,0.3,0,1,0-.32-0.3,0.31,0.31,0,0,0,.32.3m6-.85h2.8v3.8h0a0.68,0.68,0,0,1-.41.5,6.64,6.64,0,0,1-1,.45,3.78,3.78,0,0,0-1.44.82V24.87Zm-6.59,0h2.8v3.81a0.69,0.69,0,0,1-.41.5,6.75,6.75,0,0,1-1,.45,4,4,0,0,0-1.44.82V24.87Zm8.95-1.36,0.39,1.23H554Zm-0.57,1.23H553.1l0.38-1.23Zm-1,0h-0.77l0.38-1.23Zm-4.66,0h-0.77l0.39-1.23Zm-0.95,0h-0.77l0.39-1.23Zm-1,0h-0.77L546,23.51Zm8.52-.28-0.37-1.15h0.37v1.15Zm-0.92.1-0.39-1.25h0.79Zm-1,0-0.39-1.26h0.79Zm-0.93-1.26h0.37l-0.37,1.19V23.31Zm-3.79,1.1-0.34-1.1h0.34v1.1Zm-0.9.15L547,23.31h0.79Zm-0.95,0L546,23.31h0.79Zm-0.56-1.26-0.39,1.24V23.31h0.39ZM536.23,33a5.18,5.18,0,0,1-.82-0.31,0.46,0.46,0,0,1,.21-0.17,0.51,0.51,0,0,1,.34,0,0.41,0.41,0,0,1,.27.49m3.33,0a0.39,0.39,0,0,1,0-.27,0.45,0.45,0,0,1,.24-0.23,0.47,0.47,0,0,1,.56.16,6.4,6.4,0,0,1-.82.33m-1,.21a1.47,1.47,0,0,0,.86-1.31,1.39,1.39,0,0,0,0-.24,1.92,1.92,0,0,0,.17.18,1.58,1.58,0,0,0,1.11.43,1.81,1.81,0,0,0,.5-0.07,6.27,6.27,0,0,1-.67.41,0.62,0.62,0,0,0-.74-0.23,0.56,0.56,0,0,0-.34.65,5.48,5.48,0,0,1-.86.17m-1.42,0a5.34,5.34,0,0,1-.78-0.15,0.54,0.54,0,0,0-.35-0.65,0.61,0.61,0,0,0-.44,0,0.55,0.55,0,0,0-.28.23,6.14,6.14,0,0,1-.75-0.45,1.81,1.81,0,0,0,.5.07,1.61,1.61,0,0,0,1.11-.43,1.36,1.36,0,0,0,.17-0.18,1.39,1.39,0,0,0,0,.24,1.44,1.44,0,0,0,.46,1,1.47,1.47,0,0,0,.4.27m0.71-1a0.3,0.3,0,1,1,.33-0.3,0.31,0.31,0,0,1-.33.3m0,0.13a0.43,0.43,0,1,0-.46-0.43,0.45,0.45,0,0,0,.46.43m0,0.39a0.82,0.82,0,1,1,.88-0.82,0.85,0.85,0,0,1-.88.82m0,0.13a1,1,0,1,0-1-1,1,1,0,0,0,1,1m0,0.39a1.34,1.34,0,1,1,1.43-1.34,1.39,1.39,0,0,1-1.43,1.34m2.82-2.14a0.35,0.35,0,0,1-.23-0.08,0.29,0.29,0,0,1,0-.43,0.33,0.33,0,0,1,.23-0.09,0.34,0.34,0,0,1,.23.09,0.29,0.29,0,0,1,0,.43,0.36,0.36,0,0,1-.23.08m-5.64,0A0.36,0.36,0,0,1,534.8,31a0.31,0.31,0,0,1,0-.43,0.34,0.34,0,0,1,.23-0.09,0.34,0.34,0,0,1,.23.09,0.29,0.29,0,0,1,0,.43,0.36,0.36,0,0,1-.23.08m5.64,0.13a0.47,0.47,0,0,0,.32-0.12,0.42,0.42,0,0,0,0-.62,0.47,0.47,0,0,0-.65,0,0.41,0.41,0,0,0,0,.62,0.47,0.47,0,0,0,.32.12m-5.64,0a0.49,0.49,0,0,0,.32-0.12,0.42,0.42,0,0,0,.14-0.31,0.41,0.41,0,0,0-.14-0.3,0.46,0.46,0,0,0-.32-0.13,0.48,0.48,0,0,0-.33.13,0.43,0.43,0,0,0-.13.3,0.44,0.44,0,0,0,.13.31,0.51,0.51,0,0,0,.33.12m4.09-.19a1.42,1.42,0,0,0-.17-0.18,1.6,1.6,0,0,0-.63-0.36,2.9,2.9,0,0,0,.51-0.14,2.94,2.94,0,0,0,.43-0.22,1.44,1.44,0,0,0-.17.66,1.39,1.39,0,0,0,0,.25m-2.55,0a0.94,0.94,0,0,0,0-.25,1.37,1.37,0,0,0-.17-0.66,3.44,3.44,0,0,0,.44.22,2.73,2.73,0,0,0,.51.14,1.62,1.62,0,0,0-.64.36l-0.17.18m4.1,0.58a0.91,0.91,0,0,1-.62-0.24,0.79,0.79,0,0,1-.26-0.58,0.78,0.78,0,0,1,.26-0.58,0.91,0.91,0,0,1,1.24,0,0.79,0.79,0,0,1,0,1.16,0.9,0.9,0,0,1-.62.24m-5.64,0a0.91,0.91,0,0,1-.62-0.24,0.78,0.78,0,0,1,0-1.16,0.91,0.91,0,0,1,.62-0.25,0.88,0.88,0,0,1,.61.25,0.79,0.79,0,0,1,.26.58,0.8,0.8,0,0,1-.26.58,0.88,0.88,0,0,1-.61.24m5.64,0.13a1,1,0,0,0,.72-0.28,0.92,0.92,0,0,0,0-1.35,1.07,1.07,0,0,0-1.44,0,0.91,0.91,0,0,0,0,1.35,1,1,0,0,0,.72.28m-5.64,0a1,1,0,0,0,.72-0.28,0.91,0.91,0,0,0,0-1.35A1.07,1.07,0,0,0,535,29.8a1.06,1.06,0,0,0-.72.28,0.91,0.91,0,0,0,0,1.35,1,1,0,0,0,.72.28m-2-1.22a4.59,4.59,0,0,1-.34-0.77,0.51,0.51,0,0,1,.28,0,0.44,0.44,0,0,1,.24.22,0.41,0.41,0,0,1-.17.53m9.67-.08a0.47,0.47,0,0,1-.19-0.19,0.38,0.38,0,0,1,0-.32,0.45,0.45,0,0,1,.52-0.25,5.1,5.1,0,0,1-.33.77m-2,1.69a1.47,1.47,0,0,1-1-.39,1.28,1.28,0,0,1,0-1.9,1.48,1.48,0,0,1,2,0,1.29,1.29,0,0,1,.42.95,1.31,1.31,0,0,1-.42,1,1.47,1.47,0,0,1-1,.39m-5.64,0a1.48,1.48,0,0,1-1-.39,1.29,1.29,0,0,1,0-1.9,1.49,1.49,0,0,1,1-.4,1.47,1.47,0,0,1,1,.4,1.28,1.28,0,0,1,0,1.9,1.47,1.47,0,0,1-1,.39m7.12-.87a1.33,1.33,0,0,0,.08-0.47,1.42,1.42,0,0,0-.46-1,1.09,1.09,0,0,0-.19-0.16l0.26,0a1.64,1.64,0,0,0,1.11-.43,1.57,1.57,0,0,0,.29-0.38,5.42,5.42,0,0,1-.16.73,0.59,0.59,0,0,0-.69.33,0.51,0.51,0,0,0,0,.41,0.52,0.52,0,0,0,.24.27,5,5,0,0,1-.48.7m-8.61,0a4.64,4.64,0,0,1-.45-0.63,0.54,0.54,0,0,0,.24-0.69A0.61,0.61,0,0,0,533,29.6a0.64,0.64,0,0,0-.38,0,4.67,4.67,0,0,1-.18-0.82,1.55,1.55,0,0,0,.29.38,1.61,1.61,0,0,0,1.1.43l0.26,0a1.38,1.38,0,0,0-.19.16,1.41,1.41,0,0,0-.46,1,1.31,1.31,0,0,0,.08.47m2.19-1.77a1.62,1.62,0,0,0-.7-0.16l-0.26,0,0.19-.15a1.45,1.45,0,0,0,.38-0.59,2.43,2.43,0,0,0,.16.48,2.36,2.36,0,0,0,.23.4m4.22,0a2,2,0,0,0,.23-0.4,2.31,2.31,0,0,0,.16-0.49,1.4,1.4,0,0,0,.38.6l0.19,0.16-0.26,0a1.67,1.67,0,0,0-.71.16m1.89-1a0.31,0.31,0,1,1,.33-0.3,0.31,0.31,0,0,1-.33.3m-8,0a0.31,0.31,0,1,1,.33-0.3,0.31,0.31,0,0,1-.33.3m8,0.13a0.43,0.43,0,1,0-.46-0.43,0.45,0.45,0,0,0,.46.43m-8,0a0.43,0.43,0,1,0-.46-0.43,0.45,0.45,0,0,0,.46.43m8,0.39a0.82,0.82,0,1,1,.88-0.82,0.85,0.85,0,0,1-.88.82m-8,0a0.82,0.82,0,1,1,.88-0.82,0.85,0.85,0,0,1-.88.82m8,0.13a1,1,0,1,0-1-1,1,1,0,0,0,1,1m-8,0a1,1,0,1,0-1-1,1,1,0,0,0,1,1m6.49-1.4a2.39,2.39,0,0,0-.16-0.48,1.8,1.8,0,0,0-.23-0.4,1.64,1.64,0,0,0,.71.16l0.26,0a1.44,1.44,0,0,0-.2.16,1.38,1.38,0,0,0-.38.59m1.49,1.79a1.34,1.34,0,1,1,1.43-1.34,1.39,1.39,0,0,1-1.43,1.34m-6.49-1.79a1.47,1.47,0,0,0-.38-0.58l-0.2-.16,0.26,0a1.57,1.57,0,0,0,.72-0.16,2.27,2.27,0,0,0-.24.41,2.38,2.38,0,0,0-.16.47m-1.49,1.79a1.34,1.34,0,1,1,1.43-1.34,1.38,1.38,0,0,1-1.43,1.34m-1.19-2.86a4.78,4.78,0,0,1,.33-0.78,0.45,0.45,0,0,1,.19.2,0.42,0.42,0,0,1,0,.32,0.45,0.45,0,0,1-.52.26M543,26.5a0.45,0.45,0,0,1-.28,0,0.46,0.46,0,0,1-.25-0.23,0.41,0.41,0,0,1,.18-0.52,4.73,4.73,0,0,1,.35.76m-3.74-.38a2.06,2.06,0,0,0-.43-0.22,2.4,2.4,0,0,0-.51-0.14A1.59,1.59,0,0,0,539,25.4a1.37,1.37,0,0,0,.17-0.18,1.37,1.37,0,0,0,0,.24,1.41,1.41,0,0,0,.17.67m-2.85,0a1.44,1.44,0,0,0,.17-0.67,1.39,1.39,0,0,0,0-.25,1.47,1.47,0,0,0,.17.19,1.61,1.61,0,0,0,.64.36,2.28,2.28,0,0,0-.51.14,2.58,2.58,0,0,0-.44.23m4.25-.37a0.34,0.34,0,0,1-.23-0.09,0.29,0.29,0,0,1,0-.43,0.34,0.34,0,0,1,.23-0.09,0.33,0.33,0,0,1,.23.09,0.29,0.29,0,0,1,0,.43,0.33,0.33,0,0,1-.23.09m-5.64,0a0.33,0.33,0,0,1-.23-0.09,0.29,0.29,0,0,1-.1-0.21,0.3,0.3,0,0,1,.1-0.22,0.33,0.33,0,0,1,.23-0.08,0.31,0.31,0,0,1,.23.08,0.3,0.3,0,0,1,.1.22,0.29,0.29,0,0,1-.1.21,0.31,0.31,0,0,1-.23.09m5.64,0.13a0.46,0.46,0,0,0,.32-0.13,0.41,0.41,0,0,0,0-.61,0.46,0.46,0,0,0-.32-0.13,0.48,0.48,0,0,0-.33.13,0.41,0.41,0,0,0,0,.61,0.48,0.48,0,0,0,.33.13m-5.64,0a0.48,0.48,0,0,0,.33-0.13,0.43,0.43,0,0,0,0-.62A0.51,0.51,0,0,0,535,25a0.47,0.47,0,0,0-.32.12,0.41,0.41,0,0,0,0,.62,0.45,0.45,0,0,0,.32.13m-2.56,1.55a3.83,3.83,0,0,1,.16-0.74h0.14a0.59,0.59,0,0,0,.55-0.34,0.52,0.52,0,0,0,0-.42,0.55,0.55,0,0,0-.25-0.26,4.51,4.51,0,0,1,.48-0.69,1.39,1.39,0,0,0,.39,1.49,1.12,1.12,0,0,0,.2.16l-0.26,0a1.61,1.61,0,0,0-1.1.43,1.33,1.33,0,0,0-.29.38m10.78,0a1.53,1.53,0,0,0-.29-0.37,1.61,1.61,0,0,0-1.11-.43,1.18,1.18,0,0,0-.26,0l0.19-.16a1.41,1.41,0,0,0,.46-1,1.53,1.53,0,0,0-.08-0.47,5.89,5.89,0,0,1,.44.63,0.54,0.54,0,0,0-.24.69,0.55,0.55,0,0,0,.32.29,0.63,0.63,0,0,0,.22,0l0.15,0a5.28,5.28,0,0,1,.19.8m-2.57-1.15A0.9,0.9,0,0,1,540,26a0.79,0.79,0,0,1,0-1.17,0.9,0.9,0,0,1,.62-0.24,0.89,0.89,0,0,1,.61.24,0.78,0.78,0,0,1,0,1.17,0.89,0.89,0,0,1-.61.24m-5.64,0A0.91,0.91,0,0,1,534.4,26a0.79,0.79,0,0,1,0-1.16,0.93,0.93,0,0,1,1.24,0,0.79,0.79,0,0,1,0,1.16,0.91,0.91,0,0,1-.62.25m5.64,0.13a1,1,0,0,0,.72-0.28,0.91,0.91,0,0,0,0-1.35,1,1,0,0,0-.72-0.28,1,1,0,0,0-.72.28,0.91,0.91,0,0,0,0,1.35,1,1,0,0,0,.72.28m-5.64,0a1.05,1.05,0,0,0,.72-0.28,0.91,0.91,0,0,0,0-1.34,1.07,1.07,0,0,0-1.44,0,0.91,0.91,0,0,0,0,1.34,1,1,0,0,0,.72.28m5.64,0.39a1.48,1.48,0,0,1-1-.4,1.29,1.29,0,0,1,0-1.89,1.49,1.49,0,0,1,2,0,1.29,1.29,0,0,1,0,1.89,1.47,1.47,0,0,1-1,.4m-5.64,0a1.47,1.47,0,0,1-1-.39,1.28,1.28,0,0,1,0-1.9,1.5,1.5,0,0,1,2,0,1.28,1.28,0,0,1,0,1.9,1.47,1.47,0,0,1-1,.39m2.82-2.13a0.31,0.31,0,1,1,.33-0.3,0.31,0.31,0,0,1-.33.3m0,0.13a0.43,0.43,0,1,0-.46-0.43,0.45,0.45,0,0,0,.46.43m0,0.39a0.82,0.82,0,1,1,.88-0.82,0.85,0.85,0,0,1-.88.82m0,0.13a1,1,0,1,0-1-1,1,1,0,0,0,1,1m1.93-1.55a0.46,0.46,0,0,1-.25-0.23,0.4,0.4,0,0,1,0-.28,5.66,5.66,0,0,1,.83.32,0.47,0.47,0,0,1-.56.19m-3.85,0a0.47,0.47,0,0,1-.58-0.19,6.42,6.42,0,0,1,.83-0.32,0.37,0.37,0,0,1,0,.28,0.42,0.42,0,0,1-.24.23m3.47,0.83a1.39,1.39,0,0,0,0-.24,1.42,1.42,0,0,0-.46-1,1.61,1.61,0,0,0-.39-0.27,5.93,5.93,0,0,1,.82.16,0.51,0.51,0,0,0,0,.38,0.55,0.55,0,0,0,.32.29,0.65,0.65,0,0,0,.22,0,0.59,0.59,0,0,0,.51-0.28l0.21,0.12a4.86,4.86,0,0,1,.5.32,1.58,1.58,0,0,0-.5-0.08,1.62,1.62,0,0,0-1.11.43l-0.16.17m-3.09,0a1.41,1.41,0,0,0-.17-0.19A1.61,1.61,0,0,0,535,24a1.49,1.49,0,0,0-.48.07,5.15,5.15,0,0,1,.45-0.29l0.24-.13a0.62,0.62,0,0,0,.76.25,0.54,0.54,0,0,0,.32-0.67,5.83,5.83,0,0,1,.83-0.16,1.65,1.65,0,0,0-.4.27,1.44,1.44,0,0,0-.46,1,1.46,1.46,0,0,0,0,.25m1.55,1.09a1.34,1.34,0,1,1,1.43-1.34,1.39,1.39,0,0,1-1.43,1.34m-9.79,6.87h0.6v0.3a6.18,6.18,0,0,1-.6.15V32.57Zm-0.75,0h0.61V33a5.53,5.53,0,0,1-.61.08V32.57Zm-1.32.6v-0.6h0.6v0.6H526Zm-0.74-.6h0.6v0.6l-0.6,0V32.57Zm-1.33,0h0.61v0.5l-0.61-.1v-0.4Zm-0.74,0h0.6v0.36c-0.2-.05-0.41-0.12-0.6-0.19V32.57Zm6.45-.16-0.26.16V31.88h0.81a2.3,2.3,0,0,1-.55.53m-1,0h-1.35V31.88h1.35v0.56Zm-2.07,0h-1.34V31.88h1.34v0.56Zm-2.06,0h-1.35V31.88h1.35v0.56Zm-2.07-.56v0.55a5.74,5.74,0,0,1-.84-0.55h0.84Zm0-.13h-0.72l0.72-.69v0.69Zm4.12-1v1H526v-1h0.6m-0.74,1h-0.6v-1c0.18,0,.38,0,0.6,0v1Zm0.88,1.41V30.74a3.44,3.44,0,0,0,.45-0.08v2.47l-0.45,0m-2.06-2.5,0.44,0.06v2.41l-0.44,0V30.66Zm-2.07.27,0.44-.43V32.7l-0.44-.19V30.94Zm7.67,0.82h-0.17V30.49h0.57a2.72,2.72,0,0,1-.41,1.26m-0.91-1.26H530v1.26h-0.6V30.49Zm-0.72,1.26h-0.6V30.49h0.6v1.26Zm-1.08-1.26h0.35v1.26h-0.61V30.62a1,1,0,0,0,.26-0.13m-3,1.26h-0.61V30.49h0.2a2.24,2.24,0,0,0,.41.14v1.12Zm-0.75,0h-0.6V30.49h0.6v1.26Zm-0.28-1.68a3,3,0,0,0,.37.29h-0.68Zm7.19,0.29h-1.33V29.8h1.32c0,0.08,0,.17,0,0.26s0,0.21,0,.31m-2.83-.42a1,1,0,0,0,0-.15h0.8v0.57h-0.93a0.64,0.64,0,0,0,.15-0.42m2.81-.27h-0.57V28.48a2,2,0,0,1,.57,1.19m-2.62-1.26h0.6v1.26h-0.6V28.41Zm-0.75.87V28.41h0.61v1.26h-0.1a0.72,0.72,0,0,0-.51-0.39M526,28.41h0.6v0.81H526V28.41Zm-0.74,0h0.6v0.81h-0.6V28.41Zm-1.08,0h0.37v0.81h-0.37V28.41Zm5.39-.34a2,2,0,0,1,.42.29v1.32h-0.6V28.07h0.18Zm-0.9.21h-1.35V27.72h1.35v0.56Zm-2.07,0h-1.34V27.72h1.34v0.56Zm-2.42-.56h0.37v0.56h-0.37V27.72Zm2.42-.13H526V26.89h0.6v0.69Zm-0.74,0h-0.6V26.89h0.6v0.69Zm-1.18-.69h0.44v2.33h-0.44V26.89Zm-0.14.69h-0.37V26.89h0.37v0.69Zm2.2-.69a2.06,2.06,0,0,0,.45-0.06v2.42a2.89,2.89,0,0,0-.45,0V26.89Zm3.38-.57h0.38a2.12,2.12,0,0,1-.38,1.07V26.32Zm-0.57,1.61h-0.17V26.32H530v1.24a1.84,1.84,0,0,1-.44.38m-0.88-.35h-0.6V26.32h0.6v1.26Zm-1-1.26h0.23v1.26h-0.61v-0.8a0.59,0.59,0,0,0,.37-0.47m-4.21-.16-0.28-.29V25.67h1.09a2.33,2.33,0,0,0-.81.5m3.84-.53h1.35v0.56h-1a0.57,0.57,0,0,0-.38-0.56m3.18,0a3.5,3.5,0,0,1,0,.37,1.77,1.77,0,0,1,0,.19h-1.13V25.63h1.11Zm-0.37-1.15a2.54,2.54,0,0,1,.36,1h-0.36v-1Zm-2.06-.25h0.6V25.5h-0.6V24.24Zm-0.75,0h0.61V25.5h-0.61V24.24ZM526,25.46V24.24h0.6v1.24l-0.6,0m-0.74-1.22h0.6v1.22l-0.6,0V24.24Zm-1.33,0h0.61v1.3h-0.61v-1.3Zm-0.74,0h0.6v1.3h-0.6v-1.3Zm-1.46,0h0.74v0.91l-0.82-.85Zm0.74-.13h-0.56a5.11,5.11,0,0,1,.56-0.34v0.34ZM530,24.29V25.5h-0.6V23.75a2.35,2.35,0,0,1,.6.54m-2.67-.74h1.35v0.56h-1.35V23.54Zm-2.06,0h1.34v0.56h-1.34V23.54Zm-0.72.56h-1.35V23.55h1.35v0.56ZM523,25.75l-0.44-.46V23.7l0.44-.2v2.25Zm5.75,7.08V23.45a3.6,3.6,0,0,1,.45.22v9h0a3,3,0,0,1-.49.21m-4.26-9.41h-1.24a6.83,6.83,0,0,1,1.24-.28v0.28Zm4.12,0h-1.35v-0.3a5.1,5.1,0,0,1,1.35.3m-4,2.12V23.12l0.44,0v2.42l-0.44,0m2.06-.05V23.06l0.45,0v2.49a2.22,2.22,0,0,0-.45-0.1m-0.14-2.44v0.36H526V23h0.6m-0.74.36h-0.6V23.07l0.6,0v0.37ZM519,32.9h0.59v-1L519,31.36V32.9Zm-1.47,0h0.59v-1l-0.59-.51V32.9Zm-3,0h0.61v-1l-0.61-.51V32.9Zm-1.47,0h0.6v-1l-0.6-.51V32.9Zm-0.62,0h0.48V31.36l-0.48.41V32.9Zm5.78,0h0.6V31.35l-0.6.52v1Zm-1.48,0h0.61V31.35l-0.61.52v1Zm-0.73,0h0.59v-1L516,31.35V32.9Zm-0.73,0h0.59V31.35l-0.59.51v1Zm-1.48,0h0.59V31.35l-0.59.51v1Zm5.89,0h0.66V31.3l-0.66.56v1Zm-7.25-2.08v0.77l0.46-.38Zm7.19-.16-0.64.54,0.64,0.54,0.64-.54Zm-1.48,0-0.64.54,0.64,0.54,0.64-.54Zm-1.47,0-0.64.54,0.64,0.54,0.64-.54Zm-1.48,0-0.64.54,0.64,0.54,0.64-.54Zm-1.48,0-0.64.54,0.64,0.54,0.64-.54Zm6-.07,0.6,0.51V30.59h-0.6Zm-1.48,0,0.61,0.52,0.61-.52h-1.23Zm-1.47,0,0.61,0.52,0.61-.52h-1.22Zm-1.48,0L516,31.12l0.61-.52h-1.22Zm-0.21,0h0v0Zm-2.68.08,0.48,0.41V30l-0.48-.41v1Zm2.09-.61v1l0.58-.49v-1Zm-1.47,1,0.6-.51v-1l-0.6.51v1Zm0.74-.51,0.59,0.51V30l-0.59-.51v1Zm4.56-1.26h1.08l-0.54-.46Zm-1.48,0H518l-0.54-.46Zm-1.48,0h1.08L516,28.83Zm-0.93-.46-0.64.54,0.64,0.54,0.64-.54Zm-1.48,0-0.55.47v0.14L513,29.91l0.64-.54Zm0-.14,0.69,0.59,0.69-.59a0.09,0.09,0,0,1,.1,0l0.69,0.59,0.69-.59a0.08,0.08,0,0,1,.09,0l0.69,0.59,0.69-.59a0.09,0.09,0,0,1,.1,0l0.69,0.59,0.69-.59a0.09,0.09,0,0,1,.1,0l0.65,0.56V28.82h0l-0.69-.59-0.69.59,0,0,0,0-0.69-.59-0.69.59,0,0,0,0L516,28.22l-0.69.59,0,0,0,0-0.69-.59-0.69.59,0,0,0,0L513,28.22l-0.55.47v0.43l0.5-.43a0.09,0.09,0,0,1,.1,0m-0.6-1v0.78l0.46-.39Zm7.16-.12-0.6.51,0.6,0.51v-1Zm-2.08.51,0.64,0.54,0.64-.54-0.64-.54Zm-1.47,0,0.64,0.54,0.64-.54-0.64-.54Zm-1.48,0,0.64,0.54,0.64-.54-0.64-.54Zm-1.48,0,0.64,0.54,0.64-.54-0.64-.54ZM519.44,27h-1.06l0.52,0.45ZM518,27H516.9l0.53,0.45Zm-1.48,0h-1.05L516,27.43Zm-2.78.47a0.08,0.08,0,0,1,.09,0L514.48,28l0.69-.59a0.09,0.09,0,0,1,.1,0L516,28l0.69-.59a0.08,0.08,0,0,1,.09,0L517.43,28l0.69-.59a0.09,0.09,0,0,1,.1,0L518.9,28l0.7-.6V27l-0.66.56h-0.09L518.17,27h0l-0.69.59h-0.09L516.69,27h0l-0.68.59h-0.1L515.22,27h0l-0.68.59h-0.09l-0.7-.59-0.69.59H513l-0.5-.43v0.43L513,28Zm0.78,0,0.64-.54-0.64-.54-0.64.54Zm-0.84-.54L513,26.34l-0.55.47V27L513,27.43Zm1.48-1.26v0l0.07,0.06Zm0,0-0.57-.48v1.06l0.57,0.49V25.66Zm-1.45,0-0.6-.51v1.06l0.6,0.51V25.68Zm-0.74-.51-0.48.41v1.06l0.48-.41V25.17Zm0.88,0.5v1.07l0.61-.52V25.15Zm6.52-.05V25.15l-0.55.47h0.55Zm-0.83,0-0.6-.51-0.6.51h1.2Zm-1.48,0-0.6-.51-0.6.51H518Zm-1.47,0-0.6-.51-0.6.51h1.2Zm-4.1-1V25.4l0.46-.39Zm7.19,0.93,0.64-.54-0.64-.54L519,25Zm-1.48,0L518.8,25l-0.64-.54-0.64.54Zm-1.47,0,0.64-.54-0.64-.54-0.64.54Zm-1.48,0,0.64-.54-0.64-.54-0.64.54Zm-1.48,0,0.64-.54-0.64-.54L513.1,25Zm6.6-2.25h-0.63v1l0.63,0.54V23.31Zm-0.77,0H519v1.56l0.59-.51V23.31Zm-0.73,0h-0.6v1l0.6,0.51V23.31Zm-0.74,0H517.5v1.55l0.59-.51v-1Zm-0.73,0h-0.61v1l0.61,0.52V23.31Zm-0.75,0H516v1.56l0.59-.51v-1Zm-0.73,0h-0.59v1l0.59,0.51V23.31Zm-0.73,0h-0.59v1.55l0.59-.51v-1Zm-0.73,0h-0.61v1l0.61,0.52V23.31Zm-0.75,0h-0.6v1.55l0.6-.51v-1Zm-0.74,0h-0.48v1.15l0.48,0.41V23.31ZM506.3,33.2l0.47-.23,0.48,0.24-0.44,0a4.49,4.49,0,0,1-.51,0m0.43-.37-0.69.34a5.49,5.49,0,0,1-.72-0.14l1.44-.73L508.24,33a5.81,5.81,0,0,1-.73.14l-0.7-.36a0.07,0.07,0,0,0-.07,0m0.07-.67a0.06,0.06,0,0,0-.07,0l-1.61.81a4.37,4.37,0,0,1-.58-0.21l2.22-1.12L509,32.78c-0.19.08-.39,0.15-0.59,0.21Zm3.45-.08-0.15-.81,0.53,0.5a4.17,4.17,0,0,1-.37.31m-3.45-.58a0.06,0.06,0,0,0-.07,0l-2.35,1.19c-0.17-.08-0.33-0.17-0.5-0.27L506.77,31l2.92,1.48c-0.16.09-.33,0.18-0.49,0.26Zm1.65-1.5,0.08,0.38-0.37-.19a2.21,2.21,0,0,0,.29-0.19m-3.34,0a2.88,2.88,0,0,0,.29.21l-0.36.18Zm3.49-.08,0.55,0.51,0.21,1.08-1.93-1a2.67,2.67,0,0,0,.59-0.21l0.57,0.29c0.06,0,.12,0,0.11-0.07l-0.12-.61Zm-3.74.59c0,0.07,0,.1.11,0.07l0.57-.28a2.78,2.78,0,0,0,.59.23l-1.93,1,0.39-2.05a2.36,2.36,0,0,0,.39.47Zm-3-.82-0.1.49a5.29,5.29,0,0,1-.3-0.84Zm0.15,0a0.06,0.06,0,0,0,0-.07l-0.57-.51a4.66,4.66,0,0,1-.09-0.69l1.2,1.06-0.3,1.51a6.59,6.59,0,0,1-.36-0.59Zm0.66-.21a0.06,0.06,0,0,0,0-.06l-1.17-1.06-0.15-.13V28.1a4.49,4.49,0,0,1,0-.52l1.83,1.64-0.45,2.33a4.87,4.87,0,0,1-.39-0.45Zm1.68-2.21a2.05,2.05,0,0,0-.12.34L504,27.27Zm-1.49,4.46,0.48-2.46a0.06,0.06,0,0,0,0-.07l-1.94-1.74a4.77,4.77,0,0,1,.11-0.52L503.9,29l-0.58,3c-0.14-.11-0.28-0.23-0.41-0.36m1.56-4.61-0.66.09a0.06,0.06,0,0,0,0,.12l0.48,0.44a2.57,2.57,0,0,0,0,.4c0,0.07,0,.14,0,0.21l-1.61-1.45,2.18-.3a2.41,2.41,0,0,0-.33.49m2.13-1.38,0.17-.32,0.16,0.31a1.76,1.76,0,0,0-.32,0m0.5,0-0.27-.51a0.07,0.07,0,0,0-.13,0l-0.27.52a2.57,2.57,0,0,0-.62.16l1-1.81,0.94,1.77a2.7,2.7,0,0,0-.61-0.13m-3.38-1.45-0.52.07a4.81,4.81,0,0,1,.77-0.54Zm6.71,0.07-0.59-.08-0.28-.51a5.22,5.22,0,0,1,.86.6m-7.42.17,0.77-.1a0.06,0.06,0,0,0,.06,0l0.36-.69a6.37,6.37,0,0,1,.69-0.3l-0.75,1.42-1.62.22a5.78,5.78,0,0,1,.49-0.51m5.64-1.17a5,5,0,0,1,.7.29l0.38,0.73a0.07,0.07,0,0,0,.06,0l0.79,0.11-0.41.4-0.73-.1Zm-6.25,1.83,1.8-.25a0.06,0.06,0,0,0,.06,0l0.84-1.59a5,5,0,0,1,.61-0.16l-0.18.34-1,1.83-2.49.34c0.1-.17.21-0.33,0.33-0.49m6.06-1.89,0.85,1.6h0a0.06,0.06,0,0,0,0,0L510,25l-0.41.4-0.3,0-0.33,0-1.15-2.16v0a4.93,4.93,0,0,1,.61.15M502,25.78l2.64-.36a0.06,0.06,0,0,0,.06,0l1.21-2.3a5.52,5.52,0,0,1,.57-0.07L505,25.82l-3.23.44a4.58,4.58,0,0,1,.24-0.49m5.68-2.71,1.21,2.29a0.12,0.12,0,0,0,.12.07l0.51,0.07-0.41.4-0.5-.07L507.09,23a5.67,5.67,0,0,1,.57.05M504,29a0.07,0.07,0,0,0,0-.08l-2.44-2.2c0-.11.07-0.22,0.11-0.33L505,26a0.06,0.06,0,0,0,.06,0l1.53-2.9h0.31l1.53,2.9a0.1,0.1,0,0,0,.06,0L509,26l-0.35.34a2.67,2.67,0,0,0-.7-0.44l-1.08-2a0.08,0.08,0,0,0-.13,0L505.6,26a2.49,2.49,0,0,0-.66.46l-2.49.34a0.07,0.07,0,0,0,0,.12l1.84,1.66a2.24,2.24,0,0,0,.23.65L504,31.55c0,0.08,0,.11.11,0.07l2.21-1.1a2.68,2.68,0,0,0,.46,0,2.47,2.47,0,0,0,.39,0l2.22,1.13c0.07,0,.12,0,0.11-0.07l-0.2-1,0.59,0.54,0.2,1.07-0.29.19-3-1.53a0.07,0.07,0,0,0-.07,0l-3,1.5-0.3-.21Z" transform="translate(-456.84 -9.51)" style="fill:#d1232a"/><path d="M569.87,19.4h0.59v-1l-0.59-.5V19.4Zm-1.47,0H569v-1l-0.59-.5V19.4Zm-3,0h0.61v-1l-0.61-.51V19.4Zm-1.47,0h0.6v-1l-0.6-.51V19.4Zm-0.62,0h0.48V17.86l-0.48.41V19.4Zm5.78,0h0.6V17.86l-0.6.52v1Zm-1.48,0h0.61V17.86l-0.61.52v1Zm-0.73,0h0.59v-1l-0.59-.51V19.4Zm-0.73,0h0.59V17.86l-0.59.51v1Zm-1.48,0h0.59V17.86l-0.59.51v1Zm5.89,0h0.66V17.81l-0.66.56v1Zm-7.25-2.08V18.1l0.46-.38Zm7.19-.16-0.64.54,0.64,0.54,0.64-.54Zm-1.48,0-0.64.54,0.64,0.54,0.64-.54Zm-1.47,0-0.64.54,0.64,0.54,0.64-.54Zm-1.48,0-0.64.54,0.64,0.54,0.64-.54Zm-1.48,0-0.64.54,0.64,0.54,0.64-.54Zm6-.07,0.6,0.51V17.1h-0.6Zm-1.48,0,0.61,0.53,0.61-.53h-1.23Zm-1.47,0,0.61,0.53,0.61-.53h-1.22Zm-1.48,0,0.61,0.53,0.61-.53h-1.22Zm-0.21,0h0v0Zm-2.68.08,0.48,0.41v-1l-0.48-.41v1Zm2.09-.61v1l0.58-.49V16Zm-1.47,1,0.6-.51V16l-0.6.51v1Zm0.74-.51,0.59,0.51v-1L564.71,16v1Zm4.56-1.26h1.08l-0.54-.46Zm-1.48,0h1.08l-0.54-.46Zm-1.48,0h1.08l-0.54-.46Zm-0.93-.46-0.64.54,0.64,0.54,0.64-.54Zm-1.48,0-0.55.47v0.14l0.55,0.47,0.64-.54Zm0-.14,0.69,0.59,0.69-.59a0.09,0.09,0,0,1,.1,0l0.69,0.59,0.69-.59a0.08,0.08,0,0,1,.09,0l0.69,0.59,0.69-.59a0.09,0.09,0,0,1,.1,0l0.69,0.59,0.69-.59a0.09,0.09,0,0,1,.1,0l0.65,0.56V15.32h0l-0.69-.59-0.69.59,0,0,0,0-0.69-.59-0.69.59,0,0,0,0-0.69-.59-0.69.59,0,0,0,0-0.69-.59-0.69.59,0,0,0,0-0.69-.58-0.55.47v0.43l0.5-.43a0.09,0.09,0,0,1,.1,0m-0.6-1V15l0.46-.39Zm7.16-.12-0.6.51,0.6,0.51v-1Zm-2.08.51,0.64,0.54,0.64-.54-0.64-.54Zm-1.47,0,0.64,0.54,0.64-.54-0.64-.54Zm-1.48,0,0.64,0.54,0.64-.54-0.64-.54Zm-1.48,0,0.64,0.54,0.64-.54-0.64-.54Zm6.33-1.15h-1.06l0.53,0.45Zm-1.48,0H567.8l0.53,0.45Zm-1.48,0h-1.05l0.53,0.45Zm-2.78.47a0.08,0.08,0,0,1,.09,0l0.69,0.59,0.69-.59a0.09,0.09,0,0,1,.1,0l0.69,0.59,0.69-.59a0.08,0.08,0,0,1,.09,0l0.69,0.59L569,14a0.09,0.09,0,0,1,.1,0l0.69,0.59,0.7-.6V13.51l-0.66.56h-0.09l-0.69-.59h0l-0.69.59h-0.09l-0.69-.59h0l-0.68.59h-0.1l-0.68-.59h0l-0.68.59h-0.09l-0.7-.59-0.69.59h-0.09l-0.5-.43v0.43l0.55,0.47Zm0.78,0,0.64-.54-0.64-.54-0.64.54Zm-0.84-.54-0.64-.54-0.55.47v0.14l0.55,0.47ZM566,12.13v0l0.07,0.06Zm0,0-0.57-.48v1.06L566,13.23V12.16Zm-1.45,0-0.6-.51v1.06l0.6,0.51V12.19Zm-0.74-.51-0.48.41v1.06l0.48-.41V11.68Zm0.88,0.5v1.07l0.61-.52V11.66Zm6.52-.05V11.65l-0.55.47h0.55Zm-0.83,0-0.6-.51-0.6.51h1.2Zm-1.48,0-0.6-.51-0.6.51h1.2Zm-1.47,0-0.6-.51-0.6.51h1.2Zm-4.1-1v0.77l0.46-.39Zm7.19,0.93,0.64-.54L570.54,11l-0.64.54Zm-1.48,0,0.64-.54L569.06,11l-0.64.54Zm-1.47,0,0.64-.54L567.59,11l-0.64.54Zm-1.48,0,0.64-.54L566.11,11l-0.64.54Zm-1.48,0,0.64-.54L564.64,11l-0.64.54Zm6.6-2.25H570.6v1l0.63,0.54V9.82Zm-0.77,0h-0.59v1.56l0.59-.51V9.82Zm-0.73,0h-0.6v1l0.6,0.51V9.82Zm-0.74,0H568.4v1.55l0.59-.5v-1Zm-0.73,0h-0.61v1l0.61,0.53V9.82Zm-0.75,0h-0.59v1.56l0.59-.51v-1Zm-0.73,0h-0.59v1l0.59,0.51V9.82Zm-0.73,0h-0.59v1.55l0.59-.51v-1Zm-0.73,0h-0.61v1l0.61,0.52V9.82Zm-0.75,0H564v1.55l0.6-.51v-1Zm-0.74,0h-0.48V11l0.48,0.41V9.82Zm-6,9.16h2.8V19.4h-2.8V19Zm-3.85.42H551.1V19h3.12Zm3.85-1h2.8v0.42h-2.8V18.43Zm-3.49.42h-3.2V18.43h3.48Zm3.49-1h2.8V18.3h-2.8V17.88Zm-3.12.42H551.1V17.88H555Zm5.33-1h-0.45V16.86H560v0.43Zm-1.62-.43h0.45v0.43h-0.45V16.86Zm-3,.43h-0.14V16.86h0.42ZM554,16.86h0.45v0.43H554V16.86Zm-1.18,0h0.45v0.43h-0.45V16.86Zm-1.17,0h0.45v0.43h-0.45V16.86Zm7.72,0.56h0.73V16.73h-0.73v0.69Zm-1.17,0H559V16.73h-0.73v0.69Zm-4.33,0h0.73V16.73h-0.73v0.69Zm-1.18,0h0.73V16.73h-0.73v0.69Zm-1.17,0h0.73V16.73h-0.73v0.69Zm6.24-1h2.8v1.37h-2.8V16.39Zm-2.06.34h-0.65v0.69h0.19l-0.23.34H551.1V16.39H556Zm-1-.47,0.37-.56,0.37,0.56h-0.75Zm1.27,0h-0.37l-0.53-.81-0.53.81h-0.49l1-1.55,1,1.46Zm4-.54h-0.45v-1.3a0.21,0.21,0,0,1,.22-0.21,0.22,0.22,0,0,1,.23.21v1.3Zm-1.17,0h-0.45v-1.3a0.21,0.21,0,0,1,.22-0.21,0.22,0.22,0,0,1,.23.21v1.3Zm-5.51,0h-0.45v-1.3a0.22,0.22,0,0,1,.23-0.21,0.21,0.21,0,0,1,.22.21v1.3Zm-1.62,0v-1.3a0.22,0.22,0,0,1,.23-0.21,0.21,0.21,0,0,1,.22.21v1.3h-0.45Zm8.08-1.64a0.35,0.35,0,0,0-.36.34v1.43h0.73V14.41a0.35,0.35,0,0,0-.37-0.34m-1.17,0a0.35,0.35,0,0,0-.36.34v1.43H559V14.41a0.35,0.35,0,0,0-.37-0.34m-5.5,0a0.35,0.35,0,0,0-.37.34v1.43h0.73V14.41a0.35,0.35,0,0,0-.36-0.34m-1.17,0a0.35,0.35,0,0,0-.37.34v1.43h0.73V14.41a0.35,0.35,0,0,0-.36-0.34m3.23-.38,1.3,2L556.2,16l-1-1.58L554,16.14v-0.8Zm5.44,2.56h-2.8V14.31h0a0.79,0.79,0,0,1,.81-0.76,0.84,0.84,0,0,1,.54.19l0,0,0,0a0.84,0.84,0,0,1,.54-0.19,0.79,0.79,0,0,1,.81.76h0v1.94Zm-9.48-1.94h0a0.79,0.79,0,0,1,.82-0.76,0.84,0.84,0,0,1,.54.19l0,0,0,0a0.84,0.84,0,0,1,.54-0.19,0.79,0.79,0,0,1,.81.76v1.95h-2.8V14.31Zm5.43,1.22-1.3-2,0.26-.38,1.05,1.59,1.11-1.68v0.78Zm3.24-2.12a1,1,0,0,1-1.17,0,1,1,0,0,0-.81.43V13h2.8v0.87a1,1,0,0,0-.81-0.43M556.91,13l-0.37.56L556.17,13h0.75Zm-1.28,0H556l0.53,0.81,0.53-.81h0.49l-1,1.55-1-1.46Zm-4.52,0h2.8v0.87a1,1,0,0,0-.81-0.43,1,1,0,0,1-1.17,0,1,1,0,0,0-.82.43V13Zm4.95-.62,0.21,0.21,0.48-.49,0.49,0.49,0.49-.49,0.49,0.49,0.49-.49,0.48,0.49,0.49-.49,0.48,0.49,0.43-.43v0.71h-4.87Zm-2.14.49h-2.8V12.14l0.43,0.43,0.49-.49,0.48,0.49,0.48-.49,0.49,0.49,0.43-.43v0.71Zm2.65-1.25h4v0.34l-0.43.43-0.48-.5-0.49.5-0.48-.5-0.49.5-0.49-.5-0.49.5-0.49-.5-0.48.5-0.13-.14Zm-2.65,0v0.34l-0.43.43-0.49-.5-0.48.5-0.48-.5-0.49.5-0.43-.43V11.6h2.8Zm5.8-.13h-1.05l0.53-.62Zm-6.68,0h-1l0.52-.62Zm4.06-.66,0.55,0.66h-1Zm3.49,0.62-0.75-.9h0.75v0.9Zm-3.31-.9h1.26l-0.75.9-0.61-.73Zm-4.12,0h0.75v0.9Zm-2.05,0h0.75l-0.75.9v-0.9Zm9.35,0.95h-0.56l-0.7-.82-0.7.82h-0.56L559.19,10Zm-7.24,0h0l-0.7-.82-0.7.82h-0.57L552.51,10l1.26,1.52h-0.56Zm7.38-1.07h-0.86l-0.48-.58h1.34V10.4Zm-2.83-.58h1.37l-0.48.58h-1.27Zm-3.85.58h-0.86l-0.48-.58h1.34V10.4Zm-1.46-.58L552,10.4H551.1V9.82h1.34Zm-4.74,9.59,0.15-.27L548,19.4h-0.28Zm-5.85,0V19.31l0.51-.47V19.4h-0.5Zm-2.33-.56L540,19.31V19.4h-0.5V18.85Zm6.37,0.23-0.2-.3,0.46,0.07Zm-5.56-.23,0.41-.06,0.19-.36,0.19,0.36,0.42,0.06-0.3.28,0,0.28h-0.71l0.06-.28Zm7.81,0.56-0.3-.56-0.3.56h-1.09l0-.09,0.67-.61,0.74-.37,0.73,0.36,0.82,0.68v0h-1.26Zm-6.43,0h-0.28l0-.23,0.46-.41-0.63-.08-0.28-.54-0.28.54-0.62.08,0.45,0.41,0,0.23h-0.28l0-.14-0.66-.6v-0.1l0.95-.13,0.47-.88,0.46,0.88,0.95,0.13v0.1l-0.66.6Zm5.53-2.15,0.42-.05,0.14-.28,0.38,0.58,0,0,0.07,0.4-0.37-.19-0.38.19,0.08-.4Zm-2.07.72-0.48-.75,0.1-.08,0.76-.38,0.77,0.38L547,17.73l-0.13.69-0.73-.1-0.55-1.06Zm-2.82.47-0.86-.12-0.55-1.06-0.56,1.06-0.86.12V17.73l0.65-.6,0.77-.38,0.75,0.37,0.66,0.61v0.7Zm-2.82-2.76L540,16.15l-0.12.69-0.39-.05v-1.1Zm7.94,0.73-0.17.33-0.73.1-0.12-.69,0.54-.49Zm-1.92-.24-0.37.19,0.07-.4-0.3-.28,0.42-.06,0.19-.36,0.19,0.36,0.42,0.06-0.3.28,0.07,0.4Zm-4.3-.21,0.07,0.4-0.37-.19-0.38.19,0.08-.4-0.3-.28,0.41-.06,0.19-.36,0.19,0.36,0.42,0.06Zm2.49-.12h-1.32a0.07,0.07,0,0,0-.07.07v0.88l-0.39.05-0.12-.69,0.68-.61,0.72-.36L544,15.54l0.67,0.61-0.17.74-0.66-1a0.07,0.07,0,0,0-.06,0m2.71-.25-0.63-.08L545.54,15l-0.28.53-0.62.08L545.09,16l-0.1.58,0.56-.27,0.56,0.27L546,16ZM540.94,15l-0.28.53-0.62.08L540.49,16l-0.1.58,0.56-.27,0.56,0.27L541.39,16l0.46-.41-0.63-.08Zm2.29-.4-0.37.18,0.07-.39-0.3-.28,0.42-.06,0.19-.36L543.42,14l0.42,0.06-0.3.28,0.08,0.39Zm3.05,0,0.42,0.65-0.61-.08-0.55-1.06L545,15.16l-0.72.1-0.12-.7,0.64-.58,0.77-.38L546.32,14l0.2,0.18-0.23.36a0.06,0.06,0,0,0,0,.07m-6.76,0,0.64-.58,0.77-.38L541.7,14l0.64,0.59-0.12.69-0.72-.1-0.55-1.06-0.56,1.06-0.86.12V14.57Zm4.61-.56-0.62-.08-0.28-.53-0.28.53-0.63.08,0.46,0.41-0.11.58,0.56-.28L543.8,15l-0.1-.58Zm-0.42-.67a0.07,0.07,0,0,0,.06,0l0.44-.69L544.65,13l-0.12.68-0.73-.1-0.13-.24h0.06Zm-0.91,0-0.12.24-0.72.1L541.84,13l0.51-.47v0.74a0.07,0.07,0,0,0,.07.07h0.39Zm-3.28-.81L540,13l-0.12.68-0.39-.05V12.52Zm5.41,0,0.42-.06,0.19-.36,0.19,0.36,0.42,0.06-0.3.28,0.07,0.4L545.54,13l-0.37.19,0.07-.4Zm-4,.49-0.38.19,0.08-.4-0.3-.28,0.41-.06,0.19-.36,0.19,0.36,0.42,0.06-0.3.28,0.07,0.4Zm5.92,0.62-0.3,0L546.44,13l0.67-.61,0.74-.36h0Zm-1.88-.2,0.56-.27,0.56,0.27L546,12.84l0.46-.41-0.63-.08-0.28-.53-0.28.53-0.62.08,0.45,0.41Zm-3.14-1-0.63-.08-0.28-.53-0.28.53-0.62.08,0.45,0.41-0.1.58,0.56-.27,0.56,0.27-0.11-.58Zm3.74-1.95,0.78,0.39L547,11.4l-0.13.69L546.1,12l-0.55-1.06L545,12l-0.41.06Zm-6.06.93,0.59-.54,0.82-.4,0.8,0.4,0.61,0.56v0.71L541.5,12l-0.55-1.06L540.39,12l-0.86.12V11.41Zm8.62,0.21-0.3-.14-0.43.21,0.08-.45-0.35-.32,0.48-.07,0.21-.41,0.21,0.41,0.52,0.07Zm0.73-1.14-0.48-.07-0.31-.59h1.21Zm-1.28-.65-0.31.59-0.73.1-0.12-.69h1.16Zm-5.25.63-0.39.05-0.12-.65,0,0h0.48v0.63Zm-1-.33-0.43-.21-0.43.21,0.06-.3h0.74Zm-1.84-.3H540l-0.12.69-0.39-.05V9.82ZM546,19.2l0.48-.44-0.84-.12-0.35-.53,0.29-.54L546,18.44l0.93,0.13,0.16-.89-0.7-.65-0.85-.42L544.7,17l-0.09.08,0-.07,0.22-.94-0.74-.68-0.81-.4-0.79.4-0.75.68L541.86,17l0.5-.06v0.65L541.77,17l-0.83-.41L540.1,17l-0.57.52V16.91L540,17l0.16-.88-0.66-.6V15.4l0.95-.12,0.47-.89,0.46,0.89,0.92,0.12,0.17-.89-0.71-.65-0.84-.41-0.86.42-0.56.51V13.74l0.5,0.07,0.16-.87-0.66-.6V12.25l0.95-.13,0.47-.89,0.46,0.89,0.95,0.13v0.09l-0.66.6,0.17,0.87,0.92-.13,0.19-.36h0.55l0.19,0.36,0.93,0.13,0.16-.87-0.49-.45,0.19-.3,0.59-.08,0.46-.89L546,12.12l0.93,0.12,0.16-.89-0.65-.6-0.79-.39L546,9.82h0.28l0.15,0.84,0.94-.13,0.37-.71h0.18l0.37,0.71,0.49,0.07-0.14.21-0.51-.07-0.3-.58-0.3.58-0.68.09,0.49,0.45-0.12.64,0.61-.3,0.23,0.11-0.12.19-0.1-.05-0.82.41-0.73.67,0.16,0.87,0.31,0-0.17.28-0.19-.18-0.86-.42-0.85.42-0.7.64,0.17,0.89,0.93-.12,0.46-.89L546,15.28l0.79,0.1,0.1,0.16-0.61.56L546.46,17l0.93-.13,0.17-.32,0.17,0.26-0.15.28-0.62.08,0.45,0.41-0.1.59,0.56-.28,0.56,0.28-0.08-.43L549.16,19l-0.49-.41-0.81-.4-0.82.4-0.73.67,0,0.14H546.1Zm-6.44-8.61,0.5,0.07,0.15-.84h0.25l-0.1.54,0.61-.3,0.61,0.3-0.1-.54h0.24l0.15,0.84,0.5-.07v0.65l-0.53-.48-0.88-.43-0.9.44-0.51.47V10.58Zm-6.15,9.12,0.47-.23,0.48,0.24-0.44,0a4.35,4.35,0,0,1-.51,0m0.44-.37-0.69.34a5.36,5.36,0,0,1-.72-0.14l1.44-.73,1.47,0.74a5.84,5.84,0,0,1-.73.14l-0.7-.36a0.07,0.07,0,0,0-.07,0m0.07-.67a0.07,0.07,0,0,0-.07,0l-1.61.81a4.44,4.44,0,0,1-.58-0.21l2.22-1.12,2.26,1.15a6.29,6.29,0,0,1-.59.21Zm3.45-.08-0.15-.81,0.53,0.5a4.27,4.27,0,0,1-.37.31M533.88,18a0.07,0.07,0,0,0-.07,0l-2.36,1.19c-0.17-.08-0.33-0.17-0.5-0.27l2.89-1.44L536.76,19c-0.16.09-.32,0.18-0.49,0.26Zm1.65-1.5,0.08,0.38-0.37-.19a2.14,2.14,0,0,0,.29-0.19m-3.34,0a3,3,0,0,0,.29.21l-0.36.17Zm3.49-.08,0.55,0.51L536.43,18l-1.93-1a2.65,2.65,0,0,0,.59-0.21l0.57,0.29c0.06,0,.12,0,0.11-0.07l-0.12-.61Zm-3.74.59c0,0.07,0,.1.11,0.07l0.57-.28a2.8,2.8,0,0,0,.59.23l-1.93,1,0.39-2.05a2.38,2.38,0,0,0,.39.47Zm-3-.82-0.1.49a5.37,5.37,0,0,1-.3-0.84Zm0.15,0a0.06,0.06,0,0,0,0-.07l-0.57-.51a4.45,4.45,0,0,1-.09-0.69l1.19,1.06-0.3,1.51a6.42,6.42,0,0,1-.36-0.59Zm0.66-.21a0.06,0.06,0,0,0,0-.07l-1.17-1.06-0.15-.13V14.61a4.5,4.5,0,0,1,0-.52l1.83,1.65-0.45,2.33a4.87,4.87,0,0,1-.39-0.45Zm1.68-2.21a2,2,0,0,0-.12.34L531,13.78ZM530,18.18l0.48-2.46a0.06,0.06,0,0,0,0-.06l-1.94-1.74a4.59,4.59,0,0,1,.11-0.52L531,15.52l-0.58,3c-0.14-.11-0.28-0.23-0.41-0.36m1.56-4.61-0.66.09a0.06,0.06,0,0,0,0,.12l0.48,0.44a2.58,2.58,0,0,0,0,.4c0,0.07,0,.14,0,0.21l-1.61-1.45,2.18-.3a2.45,2.45,0,0,0-.33.49m2.13-1.38,0.17-.32L534,12.18a1.84,1.84,0,0,0-.33,0m0.5,0-0.27-.51a0.08,0.08,0,0,0-.13,0l-0.27.53a2.55,2.55,0,0,0-.62.15l1-1.81,0.94,1.77a2.79,2.79,0,0,0-.61-0.13m-3.38-1.45-0.53.07a4.81,4.81,0,0,1,.77-0.54Zm6.71,0.07-0.59-.08-0.28-.51a5.23,5.23,0,0,1,.86.6m-7.42.17,0.77-.1a0.06,0.06,0,0,0,.06,0l0.36-.69a6.38,6.38,0,0,1,.69-0.3l-0.75,1.42-1.62.22a6,6,0,0,1,.49-0.51m5.64-1.17a5,5,0,0,1,.7.28l0.38,0.73a0.07,0.07,0,0,0,.06,0L537.64,11l-0.41.4-0.73-.1Zm-6.25,1.83,1.8-.25a0.05,0.05,0,0,0,.06,0l0.84-1.59a5,5,0,0,1,.61-0.16l-0.18.34-1,1.83-2.49.34c0.1-.17.21-0.33,0.33-0.49m6.06-1.89,0.85,1.6h0a0.06,0.06,0,0,0,0,0l0.67,0.1-0.41.4-0.3,0-0.32,0-1.15-2.16v0a5.09,5.09,0,0,1,.61.15m-6.47,2.53,2.64-.36a0.06,0.06,0,0,0,.06,0L533,9.59a5.53,5.53,0,0,1,.57-0.06L532,12.33l-3.23.44a4.65,4.65,0,0,1,.23-0.49m5.68-2.71,1.21,2.29a0.12,0.12,0,0,0,.12.07L536.57,12l-0.41.4-0.5-.07-1.49-2.8a5.69,5.69,0,0,1,.57.05m-3.62,6a0.07,0.07,0,0,0,0-.08l-2.45-2.2c0-.11.07-0.22,0.11-0.33l3.34-.45a0.06,0.06,0,0,0,.06,0l1.53-2.9H534l1.53,2.9,0.06,0L536,12.51l-0.35.34a2.62,2.62,0,0,0-.7-0.44l-1.08-2a0.07,0.07,0,0,0-.13,0l-1.1,2.1a2.49,2.49,0,0,0-.66.46l-2.49.34a0.07,0.07,0,0,0,0,.12L531.33,15a2.24,2.24,0,0,0,.23.65l-0.45,2.36c0,0.08,0,.11.11,0.07l2.21-1.1a2.76,2.76,0,0,0,.46,0,2.57,2.57,0,0,0,.39,0l2.22,1.13c0.07,0,.12,0,0.11-0.07l-0.2-1L537,17.6l0.2,1.07-0.29.19-3-1.53a0.06,0.06,0,0,0-.07,0l-3,1.5-0.3-.21Zm-13.2,3.88h0.59V17.66h-0.59V19.4Zm-0.41,0h0.28V17.66H517.5V19.4Zm1.57-1.75h-0.43V19.4h0.58V17.58l-0.12.06h0m0.29,1.75h0.59V17.2l-0.59.32V19.4Zm7.23-1.52a2.49,2.49,0,0,0,.26-0.85h-0.26v0.85Zm-0.73.87a2.48,2.48,0,0,0,.59-0.63V17h-0.59v1.72Zm-0.72.41a2.72,2.72,0,0,0,.58-0.3V17h-0.58v2.13Zm-0.73.19a3.35,3.35,0,0,0,.59-0.14V17h-0.59v2.33Zm-0.72,0h0.12a3.38,3.38,0,0,0,.46,0V17h-0.58V19.4Zm-0.73,0h0.59V17H523V19.4Zm-0.72,0h0.58V17h-0.58V19.4Zm-0.73,0h0.59V17h-0.59V19.4Zm-0.73,0h0.59V17H520.8V19.4Zm-0.72-2.29V19.4h0.58V17h-0.42Zm6.52-1.65a2.88,2.88,0,0,0-.23-0.39V16.9h0.48a2,2,0,0,0,0-.21,3,3,0,0,0-.26-1.23M526.23,15h-0.6V16.9h0.6V15Zm-0.74,0h-0.61V16.9h0.61V15Zm-0.75,0h-0.6v1.26a0.65,0.65,0,0,1,0,.17,0.62,0.62,0,0,1-.19.45l-0.06.05h0.83V15ZM524,14.9V14.81h0Zm0,1,0,0V15l-0.61-.23v1h0.1A0.7,0.7,0,0,1,524,16m-0.74-1.36V14.53h0Zm0,0.09-0.6-.23v1.32h0.6V14.68Zm-0.74-.28-0.09,0h-0.51v1.41h0.6V14.4Zm-0.74,0h-0.61v1.41h0.61V14.36Zm-0.75,0h-0.6v1.41H521V14.36Zm-0.87,1.48a0.07,0.07,0,0,1,.07-0.06h0.06V14.36h-0.61v2.82l0.48-.25V15.84Zm-0.61,1.42h0V14.36H519v3.17H519Zm-0.74-2.89h-0.61v3.17h0.61V14.36Zm-0.75,0H517.5v3.17h0.57V14.36Zm5-1h-0.6v0.85l0.6,0.23V13.39Zm-0.74,0h-0.59v0.84h0.59V13.39Zm-0.73,0H521v0.84h0.59V13.39Zm-0.73,0h-0.59v0.84h0.59V13.39Zm2.94-.21a0.65,0.65,0,0,1-.5.21h-0.09v1.14l0.59,0.23V13.18Zm2.33,0.9a2.61,2.61,0,0,0,.46-1.56c0-.06,0-0.14,0-0.21h-0.46v1.77Zm-0.32.47a0.06,0.06,0,0,1,0,0,0.05,0.05,0,0,1,0-.05l0.19-.19V12.31h-0.59v2.54h0.75a2.48,2.48,0,0,0-.34-0.3m-0.55-2.23h-0.59v2.54h0.59V12.31Zm-1.33.48v2l0.09,0h0.5V12.31h-0.82a0.58,0.58,0,0,1,.23.48m-3.81-.49-0.59-.19v2.12h0.59V12.3Zm-0.73-.23-0.59-.19v2.36h0.59V12.07Zm-0.73-.23-0.59-.19v2.59h0.59v-2.4ZM518,11.6l-0.48-.16v2.79H518V11.6Zm8.44-.17a2.48,2.48,0,0,0-.45-0.67v1.42h0.65a2.52,2.52,0,0,0-.2-0.75m-0.59-.82,0,0a2.7,2.7,0,0,0-.55-0.38v2h0.59V10.62Zm-0.73-.49-0.26-.1-0.34-.1v2.26h0.59V10.12Zm-0.73-.23a3.44,3.44,0,0,0-.59-0.07v2.36h0.59V9.89Zm-0.73-.07H523v2.36h0.59V9.82Zm-0.73,0H522.3v2.36h0.59V9.82Zm-0.73,0h-0.59v2.36h0.59V9.82Zm-0.73,0h-0.59v2.36h0.59V9.82Zm-0.73,2.36V9.82h-0.59v2.32l0.14,0h0.45ZM520,9.82h-0.59V11.9L520,12.1V9.82Zm-0.73,0h-0.59v1.85l0.59,0.19v-2Zm-0.73,0h-0.59v1.62l0.59,0.19V9.82Zm-0.73,0H517.5v1.49l0.28,0.09V9.82Zm-9.55,9.66a5.23,5.23,0,0,1-.82-0.31,0.47,0.47,0,0,1,.21-0.18,0.51,0.51,0,0,1,.34,0,0.41,0.41,0,0,1,.27.49m3.33,0a0.39,0.39,0,0,1,0-.27,0.44,0.44,0,0,1,.24-0.23,0.46,0.46,0,0,1,.56.16,6.24,6.24,0,0,1-.81.33m-1,.21a1.47,1.47,0,0,0,.86-1.31,1.32,1.32,0,0,0,0-.24l0.17,0.18a1.58,1.58,0,0,0,1.11.43,1.8,1.8,0,0,0,.5-0.07,6.31,6.31,0,0,1-.67.41,0.62,0.62,0,0,0-.74-0.23,0.56,0.56,0,0,0-.31.3,0.55,0.55,0,0,0,0,.35,5.42,5.42,0,0,1-.86.17m-1.42,0a5.44,5.44,0,0,1-.78-0.15,0.54,0.54,0,0,0-.35-0.65,0.62,0.62,0,0,0-.44,0,0.54,0.54,0,0,0-.28.23,6,6,0,0,1-.75-0.45,1.81,1.81,0,0,0,.5.07,1.61,1.61,0,0,0,1.11-.43,1.42,1.42,0,0,0,.17-0.18,1.32,1.32,0,0,0,0,.24,1.44,1.44,0,0,0,.46,1,1.46,1.46,0,0,0,.4.27m0.71-1a0.31,0.31,0,1,1,.33-0.3,0.31,0.31,0,0,1-.33.3m0,0.13a0.43,0.43,0,1,0-.46-0.43,0.45,0.45,0,0,0,.46.43m0,0.39a0.82,0.82,0,1,1,.88-0.82,0.85,0.85,0,0,1-.88.82m0,0.13a1,1,0,1,0-1-1,1,1,0,0,0,1,1m0,0.39a1.34,1.34,0,1,1,1.43-1.34,1.39,1.39,0,0,1-1.43,1.34m2.82-2.14a0.35,0.35,0,0,1-.23-0.08,0.29,0.29,0,0,1,0-.43,0.32,0.32,0,0,1,.23-0.09,0.33,0.33,0,0,1,.23.09,0.29,0.29,0,0,1,0,.43,0.36,0.36,0,0,1-.23.08m-5.64,0a0.37,0.37,0,0,1-.24-0.08,0.32,0.32,0,0,1-.09-0.22A0.32,0.32,0,0,1,506.8,17,0.34,0.34,0,0,1,507,17a0.33,0.33,0,0,1,.23.09,0.29,0.29,0,0,1,.1.21,0.3,0.3,0,0,1-.1.22,0.36,0.36,0,0,1-.23.08m5.64,0.13a0.47,0.47,0,0,0,.32-0.12,0.42,0.42,0,0,0,0-.61,0.47,0.47,0,0,0-.65,0,0.41,0.41,0,0,0,0,.61,0.48,0.48,0,0,0,.33.12m-5.64,0a0.49,0.49,0,0,0,.32-0.12,0.42,0.42,0,0,0,.14-0.31,0.41,0.41,0,0,0-.14-0.3,0.46,0.46,0,0,0-.32-0.13,0.48,0.48,0,0,0-.33.13,0.43,0.43,0,0,0-.13.3,0.44,0.44,0,0,0,.13.31,0.51,0.51,0,0,0,.33.12m4.09-.19a1.33,1.33,0,0,0-.17-0.18,1.6,1.6,0,0,0-.63-0.36,2.85,2.85,0,0,0,.51-0.14,2.94,2.94,0,0,0,.43-0.22,1.44,1.44,0,0,0-.17.66,1.47,1.47,0,0,0,0,.25m-2.55,0a1,1,0,0,0,0-.25,1.37,1.37,0,0,0-.17-0.66,3.39,3.39,0,0,0,.44.22,2.68,2.68,0,0,0,.51.14,1.62,1.62,0,0,0-.64.36l-0.17.18m4.1,0.58a0.9,0.9,0,0,1-.62-0.24,0.79,0.79,0,0,1-.26-0.58,0.78,0.78,0,0,1,.26-0.58,0.91,0.91,0,0,1,1.24,0,0.79,0.79,0,0,1,0,1.16,0.9,0.9,0,0,1-.62.24m-5.64,0a0.9,0.9,0,0,1-.62-0.24,0.78,0.78,0,0,1,0-1.16,0.91,0.91,0,0,1,.62-0.25,0.88,0.88,0,0,1,.61.25,0.79,0.79,0,0,1,.26.58,0.8,0.8,0,0,1-.26.58,0.87,0.87,0,0,1-.61.24m5.64,0.13a1,1,0,0,0,.72-0.28,0.92,0.92,0,0,0,0-1.35,1.07,1.07,0,0,0-1.44,0,0.92,0.92,0,0,0-.3.67,0.91,0.91,0,0,0,.3.67,1,1,0,0,0,.72.28m-5.64,0a1,1,0,0,0,.72-0.28,0.93,0.93,0,0,0,.3-0.67,0.94,0.94,0,0,0-.3-0.67A1.08,1.08,0,0,0,507,16.3a1.06,1.06,0,0,0-.72.28,0.92,0.92,0,0,0,0,1.35,1,1,0,0,0,.72.28M505,17a4.58,4.58,0,0,1-.34-0.77,0.51,0.51,0,0,1,.28,0,0.44,0.44,0,0,1,.24.22A0.41,0.41,0,0,1,505,17m9.67-.08a0.48,0.48,0,0,1-.19-0.19,0.38,0.38,0,0,1,0-.32,0.45,0.45,0,0,1,.52-0.25,5.16,5.16,0,0,1-.33.77m-2,1.69a1.46,1.46,0,0,1-1-.39,1.28,1.28,0,0,1,0-1.9,1.48,1.48,0,0,1,2,0,1.28,1.28,0,0,1,0,1.9,1.47,1.47,0,0,1-1,.39m-5.64,0a1.48,1.48,0,0,1-1-.39,1.29,1.29,0,0,1,0-1.9,1.49,1.49,0,0,1,1-.4,1.47,1.47,0,0,1,1,.4,1.28,1.28,0,0,1,0,1.9,1.47,1.47,0,0,1-1,.39m7.12-.87a1.33,1.33,0,0,0,.08-0.47,1.41,1.41,0,0,0-.46-1,1.12,1.12,0,0,0-.19-0.16l0.26,0a1.64,1.64,0,0,0,1.11-.43,1.54,1.54,0,0,0,.29-0.38,5.32,5.32,0,0,1-.16.73,0.6,0.6,0,0,0-.69.33,0.51,0.51,0,0,0,0,.41,0.52,0.52,0,0,0,.24.27,4.87,4.87,0,0,1-.48.7m-8.61,0a4.65,4.65,0,0,1-.45-0.63,0.54,0.54,0,0,0,.24-0.69,0.62,0.62,0,0,0-.32-0.29,0.64,0.64,0,0,0-.38,0,4.7,4.7,0,0,1-.18-0.82,1.52,1.52,0,0,0,.29.38,1.61,1.61,0,0,0,1.1.43l0.26,0a1.44,1.44,0,0,0-.19.16,1.41,1.41,0,0,0-.46,1,1.31,1.31,0,0,0,.08.47m2.19-1.77a1.63,1.63,0,0,0-.7-0.16l-0.26,0,0.19-.15a1.44,1.44,0,0,0,.38-0.59,2.44,2.44,0,0,0,.16.48,2.33,2.33,0,0,0,.23.4m4.22,0a2,2,0,0,0,.23-0.4,2.37,2.37,0,0,0,.16-0.49,1.4,1.4,0,0,0,.38.6l0.19,0.16-0.26,0a1.68,1.68,0,0,0-.71.16m1.89-1a0.3,0.3,0,1,1,.32-0.3,0.31,0.31,0,0,1-.32.3m-8,0a0.3,0.3,0,1,1,.33-0.3,0.31,0.31,0,0,1-.33.3m8,0.13a0.43,0.43,0,1,0-.46-0.43,0.45,0.45,0,0,0,.46.43m-8,0a0.43,0.43,0,1,0-.46-0.43,0.45,0.45,0,0,0,.46.43m8,0.39a0.82,0.82,0,1,1,.88-0.82,0.85,0.85,0,0,1-.88.82m-8,0a0.82,0.82,0,1,1,.88-0.82,0.85,0.85,0,0,1-.88.82m8,0.13a1,1,0,1,0-1-1,1,1,0,0,0,1,1m-8,0a1,1,0,1,0-1-1,1,1,0,0,0,1,1m6.49-1.4a2.44,2.44,0,0,0-.16-0.48,1.81,1.81,0,0,0-.23-0.4,1.65,1.65,0,0,0,.71.16l0.26,0-0.2.16a1.38,1.38,0,0,0-.38.59M513.84,16a1.34,1.34,0,1,1,1.43-1.34A1.39,1.39,0,0,1,513.84,16m-6.49-1.79a1.46,1.46,0,0,0-.38-0.58l-0.2-.16,0.26,0a1.57,1.57,0,0,0,.72-0.16,2.27,2.27,0,0,0-.23.41,2.39,2.39,0,0,0-.16.47M505.86,16a1.34,1.34,0,1,1,1.43-1.34A1.38,1.38,0,0,1,505.86,16m-1.2-2.86a4.85,4.85,0,0,1,.33-0.78,0.45,0.45,0,0,1,.19.2,0.42,0.42,0,0,1,0,.32,0.45,0.45,0,0,1-.52.26M515,13a0.45,0.45,0,0,1-.28,0,0.46,0.46,0,0,1-.25-0.23,0.41,0.41,0,0,1,.18-0.52A4.7,4.7,0,0,1,515,13m-3.74-.38a2,2,0,0,0-.43-0.22,2.4,2.4,0,0,0-.51-0.14,1.6,1.6,0,0,0,.63-0.36,1.33,1.33,0,0,0,.17-0.18,1.44,1.44,0,0,0,0,.24,1.4,1.4,0,0,0,.17.67m-2.85,0a1.44,1.44,0,0,0,.17-0.67,1.39,1.39,0,0,0,0-.25,1.42,1.42,0,0,0,.17.19,1.62,1.62,0,0,0,.64.36,2.28,2.28,0,0,0-.51.14,2.49,2.49,0,0,0-.44.23m4.25-.37a0.34,0.34,0,0,1-.24-0.09,0.29,0.29,0,0,1,0-.43,0.34,0.34,0,0,1,.24-0.09,0.34,0.34,0,0,1,.23.09,0.29,0.29,0,0,1,0,.43,0.34,0.34,0,0,1-.23.09m-5.64,0a0.34,0.34,0,0,1-.23-0.09,0.29,0.29,0,0,1,0-.43,0.33,0.33,0,0,1,.23-0.08,0.31,0.31,0,0,1,.23.08,0.29,0.29,0,0,1,0,.43,0.31,0.31,0,0,1-.23.09m5.64,0.13a0.46,0.46,0,0,0,.32-0.13,0.41,0.41,0,0,0,0-.61,0.46,0.46,0,0,0-.32-0.13,0.48,0.48,0,0,0-.33.13,0.41,0.41,0,0,0,0,.61,0.48,0.48,0,0,0,.33.13m-5.64,0a0.48,0.48,0,0,0,.33-0.13,0.43,0.43,0,0,0,0-.61,0.51,0.51,0,0,0-.33-0.12,0.48,0.48,0,0,0-.32.12,0.41,0.41,0,0,0,0,.61,0.45,0.45,0,0,0,.32.13M504.46,14a3.78,3.78,0,0,1,.16-0.74h0.14a0.59,0.59,0,0,0,.55-0.34,0.53,0.53,0,0,0,0-.42,0.54,0.54,0,0,0-.25-0.26,4.45,4.45,0,0,1,.48-0.69,1.4,1.4,0,0,0-.08.45,1.42,1.42,0,0,0,.46,1,1.19,1.19,0,0,0,.2.16l-0.26,0a1.61,1.61,0,0,0-1.1.43,1.32,1.32,0,0,0-.29.38m10.78,0a1.52,1.52,0,0,0-.29-0.37,1.61,1.61,0,0,0-1.11-.43,1.14,1.14,0,0,0-.26,0l0.19-.16a1.41,1.41,0,0,0,.46-1,1.55,1.55,0,0,0-.08-0.47,5.86,5.86,0,0,1,.44.64,0.54,0.54,0,0,0,.08,1,0.63,0.63,0,0,0,.22,0l0.15,0a5.15,5.15,0,0,1,.19.8m-2.57-1.15a0.9,0.9,0,0,1-.62-0.24,0.79,0.79,0,0,1,0-1.17,0.9,0.9,0,0,1,.62-0.24,0.89,0.89,0,0,1,.61.24,0.78,0.78,0,0,1,0,1.17,0.89,0.89,0,0,1-.61.24m-5.64,0a0.91,0.91,0,0,1-.62-0.25,0.79,0.79,0,0,1,0-1.16,0.93,0.93,0,0,1,1.24,0,0.79,0.79,0,0,1,0,1.16,0.91,0.91,0,0,1-.62.25m5.64,0.13a1,1,0,0,0,.72-0.28,0.91,0.91,0,0,0,0-1.35,1,1,0,0,0-.72-0.28,1,1,0,0,0-.72.28,0.91,0.91,0,0,0,0,1.35,1,1,0,0,0,.72.28m-5.64,0a1,1,0,0,0,.72-0.29,0.91,0.91,0,0,0,0-1.34,1.07,1.07,0,0,0-1.44,0,0.91,0.91,0,0,0,0,1.34,1,1,0,0,0,.72.29m5.64,0.39a1.47,1.47,0,0,1-1-.4,1.29,1.29,0,0,1,0-1.89,1.49,1.49,0,0,1,2,0,1.29,1.29,0,0,1,0,1.89,1.47,1.47,0,0,1-1,.4m-5.64,0a1.46,1.46,0,0,1-1-.39,1.28,1.28,0,0,1,0-1.9,1.5,1.5,0,0,1,2,0,1.28,1.28,0,0,1,0,1.9,1.46,1.46,0,0,1-1,.39m2.82-2.13a0.3,0.3,0,1,1,.33-0.3,0.31,0.31,0,0,1-.33.3m0,0.13a0.43,0.43,0,1,0-.46-0.43,0.45,0.45,0,0,0,.46.43m0,0.39a0.82,0.82,0,1,1,.88-0.82,0.85,0.85,0,0,1-.88.82m0,0.13a1,1,0,1,0-1-1,1,1,0,0,0,1,1m1.93-1.55a0.46,0.46,0,0,1-.25-0.23,0.4,0.4,0,0,1,0-.28,5.54,5.54,0,0,1,.83.32,0.47,0.47,0,0,1-.56.19m-3.85,0a0.47,0.47,0,0,1-.58-0.19,6.29,6.29,0,0,1,.83-0.32,0.37,0.37,0,0,1,0,.28,0.42,0.42,0,0,1-.24.23m3.47,0.83a1.32,1.32,0,0,0,0-.24,1.42,1.42,0,0,0-.46-1,1.63,1.63,0,0,0-.39-0.27,5.93,5.93,0,0,1,.82.16,0.5,0.5,0,0,0,0,.38,0.54,0.54,0,0,0,.32.29,0.65,0.65,0,0,0,.22,0,0.58,0.58,0,0,0,.51-0.28l0.21,0.12a4.89,4.89,0,0,1,.5.32,1.6,1.6,0,0,0-.5-0.08,1.62,1.62,0,0,0-1.11.43l-0.16.18m-3.09,0a1.46,1.46,0,0,0-.17-0.19A1.61,1.61,0,0,0,507,10.5a1.51,1.51,0,0,0-.48.07,5,5,0,0,1,.45-0.29l0.23-.13a0.62,0.62,0,0,0,.76.25,0.54,0.54,0,0,0,.33-0.67,5.84,5.84,0,0,1,.83-0.16,1.67,1.67,0,0,0-.4.27,1.44,1.44,0,0,0-.46,1,1.39,1.39,0,0,0,0,.25m1.55,1.09a1.34,1.34,0,1,1,1.43-1.34,1.39,1.39,0,0,1-1.43,1.34m-7.79,7.2,0.15-.27,0.14,0.27h-0.28Zm-5.85,0V19.31l0.51-.47V19.4h-0.5Zm-2.33-.56,0.51,0.47V19.4h-0.5V18.85Zm6.37,0.23-0.2-.3,0.46,0.07Zm-5.56-.23,0.41-.06,0.19-.36,0.19,0.36,0.42,0.06-0.3.28,0,0.28h-0.71l0.06-.28Zm7.81,0.56-0.3-.56-0.3.56h-1.09l0-.09,0.67-.61,0.74-.37,0.73,0.36,0.81,0.68v0H502.5Zm-6.43,0h-0.28l0-.23,0.46-.41-0.63-.08-0.28-.54-0.28.54-0.62.08,0.45,0.41,0,0.23h-0.28l0-.14-0.66-.6v-0.1l0.95-.13,0.47-.88,0.46,0.88,0.95,0.13v0.1l-0.66.6Zm5.53-2.15L502,17.2l0.14-.28,0.38,0.58,0,0,0.07,0.4-0.37-.19-0.38.19,0.08-.4Zm-2.07.72L499,17.22l0.1-.08,0.76-.38,0.77,0.38,0.64,0.59-0.13.69-0.73-.1-0.55-1.06Zm-2.82.47-0.86-.12-0.55-1.06-0.56,1.06-0.86.12V17.73l0.65-.6,0.77-.38L496,17.13l0.66,0.61v0.7Zm-2.82-2.76,0.51,0.47-0.12.69-0.39-.05v-1.1Zm7.94,0.73-0.17.33-0.73.1-0.12-.69,0.54-.49Zm-1.92-.24-0.37.19,0.07-.4-0.3-.28,0.42-.06,0.19-.36,0.19,0.36,0.42,0.06-0.3.28,0.07,0.4ZM495.6,16l0.07,0.4-0.37-.19-0.38.19L495,16l-0.3-.28,0.41-.06,0.19-.36,0.19,0.36,0.42,0.06Zm2.49-.12h-1.32a0.07,0.07,0,0,0-.07.07v0.88l-0.39.05-0.12-.69,0.68-.61,0.72-.36,0.73,0.36L499,16.15l-0.17.74-0.66-1a0.07,0.07,0,0,0-.06,0m2.71-.25-0.63-.08L499.9,15l-0.28.53-0.62.08L499.44,16l-0.1.58,0.56-.27,0.56,0.27L500.35,16ZM495.3,15l-0.28.53-0.62.08L494.84,16l-0.1.58,0.56-.27,0.56,0.27L495.75,16l0.46-.41-0.63-.08Zm2.29-.4-0.37.18,0.07-.39-0.3-.28L497.4,14l0.19-.36L497.78,14l0.42,0.06-0.3.28L498,14.76Zm3.05,0,0.42,0.65-0.61-.08L499.9,14.1l-0.56,1.06-0.72.1-0.12-.7,0.64-.58,0.77-.38L500.67,14l0.2,0.18-0.23.36a0.06,0.06,0,0,0,0,.07m-6.76,0,0.64-.58,0.77-.38L496,14l0.64,0.59-0.12.69-0.72-.1L495.3,14.1l-0.56,1.06-0.86.12V14.57Zm4.61-.56-0.62-.08-0.28-.53-0.28.53-0.63.08,0.46,0.41L497,15l0.56-.28L498.15,15l-0.1-.58Zm-0.42-.67a0.07,0.07,0,0,0,.06,0l0.44-.69L499,13l-0.12.68-0.73-.1L498,13.33h0.06Zm-0.91,0-0.12.24-0.72.1L496.19,13l0.51-.47v0.74a0.07,0.07,0,0,0,.07.07h0.39Zm-3.28-.81L494.39,13l-0.12.68-0.39-.05V12.52Zm5.41,0,0.42-.06,0.19-.36,0.19,0.36,0.42,0.06-0.3.28,0.07,0.4L499.9,13l-0.37.19,0.07-.4Zm-4,.49-0.38.19,0.08-.4-0.3-.28,0.41-.06,0.19-.36,0.19,0.36,0.42,0.06-0.3.28,0.07,0.4Zm5.92,0.62-0.3,0L500.79,13l0.67-.61L502.2,12h0Zm-1.88-.2,0.56-.27,0.56,0.27-0.11-.58,0.46-.41-0.63-.08-0.28-.53-0.28.53-0.62.08,0.45,0.41Zm-3.14-1-0.63-.08-0.28-.53-0.28.53-0.62.08,0.45,0.41-0.1.58,0.56-.27,0.56,0.27-0.11-.58Zm3.74-1.95,0.78,0.39,0.59,0.53-0.13.69-0.73-.1-0.55-1.06L499.34,12l-0.41.06Zm-6.06.93,0.59-.54,0.82-.4,0.8,0.4,0.61,0.56v0.71L495.85,12l-0.55-1.06L494.74,12l-0.86.12V11.41Zm8.62,0.21-0.3-.14-0.43.21,0.08-.45-0.35-.32,0.48-.07,0.21-.41,0.21,0.41,0.52,0.07Zm0.73-1.14-0.48-.07-0.31-.59h1.21ZM502,9.82l-0.31.59-0.73.1-0.12-.69H502Zm-5.25.63-0.39.05-0.12-.65,0,0h0.48v0.63Zm-1-.33-0.43-.21-0.43.21,0.06-.3h0.74Zm-1.84-.3h0.52l-0.12.69-0.39-.05V9.82Zm6.44,9.38,0.48-.44L500,18.63l-0.35-.53,0.29-.54,0.46,0.88,0.93,0.13,0.16-.89-0.7-.65-0.85-.42-0.84.42-0.09.08,0-.07,0.22-.94-0.74-.68-0.81-.4-0.79.4L496,16.1,496.21,17l0.5-.06v0.65L496.12,17l-0.83-.41-0.85.42-0.57.52V16.91l0.5,0.07,0.16-.88-0.66-.6V15.4l0.95-.12,0.47-.89,0.46,0.89,0.92,0.12,0.17-.89-0.71-.65-0.84-.41-0.86.42-0.56.51V13.74l0.5,0.07,0.16-.87-0.66-.6V12.25l0.95-.13,0.47-.89,0.46,0.89,0.95,0.13v0.09l-0.66.6,0.17,0.87,0.92-.13,0.19-.36h0.55l0.19,0.36L499,13.82l0.16-.87-0.49-.45,0.19-.3,0.59-.08,0.46-.89,0.46,0.89,0.93,0.12,0.16-.89-0.65-.6L500,10.37l0.36-.55h0.28l0.15,0.84,0.94-.13,0.37-.71h0.18l0.37,0.71,0.49,0.07L503,10.8l-0.51-.07-0.3-.58-0.3.58-0.68.09,0.49,0.45-0.12.64,0.61-.3,0.23,0.11-0.12.19-0.1-.05-0.82.41-0.73.67,0.16,0.87,0.31,0-0.17.28-0.19-.18-0.86-.42-0.85.42-0.7.64,0.17,0.89,0.93-.12,0.46-.89,0.46,0.89,0.79,0.1,0.1,0.16-0.61.56L500.81,17l0.93-.13,0.17-.32,0.17,0.26-0.15.28-0.62.08,0.45,0.41-0.1.59,0.56-.28,0.56,0.28-0.08-.43L503.51,19,503,18.59l-0.81-.4-0.82.4-0.73.67,0,0.14h-0.21Zm-6.44-8.61,0.5,0.07,0.15-.84h0.25l-0.1.54,0.61-.3,0.61,0.3-0.1-.54H496l0.15,0.84,0.5-.07v0.65l-0.53-.48-0.88-.43-0.9.44-0.51.47V10.58Zm-6.15,9.12,0.47-.23,0.48,0.24-0.44,0a4.35,4.35,0,0,1-.51,0m0.44-.37-0.69.34a5.41,5.41,0,0,1-.72-0.14l1.44-.73,1.47,0.74a5.82,5.82,0,0,1-.73.14l-0.7-.36a0.07,0.07,0,0,0-.07,0m0.07-.67a0.07,0.07,0,0,0-.07,0l-1.61.81a4.44,4.44,0,0,1-.58-0.21l2.22-1.12,2.26,1.15a6.27,6.27,0,0,1-.59.21Zm3.45-.08-0.15-.81,0.52,0.5a4.28,4.28,0,0,1-.37.31M488.23,18a0.07,0.07,0,0,0-.07,0l-2.36,1.19c-0.17-.08-0.33-0.17-0.5-0.27l2.89-1.44L491.11,19c-0.16.09-.32,0.18-0.49,0.26Zm1.65-1.5L490,16.89l-0.37-.19a2.18,2.18,0,0,0,.29-0.19m-3.34,0a3,3,0,0,0,.29.21l-0.36.17Zm3.5-.08,0.55,0.51L490.79,18l-1.93-1a2.65,2.65,0,0,0,.59-0.21L490,17.08c0.06,0,.12,0,0.11-0.07L490,16.4ZM486.3,17c0,0.07,0,.1.11,0.07l0.57-.28a2.8,2.8,0,0,0,.59.23l-1.93,1L486,15.89a2.38,2.38,0,0,0,.39.47Zm-3-.82-0.1.49a5.36,5.36,0,0,1-.3-0.84Zm0.15,0a0.06,0.06,0,0,0,0-.07l-0.57-.51a4.44,4.44,0,0,1-.09-0.69l1.2,1.06-0.3,1.51a6.59,6.59,0,0,1-.36-0.59Zm0.66-.21a0.06,0.06,0,0,0,0-.07L483,14.81l-0.15-.13V14.61a4.52,4.52,0,0,1,0-.52l1.83,1.65-0.45,2.33a5,5,0,0,1-.39-0.45Zm1.68-2.21a2,2,0,0,0-.12.34l-0.31-.28Zm-1.49,4.46,0.48-2.46a0.06,0.06,0,0,0,0-.06l-1.94-1.74a4.59,4.59,0,0,1,.11-0.52l2.36,2.12-0.58,3c-0.14-.11-0.28-0.23-0.41-0.36m1.56-4.61-0.66.09a0.06,0.06,0,0,0,0,.12l0.48,0.44a2.49,2.49,0,0,0,0,.4c0,0.07,0,.14,0,0.21L484,13.37l2.18-.3a2.42,2.42,0,0,0-.33.49M488,12.19l0.17-.32,0.16,0.31a1.84,1.84,0,0,0-.33,0m0.5,0-0.27-.51a0.08,0.08,0,0,0-.13,0l-0.27.53a2.55,2.55,0,0,0-.62.15l1-1.81,0.94,1.77a2.78,2.78,0,0,0-.61-0.13m-3.38-1.45-0.53.07a4.82,4.82,0,0,1,.77-0.54Zm6.71,0.07-0.59-.08L491,10.21a5.23,5.23,0,0,1,.86.6m-7.42.17,0.77-.1a0.06,0.06,0,0,0,.06,0l0.36-.69a6.38,6.38,0,0,1,.69-0.3l-0.75,1.42-1.62.22a5.87,5.87,0,0,1,.49-0.51m5.64-1.17a5,5,0,0,1,.7.28l0.38,0.73a0.07,0.07,0,0,0,.06,0L492,11l-0.41.4-0.73-.1Zm-6.25,1.83,1.8-.25a0.06,0.06,0,0,0,.06,0l0.84-1.59a5,5,0,0,1,.61-0.16l-0.18.34-1,1.83-2.49.34c0.1-.17.21-0.33,0.33-0.49m6.06-1.89,0.85,1.6h0a0.06,0.06,0,0,0,0,0l0.67,0.1-0.41.4-0.3,0-0.32,0-1.15-2.16v0a5.09,5.09,0,0,1,.61.15m-6.47,2.53,2.64-.36a0.06,0.06,0,0,0,.06,0l1.21-2.3a5.52,5.52,0,0,1,.57-0.06l-1.47,2.8-3.23.44a4.65,4.65,0,0,1,.23-0.49m5.68-2.71,1.21,2.29a0.12,0.12,0,0,0,.12.07L490.92,12l-0.41.4-0.5-.07-1.49-2.8a5.69,5.69,0,0,1,.57.05m-3.62,6a0.07,0.07,0,0,0,0-.08L483,13.25c0-.11.07-0.22,0.11-0.33l3.34-.45a0.06,0.06,0,0,0,.06,0L488,9.52h0.31l1.53,2.9,0.06,0,0.44,0.06-0.34.34a2.64,2.64,0,0,0-.7-0.44l-1.08-2a0.07,0.07,0,0,0-.13,0l-1.1,2.1a2.49,2.49,0,0,0-.66.46l-2.49.34a0.07,0.07,0,0,0,0,.12L485.68,15a2.26,2.26,0,0,0,.23.65l-0.45,2.36c0,0.08,0,.11.11,0.07l2.21-1.1a2.76,2.76,0,0,0,.46,0,2.57,2.57,0,0,0,.39,0l2.22,1.13c0.07,0,.12,0,0.11-0.07l-0.2-1,0.59,0.54,0.2,1.07-0.29.19-3-1.53a0.06,0.06,0,0,0-.07,0l-3,1.5-0.3-.21Zm-11.38,4a5.18,5.18,0,0,1-.82-0.31,0.46,0.46,0,0,1,.21-0.18,0.5,0.5,0,0,1,.34,0,0.41,0.41,0,0,1,.27.49m3.33,0a0.39,0.39,0,0,1,0-.27,0.45,0.45,0,0,1,.24-0.23,0.46,0.46,0,0,1,.56.16,6.29,6.29,0,0,1-.82.33m-1,.21a1.47,1.47,0,0,0,.86-1.31,1.39,1.39,0,0,0,0-.24l0.17,0.18a1.58,1.58,0,0,0,1.11.43,1.81,1.81,0,0,0,.5-0.07,6.4,6.4,0,0,1-.67.41,0.62,0.62,0,0,0-.74-0.23,0.56,0.56,0,0,0-.34.65,5.4,5.4,0,0,1-.86.17m-1.42,0a5.43,5.43,0,0,1-.78-0.15,0.54,0.54,0,0,0-.35-0.65,0.62,0.62,0,0,0-.44,0,0.55,0.55,0,0,0-.28.23,6,6,0,0,1-.75-0.45,1.81,1.81,0,0,0,.5.07A1.61,1.61,0,0,0,474,18.3a1.37,1.37,0,0,0,.17-0.18,1.38,1.38,0,0,0,0,.24,1.44,1.44,0,0,0,.86,1.31m0.71-1a0.31,0.31,0,1,1,.33-0.3,0.31,0.31,0,0,1-.33.3m0,0.13a0.43,0.43,0,1,0-.46-0.43,0.45,0.45,0,0,0,.46.43m0,0.39a0.82,0.82,0,1,1,.88-0.82,0.85,0.85,0,0,1-.88.82m0,0.13a1,1,0,1,0-1-1,1,1,0,0,0,1,1m0,0.39a1.34,1.34,0,1,1,1.43-1.34,1.39,1.39,0,0,1-1.43,1.34m2.82-2.14a0.35,0.35,0,0,1-.23-0.08,0.29,0.29,0,0,1,0-.43,0.32,0.32,0,0,1,.23-0.09,0.33,0.33,0,0,1,.23.09,0.29,0.29,0,0,1,0,.43,0.36,0.36,0,0,1-.23.08m-5.64,0a0.37,0.37,0,0,1-.23-0.08,0.32,0.32,0,0,1-.09-0.22,0.31,0.31,0,0,1,.09-0.21,0.34,0.34,0,0,1,.23-0.09,0.33,0.33,0,0,1,.23.09,0.29,0.29,0,0,1,.1.21,0.3,0.3,0,0,1-.1.22,0.36,0.36,0,0,1-.23.08m5.64,0.13a0.47,0.47,0,0,0,.32-0.12,0.42,0.42,0,0,0,0-.61,0.47,0.47,0,0,0-.65,0,0.41,0.41,0,0,0,0,.61,0.47,0.47,0,0,0,.32.12m-5.64,0a0.49,0.49,0,0,0,.32-0.12,0.42,0.42,0,0,0,.14-0.31,0.41,0.41,0,0,0-.14-0.3,0.46,0.46,0,0,0-.32-0.13,0.48,0.48,0,0,0-.33.13,0.43,0.43,0,0,0-.13.3,0.44,0.44,0,0,0,.13.31,0.51,0.51,0,0,0,.33.12M477,17.5a1.38,1.38,0,0,0-.17-0.18,1.6,1.6,0,0,0-.63-0.36,2.85,2.85,0,0,0,.51-0.14,2.94,2.94,0,0,0,.43-0.22,1.44,1.44,0,0,0-.17.66,1.39,1.39,0,0,0,0,.25m-2.55,0a1,1,0,0,0,0-.25,1.37,1.37,0,0,0-.17-0.66,3.44,3.44,0,0,0,.44.22,2.68,2.68,0,0,0,.51.14,1.62,1.62,0,0,0-.64.36l-0.17.18m4.1,0.58a0.9,0.9,0,0,1-.62-0.24,0.79,0.79,0,0,1-.26-0.58,0.78,0.78,0,0,1,.26-0.58,0.91,0.91,0,0,1,1.24,0,0.79,0.79,0,0,1,0,1.16,0.9,0.9,0,0,1-.62.24m-5.64,0a0.9,0.9,0,0,1-.62-0.24,0.78,0.78,0,0,1,0-1.16,0.91,0.91,0,0,1,.62-0.25,0.88,0.88,0,0,1,.61.25,0.79,0.79,0,0,1,.26.58,0.8,0.8,0,0,1-.26.58,0.87,0.87,0,0,1-.61.24m5.64,0.13a1,1,0,0,0,.72-0.28,0.92,0.92,0,0,0,0-1.35,1.07,1.07,0,0,0-1.44,0,0.92,0.92,0,0,0-.3.67,0.91,0.91,0,0,0,.3.67,1,1,0,0,0,.72.28m-5.64,0a1,1,0,0,0,.72-0.28,0.93,0.93,0,0,0,.3-0.67,0.94,0.94,0,0,0-.3-0.67,1.07,1.07,0,0,0-1.44,0,0.92,0.92,0,0,0,0,1.35,1,1,0,0,0,.72.28m-2-1.22a4.59,4.59,0,0,1-.34-0.77,0.51,0.51,0,0,1,.28,0,0.44,0.44,0,0,1,.24.22,0.41,0.41,0,0,1-.17.53m9.67-.08a0.48,0.48,0,0,1-.19-0.19,0.38,0.38,0,0,1,0-.32,0.45,0.45,0,0,1,.52-0.25,5.09,5.09,0,0,1-.33.77m-2,1.69a1.46,1.46,0,0,1-1-.39,1.28,1.28,0,0,1,0-1.9,1.48,1.48,0,0,1,2,0,1.28,1.28,0,0,1,0,1.9,1.46,1.46,0,0,1-1,.39m-5.64,0a1.48,1.48,0,0,1-1-.39,1.29,1.29,0,0,1,0-1.9,1.49,1.49,0,0,1,1-.4,1.47,1.47,0,0,1,1,.4,1.28,1.28,0,0,1,0,1.9,1.46,1.46,0,0,1-1,.39m7.12-.87a1.34,1.34,0,0,0,.08-0.47,1.42,1.42,0,0,0-.46-1,1.13,1.13,0,0,0-.19-0.16l0.26,0a1.64,1.64,0,0,0,1.11-.43,1.56,1.56,0,0,0,.29-0.38,5.42,5.42,0,0,1-.16.73,0.6,0.6,0,0,0-.69.33,0.51,0.51,0,0,0,0,.41,0.52,0.52,0,0,0,.24.27,4.87,4.87,0,0,1-.48.7m-8.61,0a4.59,4.59,0,0,1-.45-0.63,0.54,0.54,0,0,0,.24-0.69,0.62,0.62,0,0,0-.32-0.29,0.64,0.64,0,0,0-.38,0,4.71,4.71,0,0,1-.18-0.82,1.54,1.54,0,0,0,.29.38,1.61,1.61,0,0,0,1.1.43l0.26,0a1.43,1.43,0,0,0-.19.16,1.41,1.41,0,0,0-.46,1,1.29,1.29,0,0,0,.08.47m2.19-1.77a1.63,1.63,0,0,0-.7-0.16l-0.26,0,0.19-.15a1.44,1.44,0,0,0,.38-0.59,2.49,2.49,0,0,0,.16.48,2.33,2.33,0,0,0,.23.4m4.22,0a2,2,0,0,0,.24-0.4,2.41,2.41,0,0,0,.16-0.49,1.4,1.4,0,0,0,.38.6l0.19,0.16-0.26,0a1.68,1.68,0,0,0-.71.16m1.89-1a0.3,0.3,0,1,1,.33-0.3,0.31,0.31,0,0,1-.33.3m-8,0a0.3,0.3,0,1,1,.33-0.3,0.31,0.31,0,0,1-.33.3m8,0.13a0.43,0.43,0,1,0-.46-0.43,0.45,0.45,0,0,0,.46.43m-8,0a0.43,0.43,0,1,0-.46-0.43,0.45,0.45,0,0,0,.46.43m8,0.39a0.82,0.82,0,1,1,.88-0.82,0.85,0.85,0,0,1-.88.82m-8,0a0.82,0.82,0,1,1,.88-0.82,0.85,0.85,0,0,1-.88.82m8,0.13a1,1,0,1,0-1-1,1,1,0,0,0,1,1m-8,0a1,1,0,1,0-1-1,1,1,0,0,0,1,1m6.49-1.4a2.49,2.49,0,0,0-.16-0.48,1.81,1.81,0,0,0-.24-0.4,1.65,1.65,0,0,0,.71.16l0.26,0-0.2.16a1.38,1.38,0,0,0-.38.59M479.69,16a1.34,1.34,0,1,1,1.43-1.34A1.39,1.39,0,0,1,479.69,16m-6.49-1.79a1.46,1.46,0,0,0-.38-0.58l-0.2-.16,0.26,0a1.57,1.57,0,0,0,.72-0.16,2.24,2.24,0,0,0-.24.41,2.43,2.43,0,0,0-.16.47M471.71,16a1.34,1.34,0,1,1,1.43-1.34A1.38,1.38,0,0,1,471.71,16m-1.19-2.86a4.79,4.79,0,0,1,.33-0.78,0.45,0.45,0,0,1,.19.2,0.42,0.42,0,0,1,0,.32,0.45,0.45,0,0,1-.52.26M480.86,13a0.45,0.45,0,0,1-.28,0,0.47,0.47,0,0,1-.25-0.23,0.41,0.41,0,0,1,.18-0.52,4.71,4.71,0,0,1,.35.76m-3.74-.38a2,2,0,0,0-.43-0.22,2.41,2.41,0,0,0-.51-0.14,1.6,1.6,0,0,0,.63-0.36,1.38,1.38,0,0,0,.17-0.18,1.37,1.37,0,0,0,0,.24,1.41,1.41,0,0,0,.17.67m-2.85,0a1.44,1.44,0,0,0,.17-0.67,1.38,1.38,0,0,0,0-.25,1.43,1.43,0,0,0,.17.19,1.62,1.62,0,0,0,.64.36,2.28,2.28,0,0,0-.51.14,2.48,2.48,0,0,0-.44.23m4.25-.37a0.34,0.34,0,0,1-.23-0.09,0.29,0.29,0,0,1,0-.43,0.34,0.34,0,0,1,.23-0.09,0.34,0.34,0,0,1,.23.09,0.29,0.29,0,0,1,0,.43,0.34,0.34,0,0,1-.23.09m-5.64,0a0.34,0.34,0,0,1-.23-0.09,0.29,0.29,0,0,1,0-.43,0.33,0.33,0,0,1,.23-0.08,0.31,0.31,0,0,1,.23.08,0.29,0.29,0,0,1,0,.43,0.32,0.32,0,0,1-.23.09m5.64,0.13a0.46,0.46,0,0,0,.32-0.13,0.41,0.41,0,0,0,0-.61,0.46,0.46,0,0,0-.32-0.13,0.48,0.48,0,0,0-.33.13,0.41,0.41,0,0,0,0,.61,0.48,0.48,0,0,0,.33.13m-5.64,0a0.48,0.48,0,0,0,.33-0.13,0.43,0.43,0,0,0,0-.61,0.51,0.51,0,0,0-.33-0.12,0.48,0.48,0,0,0-.32.12,0.41,0.41,0,0,0,0,.61,0.45,0.45,0,0,0,.32.13M470.31,14a3.83,3.83,0,0,1,.16-0.74h0.14a0.59,0.59,0,0,0,.55-0.34,0.52,0.52,0,0,0,0-.42,0.55,0.55,0,0,0-.25-0.26,4.44,4.44,0,0,1,.48-0.69,1.4,1.4,0,0,0-.08.45,1.42,1.42,0,0,0,.46,1,1.18,1.18,0,0,0,.2.16l-0.26,0a1.61,1.61,0,0,0-1.1.43,1.34,1.34,0,0,0-.29.38m10.78,0a1.54,1.54,0,0,0-.29-0.37,1.61,1.61,0,0,0-1.11-.43,1.14,1.14,0,0,0-.26,0l0.19-.16a1.42,1.42,0,0,0,.46-1A1.53,1.53,0,0,0,480,11.5a6,6,0,0,1,.44.64,0.54,0.54,0,0,0-.24.69,0.55,0.55,0,0,0,.32.29,0.63,0.63,0,0,0,.22,0l0.15,0a5.32,5.32,0,0,1,.19.8m-2.57-1.15a0.9,0.9,0,0,1-.62-0.24,0.79,0.79,0,0,1,0-1.17,0.9,0.9,0,0,1,.62-0.24,0.89,0.89,0,0,1,.61.24,0.78,0.78,0,0,1,0,1.17,0.89,0.89,0,0,1-.61.24m-5.64,0a0.91,0.91,0,0,1-.62-0.25,0.79,0.79,0,0,1,0-1.16,0.93,0.93,0,0,1,1.24,0,0.79,0.79,0,0,1,0,1.16,0.91,0.91,0,0,1-.62.25m5.64,0.13a1,1,0,0,0,.72-0.28,0.91,0.91,0,0,0,0-1.35,1,1,0,0,0-.72-0.28,1,1,0,0,0-.72.28,0.91,0.91,0,0,0,0,1.35,1,1,0,0,0,.72.28m-5.64,0a1.05,1.05,0,0,0,.72-0.29,0.91,0.91,0,0,0,0-1.34,1.07,1.07,0,0,0-1.44,0,0.91,0.91,0,0,0,0,1.34,1,1,0,0,0,.72.29m5.64,0.39a1.47,1.47,0,0,1-1-.4,1.29,1.29,0,0,1,0-1.89,1.49,1.49,0,0,1,2,0,1.29,1.29,0,0,1,0,1.89,1.47,1.47,0,0,1-1,.4m-5.64,0a1.46,1.46,0,0,1-1-.39,1.28,1.28,0,0,1,0-1.9,1.5,1.5,0,0,1,2,0,1.28,1.28,0,0,1,0,1.9,1.46,1.46,0,0,1-1,.39m2.82-2.13a0.3,0.3,0,1,1,.33-0.3,0.31,0.31,0,0,1-.33.3m0,0.13a0.43,0.43,0,1,0-.46-0.43,0.45,0.45,0,0,0,.46.43m0,0.39a0.82,0.82,0,1,1,.88-0.82,0.85,0.85,0,0,1-.88.82m0,0.13a1,1,0,1,0-1-1,1,1,0,0,0,1,1m1.93-1.55a0.46,0.46,0,0,1-.25-0.23,0.4,0.4,0,0,1,0-.28,5.57,5.57,0,0,1,.83.32,0.47,0.47,0,0,1-.56.19m-3.85,0a0.47,0.47,0,0,1-.58-0.19A6.37,6.37,0,0,1,474,9.76a0.37,0.37,0,0,1,0,.28,0.42,0.42,0,0,1-.24.23m3.47,0.83a1.39,1.39,0,0,0,0-.24,1.42,1.42,0,0,0-.46-1,1.63,1.63,0,0,0-.39-0.27,5.93,5.93,0,0,1,.82.16,0.5,0.5,0,0,0,0,.38,0.54,0.54,0,0,0,.32.29,0.65,0.65,0,0,0,.22,0,0.59,0.59,0,0,0,.51-0.28l0.21,0.12a5,5,0,0,1,.5.32,1.64,1.64,0,0,0-1.61.36l-0.16.18m-3.09,0a1.42,1.42,0,0,0-.17-0.19,1.61,1.61,0,0,0-1.11-.43,1.51,1.51,0,0,0-.48.07,5,5,0,0,1,.45-0.29l0.24-.13a0.6,0.6,0,0,0,.52.29,0.62,0.62,0,0,0,.24,0,0.54,0.54,0,0,0,.31-0.3,0.54,0.54,0,0,0,0-.38A5.83,5.83,0,0,1,475,9.56a1.66,1.66,0,0,0-.4.27,1.44,1.44,0,0,0-.46,1,1.45,1.45,0,0,0,0,.25m1.55,1.09a1.34,1.34,0,1,1,1.43-1.34,1.39,1.39,0,0,1-1.43,1.34m-8.18,7.2,0.53-.52V19.4h-0.53Zm-10.69-.52,0.53,0.52h-0.53V18.89Zm8.39,0,0.55,0.53h-0.55V18.87Zm-6.13.53,0.57-.55V19.4H459.1Zm7.55-.08-0.61-.6,0.61-.6,0.6,0.6Zm-8.41-1.19,0.61,0.6-0.61.6-0.6-.6Zm9.82,0.44L467.52,18l0.54-.53v1.06Zm-11.22-1.06L457.38,18l-0.55.53V17.51Zm8.39,1.07V17.49L465.79,18Zm-5.57-1.11V18.6L459.09,18Zm7,0.47L466,17.36l0.61-.6,0.6,0.6Zm-8.41-1.19,0.61,0.6-0.61.59-0.6-.59Zm9.82,0.43-0.54-.52,0.54-.53V17.2Zm-11.22-1.06,0.55,0.54-0.55.53V16.13Zm8.39,1.08V16.12l0.56,0.55Zm-5.57-1.11v1.12l-0.57-.56Zm2.78,0.32-0.7-.66h1.41Zm4.21,0.14L466,16l0.61-.59,0.6,0.59Zm-8.41-1.19L458.84,16l-0.61.6-0.6-.6Zm5.94-.58-0.63.59V14.81h0.63Zm-2.86.57-0.61-.57h0.61v0.57Zm6.74,0.45-0.54-.53,0.54-.53v1.06Zm-11.22-1.06,0.55,0.53-0.55.53V14.76Zm8.39,1.08V14.75l0.56,0.54Zm-5.57-1.11v1.11l-0.57-.56Zm2.31-.41h0.9v0.84H462V14.33Zm4.67,0.87-0.61-.6,0.61-.59,0.6,0.59ZM458.23,14l0.61,0.59-0.61.6-0.6-.6Zm9.82,0.43-0.54-.53,0.54-.53v1.06Zm-11.22-1.06,0.55,0.53-0.55.53V13.39Zm8.39,1.08V13.37l0.56,0.54Zm-5.57-1.11v1.12l-0.57-.56Zm3.41,0H464v0.84h-0.9V13.32Zm-2.18,0h0.91v0.84h-0.91V13.32Zm3.43,1.36h-0.91v0.84h0l-0.12.12H461.6l-0.14-.14V14.68h-0.88L459.8,14V13.28h0.94v1h1.09v1H463v-1h1.09v-1h1v0.66Zm2.33-.85-0.61-.6,0.61-.6,0.6,0.6Zm-8.41-1.19,0.61,0.6-0.61.6-0.6-.6Zm5.93-.32h0.9v0.84h-0.9V12.31Zm-4.35,0h0.9v0.84h-0.9V12.31Zm3.71-.18v0.56h-0.59Zm-2.15,0,0.6,0.56h-0.6V12.13Zm6.68,0.94-0.54-.53,0.54-.53v1.06ZM456.84,12l0.55,0.53-0.55.53V12Zm9.81,0.43L466,11.86l0.61-.6,0.6,0.6Zm-8.41-1.19,0.61,0.6-0.61.59-0.6-.59Zm2.07-.14,0.6,0.56h-0.6V11.12Zm4.32,0v0.6H464Zm3.43,0.61-0.54-.53,0.54-.53V11.7Zm-11.22-1.06,0.55,0.53-0.55.53V10.64Zm8.25,1.22,0.7,0.69-0.57.56V12.18H464v1h-1.1v1h-1v-1h-1.08v-1h-1.19v0.93l-0.58-.57,0.7-.69-0.7-.69,0.61-.6L460.16,11v0.82H461l0.2,0.19v0.82h0.88l0.29,0.27,0,0,0,0,0.29-.27h0.87V12l0.19-.19h0.9V11h0l0.41-.4,0.62,0.61Zm1.56-.78L466,10.49l0.61-.6,0.6,0.6Zm-8.41-1.19,0.61,0.6-0.61.59-0.6-.59Zm9.82,0.43-0.52-.51h0.52v0.51Zm-1.31,9.08,0.69-.67-0.7-.69,0.7-.69-0.7-.69,0.7-.69-0.7-.69,0.7-.69-0.7-.69,0.7-.69-0.7-.69,0.7-.69-0.7-.69,0.7-.69-0.68-.67h0.59l0,0L468,10.49l-0.7.69,0.7,0.69-0.7.69,0.7,0.69-0.7.69,0.7,0.69-0.7.69L468,16l-0.7.69,0.7,0.69-0.7.69,0.7,0.69-0.69.67h-0.59Zm-0.23-9.59-0.68.67,0.7,0.69-0.7.69,0.7,0.69-0.7.69,0.7,0.69-0.7.69,0.7,0.69-0.7.69,0.7,0.69-0.7.69,0.7,0.69-0.7.69,0.69,0.67H466l-0.69-.67L466,18l-0.7-.69,0.7-.69-0.7-.69,0.7-.69-0.7-.69,0.7-.69-0.7-.69,0.7-.69-0.7-.69,0.7-.69-0.7-.69,0.66-.65h0.59Zm-6.91.65-0.7.69,0.7,0.69-0.7.69,0.7,0.69-0.7.69,0.7,0.69-0.7.69L459.6,16l-0.7.69,0.7,0.69-0.7.69,0.7,0.69-0.69.68h-0.57l0.69-.67-0.7-.69,0.7-.69-0.7-.69L459,16l-0.7-.69,0.7-.69-0.7-.69,0.7-.69-0.7-.69,0.7-.69-0.7-.69,0.7-.69-0.68-.67h0.55Zm-2.08,8.9-0.66-.64,0.7-.69-0.7-.69,0.7-.69-0.7-.69,0.7-.69-0.7-.69,0.7-.69-0.7-.69,0.7-.69-0.7-.69,0.7-.69-0.7-.69,0.66-.65v0h0.57l-0.68.67,0.7,0.69-0.7.69,0.7,0.69-0.7.69,0.7,0.69-0.7.69,0.7,0.69-0.7.69,0.7,0.69-0.7.69,0.7,0.69-0.7.69,0.69,0.67h-0.59a0.06,0.06,0,0,0,0,0m-0.17-9.55-0.52.51V9.82h0.52Z" transform="translate(-456.84 -9.51)" style="fill:#d1232a"/></svg>