<svg xmlns="http://www.w3.org/2000/svg" xmlns:xlink="http://www.w3.org/1999/xlink" viewBox="0 0 19.64 23.33"><defs><clipPath id="a" transform="translate(-26.57 -9.07)"><rect x="26.34" y="8.91" width="20.05" height="23.67" style="fill:none"/></clipPath></defs><title>logo</title><g style="clip-path:url(#a)"><path d="M26.57,9.07H46.21V27.56c0,2-1.28,3.4-3.75,3.4H40.15a5,5,0,0,0-3.75,1.44A5,5,0,0,0,32.64,31H30.33c-2.48,0-3.76-1.41-3.76-3.4V9.07Z" transform="translate(-26.57 -9.07)" style="fill:#ed1c24;fill-rule:evenodd"/><path d="M30.63,10.28a0.18,0.18,0,0,0-.15.24l0.83,1.17a0.34,0.34,0,0,1,.07.16,0.3,0.3,0,0,0,0,.4l0.28,0.27a0.77,0.77,0,0,0,.13.41,0.34,0.34,0,0,0,.13.37,0.47,0.47,0,0,0,.08.12l0,0.4a1.86,1.86,0,0,0-.62.72,0.18,0.18,0,0,0,0,.2L32,14.69a0.3,0.3,0,0,1,.12.07,0.4,0.4,0,0,1-.33.54c-0.68.17-1.17,0.4-1,.86s0.12,0.61-.31.88a0.41,0.41,0,0,0-.13.37,1.29,1.29,0,0,0-.3.44c-0.07.19-.07,0.27,0.07,0.25a2.61,2.61,0,0,1,2.54.1,0.94,0.94,0,0,0,.78.44c-0.06.21,0,.34,0.19,0.37l0,0.24c-0.2,0-.44,0-0.64.1a3.16,3.16,0,0,1-.66.15,5,5,0,0,0-.55-0.33,1.51,1.51,0,0,0-2.2.17,4.58,4.58,0,0,0-.87,1.7c0,0.14-.16.2-0.38,0.07-0.45-.36-0.53-0.69-0.31-0.9s0.44-.12.27,0v0a0.48,0.48,0,0,1,.43.34,1,1,0,0,0-.2-1.18H28.57l0,0.46a0.66,0.66,0,0,0-.8.63,0.94,0.94,0,0,0,.58.91,0.4,0.4,0,0,1,.13.66,2.3,2.3,0,0,0,0,2.43l0.06,0c0.09-1.06.32-1.6,0.67-1.7a0.65,0.65,0,0,0,.31-0.23c0.1-.16.16-0.14,0.23,0a1.31,1.31,0,0,1-.09,1.3c-0.61,1-.64,1.76.23,2.37l0,0.07-0.23.3c-0.07.12,0,.27,0.19,0.44a1.64,1.64,0,0,1,.27.83,0.47,0.47,0,0,0,0,.41,1,1,0,0,0,.89.24s0,0,0-.09a0.94,0.94,0,0,0-.25-0.61,1,1,0,0,1-.39-1.13l0.07-.1a6.44,6.44,0,0,0,1.18.32,1.16,1.16,0,0,0,0,1,1.08,1.08,0,0,0,1.15.66,1,1,0,0,0,.85-1.54c0.27-.15.45-0.14,0.54,0,0,0.38.16,0.26,0.17,0.63-0.45.39-.61,0.73-0.13,0.94C34.52,29,34.38,29,34,29.06s-0.6-.07-0.64.21a0.4,0.4,0,0,0-.4.5,0.26,0.26,0,0,1,.36-0.19,1.45,1.45,0,0,0,.49,0,0.57,0.57,0,0,1,.47,0,0.22,0.22,0,0,1,.21.11,4.39,4.39,0,0,0,.69.27,0.32,0.32,0,0,1,.36.2l0-.18a0.16,0.16,0,0,0-.06-0.21c-0.16-.19.09-0.2,0.53-0.11a1.14,1.14,0,0,0,.62.12c0.2-.2.24-0.07,0.28,0.19,0.14-.38,0-0.59-0.34-0.61,0.07-.2.09,0.1,0.23-0.15a0.32,0.32,0,0,1,.36.12A0.32,0.32,0,0,0,36.95,29c-0.06-.16-0.18-0.17-0.34,0-0.71-.19-0.78-0.61-0.38-0.7a0.72,0.72,0,0,1,.47.23,1.39,1.39,0,0,0,.37,0,1,1,0,0,1,.49.13l0.14,0a0.17,0.17,0,0,1,.24,0c0.1,0.15.21,0.17,0.3,0,0.28-.22.7-0.22,0.67-0.08s0,0.28.1,0.26,0.09,0.09.09,0.24c-0.27,0-.46,0-0.46.23-0.25.07-.24,0.25-0.13,0.48,0-.45.35-0.08,0.73-0.33l0.26,0c0,0.13.15,0.19,0.38,0.18a1.69,1.69,0,0,1,.3-0.06,0.9,0.9,0,0,1,1.09.28,0.33,0.33,0,0,0,0-.34c0.32-.21.66-0.13,0.46,0.21,0.19-.09.37-0.57,0.13-0.56,0.1-.28.52,0,0.4,0.16,0.18-.09.21-0.23,0-0.41q0-.24-0.39-0.14c-0.13-.22-0.3-0.23-0.52,0a0.38,0.38,0,0,1-.51,0c-0.12-.2-0.09-0.29.07-0.22s0.12-.07.22-0.27,0.11-.15.17-0.26a1.15,1.15,0,0,0,.69-0.68,1.15,1.15,0,0,0,.27-1,0.3,0.3,0,0,0,.29-0.07c-0.08,0-.12,0-0.12-0.25h0.23c0.09,0,.13-0.07.12-0.12a1.47,1.47,0,0,1-.16-0.13,0.75,0.75,0,0,0-.24-0.39l-0.22-.36c-0.16-.5-0.34-0.79-0.58-0.61l-0.07,0a2.21,2.21,0,0,1-.41-0.75c0-.35-0.36-0.37-0.56,0l-0.06-.28-0.09.15-0.59-.85c0.07,0,.18-0.07.24-0.08a5.25,5.25,0,0,0,2.17-.68l0.52-.16a0.32,0.32,0,0,1,.43.1l0.53,0.55a0.26,0.26,0,0,1,0,.33,0.46,0.46,0,0,0,.26.42,0.64,0.64,0,0,1,0,.75c-0.08.2-.07,0.34,0.06,0.4l0.36,0.26c0.24,0.2.36,0.13,0.35-.21a1.28,1.28,0,0,0-.18-0.52,1.42,1.42,0,0,1-.21-0.63,1,1,0,0,0-.24-0.8,3,3,0,0,1-.52-0.66,0.4,0.4,0,0,0-.16-0.26c0-.45-0.34-0.67-0.55-0.55a1.44,1.44,0,0,1-.53,0v-0.1a5.84,5.84,0,0,0,1-1c0.15-.19.22-0.11,0.37,0l0.58,0.61c0,0.3,0,.49.23,0.48a0.48,0.48,0,0,1,.07.58,0.45,0.45,0,0,0-.23.34,0.89,0.89,0,0,0,.6.59,0.09,0.09,0,0,0,.09,0,1,1,0,0,0,0-.69L45,21.44a1.44,1.44,0,0,1,0-.35,0.53,0.53,0,0,0-.25-0.62,7,7,0,0,1-.92-1.15c0-.53-0.45-0.67-0.74-0.09l-0.56.39c-0.14.09-.23-0.06-0.23-0.21a3.09,3.09,0,0,0-1.05-1.8c-0.28-.85-0.66-1.56-0.8-2.21a2.06,2.06,0,0,1,1.09.32c0.23,0.25.53,0.38,0.61,0.2A0.56,0.56,0,0,0,42,15.68a0.6,0.6,0,0,1,.34.21c0.23,0,.31-0.18.24-0.42a0.45,0.45,0,0,0-.07-0.41L42.29,15a6,6,0,0,1-.82-1.1,0.23,0.23,0,0,1,0-.12,0.54,0.54,0,0,0-.2-0.44l0.07,0V13.2l0.17,0L41.3,13c-0.09-.34-0.41-0.4-0.89-0.26a0.31,0.31,0,0,1-.23-0.15c-0.3-.29-0.61-0.45-0.5-0.23,0,0,.11.14,0,0.13l-0.51-.08c-0.11,0-.13,0-0.1.07a1,1,0,0,1,.22.31l-0.65,0a2.54,2.54,0,0,1-.36.06,1,1,0,0,0-1.25.27l-0.07,0V12.55H37l0-.34h0a1.45,1.45,0,0,0-.26-1.09c0-.16.12-0.14,0.16-0.19A0.76,0.76,0,0,0,37,10.41c0-.22-0.1-0.3-0.21-0.22H36.69a0.5,0.5,0,0,1-.31-0.13,0.35,0.35,0,0,0-.43,0c-0.67.17-.79,0.69-1.61,0.34-0.09,0-.11,0-0.07.1a1.32,1.32,0,0,0,.55.4,0.77,0.77,0,0,1-.47,0,1,1,0,0,0,.83.27,0.61,0.61,0,0,0,.55,0c0.11-.07.12,0,0,0.12a1.51,1.51,0,0,0-.39,1.15,1.12,1.12,0,0,0-.16.43,1,1,0,0,0-.69,0H34.42a0.61,0.61,0,0,0-.74-0.06l-0.48.36c-0.18.12-.33,0.13-0.35,0l-0.2-.42a0.36,0.36,0,0,0-.31-0.46,0.53,0.53,0,0,1-.18-0.3L32,11.76c0-.16,0-0.21-0.13-0.21a0.55,0.55,0,0,1-.3-0.07ZM30,21.84a2.16,2.16,0,0,1,.24,2.66c-0.21.49-.18,0.81,0.09,1a2.82,2.82,0,0,0,.18-0.7A1.33,1.33,0,0,1,31.16,24a1.66,1.66,0,0,0,.23-1.45A3.64,3.64,0,0,1,32,19.92c-1-.29-1.68.48-2.06,1.93m2.72,5.53c0.15,0.07.15,0.2,0,.29s-0.13-.18,0-0.29m2.38,1a0.2,0.2,0,0,0-.09.27l0.2,0.18a0.16,0.16,0,0,0,0-.26,0.27,0.27,0,0,1-.08-0.19m4.87,0.41c-0.16.08-.2,0.18,0,0.27s0.16,0.07.18,0c0.19,0-.07-0.14-0.13-0.3m-5.28-3c-0.34-.34-0.37-0.65,0-0.91a5,5,0,0,0,.92-1c0.26,0,.49-0.07.75-0.11a7.92,7.92,0,0,0,2.82-.79,0.25,0.25,0,0,1,.33.09l0.61,0.81-0.18.07,0.47,0.35c-0.08.07,0,.11,0.07,0.15-0.06.08,0,.17,0.07,0.16s0.12,0.28-.12,0c-0.15-.07-0.17,0,0,0.23l0.25,0.36a0.65,0.65,0,0,0,.21.43L41,26a0.61,0.61,0,0,0,.06.19,0.24,0.24,0,0,0,.2.26,1.4,1.4,0,0,1-.58.63c-0.55.3-1,.18-0.94-0.55,0-.39.1-0.72,0.11-1.12,0.16-.62,0-0.94-0.53-1a1.2,1.2,0,0,0-.65.12,0.62,0.62,0,0,1-.65-0.1,2.6,2.6,0,0,0-1.26-.64,0.69,0.69,0,0,1,.13.92c0.22,0.1.21,0.21,0,.31a6,6,0,0,1-1.78-.27c-0.21,0-.24,0-0.1.11a0.94,0.94,0,0,1,.72.86,4.9,4.9,0,0,0-.69.06,0.28,0.28,0,0,1-.4-0.08m-3.81,0a1.19,1.19,0,0,1,1.06-.94,7.91,7.91,0,0,0,1.82-.71C34,23.9,34,24,33.84,24.4l-0.32.36a0.34,0.34,0,0,0,0,.57c0.32,0.16.45,0.31,0.4,0.44A0.93,0.93,0,0,0,33,26a1,1,0,0,0-.75.13,0.72,0.72,0,0,0-.58,0c-0.06-.14-0.21-0.18-0.48-0.13a0.66,0.66,0,0,0-.35-0.18" transform="translate(-26.57 -9.07)" style="fill:#231f20;fill-rule:evenodd"/><path d="M44.14,22.65s0.07,0,.09.07a0.11,0.11,0,0,1,0,.12,0.11,0.11,0,0,1-.09-0.07c0-.06,0-0.1,0-0.11m0.13,0.75a0.31,0.31,0,0,1,0,.35,0.31,0.31,0,0,1,0-.35m-0.2.67,0.09-.2c0-.07.08-0.07,0.11,0l0.22,0.2a0.53,0.53,0,0,1-.22.07l0.07,0.12-0.07,0,0,0.1a0.3,0.3,0,0,1-.18-0.33" transform="translate(-26.57 -9.07)" style="fill:#fff;fill-rule:evenodd"/><path d="M44.81,21.61l0-.21c0-.06,0,0,0.06,0a0.63,0.63,0,0,1,.16.34c0,0.07,0,.1,0,0.11a0.17,0.17,0,0,1-.15-0.07,0.21,0.21,0,0,1-.07-0.18m-0.07-.74c-0.09-.11-0.07-0.18,0-0.17-0.11-.18,0-0.21.12,0a0.78,0.78,0,0,1,0,.45c0,0.06-.07.07-0.09,0a0.91,0.91,0,0,0-.12-0.25m0,0.87a0.05,0.05,0,0,0-.08,0,0.24,0.24,0,0,0-.07.3l0.21,0.16c0.07,0.06.14,0,.1,0l-0.07-.1a0.42,0.42,0,0,0,.13.07s0-.06,0-0.09-0.09-.1,0-0.15,0,0,0-.06Z" transform="translate(-26.57 -9.07)" style="fill:#fff;fill-rule:evenodd"/><path d="M42.7,20.28a1.88,1.88,0,0,1,.11-0.54c0-.08.07-0.09,0.11,0,0.17-.27.13-0.12,0.06,0.08l0,0c0.2-.38.12-0.07,0.1,0.09s-0.25.22-.3,0.09l0,0.24c0,0.11-.07.13-0.08,0M41.62,20c0-.18,0-0.2.08,0a2.23,2.23,0,0,1,.15.92c0,0.14-.11.15-0.12,0a8,8,0,0,0-.11-0.9m-0.12-.61a0.19,0.19,0,0,1,.17.17,0.18,0.18,0,0,1-.08.22,0.18,0.18,0,0,1-.18-0.17,0.18,0.18,0,0,1,.09-0.22m-0.25.46a0.15,0.15,0,1,1,0,.1,0.08,0.08,0,0,1,0-.1m0.86,0.07a0.12,0.12,0,0,1,.08.07s0,0.09,0,.1-0.06,0-.07-0.07a0.1,0.1,0,0,1,0-.11m1.35-.65a0.17,0.17,0,0,1,0-.23,0.15,0.15,0,0,1,.21,0,0.11,0.11,0,0,1,.07.09l-0.11,0,0.14,0c0.07,0.07,0,.19-0.06.08a0.14,0.14,0,0,0-.19,0c0,0.08,0,.1-0.07,0m-1,1.15L42.53,20l-0.07.13c-0.06,0-.07-0.06-0.07-0.17s0-.18.07-0.15l0,0.12,0-.08c0.07,0,.07,0,0,0.11l0,0.4c0,0.06-.07.16-0.1,0m-1.34-1,0,0a0,0,0,0,1,0,0l0.14,0.18a0,0,0,0,1,0,0l0,0a0,0,0,0,1,0,0l-0.15-.18a0,0,0,0,1,0,0m0.92,1.38a0,0,0,0,1,0,.07,0,0,0,0,1,0-.07,0,0,0,0,1,0,0m-0.54-1.56c0-.39.06-0.71,0.06-1,0-.12.08-0.12,0.08,0a5.51,5.51,0,0,1-.06,1s-0.08.13-.08,0" transform="translate(-26.57 -9.07)" style="fill:#fff;fill-rule:evenodd"/><path d="M30,26.76c-0.07.25-.34,0.12-0.2-0.1a4.14,4.14,0,0,0,.74-1.87,0.62,0.62,0,0,1,.4-0.51,1.2,1.2,0,0,0,.61-1.16c-0.1-2.1.48-3,1.39-3.39l0,0.08a3,3,0,0,0-1.15,2.74,5.87,5.87,0,0,0,0,.9l0-.07a13.39,13.39,0,0,1,.12-1.86,2.45,2.45,0,0,1,.42-1,2.23,2.23,0,0,1,.16-0.22c0.07-.07.16-0.09,0.22-0.16V20.2A2.5,2.5,0,0,0,32,21.41a7.17,7.17,0,0,0-.09,2,0.71,0.71,0,0,1-.07.26l0,0a0.87,0.87,0,0,0,.08-0.4,4.63,4.63,0,0,1,.31-2.33A1.79,1.79,0,0,1,33.25,20l0,0.07a2.31,2.31,0,0,0-1.07,2.1l0,0A2.26,2.26,0,0,1,33.34,20,2.23,2.23,0,0,1,34.19,20l-0.06,0a1.48,1.48,0,0,0-1.27.5l0.06,0a1.28,1.28,0,0,1,1.25-.44l0,0.07a1.18,1.18,0,0,0-.93.29v0a1.18,1.18,0,0,1,.89-0.26c0.09,0,.12.08,0.09,0.2l-0.06.51A5.77,5.77,0,0,1,34,22.36l0,0,0-.86-0.2,1.06c0,0.12-.1.1-0.08,0s0.12-.53.17-0.86a0.11,0.11,0,0,0-.09.1,2.55,2.55,0,0,1-.23,1,4.59,4.59,0,0,0,.11-0.87l-0.06,0-0.14.81c0.1,0.06,0,.14-0.07,0l0-.45h0l-0.2.72,0.07-.49-0.17.49H33l0.08-.42-0.28.76c-0.08,0-.09,0,0-0.14L33,22.77H32.92a1.41,1.41,0,0,1-.34.74h0a1.39,1.39,0,0,0,.23-0.68,1.8,1.8,0,0,1-.39.75,0.46,0.46,0,0,1,.12-0.32l0.1-.27c0-.06-0.07,0-0.1,0a1.4,1.4,0,0,1-.25.54l0.12-.46,0-.06a1.42,1.42,0,0,1-.35.64l0.07,0a8.67,8.67,0,0,1,1-.27,0.19,0.19,0,0,1,.2,0l-0.07.18-0.07-.1a0.63,0.63,0,0,1-.17.33l0-.2c-0.15.33-.25,0.5-0.26,0.34l0-.2a0.73,0.73,0,0,0-.21.4c-0.06,0-.07-0.12,0-0.28l-0.09.34c-0.08,0-.1-0.07-0.06-0.28a1.26,1.26,0,0,1-.17.34,0.36,0.36,0,0,1,0-.27L32,24.25c0,0.13,0,.18-0.09.17,0-.2,0-0.27,0-0.22l-0.11.3c-0.07,0-.08,0-0.07-0.21a1.28,1.28,0,0,0-.15.34,0.25,0.25,0,0,1-.06-0.23,0.32,0.32,0,0,1-.16.26l0-.31a1.06,1.06,0,0,1-.12.34l-0.08-.22,0,0.21c-0.07,0-.12,0-0.16-0.16a0.75,0.75,0,0,1-.22.65,1.19,1.19,0,0,1-.18.49l0.3-.44c0.07,0,.09,0,0.07.16l-0.31.5a0.11,0.11,0,0,1-.16,0,1.87,1.87,0,0,1-.29.6,1.09,1.09,0,0,0,.32-0.5c0-.07.1,0,0.07,0.17l-0.07.07v0.11H30.34v0.15l-0.08,0c0.08,0.2,0,.34-0.22.23" transform="translate(-26.57 -9.07)" style="fill:#fff;fill-rule:evenodd"/><polygon points="5.22 10.67 5.58 10.61 5.56 10.68 5.22 10.67" style="fill:#fff;fill-rule:evenodd"/><path d="M28.4,22.59a2.36,2.36,0,0,1,.29-0.49c0.07-.12.1,0,0.09,0.07a1.45,1.45,0,0,1-.38.42" transform="translate(-26.57 -9.07)" style="fill:#fff;fill-rule:evenodd"/><path d="M32.21,19.58a2.11,2.11,0,0,0-1.62-.72,2.23,2.23,0,0,0-1.47,1.68,0.89,0.89,0,0,1,.41-0.45,4.17,4.17,0,0,0-.68,2.08,0.5,0.5,0,0,1-.15.24,0.7,0.7,0,0,0-.29.51,2,2,0,0,0,.2-0.26,1.26,1.26,0,0,0,.3-0.53c0.08-.33.12-0.65,0.19-0.89a3.15,3.15,0,0,1,.35-0.81,2.71,2.71,0,0,1,1.12-1.13v0a3,3,0,0,0-1.08,1.14,2.71,2.71,0,0,0-.21.47,2,2,0,0,0-.17.61,2.2,2.2,0,0,1-.32,1,1.75,1.75,0,0,0-.27.37,0.47,0.47,0,0,0,0,.22,6.8,6.8,0,0,0,.61-1,4,4,0,0,1,1-2.34h0.07a3.36,3.36,0,0,0-.87,2,2,2,0,0,1-.13.54,4.52,4.52,0,0,0-.41.6h0a2.58,2.58,0,0,0,.42-0.55c0.27-.52.18-1.22,0.52-1.78A2.74,2.74,0,0,1,31,19.26H31.1a2.83,2.83,0,0,0-1.21,1.14,1.85,1.85,0,0,0-.29.58,6.17,6.17,0,0,0-.19.9,1.53,1.53,0,0,1-.34.78c-0.08.1-.15,0.15-0.21,0.24a1.34,1.34,0,0,0-.14.35l0,0a1.06,1.06,0,0,1,.48-0.62,1.38,1.38,0,0,0,.25-0.6,3.49,3.49,0,0,1,.35-1.3,3.63,3.63,0,0,1,.85-1.11,1.27,1.27,0,0,1,.49-0.27h0a3.91,3.91,0,0,0-.61.4,3.38,3.38,0,0,0-.77,1.13A4.09,4.09,0,0,0,29.55,22c0-.06,0,0,0.06,0a3.8,3.8,0,0,1,1-2.09,1.76,1.76,0,0,1,.8-0.5h0.18a1.78,1.78,0,0,0-1.1.76h0.06a2.09,2.09,0,0,1,1.08-.65h0.06a1.75,1.75,0,0,0-.61.31l0,0.06a2.67,2.67,0,0,1,1.16-.32" transform="translate(-26.57 -9.07)" style="fill:#fff;fill-rule:evenodd"/><path d="M28.48,23.65a0.44,0.44,0,0,1-.07-0.23c0-.11.09-0.1,0.11,0a1,1,0,0,1,0,.26" transform="translate(-26.57 -9.07)" style="fill:#fff;fill-rule:evenodd"/><path d="M29.56,24.65l0.09-.1a0.16,0.16,0,0,1,.14,0,0.33,0.33,0,0,1-.23.12" transform="translate(-26.57 -9.07)" style="fill:#fff;fill-rule:evenodd"/><path d="M29.48,24.94l0.12-.13a0.19,0.19,0,0,1,.2,0,0.48,0.48,0,0,1-.32.16" transform="translate(-26.57 -9.07)" style="fill:#fff;fill-rule:evenodd"/><path d="M29.49,25.09L29.63,25a0.2,0.2,0,0,1,.21,0,0.62,0.62,0,0,1-.34.13" transform="translate(-26.57 -9.07)" style="fill:#fff;fill-rule:evenodd"/><path d="M29.52,25.22l0.13-.11a0.21,0.21,0,0,1,.2,0,0.49,0.49,0,0,1-.33.12" transform="translate(-26.57 -9.07)" style="fill:#fff;fill-rule:evenodd"/><path d="M29.59,25.36l0.08-.09a0.16,0.16,0,0,1,.14,0,0.37,0.37,0,0,1-.22.11" transform="translate(-26.57 -9.07)" style="fill:#fff;fill-rule:evenodd"/><path d="M30.06,23.87l0.07,0a0.1,0.1,0,0,1,.1,0,0.25,0.25,0,0,1-.18,0" transform="translate(-26.57 -9.07)" style="fill:#fff;fill-rule:evenodd"/><path d="M29.94,24l0.16-.07a0.2,0.2,0,0,1,.19,0,0.45,0.45,0,0,1-.34,0" transform="translate(-26.57 -9.07)" style="fill:#fff;fill-rule:evenodd"/><path d="M30,23.64l0.12-.09a0.18,0.18,0,0,1,.17,0,0.49,0.49,0,0,1-.29.09" transform="translate(-26.57 -9.07)" style="fill:#fff;fill-rule:evenodd"/><path d="M30.13,23.42l0.12,0a0.15,0.15,0,0,1,.13.07,0.34,0.34,0,0,1-.25,0" transform="translate(-26.57 -9.07)" style="fill:#fff;fill-rule:evenodd"/><path d="M29.87,25.92l0.08,0a0.17,0.17,0,0,1,.1,0,0.22,0.22,0,0,1-.19,0" transform="translate(-26.57 -9.07)" style="fill:#fff;fill-rule:evenodd"/><path d="M30.13,25.64l-0.2,0a0.26,0.26,0,0,0-.16.18,0.63,0.63,0,0,0,.36-0.2" transform="translate(-26.57 -9.07)" style="fill:#fff;fill-rule:evenodd"/><path d="M30,25.54H29.88a0.17,0.17,0,0,0-.14.12,0.5,0.5,0,0,0,.3-0.12" transform="translate(-26.57 -9.07)" style="fill:#fff;fill-rule:evenodd"/><path d="M30.76,26.31l0.09-.2a0.26,0.26,0,0,1,.2-0.1,0.62,0.62,0,0,1-.3.3" transform="translate(-26.57 -9.07)" style="fill:#fff;fill-rule:evenodd"/><path d="M31.18,26.11L31.35,26a0.25,0.25,0,0,1,.2.07h0a0.54,0.54,0,0,1-.26.23l0.08-.16,0.07-.06H31.37a1,1,0,0,1-.2.16l0.07-.13,0,0-0.09,0" transform="translate(-26.57 -9.07)" style="fill:#fff;fill-rule:evenodd"/><path d="M32,26.14c0.06,0,.25,0,0.22.08a0.74,0.74,0,0,1-.26.25L32,26.31l0.06-.06H32a0.86,0.86,0,0,1-.19.16l0.06-.14,0,0h0a0.6,0.6,0,0,1-.14.11l0-.09A0.34,0.34,0,0,1,32,26.14" transform="translate(-26.57 -9.07)" style="fill:#fff;fill-rule:evenodd"/><path d="M33.19,26.11a0.32,0.32,0,0,1,.35-0.28c0.27,0,.6,0,0.5.14h0l0,0.11-0.1.19,0.07-.2,0-.1-0.12,0L33.76,26l-0.14.16L33.73,26l0-.07H33.72L33.64,26l-0.14.16L33.61,26l0-.07H33.58L33.53,26l-0.13.17,0.09-.2,0,0-0.1,0-0.07.16,0-.15a0.29,0.29,0,0,0-.19.18" transform="translate(-26.57 -9.07)" style="fill:#fff;fill-rule:evenodd"/><path d="M32.32,26.24h0l0.23-.15c0.16-.07.35-0.1,0.33,0a0.07,0.07,0,0,1-.06,0s0,0.1,0,.16l-0.07-.14h0a1.71,1.71,0,0,0,0,.22l-0.09-.2h0c0,0.1,0,.21,0,0.33l-0.13-.27v0c0,0.06,0,.12,0,0.18l0-.19c0,0.07-.07.17-0.09,0.26V26.23h0Z" transform="translate(-26.57 -9.07)" style="fill:#fff;fill-rule:evenodd"/><path d="M29.65,19.94l0.4-.4a0.8,0.8,0,0,0-.4.4" transform="translate(-26.57 -9.07)" style="fill:#fff;fill-rule:evenodd"/><path d="M31.85,27.23a0.42,0.42,0,0,1,0-.39,0.28,0.28,0,0,1,.22-0.24,1.66,1.66,0,0,1,0,.41l-0.15-.13,0,0.25L31.88,27Z" transform="translate(-26.57 -9.07)" style="fill:#fff;fill-rule:evenodd"/><path d="M33.17,27.47a0.1,0.1,0,0,0-.06-0.06s0,0,0,.08a0.14,0.14,0,0,0,.07.06,0.09,0.09,0,0,0,0-.08" transform="translate(-26.57 -9.07)" style="fill:#fff;fill-rule:evenodd"/><path d="M33.17,27.64a0.11,0.11,0,0,0-.09-0.07s0,0.06,0,.11a0.12,0.12,0,0,0,.09.07,0.14,0.14,0,0,0,0-.11" transform="translate(-26.57 -9.07)" style="fill:#fff;fill-rule:evenodd"/><path d="M33.09,27.8A0.18,0.18,0,0,0,33,27.72a0.1,0.1,0,0,0,0,.1,0.13,0.13,0,0,0,.07.07s0,0,0-.09" transform="translate(-26.57 -9.07)" style="fill:#fff;fill-rule:evenodd"/><path d="M33,28a0.15,0.15,0,0,0-.08-0.12,0.17,0.17,0,0,0,0,.15,0.19,0.19,0,0,0,.07.12A0.13,0.13,0,0,0,33,28" transform="translate(-26.57 -9.07)" style="fill:#fff;fill-rule:evenodd"/><path d="M31.92,27.89a0.1,0.1,0,0,1,.09,0,0.15,0.15,0,0,1-.1,0,0.11,0.11,0,0,1-.08,0,0.08,0.08,0,0,1,.09,0" transform="translate(-26.57 -9.07)" style="fill:#fff;fill-rule:evenodd"/><path d="M31.87,27.77a0.13,0.13,0,0,1,.11.06,0.12,0.12,0,0,1-.12,0,0.17,0.17,0,0,1-.11-0.06,0.12,0.12,0,0,1,.12,0" transform="translate(-26.57 -9.07)" style="fill:#fff;fill-rule:evenodd"/><path d="M31.84,27.62a0.2,0.2,0,0,1,.13.07,0.14,0.14,0,0,1-.15,0,0.13,0.13,0,0,1-.13-0.07,0.17,0.17,0,0,1,.15,0" transform="translate(-26.57 -9.07)" style="fill:#fff;fill-rule:evenodd"/><path d="M34.26,26c-0.06-.19.15-0.25,0.36-0.16a1.1,1.1,0,0,0,.64,0,1.19,1.19,0,0,1,.41,0c0.14,0.07.13,0.14,0,.17a1.6,1.6,0,0,0-.56.85A1.25,1.25,0,0,1,35.54,26a3.17,3.17,0,0,0-.57.6A1.88,1.88,0,0,1,35.3,26a1.5,1.5,0,0,0-.58,1.42A1.44,1.44,0,0,1,35,26.13l-0.4.42L34.93,26l-0.22.07,0-.08L34.58,26V26l-0.19.15,0-.16c-0.07,0-.11,0-0.17.09" transform="translate(-26.57 -9.07)" style="fill:#fff;fill-rule:evenodd"/><path d="M34.43,27.09a0.48,0.48,0,0,0,.08.37s0.07,0,0-.07a0.55,0.55,0,0,1-.13-0.3" transform="translate(-26.57 -9.07)" style="fill:#fff;fill-rule:evenodd"/><path d="M34.9,27.14a0.11,0.11,0,0,1,0,.11,0.07,0.07,0,1,1-.07,0,0.11,0.11,0,0,1,0-.11" transform="translate(-26.57 -9.07)" style="fill:#fff;fill-rule:evenodd"/><path d="M35.33,26.67a0.14,0.14,0,0,1,0,.1,0.11,0.11,0,0,1-.07.08,0.1,0.1,0,0,1,0-.1,0.11,0.11,0,0,1,.07-0.08" transform="translate(-26.57 -9.07)" style="fill:#fff;fill-rule:evenodd"/><path d="M35.43,26.45a0.08,0.08,0,0,1,0,.09,0.1,0.1,0,0,1-.07.07,0.11,0.11,0,0,1,0-.09,0.13,0.13,0,0,1,.07-0.07" transform="translate(-26.57 -9.07)" style="fill:#fff;fill-rule:evenodd"/><path d="M38.92,26.81c0.16,0.06.18,0.28,0.09,0.55a1.22,1.22,0,0,0-.09-0.55" transform="translate(-26.57 -9.07)" style="fill:#fff;fill-rule:evenodd"/><path d="M38.11,28a0.43,0.43,0,0,0-.06-0.14l0,0.17Z" transform="translate(-26.57 -9.07)" style="fill:#fff;fill-rule:evenodd"/><path d="M36.29,25.14h0.07l0.07,0.12-0.08,0Z" transform="translate(-26.57 -9.07)" style="fill:#fff;fill-rule:evenodd"/><path d="M36.14,26a0.17,0.17,0,0,1,.06.1s0,0.07,0,.07A0.15,0.15,0,0,1,36.12,26s0-.07,0-0.07" transform="translate(-26.57 -9.07)" style="fill:#fff;fill-rule:evenodd"/><path d="M36.28,25.94a0.08,0.08,0,0,1,0,.07,0.14,0.14,0,0,1,0,.09A0.1,0.1,0,0,1,36.29,26c0-.06,0-0.09,0-0.09" transform="translate(-26.57 -9.07)" style="fill:#fff;fill-rule:evenodd"/><path d="M36.44,25.91a0.16,0.16,0,0,1,.07.12c0,0.06,0,.08,0,0.08s0,0,0-.08a0.24,0.24,0,0,1,0-.12" transform="translate(-26.57 -9.07)" style="fill:#fff;fill-rule:evenodd"/><path d="M36.6,25.86a0.25,0.25,0,0,1,.07.12,0.16,0.16,0,0,1,0,.13A0.14,0.14,0,0,1,36.61,26a0.18,0.18,0,0,1,0-.14" transform="translate(-26.57 -9.07)" style="fill:#fff;fill-rule:evenodd"/><path d="M36.77,25.86a0.15,0.15,0,0,1,.07.13,0.08,0.08,0,1,1-.07,0,0.17,0.17,0,0,1,0-.15" transform="translate(-26.57 -9.07)" style="fill:#fff;fill-rule:evenodd"/><path d="M37,25.89A0.22,0.22,0,0,1,37,26c0,0.07,0,.11,0,0.12s0,0-.07-0.11a0.27,0.27,0,0,1,0-.17" transform="translate(-26.57 -9.07)" style="fill:#fff;fill-rule:evenodd"/><path d="M37.08,25.85a0.17,0.17,0,0,1,.08.14,0.2,0.2,0,0,1,0,.16A0.17,0.17,0,0,1,37.09,26a0.23,0.23,0,0,1,0-.16" transform="translate(-26.57 -9.07)" style="fill:#fff;fill-rule:evenodd"/><path d="M37.27,25.8a0.26,0.26,0,0,1,0,.19,0.22,0.22,0,0,1,0,.19,0.26,0.26,0,0,1,0-.19,0.22,0.22,0,0,1,0-.19" transform="translate(-26.57 -9.07)" style="fill:#fff;fill-rule:evenodd"/><path d="M37.43,25.86a0.21,0.21,0,0,1,0,.16,0.2,0.2,0,0,1,0,.16,0.17,0.17,0,0,1,0-.16,0.18,0.18,0,0,1,0-.16" transform="translate(-26.57 -9.07)" style="fill:#fff;fill-rule:evenodd"/><path d="M37.59,25.81a0.49,0.49,0,0,1,0,.37,0.49,0.49,0,0,1,0-.37" transform="translate(-26.57 -9.07)" style="fill:#fff;fill-rule:evenodd"/><path d="M37.76,25.77a0.27,0.27,0,0,1,0,.21,0.31,0.31,0,0,1-.07.2,0.32,0.32,0,0,1,0-.21,0.29,0.29,0,0,1,.06-0.2" transform="translate(-26.57 -9.07)" style="fill:#fff;fill-rule:evenodd"/><path d="M38,25.76a0.24,0.24,0,0,1,0,.2,0.27,0.27,0,0,1-.07.2,0.29,0.29,0,0,1,0-.21,0.32,0.32,0,0,1,.07-0.2" transform="translate(-26.57 -9.07)" style="fill:#fff;fill-rule:evenodd"/><path d="M38.16,25.65a0.33,0.33,0,0,1,.06.27,0.37,0.37,0,0,1-.09.24,0.45,0.45,0,0,1,0-.25,1.19,1.19,0,0,1,0-.26" transform="translate(-26.57 -9.07)" style="fill:#fff;fill-rule:evenodd"/><path d="M37.21,26.71a0.1,0.1,0,0,1,0,.07,0.28,0.28,0,0,1,0,.09,0.08,0.08,0,0,1,0-.07,0.14,0.14,0,0,1,0-.09" transform="translate(-26.57 -9.07)" style="fill:#fff;fill-rule:evenodd"/><path d="M37.34,26.66a0.16,0.16,0,0,1,.07.1c0,0.06,0,.08,0,0.09s0,0,0-.07a0.19,0.19,0,0,1,0-.12" transform="translate(-26.57 -9.07)" style="fill:#fff;fill-rule:evenodd"/><path d="M38.6,26.27v0.07l0.08-.06a2.6,2.6,0,0,0,0-.46,4.17,4.17,0,0,1-.09.45" transform="translate(-26.57 -9.07)" style="fill:#fff;fill-rule:evenodd"/><path d="M38.5,26.47a0.6,0.6,0,0,1-.15.4,0.85,0.85,0,0,0,0-.29l-0.07,0v0a0.48,0.48,0,0,1-.1.36c0-.13,0-0.25,0-0.38l-0.07,0v0.13a0.94,0.94,0,0,1-.07.21,0.86,0.86,0,0,0,0-.33l-0.07,0v0s0,0.06,0,.06a0,0,0,0,1,0,0l0,0h0a0.05,0.05,0,0,1,0,.06,0.16,0.16,0,0,1,0-.06h0s0,0.07,0,.08,0,0-.06-0.07l-0.08,0a0.06,0.06,0,0,1,0,.07s0,0,0-.06H37.55a0.07,0.07,0,0,1,0,.07,0.1,0.1,0,0,1,0-.06h0a0.22,0.22,0,0,1,0,0,0.18,0.18,0,0,1,0-.12s0,0,.07.09a0.18,0.18,0,0,1,0,.07l0.07,0a0,0,0,0,0,0,0,0.18,0.18,0,0,1,0-.15,0.14,0.14,0,0,1,.07.12,0.41,0.41,0,0,1,0,0l0.07,0a0.37,0.37,0,0,1,0-.09s0-.06,0-0.06a0.2,0.2,0,0,1,.07.13l0,0v0a0.28,0.28,0,0,1,0-.11s0,0,0,0a0.24,0.24,0,0,1,.07.13,0,0,0,0,0,0,0l0,0V26.45s0-.06,0-0.06a0.06,0.06,0,0,1,0,0l0,0.13,0.06,0V26.48a0.07,0.07,0,0,1,0,0,0.14,0.14,0,0,1,0,.09l0.07,0V26.4a0.06,0.06,0,0,1,0-.06s0,0,0,0a0.28,0.28,0,0,1,0,.09l0.06,0c0-.06,0-0.11,0-0.15a0.1,0.1,0,0,1,0-.07s0,0,0,0a0.63,0.63,0,0,1,0,.14l0.06,0a4.07,4.07,0,0,0,.15-0.93l-0.06-.1a2,2,0,0,1-.16.85,2.34,2.34,0,0,0,0-1h0a2.18,2.18,0,0,1-.09.91,2.22,2.22,0,0,0-.09-1l-0.06,0a0.51,0.51,0,0,1,0,.42A0.46,0.46,0,0,0,38,25.23h0a0.42,0.42,0,0,1,.07.34,1.11,1.11,0,0,0-.2-0.3H37.74a0.26,0.26,0,0,1,.1.28,0.81,0.81,0,0,0-.31-0.26H37.45a0.3,0.3,0,0,1,.18.27,1.66,1.66,0,0,1-.26-0.25s0,0-.06,0a0.86,0.86,0,0,1,0,.16,0.35,0.35,0,0,1-.23-0.14H37l0.06,0.12s-0.21-.13-0.23-0.16,0,0-.07,0l0.08,0.21-0.18-.2-0.13,0-0.08-.14a5.75,5.75,0,0,0,1.44-.09l0.52-.1c0.18-.06.3,0,0.34,0.31l0,0.3a0.6,0.6,0,0,1,0,.62,0.93,0.93,0,0,0,.33.5,0.44,0.44,0,0,1,0,.61,3.8,3.8,0,0,1-.58.93l0,0,0,0,0,0,0-.14a0.26,0.26,0,0,1,0,.1l0.08-.14,0-.15L38.7,28l0.07-.11s0-.1,0-0.16a0.74,0.74,0,0,1,.07.11,1,1,0,0,0,.07-0.14s0-.09,0-0.14l0.06,0.09a1.38,1.38,0,0,0,.06-0.2l-1,.6,0.26-.21h0l0-.18a1,1,0,0,1,.07.15l0.07-.06,0-.22a1,1,0,0,1,.07.19l0.08-.07c0-.09,0-0.2,0-0.3a0.9,0.9,0,0,1,.09.25l0.07-.07c0-.13,0-0.28,0-0.42a0.86,0.86,0,0,1,.11.35l0.06,0A4,4,0,0,0,38.65,27a1.07,1.07,0,0,1,.13.39l0,0a4.08,4.08,0,0,0-.06-0.54,0.83,0.83,0,0,1,.12.47l0.06-.06a2.71,2.71,0,0,0-.19-0.76c0,0.13,0,.18-0.07.17a0.28,0.28,0,0,0,0-.23,0.67,0.67,0,0,1-.13.4l0-.34H38.5Z" transform="translate(-26.57 -9.07)" style="fill:#fff;fill-rule:evenodd"/><path d="M37.66,27.06h0c0,0.06,0,.1,0,0.1s0-.06,0-0.1h0.06Z" transform="translate(-26.57 -9.07)" style="fill:#fff;fill-rule:evenodd"/><path d="M37.77,27s0,0,0,.09,0,0.11,0,.11,0-.07,0-0.12,0-.08,0-0.08" transform="translate(-26.57 -9.07)" style="fill:#fff;fill-rule:evenodd"/><path d="M37.9,27h0c0,0.1,0,.18,0,0.17a0.15,0.15,0,0,1,0-.17H37.9Z" transform="translate(-26.57 -9.07)" style="fill:#fff;fill-rule:evenodd"/><path d="M37.88,26.85a0.07,0.07,0,0,1,0,0h0a0.06,0.06,0,0,1,0,0" transform="translate(-26.57 -9.07)" style="fill:#fff;fill-rule:evenodd"/><path d="M38,26.83s0,0,0,.12,0,0.16-.07.15,0-.08,0-0.17,0-.1.07-0.1" transform="translate(-26.57 -9.07)" style="fill:#fff;fill-rule:evenodd"/><path d="M37.37,24.15a2,2,0,0,1,.72.46c0,0.07,0,.08,0,0.06a6.74,6.74,0,0,1-.68-0.51" transform="translate(-26.57 -9.07)" style="fill:#fff;fill-rule:evenodd"/><path d="M38.26,24.76s0.07,0.06.06,0.07,0,0-.09,0a0.1,0.1,0,0,1-.06-0.07,0.12,0.12,0,0,1,.09,0" transform="translate(-26.57 -9.07)" style="fill:#fff;fill-rule:evenodd"/><path d="M35.91,25.1l0.25,0,0.06,0.09h0s0.08,0.3-.07,0a0.21,0.21,0,0,0-.12,0,0.34,0.34,0,0,0-.11,0" transform="translate(-26.57 -9.07)" style="fill:#fff;fill-rule:evenodd"/><path d="M34.75,29.13a0.1,0.1,0,0,1,.09,0,0.08,0.08,0,0,1-.07,0c-0.06,0-.09,0-0.09,0s0,0,.07,0" transform="translate(-26.57 -9.07)" style="fill:#fff;fill-rule:evenodd"/><path d="M34.87,29.36a0.26,0.26,0,0,1,.17,0s0,0-.11.07a0.24,0.24,0,0,1-.17,0s0,0,.11-0.07" transform="translate(-26.57 -9.07)" style="fill:#fff;fill-rule:evenodd"/><path d="M34.94,29.44a0.32,0.32,0,0,1,.19,0,0.15,0.15,0,0,1-.13.07,0.25,0.25,0,0,1-.19,0s0-.06.13-0.07" transform="translate(-26.57 -9.07)" style="fill:#fff;fill-rule:evenodd"/><path d="M35.06,29.52a0.13,0.13,0,0,1,.12,0,0.11,0.11,0,0,1-.08.06,0.17,0.17,0,0,1-.13,0,0.11,0.11,0,0,1,.09,0" transform="translate(-26.57 -9.07)" style="fill:#fff;fill-rule:evenodd"/><path d="M35.13,29.59a0.09,0.09,0,0,1,.09,0s0,0-.07,0a0.1,0.1,0,0,1-.09,0,0.06,0.06,0,0,1,.07,0" transform="translate(-26.57 -9.07)" style="fill:#fff;fill-rule:evenodd"/><path d="M36.13,29.22c0.07,0,.15,0,0.16,0s0,0.08-.11.11-0.15,0-.16,0a0.16,0.16,0,0,1,.11-0.11" transform="translate(-26.57 -9.07)" style="fill:#fff;fill-rule:evenodd"/><path d="M36,29.14c0.06,0,.11,0,0.12,0a0.1,0.1,0,0,1-.08.08,0.11,0.11,0,0,1-.12,0s0-.07.08-0.08" transform="translate(-26.57 -9.07)" style="fill:#fff;fill-rule:evenodd"/><path d="M35.88,29A0.1,0.1,0,0,1,36,29s0,0.06-.07.07a0.08,0.08,0,0,1-.09,0s0,0,.07-0.07" transform="translate(-26.57 -9.07)" style="fill:#fff;fill-rule:evenodd"/><path d="M34.52,28.2a0,0,0,0,0-.07,0,0.18,0.18,0,0,0,.07.19c0.07,0,.09,0,0.06-0.07a0.19,0.19,0,0,1-.06-0.11" transform="translate(-26.57 -9.07)" style="fill:#fff;fill-rule:evenodd"/><path d="M34.39,28.13c0-.06,0-0.08-0.07,0a0.2,0.2,0,0,0,0,.23c0.07,0.08.12,0,.1,0a0.19,0.19,0,0,1,0-.16" transform="translate(-26.57 -9.07)" style="fill:#fff;fill-rule:evenodd"/><path d="M40.9,23.95a0.83,0.83,0,0,0,.2.78c0.1,0.13,0,.22.13,0.24a0.14,0.14,0,0,0,.1-0.14l-0.09,0h0.13l-0.14-.09s0.16,0,.15,0a0.35,0.35,0,0,0-.2-0.09l0.16,0a0.28,0.28,0,0,0-.23-0.13l0.15,0-0.17-.1,0.13,0-0.2-.1,0.11-.06L41,24,41.11,24c-0.09,0-.13-0.12-0.21,0" transform="translate(-26.57 -9.07)" style="fill:#fff;fill-rule:evenodd"/><path d="M40.67,24.19a0.43,0.43,0,0,1,0-.32,0.25,0.25,0,0,1,.19-0.21c0.11,0.12-.07.2-0.11,0.29a0.35,0.35,0,0,0,0,.24" transform="translate(-26.57 -9.07)" style="fill:#fff;fill-rule:evenodd"/><path d="M40.63,23.61a0.13,0.13,0,0,1,.12-0.06,0.13,0.13,0,0,1-.06.12,0.14,0.14,0,0,1-.12.07,0.15,0.15,0,0,1,.06-0.13" transform="translate(-26.57 -9.07)" style="fill:#fff;fill-rule:evenodd"/><path d="M40.58,24.21a0.06,0.06,0,0,1,.06.07,0.06,0.06,0,0,1-.06.06,0.06,0.06,0,0,1-.07-0.06,0.06,0.06,0,0,1,.07-0.07" transform="translate(-26.57 -9.07)" style="fill:#fff;fill-rule:evenodd"/><path d="M40.7,24.4s0,0.06,0,.1-0.06.07-.08,0.06,0-.06,0-0.1,0.06-.07.08-0.06" transform="translate(-26.57 -9.07)" style="fill:#fff;fill-rule:evenodd"/><path d="M40.83,24.59s0.06,0.07,0,.12a0.15,0.15,0,0,1-.14.07,0.08,0.08,0,0,1,0-.12,0.14,0.14,0,0,1,.15-0.07" transform="translate(-26.57 -9.07)" style="fill:#fff;fill-rule:evenodd"/><path d="M41,24.81a0.06,0.06,0,0,1,0,.09,0.1,0.1,0,0,1-.12,0,0.06,0.06,0,0,1,0-.08,0.11,0.11,0,0,1,.12,0" transform="translate(-26.57 -9.07)" style="fill:#fff;fill-rule:evenodd"/><path d="M41.64,24.92a0.05,0.05,0,0,0,0-.08,0.12,0.12,0,0,1-.1-0.06,0.14,0.14,0,0,1,.11-0.2c0.07,0,.1,0,0.08.07l0,0a0.29,0.29,0,0,1,.17.1,0.07,0.07,0,0,0-.08,0c0.16,0,.15.22,0,0.18s-0.14,0-.09.17,0.17,0.23.16,0,0.3-.11.34,0.09l-0.12,0c0,0.15.15,0.08,0.17,0.21H42.1a0.68,0.68,0,0,1,.26.31,2.74,2.74,0,0,0-.26-0.16,2.62,2.62,0,0,1,.44.38,0.88,0.88,0,0,1-.47-0.28,0.77,0.77,0,0,1,.22.5,1.28,1.28,0,0,1-.37-0.55,1.57,1.57,0,0,1,.08.47,0.87,0.87,0,0,1-.14-0.57c0.09,0,.13,0,0.13-0.21s-0.1-.16-0.08,0-0.08.16-.34,0c0,0,0,.08.16,0.17v0.14l0.07-.12,0,0.39c0,0.1,0,.08-0.07,0l0-.2c0,0.14,0,.2-0.07.2l0-.36-0.1.13,0-.21-0.09.07V25.36c-0.07,0-.14,0-0.21-0.1a0.3,0.3,0,0,0,.25,0,0.21,0.21,0,0,1,.2-0.3" transform="translate(-26.57 -9.07)" style="fill:#fff;fill-rule:evenodd"/><path d="M39.42,26.05a0.22,0.22,0,0,0-.06-0.22s-0.07,0-.06,0,0.09,0.15.11,0.22" transform="translate(-26.57 -9.07)" style="fill:#fff;fill-rule:evenodd"/><path d="M39.28,25.49a0.36,0.36,0,0,1,.24.25c0,0.07,0,.11,0,0.06a2.9,2.9,0,0,0-.2-0.31" transform="translate(-26.57 -9.07)" style="fill:#fff;fill-rule:evenodd"/><path d="M39.29,25.12a0.54,0.54,0,0,1,.3.39c0,0.1,0,.16-0.07.07s-0.12-.33-0.23-0.47" transform="translate(-26.57 -9.07)" style="fill:#fff;fill-rule:evenodd"/><path d="M39.37,24.86a0.5,0.5,0,0,1,.31.46c0,0.1,0,.17-0.07.07a1.33,1.33,0,0,0-.23-0.53" transform="translate(-26.57 -9.07)" style="fill:#fff;fill-rule:evenodd"/><path d="M39.44,24.72a0.53,0.53,0,0,1,.32.34c0,0.09,0,.14-0.07.07a1,1,0,0,0-.25-0.41" transform="translate(-26.57 -9.07)" style="fill:#fff;fill-rule:evenodd"/><path d="M40.54,29.33a0.25,0.25,0,0,1,.34-0.11,0.15,0.15,0,0,1,.07.18s-0.09-.1-0.14,0a0.21,0.21,0,0,0-.27,0" transform="translate(-26.57 -9.07)" style="fill:#fff;fill-rule:evenodd"/><path d="M40,29.37a0.06,0.06,0,0,1,.07.06,0.06,0.06,0,0,1-.07,0,0.05,0.05,0,0,1-.06,0A0.05,0.05,0,0,1,40,29.37" transform="translate(-26.57 -9.07)" style="fill:#fff;fill-rule:evenodd"/><path d="M39.71,29.37a0.12,0.12,0,0,1,.06.17s0,0-.07-0.07,0-.09,0-0.09" transform="translate(-26.57 -9.07)" style="fill:#fff;fill-rule:evenodd"/><path d="M39.82,29.35a0.07,0.07,0,0,1,0,.06,0.05,0.05,0,0,1,0,.07,0.07,0.07,0,0,1,0-.06,0.05,0.05,0,0,1,0-.07" transform="translate(-26.57 -9.07)" style="fill:#fff;fill-rule:evenodd"/><path d="M39.85,28.15l0,0s-0.07.07-.08,0a0.08,0.08,0,0,1,0-.09l0,0,0,0,0,0s-0.08.07-.1,0.06a0.1,0.1,0,0,1,0-.11l0,0,0,0a0.11,0.11,0,0,1-.1.06,0.1,0.1,0,0,1,0-.11l0,0,0,0a0.07,0.07,0,0,1-.07,0,0.09,0.09,0,0,1,0-.08,0.07,0.07,0,0,1,0-.09c0.06,0,.08,0,0.14.14a0.27,0.27,0,0,0,0,.1,0.73,0.73,0,0,0,.09.08,0.23,0.23,0,0,1,0,.2s0,0,0-.08" transform="translate(-26.57 -9.07)" style="fill:#fff;fill-rule:evenodd"/><path d="M39.85,28.24s0,0.07,0,.13-0.09.08-.11,0.07,0-.07,0-0.13a0.12,0.12,0,0,1,.12-0.07" transform="translate(-26.57 -9.07)" style="fill:#fff;fill-rule:evenodd"/><path d="M41,27.69a0.2,0.2,0,0,1,0,.11,0.1,0.1,0,0,1-.07.08,0.2,0.2,0,0,1,0-.11A0.11,0.11,0,0,1,41,27.69" transform="translate(-26.57 -9.07)" style="fill:#fff;fill-rule:evenodd"/><path d="M40.86,27.64a0.2,0.2,0,0,1,0,.17,0.23,0.23,0,0,1-.12.13s0-.08,0-0.17a0.18,0.18,0,0,1,.12-0.13" transform="translate(-26.57 -9.07)" style="fill:#fff;fill-rule:evenodd"/><path d="M40.53,27.51a0.16,0.16,0,0,1,0,.14,0.14,0.14,0,0,1-.08.1,0.14,0.14,0,0,1,0-.13,0.14,0.14,0,0,1,.08-0.11" transform="translate(-26.57 -9.07)" style="fill:#fff;fill-rule:evenodd"/><path d="M31.5,11.77a0.24,0.24,0,0,1,.2-0.2l0.21,0c0.07,0.06.07,0.07,0,.08a0.24,0.24,0,0,0-.31.12c-0.07.09-.09,0.1-0.08,0" transform="translate(-26.57 -9.07)" style="fill:#fff;fill-rule:evenodd"/><path d="M32.15,12.16a0.05,0.05,0,0,1,0,.06,0.06,0.06,0,0,1,0,.06,0.05,0.05,0,0,1,0-.06,0,0,0,0,1,0-.06" transform="translate(-26.57 -9.07)" style="fill:#fff;fill-rule:evenodd"/><path d="M31.47,12a0.2,0.2,0,0,0,.07.29l0.15,0.19c0.13,0.09.2,0.07,0.18-.07s0-.13.09-0.13a0.16,0.16,0,0,0,.12-0.08c0-.07,0-0.11-0.06-0.13a0.85,0.85,0,0,1-.31.14A0.87,0.87,0,0,0,31.94,12a0.11,0.11,0,0,1,.12,0A0.11,0.11,0,0,0,32,11.87a0.57,0.57,0,0,0-.38.22,0.38,0.38,0,0,1,.35-0.25,0.11,0.11,0,0,0,0-.12,0.41,0.41,0,0,0-.29.08Z" transform="translate(-26.57 -9.07)" style="fill:#fff;fill-rule:evenodd"/><path d="M32.22,13.13A4,4,0,0,1,33,14.18v0.34l-0.11-.39a0.55,0.55,0,0,1,0,.39L32.76,14l-0.07.24-0.06-.34a0.66,0.66,0,0,0,0,.48,1,1,0,0,1-.07-0.6L32.44,14a1,1,0,0,1,0-.5c-0.06,0-.09,0-0.11.33a1,1,0,0,1,0-.51l-0.07.14Z" transform="translate(-26.57 -9.07)" style="fill:#fff;fill-rule:evenodd"/><path d="M34.51,10.5a0.65,0.65,0,0,0,.38.09v0.07a1.27,1.27,0,0,0,.69-0.26,0.12,0.12,0,0,0-.1,0c-0.17.08-.15,0,0.17-0.13,0,0,.08,0,0.16,0l0.2,0c-0.17.15-.34,0.3-0.52,0.44a0.84,0.84,0,0,1-.71.11,2,2,0,0,1-.35-0.21s-0.06-.07.07,0" transform="translate(-26.57 -9.07)" style="fill:#fff;fill-rule:evenodd"/><path d="M35.79,10.55a0,0,0,1,1,0,.07,0,0,0,0,1,0,0,0,0,0,0,1,0,0" transform="translate(-26.57 -9.07)" style="fill:#fff;fill-rule:evenodd"/><path d="M36.07,11.1s0,0,.06,0a0,0,0,0,1,0,.06,0,0,0,0,1-.06,0s0,0,0-.07" transform="translate(-26.57 -9.07)" style="fill:#fff;fill-rule:evenodd"/><path d="M36.73,10.85a0.05,0.05,0,0,1,.07,0,0,0,0,0,1,0,.07s-0.06,0-.07,0,0,0,0-.07" transform="translate(-26.57 -9.07)" style="fill:#fff;fill-rule:evenodd"/><path d="M36.58,10.75s0.06,0,.07,0,0,0,0,.07-0.06,0-.07,0a0.06,0.06,0,0,1,0-.07" transform="translate(-26.57 -9.07)" style="fill:#fff;fill-rule:evenodd"/><path d="M35.57,10.95a0.05,0.05,0,0,1,.07,0,0.05,0.05,0,0,1,0,0,0.05,0.05,0,0,1-.07,0,0.06,0.06,0,0,1,0,0" transform="translate(-26.57 -9.07)" style="fill:#fff;fill-rule:evenodd"/><path d="M35.93,11.64a0.08,0.08,0,0,1,.09,0s0,0-.06.07a0.1,0.1,0,0,1-.09,0s0,0,.06-0.06" transform="translate(-26.57 -9.07)" style="fill:#fff;fill-rule:evenodd"/><path d="M34.74,11a1.38,1.38,0,0,0,.43-0.13l0.21-.1c0.1,0,.12,0,0,0a2.44,2.44,0,0,1-.3.21,0.45,0.45,0,0,1-.41.07c-0.1,0-.07-0.08,0-0.09" transform="translate(-26.57 -9.07)" style="fill:#fff;fill-rule:evenodd"/><path d="M35.39,10.91a1.07,1.07,0,0,1,.36-0.21,1.22,1.22,0,0,1,.48-0.08c0.11-.1.21,0,0.09,0.15a0.62,0.62,0,0,1-.13.08,1.06,1.06,0,0,1-.38.17c-0.17,0-.19,0,0-0.07l0.13-.09a0.69,0.69,0,0,1,.32-0.09,1,1,0,0,0-.77.21c-0.09,0-.12,0,0-0.06" transform="translate(-26.57 -9.07)" style="fill:#fff;fill-rule:evenodd"/><path d="M36.23,10.42a0.66,0.66,0,0,1,.2,0,0.22,0.22,0,0,1,.19.19,0.2,0.2,0,0,1-.12.15,0.3,0.3,0,0,0-.17-0.26H36.23V10.42Z" transform="translate(-26.57 -9.07)" style="fill:#fff;fill-rule:evenodd"/><path d="M36.09,10.46l0.08,0v0.06l-0.07,0s-0.07,0,0,0" transform="translate(-26.57 -9.07)" style="fill:#fff;fill-rule:evenodd"/><path d="M35.92,10.37a0.52,0.52,0,0,1,.29-0.15,1.51,1.51,0,0,1,.35,0c0.23,0.08.14,0.16,0,.1a0.38,0.38,0,0,0-.34,0,0.47,0.47,0,0,1-.26.08c-0.07,0-.07,0,0,0" transform="translate(-26.57 -9.07)" style="fill:#fff;fill-rule:evenodd"/><path d="M36.6,10.4c0.07,0,.13,0,0.14.07a0.18,0.18,0,0,1-.07.19,0.38,0.38,0,0,0-.07-0.26" transform="translate(-26.57 -9.07)" style="fill:#fff;fill-rule:evenodd"/><path d="M36.81,10.35a0.33,0.33,0,0,1,0,.22l-0.07.14c0,0.07,0,.08,0,0.07a0.22,0.22,0,0,0,.11-0.2,0.33,0.33,0,0,1,.06-0.25c-0.08-.14-0.17-0.12-0.14,0" transform="translate(-26.57 -9.07)" style="fill:#fff;fill-rule:evenodd"/><path d="M36.21,11.17c0,0.09.21,0.11,0.24,0a1.72,1.72,0,0,0,0-.31,0.29,0.29,0,0,0-.23.3" transform="translate(-26.57 -9.07)" style="fill:#fff;fill-rule:evenodd"/><path d="M36.15,11.41a0.21,0.21,0,0,1,.23-0.1c0.08,0,.13,0,0.13.1a1.11,1.11,0,0,1,0,.25c0,0.07,0,.07-0.13.07a0.34,0.34,0,0,0-.25,0,1.6,1.6,0,0,0,0-.34" transform="translate(-26.57 -9.07)" style="fill:#fff;fill-rule:evenodd"/><path d="M36.56,11c0-.07,0-0.1.06,0a0.24,0.24,0,0,1,.09.18,0.07,0.07,0,0,1-.11.07c0-.06,0-0.11,0-0.2" transform="translate(-26.57 -9.07)" style="fill:#fff;fill-rule:evenodd"/><path d="M36.6,11.4c0-.09,0-0.1.12-0.06s0.08,0.11,0,.15a0.23,0.23,0,0,1,0,.3,0.4,0.4,0,0,1-.14-0.07,0.18,0.18,0,0,1,0-.16,0.24,0.24,0,0,0,0-.16" transform="translate(-26.57 -9.07)" style="fill:#fff;fill-rule:evenodd"/><path d="M36.73,12.17a0.07,0.07,0,0,1,.07.06,0.05,0.05,0,0,1-.07,0,0.07,0.07,0,0,1-.07-0.06,0.07,0.07,0,0,1,.07,0" transform="translate(-26.57 -9.07)" style="fill:#fff;fill-rule:evenodd"/><path d="M36.15,12.08s0.08,0,.07.06a0.06,0.06,0,0,1-.08,0s-0.08,0-.07-0.06a0.07,0.07,0,0,1,.08,0" transform="translate(-26.57 -9.07)" style="fill:#fff;fill-rule:evenodd"/><path d="M36.29,12.81a0.14,0.14,0,0,1,.15,0s0,0,0,.07h-0.1a0.42,0.42,0,0,0,0-.07m-0.11-.07a0.61,0.61,0,0,1,.26,0c0.15,0,.16.09,0,0.18a0.92,0.92,0,0,1-.27,0,0.1,0.1,0,0,0,0-.15M36.86,12a0.54,0.54,0,0,0-.4-0.19,1.45,1.45,0,0,0-.49.07,0.64,0.64,0,0,0-.12.5l0.08,0-0.07.06H36l-0.07.09,0.06,0,0,0.12,0.06,0,0,0.07H36l0,0.07H36l0,0.07,0.06,0a0.59,0.59,0,0,0,.18.15,0.28,0.28,0,0,0,.18,0,1.56,1.56,0,0,0,.23-0.26,0.17,0.17,0,0,0,0-.15,0.14,0.14,0,0,0,.07-0.14l0-.07V12.3a0.25,0.25,0,0,1-.14,0l-0.13-.06,0,0.29c0,0.06,0,.14-0.09.11l-0.16-.07a0.05,0.05,0,0,1,0-.09h0.06V12.23a0.32,0.32,0,0,1-.29,0,0.24,0.24,0,0,0-.11,0,0.38,0.38,0,0,1,.1-0.13L36,12h0.08a0.34,0.34,0,0,1,.23,0,0.41,0.41,0,0,0,.1.08V12a0.11,0.11,0,0,1,.17-0.07l0,0.19,0.3-.09V12Z" transform="translate(-26.57 -9.07)" style="fill:#fff;fill-rule:evenodd"/><path d="M36.31,12.52a0,0,0,0,1,0,0,0,0,0,0,1,0,0l0,0a0,0,0,0,1,0,0" transform="translate(-26.57 -9.07)" style="fill:#fff;fill-rule:evenodd"/><path d="M36.46,12.09s0,0,0-.07,0.07-.07.07,0a0.29,0.29,0,0,1,0,.09H36.46Z" transform="translate(-26.57 -9.07)" style="fill:#fff;fill-rule:evenodd"/><path d="M36.41,12.55c0-.12,0-0.22,0-0.37h0.07a3.1,3.1,0,0,1-.06.39s0,0-.06,0" transform="translate(-26.57 -9.07)" style="fill:#fff;fill-rule:evenodd"/><path d="M35.69,11.91c0-.07.07-0.07,0.07,0a0.34,0.34,0,0,1-.07.3s-0.11,0-.07-0.06a0.28,0.28,0,0,0,.07-0.24" transform="translate(-26.57 -9.07)" style="fill:#fff;fill-rule:evenodd"/><path d="M35.63,12.44c0-.08,0-0.11.06,0a1.42,1.42,0,0,0,.43.73c0.1,0.08,0,.16-0.1.07a1.3,1.3,0,0,1-.38-0.78" transform="translate(-26.57 -9.07)" style="fill:#fff;fill-rule:evenodd"/><path d="M36.56,13.2a0.23,0.23,0,0,1,.1-0.21c0.06,0,.07,0,0,0.07a0.74,0.74,0,0,0-.15.15" transform="translate(-26.57 -9.07)" style="fill:#fff;fill-rule:evenodd"/><path d="M34.13,14.23a0.29,0.29,0,0,1,.06-0.16l-0.07,0a1.61,1.61,0,0,1-.21.31,1.21,1.21,0,0,1,.27-0.49L34.13,14l0.07,0.06,0-.06a0.25,0.25,0,0,1,0,.08h0v0h0a0.35,0.35,0,0,1-.09.12" transform="translate(-26.57 -9.07)" style="fill:#fff;fill-rule:evenodd"/><path d="M34,14.4a0.22,0.22,0,0,1,.07-0.13,0.18,0.18,0,0,1-.07.13" transform="translate(-26.57 -9.07)" style="fill:#fff;fill-rule:evenodd"/><path d="M34.52,14.48l0-.1,0,0,0,0,0.06-.07a0.27,0.27,0,0,1-.12.22" transform="translate(-26.57 -9.07)" style="fill:#fff;fill-rule:evenodd"/><path d="M34.5,14.75a0.16,0.16,0,0,1,.11-0.21c0,0.14,0,.18-0.11.21" transform="translate(-26.57 -9.07)" style="fill:#fff;fill-rule:evenodd"/><path d="M34.72,14.66a1,1,0,0,0,.07-0.61,0.53,0.53,0,0,1-.07.61" transform="translate(-26.57 -9.07)" style="fill:#fff;fill-rule:evenodd"/><path d="M36.24,15.51a2,2,0,0,0,.06-0.58l0,0a1.43,1.43,0,0,1-.09.37,1.21,1.21,0,0,0,0-.36l-0.06,0a1.73,1.73,0,0,1-.07.3,1.57,1.57,0,0,0,0-.29H36c0,0.12,0,.25-0.06.42,0-.14,0-0.28,0-0.41H35.85a3.37,3.37,0,0,1,0,.48c0-.17,0-0.33,0-0.48l-0.09,0a3.72,3.72,0,0,1,0,.5c0-.18,0-0.34,0-0.51l-0.08,0a3.63,3.63,0,0,1-.07.47c0-.17,0-0.32,0-0.48l-0.08,0c0,0.19,0,.35,0,0.55a2.59,2.59,0,0,1,0-.58l-0.07,0a2.14,2.14,0,0,0,0,.64,1.14,1.14,0,0,1,0-.66l-0.06,0A1.61,1.61,0,0,1,35,15a1.85,1.85,0,0,0,.09-0.27L35,14.7a1.26,1.26,0,0,1-.17.41A2.51,2.51,0,0,0,35,14.18a1.88,1.88,0,0,1,0,.35l0.1,0a4,4,0,0,0,0-.48,1.17,1.17,0,0,1,0,.49l0.08,0,0-.07,0,0.08h0.07c0-.06,0-0.12.06-0.2s0,0.14,0,.21h0.07s0-.1,0-0.16a1.27,1.27,0,0,1,0,.17h0.09V14.47c0,0.08,0,.15,0,0.21h0.11a1.8,1.8,0,0,1,0-.22c0,0.08,0,.16,0,0.22h0.09V14.36a1.81,1.81,0,0,1,.07.33h0.08c0-.07,0-0.16,0-0.24a0.84,0.84,0,0,1,.07.23h0.06c0-.08,0-0.17,0-0.26a1.84,1.84,0,0,1,.08.24h0.06c0-.13,0-0.27-0.06-0.43a1.48,1.48,0,0,1,0,1.31" transform="translate(-26.57 -9.07)" style="fill:#fff;fill-rule:evenodd"/><path d="M36.5,14.9l0,0.08,0.13-.12s0.07,0,.1,0V14.74a0.09,0.09,0,0,1,.12,0,0.15,0.15,0,0,0,0-.14l0-.19a0.45,0.45,0,0,0-.21-0.22,0.33,0.33,0,0,1,0,.26,0.29,0.29,0,0,0-.16-0.25,0.32,0.32,0,0,1,0,.22,0.28,0.28,0,0,0-.09-0.08l0,0.11-0.06,0Z" transform="translate(-26.57 -9.07)" style="fill:#fff;fill-rule:evenodd"/><path d="M37.36,14.23s0,0,0,0a0.12,0.12,0,0,1-.07,0h0.08Z" transform="translate(-26.57 -9.07)" style="fill:#fff;fill-rule:evenodd"/><path d="M37.3,14.08h0a0.37,0.37,0,0,1,0,.11h-0.1l-0.06-.09s0,0,0,0H37.3Z" transform="translate(-26.57 -9.07)" style="fill:#fff;fill-rule:evenodd"/><path d="M37.13,13.9a0.27,0.27,0,0,1,.14.14H37.15c0-.07,0-0.14,0-0.14" transform="translate(-26.57 -9.07)" style="fill:#fff;fill-rule:evenodd"/><path d="M37.08,14.22a0.16,0.16,0,0,1,.08.08,0.16,0.16,0,0,1,0,.11,0.13,0.13,0,0,1-.07-0.08,0.15,0.15,0,0,1,0-.11" transform="translate(-26.57 -9.07)" style="fill:#fff;fill-rule:evenodd"/><path d="M36.9,14.19a0.23,0.23,0,0,1,.1.1,0.17,0.17,0,0,1,0,.14,0.23,0.23,0,0,1-.1-0.1,0.17,0.17,0,0,1,0-.14" transform="translate(-26.57 -9.07)" style="fill:#fff;fill-rule:evenodd"/><path d="M33.89,13.82l0.07,0,0,0a0.19,0.19,0,0,1-.07.13l0-.07-0.07-.06" transform="translate(-26.57 -9.07)" style="fill:#fff;fill-rule:evenodd"/><polygon points="6.49 14.09 6.46 14.21 6.42 14.2 6.44 14.09 6.49 14.09" style="fill:#fff;fill-rule:evenodd"/><path d="M30.17,27.27c0.12,0,.15,0,0.19.15a0.39,0.39,0,0,1,.17.24q0.32,0.27-.11.22a0.2,0.2,0,0,1-.15-0.22Z" transform="translate(-26.57 -9.07)" style="fill:#fff;fill-rule:evenodd"/><path d="M30.22,28a0.3,0.3,0,0,0,0,.36,0.23,0.23,0,0,0,.19.08l0-.1,0.11,0.07a0.28,0.28,0,0,0-.15-0.2l0.14,0a0.25,0.25,0,0,0-.18-0.2h0.09c0-.13-0.13-0.17-0.2-0.07" transform="translate(-26.57 -9.07)" style="fill:#fff;fill-rule:evenodd"/><path d="M30.58,28.06s0.07,0,.07.09a0.09,0.09,0,0,1,0,.11,0.09,0.09,0,0,1-.07-0.09,0.11,0.11,0,0,1,0-.11" transform="translate(-26.57 -9.07)" style="fill:#fff;fill-rule:evenodd"/><path d="M32.48,21.68a1.79,1.79,0,0,1,.3-0.88,7,7,0,0,0-.3.88" transform="translate(-26.57 -9.07)" style="fill:#fff;fill-rule:evenodd"/><path d="M33.15,19.94c-0.11,0-.12,0,0-0.11a0.88,0.88,0,0,1,.6-0.2H34.1c0.15,0,.13.15,0,0.14H33.81a1.23,1.23,0,0,0-.66.18" transform="translate(-26.57 -9.07)" style="fill:#fff;fill-rule:evenodd"/><path d="M34,19.8a0.28,0.28,0,0,1,.19,0,0.49,0.49,0,0,1-.37,0,0.28,0.28,0,0,1,.19,0" transform="translate(-26.57 -9.07)" style="fill:#fff;fill-rule:evenodd"/><path d="M34.76,17.83a0.24,0.24,0,0,0-.13.13,0.4,0.4,0,0,0-.08.15A0.31,0.31,0,0,0,34.66,18a0.36,0.36,0,0,0,.09-0.15" transform="translate(-26.57 -9.07)" style="fill:#fff;fill-rule:evenodd"/><path d="M34.11,18.47c0,0.08,0,.13.07,0.17a1.39,1.39,0,0,0,1.1-.21l0.46-.21c0.08-.1.07-0.13,0-0.09l-0.22.11L35.51,18a0.88,0.88,0,0,0-.25.29l0-.09a0.35,0.35,0,0,0-.12.2l0-.1a0.28,0.28,0,0,0-.11.12l0-.13s-0.09,0-.17.19l0-.14s-0.07,0-.14.17l0.15-.45a0.79,0.79,0,0,0-.29.48s-0.07,0-.06,0l0.17-.33a0.48,0.48,0,0,0-.29.33l0.13-.37-0.24.32V18.34a0.34,0.34,0,0,0-.16.13" transform="translate(-26.57 -9.07)" style="fill:#fff;fill-rule:evenodd"/><path d="M34.15,24.54s0-.07,0-0.06l0.11,0.1s0,0.07-.07.06Z" transform="translate(-26.57 -9.07)" style="fill:#fff;fill-rule:evenodd"/><path d="M34.24,24.46s0-.07,0,0l0.09,0.09s0,0.07,0,0Z" transform="translate(-26.57 -9.07)" style="fill:#fff;fill-rule:evenodd"/><path d="M34.29,24.38s0-.08.06-0.06l0.11,0.11s0,0.07-.07,0Z" transform="translate(-26.57 -9.07)" style="fill:#fff;fill-rule:evenodd"/><path d="M34.34,24.24s0-.11.09-0.08l0.17,0.17s-0.07.12-.09,0.08Z" transform="translate(-26.57 -9.07)" style="fill:#fff;fill-rule:evenodd"/><path d="M34.52,24.09c-0.06-.06,0-0.13.07-0.08l0.2,0.18c0.06,0,0,.13-0.07.09Z" transform="translate(-26.57 -9.07)" style="fill:#fff;fill-rule:evenodd"/><path d="M34.64,24a0,0,0,1,1,.06-0.07l0.18,0.15s0,0.11-.07.08Z" transform="translate(-26.57 -9.07)" style="fill:#fff;fill-rule:evenodd"/><path d="M34.79,23.94a0,0,0,0,1,0-.07L35,24s0,0.1-.06.07Z" transform="translate(-26.57 -9.07)" style="fill:#fff;fill-rule:evenodd"/><path d="M34,22.89s-0.07,0-.08,0l0,0.17s0.08,0,.08,0Z" transform="translate(-26.57 -9.07)" style="fill:#fff;fill-rule:evenodd"/><path d="M33.81,23.12c0-.07-0.08,0-0.08,0l0,0.13c0,0.07.09,0,.08,0Z" transform="translate(-26.57 -9.07)" style="fill:#fff;fill-rule:evenodd"/><path d="M33.53,23.3c0-.07-0.06,0-0.06,0v0.12c0,0.07.07,0,.07,0V23.3Z" transform="translate(-26.57 -9.07)" style="fill:#fff;fill-rule:evenodd"/><path d="M33.88,23.06a0,0,0,0,1,0,.09,0.05,0.05,0,0,1,0-.09" transform="translate(-26.57 -9.07)" style="fill:#fff;fill-rule:evenodd"/><path d="M33.62,23.23a0.05,0.05,0,0,1,0,.06,0,0,0,1,1-.09,0,0.05,0.05,0,0,1,0-.06" transform="translate(-26.57 -9.07)" style="fill:#fff;fill-rule:evenodd"/><path d="M33.39,23.4a0,0,0,1,0-.07,0V23.5a0,0,0,0,0,.08,0V23.4Z" transform="translate(-26.57 -9.07)" style="fill:#fff;fill-rule:evenodd"/><path d="M35.41,16.36a0.06,0.06,0,0,1,0,.07,0.07,0.07,0,0,1,0,.07,0.07,0.07,0,0,1,0-.07,0.06,0.06,0,0,1,0-.07" transform="translate(-26.57 -9.07)" style="fill:#fff;fill-rule:evenodd"/><path d="M35.52,16.53a0.11,0.11,0,0,1,0-.1,0.12,0.12,0,0,1,0-.11,0.11,0.11,0,0,1,0,.11,0.1,0.1,0,0,1,0,.1" transform="translate(-26.57 -9.07)" style="fill:#fff;fill-rule:evenodd"/><path d="M35.7,16.49a0.08,0.08,0,0,1,.08,0,0.1,0.1,0,0,1-.08,0,0.09,0.09,0,0,1-.07,0,0.07,0.07,0,0,1,.07,0" transform="translate(-26.57 -9.07)" style="fill:#fff;fill-rule:evenodd"/><path d="M35.79,16.65a0,0,0,0,1,0,0,0,0,0,0,1,0,0,0,0,0,0,1,0,0,0,0,0,0,1,0,0" transform="translate(-26.57 -9.07)" style="fill:#fff;fill-rule:evenodd"/><path d="M35.94,16.64h0.34c0.11,0,.13.06,0.06,0.16s-0.2.31-.19,0a0.2,0.2,0,0,0-.21-0.08c-0.06,0-.06-0.07,0-0.08" transform="translate(-26.57 -9.07)" style="fill:#fff;fill-rule:evenodd"/><path d="M35.4,18.83a0,0,0,0,1,0,0,0.05,0.05,0,0,1,0,.06,0.05,0.05,0,0,1,0-.06,0,0,0,0,1,0,0" transform="translate(-26.57 -9.07)" style="fill:#fff;fill-rule:evenodd"/><path d="M35.25,18.87a0.06,0.06,0,0,1,.06.07,0.06,0.06,0,0,1-.06.06,0.05,0.05,0,0,1-.06-0.06,0.06,0.06,0,0,1,.06-0.07" transform="translate(-26.57 -9.07)" style="fill:#fff;fill-rule:evenodd"/><path d="M35.44,19a0.39,0.39,0,0,1,.26-0.11,0.38,0.38,0,0,1-.2.21,0.37,0.37,0,0,1-.27.1,0.43,0.43,0,0,1,.2-0.2" transform="translate(-26.57 -9.07)" style="fill:#fff;fill-rule:evenodd"/><path d="M35.88,18.69A0.32,0.32,0,0,1,36,18.59a0.22,0.22,0,0,1-.11.15,0.26,0.26,0,0,1-.16.08,0.2,0.2,0,0,1,.11-0.14" transform="translate(-26.57 -9.07)" style="fill:#fff;fill-rule:evenodd"/><path d="M35.6,19.39a1.18,1.18,0,0,1,.09-0.19h0a0.36,0.36,0,0,1,.21-0.25h0A0.52,0.52,0,0,1,36,18.86S36,19,36,19l0,0a0.59,0.59,0,0,1,.24-0.15,1.12,1.12,0,0,1-.18.19l0.06,0a1.07,1.07,0,0,1,.27-0.17l-0.21.2,0.07,0A0.69,0.69,0,0,1,36.53,19l-0.13.11a1.42,1.42,0,0,1,.23,0l-0.29.11,0.07,0a0.56,0.56,0,0,1,.28-0.08l-0.21.12,0.07,0a0.47,0.47,0,0,1,.27-0.06l-0.2.09,0,0a0.61,0.61,0,0,1,.25-0.06l-0.2.09,0.06,0a0.43,0.43,0,0,1,.21,0l-0.17.06L37,19.64l0,0-0.3-.1,0,0,0,0-0.07,0-0.13.07a0.34,0.34,0,0,1,.07-0.08l-0.07,0-0.13.07,0.07-.09-0.07,0-0.16.1a0.57,0.57,0,0,1,.09-0.12l-0.1,0L36,19.49a0.29,0.29,0,0,1,.07-0.14l-0.09,0-0.16.14a0.88,0.88,0,0,1,.09-0.16l-0.15-.06a1,1,0,0,1-.18.16" transform="translate(-26.57 -9.07)" style="fill:#fff;fill-rule:evenodd"/><path d="M34.12,23a1.17,1.17,0,0,1,.07-0.47,0.19,0.19,0,0,1,.2-0.11l1.25-.19c0.07,0,.07,0,0.07.11a0.89,0.89,0,0,1-.09.33s-0.06-.12,0-0.36a0.76,0.76,0,0,1-.21.49,0.88,0.88,0,0,1,.06-0.45,2.62,2.62,0,0,0-.21.46,0.53,0.53,0,0,1,0-.4,1.24,1.24,0,0,1-.19.4,0.72,0.72,0,0,1,0-.34,0.86,0.86,0,0,1-.18.44,1.42,1.42,0,0,1,0-.4l0,0a1,1,0,0,1-.13.44,0.53,0.53,0,0,1,0-.43H34.61a0.52,0.52,0,0,1-.11.26c-0.07,0-.11-0.09-0.11-0.23a0.86,0.86,0,0,1-.26.48m1.94-3s0.07,0,.07,0A8.7,8.7,0,0,0,36,21.38h0a5.15,5.15,0,0,1,.09-1.43m0.14,0c-0.07.47-.07,0.74-0.11,1.23l0,0.08A7.07,7.07,0,0,1,36.29,20c0-.07,0-0.09-0.08,0m0.1,0.3L36.36,20c0.07,0,.09,0,0.08.06l-0.12.23h0Zm-1.54-.38h0a5.55,5.55,0,0,0-.08,1.86,4.24,4.24,0,0,1,.23-2l0,0.07a3.85,3.85,0,0,0-.08,1.91A3.43,3.43,0,0,1,35,19.9V20a3.76,3.76,0,0,0,0,1.68l0,0a5.42,5.42,0,0,1,.07-1.81h0.07a4.86,4.86,0,0,0,0,1.79l0,0a5,5,0,0,1,0-1.71h0.06a5.11,5.11,0,0,0,0,1.72h0a5.18,5.18,0,0,1,.07-1.73l0,0a6.65,6.65,0,0,0,0,1.67l0,0a7.73,7.73,0,0,1,0-1.59l0-.06a6.21,6.21,0,0,0,0,1.66h0a6.78,6.78,0,0,1,0-1.72l0,0a11.61,11.61,0,0,0,0,1.7h0a6.34,6.34,0,0,1,.07-1.68c0.07,0,.07.07,0,0.17a6.71,6.71,0,0,0,0,1.5h0.06a5.82,5.82,0,0,1,.07-1.66s0.09,0,0,.12a6.4,6.4,0,0,0,0,1.54H36c0.07,0,.08.06,0,0.08a10,10,0,0,1-1.31.2c-0.08,0-.11,0-0.11-0.16a5.66,5.66,0,0,1,.21-1.82m-0.21-.2a4,4,0,0,0-.33,1.37,3.07,3.07,0,0,0,0,1c0,0.19.12,0.25,0.2,0.24l1.39-.22c0.1,0,.2-0.1.16-0.2l-0.06-.11,0,0.16-0.07-.13L35.74,22l-0.08-.19L35.59,22l-0.08-.18,0,0.19,0-.16-0.06.2-0.07-.18-0.06.21-0.07-.2L35.1,22,35,21.9,35,22l-0.07-.09a0.24,0.24,0,0,0-.2,0l0,0,0,0-0.32-.07,0.13-.07s0-.07-0.13-0.06l0.14-.1-0.15,0,0.14-.08a0.18,0.18,0,0,0-.15-0.12l0.15,0v0l-0.15,0,0.16-.07s0-.07-0.13-0.1l0.13,0A0.15,0.15,0,0,0,34.38,21l0.11,0-0.11-.08,0.14-.06s0-.07-0.1-0.1l0.15-.07a0.19,0.19,0,0,0-.14-0.1l0.14,0-0.11-.07,0.13-.06-0.1,0,0.12-.07s0-.06-0.12-0.07l0.14-.06V20l-0.13,0L34.56,20l-0.08-.07,0.2,0,0,0-0.14,0,0.11-.07a0.1,0.1,0,0,0-.11-0.07" transform="translate(-26.57 -9.07)" style="fill:#fff;fill-rule:evenodd"/><path d="M36.59,23a0.08,0.08,0,0,1,0-.14l0.34,0a0.23,0.23,0,0,1,.18.11l0.16,0.18c0.07,0.08,0,.15-0.06.13A3.84,3.84,0,0,1,36.59,23m-0.07,0c-0.07,0-.11,0-0.07.06a1.76,1.76,0,0,0,.39.25,0.89,0.89,0,0,0,.43.08c0.1,0,.15-0.07,0-0.09a3.26,3.26,0,0,1-.77-0.3m-0.6-.56A0.08,0.08,0,0,1,36,22.34l0.15,0.15c0.08,0.07,0,.14,0,0.1Zm-0.11.18c-0.1-.07,0-0.21.08-0.15l0.28,0.2c0.08,0.07,0,.18-0.07.13Zm0.67-2.3c-0.07.06-.1,0.12,0,0.11-0.1.09-.11,0.16,0,0.19-0.19.23-.19,0.3,0,0.2-0.2.26-.18,0.3,0,0.25-0.18.21-.15,0.24-0.09,0.25-0.12.17-.12,0.25,0,0.24a0.29,0.29,0,0,0-.18.26c0,0.15-.44.32-0.1,0.46a0.68,0.68,0,0,1,.25.44c0,0.13.08,0.14,0.2,0.09a1.45,1.45,0,0,1,.28,0c0.18,0,.19-0.18,0-0.21,0-.07,0-0.11-0.15-0.07,0.08-.14,0-0.1-0.06-0.12s0-.09-0.1,0l0,0a0.16,0.16,0,0,0,.12-0.13l-0.25.08a0.2,0.2,0,0,0,.1-0.16l-0.18,0a0.47,0.47,0,0,0,.25-0.27l-0.2.06a0.48,0.48,0,0,0,.22-0.26l-0.17.07a0.24,0.24,0,0,1,.21-0.15,0.21,0.21,0,0,0,.15-0.23l-0.25.12A1.87,1.87,0,0,0,36.9,21a0.77,0.77,0,0,0-.49.3v0A2.11,2.11,0,0,0,37,20.68l-0.49.38L37,20.53c0-.07-0.16,0-0.41.27l0-.06,0.23-.25a0.86,0.86,0,0,0,.36-0.39c0-.12-0.11,0-0.35.25-0.06.06-.12,0.08-0.19,0.15l0.57-.6V19.83c-0.06-.06-0.42.37-0.73,0.52" transform="translate(-26.57 -9.07)" style="fill:#fff;fill-rule:evenodd"/><path d="M37.73,21.64h0c0.07-.07.07-0.11,0-0.13h0v0.14Zm-0.08,0,0,0V21.51h0v0.16Zm-0.11,0h0V21.53l-0.08,0Zm-0.1,0h0V21.56l0,0Zm0.43-.4a0.06,0.06,0,0,1,.07,0s0,0-.06.06a0.06,0.06,0,0,1-.07,0s0,0,.06,0m0,0.12,0,0a0,0,0,0,1,0,0,0,0,0,0,1,0,0l0,0m-0.37-.2a0,0,0,0,1,0,.09,0,0,0,0,1,0-.09m-0.35.24c-0.07,0-.07.08,0,0.11h0a0.06,0.06,0,0,0,0,.07,0.06,0.06,0,0,0,0-.07v0l0.08,0v0.19l-0.09,0a0,0,0,0,0,0,0,0,0,0,0,0,0,0v0s0,0,0,0l0.62-.14c0.19,0,.23-0.14.19-0.36s0-.1-0.06-0.09l-0.14,0L38,21.17c0.11-.06.11-0.08,0-0.08l-0.2,0,0.16,0s0.07-.07,0-0.09l-0.17,0,0.13,0c0.08-.07,0-0.11-0.12-0.13,0.06-.07,0-0.11,0-0.11s-0.11-.11-0.08,0l0,0.62a0.11,0.11,0,0,1-.08.14ZM37.5,21c0-.09.08,0,0.08,0l0,0.15s0,0-.07,0V21Zm0.68,0.17a0.25,0.25,0,0,1,.08.22c0,0.09-.08.16-0.08,0.09a0.61,0.61,0,0,0-.07-0.29s0-.07.07,0m0.14,0.27a0.09,0.09,0,0,1,.06.08s0,0.09,0,.09a0.08,0.08,0,0,1,0-.07,0.15,0.15,0,0,1,0-.1m0,0.57s0,0,0,0a0,0,0,0,1,0,0,0,0,0,0,1,0,0,0,0,0,0,1,0,0m0,0.14a0.12,0.12,0,0,1,0,.13,0.12,0.12,0,0,1,0-.13m0-.38c0-.1.12-0.07,0.07,0l-0.06.13h0V21.79Zm-1.38.35a0.48,0.48,0,0,1,.26-0.22,4.49,4.49,0,0,0,.93-0.22c0.09-.07.13,0,0.12,0.06a1.19,1.19,0,0,1-.15.61v-0.5h0a1.12,1.12,0,0,1-.13.51l0-.47h0l-0.1.46,0-.4c0-.06,0-0.07,0,0a1.14,1.14,0,0,1-.24.73A1.57,1.57,0,0,0,37.61,22l0,0a2.16,2.16,0,0,1-.15.65,2.57,2.57,0,0,1,0-.62h0l-0.17.58c-0.06,0,0-.07,0-0.22l0-.33,0,0a1.67,1.67,0,0,1-.16.42l0-.43L37,22.34V22.09Z" transform="translate(-26.57 -9.07)" style="fill:#fff;fill-rule:evenodd"/><path d="M38,13.34a1,1,0,0,1,.71-0.17c0.17,0,.17.12,0.07,0.11a1.28,1.28,0,0,0-.76.09c-0.09,0-.07,0,0,0m-0.2.29a1.19,1.19,0,0,1,1-.32c0.11,0,.09.12,0,0.11a0.85,0.85,0,0,0-.26,0,1.17,1.17,0,0,0-.31.09,1.43,1.43,0,0,0-.5.5c-0.06,0-.07,0,0-0.06a0.88,0.88,0,0,1,.64-0.53v0a0.62,0.62,0,0,0-.52.24s0,0,0-.07m0.62-.09c0.08,0,.12,0,0.06.11a1.56,1.56,0,0,0-.59.47,0.19,0.19,0,0,1-.11.21,0.22,0.22,0,0,1-.22.22l-0.2.26c0,0.07,0,.17-0.18.32s-0.13.07-.11-0.09a1.68,1.68,0,0,1,.43-0.75c0.06,0,.06,0,0.07-0.12s0.08-.06.07,0,0,0.08.06,0a1.35,1.35,0,0,1,.74-0.65M36.79,16A0.65,0.65,0,0,1,37,15.33c0.43-.26.58-0.64,0.72-0.63A3.24,3.24,0,0,1,38.32,14c0.19-.13.22-0.1,0.12,0.1a3.76,3.76,0,0,1-.78,1,0.34,0.34,0,0,0-.26.18l0.17-.08c0.08,0,.09,0,0,0.07s-0.37.44-.43,0.2a0.89,0.89,0,0,0-.26.33l0,0.23c0,0.07-.07.07-0.1,0M38,14.08a1.2,1.2,0,0,1,.44-0.34c0.18-.07.17,0.07,0,0.07a0.72,0.72,0,0,0-.44.35c-0.06.07-.12,0,0-0.08m-1,1.59a0.07,0.07,0,0,1,.07,0,0.06,0.06,0,0,1,0,.08,0.06,0.06,0,0,1-.08,0,0.08,0.08,0,0,1,0-.08m0,0.46c0,0.07,0,.06.06,0l0.08-.23a2.68,2.68,0,0,0,.34-0.33c0.06,0.08.16,0,.32-0.21a0.63,0.63,0,0,0,.34-0.43q0.07-.24-0.08-0.08a2.22,2.22,0,0,0-.32.41c-0.18.06-.32,0.25-0.52,0.34a0.18,0.18,0,0,0-.07.17,0.4,0.4,0,0,0-.15.35m0,0.3a1.1,1.1,0,0,1,.2-0.42c0.1-.1.13-0.09,0.07,0a0.92,0.92,0,0,0-.11.46c0,0.19-.23.15-0.15-0.07m0.26-.15,0.15-.36a0.25,0.25,0,0,1,.19-0.21l0.2-.2c0-.06.07,0,0,0.07l-0.15.24a1.07,1.07,0,0,1-.28.58s-0.1,0-.07,0L37.51,16l-0.22.31c-0.07.08-.07,0,0,0m0.45,0L37.76,16a0.62,0.62,0,0,1,.14-0.35l0.1-.28c0-.11.07-0.1,0.07,0L38,15.57c0.06,0,0,.08,0,0.14a0.16,0.16,0,0,1-.07.16,1,1,0,0,1-.12.52c-0.11.14-.15,0.12-0.11-0.07m-0.59.43a1,1,0,0,0,.35-0.31c0.13-.19.19-0.2,0.15,0a0.57,0.57,0,0,1-.38.41c-0.2.07-.25,0-0.12-0.1m-0.44.53a0.9,0.9,0,0,1,.57-0.35,1.13,1.13,0,0,0,.49-0.37c0.15-.09.12,0,0.07,0.09a0.43,0.43,0,0,1-.19.18,1.79,1.79,0,0,1-.41.23,1,1,0,0,0-.45.32c-0.08.07-.12,0-0.09-0.09m0,0.54a0.17,0.17,0,0,0,0,.2,2.61,2.61,0,0,1,.56-0.57c0.06-.07,0-0.1-0.06-0.07l-0.41.3a0.86,0.86,0,0,1,.48-0.45,0.59,0.59,0,0,0,.36-0.2c0-.1,0-0.13,0-0.08-0.25.17-.47,0.23-0.66,0.38a1,1,0,0,0-.34.55Zm0,0.31c-0.06.1,0,.14,0,0.06a3.43,3.43,0,0,1,.59-0.69A1.81,1.81,0,0,0,38,16.66c0.07-.22,0-0.29-0.07-0.15a1.78,1.78,0,0,1-.48.81,2.5,2.5,0,0,0-.71.8m0.07,0.2c-0.07.08-.06,0.11,0.06,0.07a1.73,1.73,0,0,1,.4-0.5l0.32-.28A0.74,0.74,0,0,0,38,16.85l0-.06a1.33,1.33,0,0,1-.45.65,2,2,0,0,0-.44.45,1,1,0,0,0-.1.2,2.4,2.4,0,0,0-.2.23m0.8-.62a0.53,0.53,0,0,0-.3.25c0,0.11,0,.12.06,0a2.1,2.1,0,0,1,.28-0.22s0.07-.09,0-0.07m-0.39.71A0.64,0.64,0,0,1,37.47,18c0.13-.09.16-0.07,0.06,0.07a3.43,3.43,0,0,0-.22.4c0,0.06-.11.12-0.09,0m-0.06-.33a0.13,0.13,0,0,1,0,.09,0.11,0.11,0,0,1,0,.09s0,0,0-.09a0.1,0.1,0,0,1,0-.09m0.67-.27a0.13,0.13,0,0,1,0,.14,0.12,0.12,0,0,1-.09.09,0.1,0.1,0,0,1,0-.13,0.12,0.12,0,0,1,.1-0.1m1.35-5a1.41,1.41,0,0,0-1.35.45,1.32,1.32,0,0,0-.29.75s0.1-.06.22-0.21l-0.07,0a0.66,0.66,0,0,1,.08-0.16,0.21,0.21,0,0,1,.07-0.1,0.18,0.18,0,0,0,.09-0.1H37.86a1,1,0,0,1,.85-0.32l0.26,0a0.17,0.17,0,0,0,.12,0s0,0,0,0a2.35,2.35,0,0,0-.89,0,1.67,1.67,0,0,1,1-.13c0.18,0,.19-0.12,0-0.14" transform="translate(-26.57 -9.07)" style="fill:#fff;fill-rule:evenodd"/><path d="M39.72,12.73s0,0.09,0,.12,0.08,0,.07,0-0.07-.11-0.1-0.08m-0.4-.15c-0.07-.08,0-0.13.09-0.12a1.63,1.63,0,0,1,.7.22c0.09,0.07,0,.13,0,0.08l-0.2-.1c0,0.08-.07,0-0.18,0-0.07.07-.17,0-0.27-0.07l0.07,0.19s0,0,0,0Z" transform="translate(-26.57 -9.07)" style="fill:#fff;fill-rule:evenodd"/><path d="M40.32,13s-0.09,0,0-.07c-0.09-.06-0.06-0.13,0-0.14a1.11,1.11,0,0,1,.74,0l0.13,0.15c0.08,0.2,0,.29-0.1.15a0.31,0.31,0,0,0-.15-0.22,0.92,0.92,0,0,1,.13.44c0.21,0.2,0,.25,0,0.12L40.94,13a0.64,0.64,0,0,1,0,.33,0.39,0.39,0,0,1-.06-0.29,0.39,0.39,0,0,0-.07-0.2,0.94,0.94,0,0,0-.43,0,0.57,0.57,0,0,1,.39.06,0.33,0.33,0,0,1,0,.29c0,0.07-.07.06-0.07,0l0-.12c0-.07-0.08-0.07-0.19-0.07a0.29,0.29,0,0,1-.21,0" transform="translate(-26.57 -9.07)" style="fill:#fff;fill-rule:evenodd"/><path d="M40.61,19.65c0-.07.07-0.12,0.17,0a6.19,6.19,0,0,1,.55.9c0.08,0.19,0,.23-0.08.07a6.09,6.09,0,0,0-.63-1m0.29,0.09c-0.07-.09,0-0.14.1,0a6,6,0,0,1,.39.71c0,0.11,0,.14-0.07,0a4.58,4.58,0,0,0-.43-0.72m-3.17.18a10,10,0,0,0,1,1.42c0,0.06,0-.11,0,0a1.72,1.72,0,0,0,.27.4,1.85,1.85,0,0,0-.15-0.39l0.53,0.62a2.21,2.21,0,0,0-.51-0.76l0,0,0.61,0.79h0A5.61,5.61,0,0,0,39.06,21l0-.07c0.11,0.14.26,0.35,0.38,0.53a3,3,0,0,0,.38.49c0.22,0.06-.53-0.74-0.88-1.4v0A5.24,5.24,0,0,0,40.15,22s0.08,0,0-.08a12.8,12.8,0,0,1-1.05-1.31l0,0A4.77,4.77,0,0,0,40.5,22s0.07,0.07.12,0-0.64-.33-1.27-1.38V20.6a5.08,5.08,0,0,0,.48.63,2.13,2.13,0,0,0,.84.65c0.07-.07-0.67-0.58-1.07-1.2l0,0A4.12,4.12,0,0,0,41,22a0.21,0.21,0,0,0,.17,0c0.29,0-.64-0.46-1.13-1v0l0.51,0.44a7.81,7.81,0,0,0,.67.43,0.63,0.63,0,0,0,.38.12,3.12,3.12,0,0,0-.85-0.59l0.34,0.16a1.11,1.11,0,0,0,.66.23,0.69,0.69,0,0,0-.48-0.27s0,0,.08,0a2.19,2.19,0,0,0,.63.22c0.12,0-.07-0.12-0.3-0.26a1.38,1.38,0,0,0,.65.2,1.73,1.73,0,0,0-.34-0.28c0.25,0.16.85,0.37,0.28,0l0,0c0.21,0.16.48,0.22,0.16,0h0c0.19,0.15.29,0.26,0.15,0,0.19,0.27.37,0.37,0.12,0l0.29,0.22c-0.1,0-.09.07,0,0.13s0.26,0.13.21,0A0.5,0.5,0,0,0,43.14,21c-0.19-.12-0.18,0,0,0.35a0.83,0.83,0,0,1-.2-0.21A0.24,0.24,0,0,0,42.77,21a11.18,11.18,0,0,0-1.28.15,1,1,0,0,1-.67-0.07C40.71,21,40.67,21,40.73,20.88a0.13,0.13,0,0,0-.06-0.18l-0.3-.6c0,0.07.08,0.09,0.12,0.15a1.31,1.31,0,0,0,.23.34c0-.13-0.2-0.42-0.33-0.75a1.9,1.9,0,0,0,.49.72,3.61,3.61,0,0,0-.4-0.78l0.11,0.12a0.3,0.3,0,0,0,.18.16,1,1,0,0,0-.48-0.56c-0.26-.09-0.42-0.13-0.38,0L39.8,19.4l-0.14,0s0,0.09.11,0.25l0,0-0.16-.25s-0.11-.06-0.12,0l0.08,0.17-0.18-.2c-0.08,0-.18-0.07-0.18,0l0.26,0.43c0-.07-0.12-0.13-0.19-0.22A0.53,0.53,0,0,0,39,19.29a1.26,1.26,0,0,0,.29.59l-0.4-.58s-0.2-.06-0.2,0L39.11,20a3.84,3.84,0,0,1-.55-0.68,0.1,0.1,0,0,0-.08,0,0,0,0,0,0-.06,0L39,20a3.22,3.22,0,0,1-.31-0.32c-0.12-.17-0.23-0.28-0.33-0.43a0.09,0.09,0,0,0-.12,0,5.22,5.22,0,0,0,.63.84,4.65,4.65,0,0,1-.72-0.84c-0.09,0-.16,0-0.19,0s0.58,0.63.81,1a10.68,10.68,0,0,1-.88-1s-0.15,0-.15,0,0.52,0.57.94,1.15a8,8,0,0,0-.84-0.88,3.59,3.59,0,0,0,.78,1,7.91,7.91,0,0,1-.82-0.87,2.42,2.42,0,0,0,.73,1l-0.74-.78c-0.1-.07-0.12-0.06-0.07,0" transform="translate(-26.57 -9.07)" style="fill:#fff;fill-rule:evenodd"/><path d="M40.24,13.82a0.62,0.62,0,0,0,0,.2,0.3,0.3,0,0,0,0,.18c0,0.07,0,.07,0,0.06a1.45,1.45,0,0,1,0-.34,0.1,0.1,0,0,0,0-.08m0.1,0a2.06,2.06,0,0,0,0,.24,0.4,0.4,0,0,0,0,.23c0,0.07,0,.09,0,0.07a2.53,2.53,0,0,1,0-.44,0.1,0.1,0,0,0,0-.1m0.12,0a2.16,2.16,0,0,0,0,.31,0.49,0.49,0,0,0,0,.28c0,0.09.06,0.11,0.06,0.08a3,3,0,0,1-.06-0.55,0.11,0.11,0,0,0,0-.12M40.61,14a1.86,1.86,0,0,0,0,.28,0.47,0.47,0,0,0,0,.25c0,0.08.07,0.1,0.06,0.07a2.51,2.51,0,0,1-.06-0.49,0.14,0.14,0,0,0,0-.11m0.13,0.15a0.93,0.93,0,0,0,0,.24,0.42,0.42,0,0,0,0,.23c0,0.07.07,0.08,0.06,0.06a2.93,2.93,0,0,1-.07-0.44,0.09,0.09,0,0,0,0-.09m0.13,0.14a0.92,0.92,0,0,0,0,.21,0.33,0.33,0,0,0,.06.2c0,0.06.06,0.07,0,0a2.11,2.11,0,0,1-.07-0.38c0-.06,0-0.07,0-0.08M41,14.38a0.8,0.8,0,0,0,0,.2,0.3,0.3,0,0,0,.06.17l0,0A1.3,1.3,0,0,1,41,14.46a0.13,0.13,0,0,0,0-.07m0.13,0.14a0.42,0.42,0,0,0,0,.17,0.21,0.21,0,0,0,.06.14s0.06,0.06,0,0a1.32,1.32,0,0,1-.08-0.28,0.07,0.07,0,0,0,0-.07m0.75,1.15c-0.1-.1-0.17,0,0,0.15s0.25,0.07.21,0Zm-2.43-2.46a0.55,0.55,0,0,1,.1.21,2,2,0,0,1,.09.22,0.5,0.5,0,0,1-.2-0.44m-1.23,1.84a2.64,2.64,0,0,0,1,1.48c0-.12-0.47-0.5-0.67-0.85s-0.23-.54-0.31-0.63m0.07-.18a2.17,2.17,0,0,0,.88,1.35c0-.11-0.4-0.44-0.6-0.76s-0.21-.51-0.28-0.59m0.07-.19a2,2,0,0,0,.81,1.26c0-.1-0.36-0.4-0.54-0.7s-0.2-.48-0.27-0.56m0.07-.18a1.89,1.89,0,0,0,.74,1.16c0-.09-0.33-0.37-0.49-0.65s-0.19-.45-0.25-0.51m0.09-.18a1.67,1.67,0,0,0,.67,1.07c0-.08-0.3-0.34-0.44-0.6s-0.18-.42-0.23-0.48m0.09-.18a1.49,1.49,0,0,0,.61,1c0-.07-0.26-0.32-0.39-0.55s-0.17-.39-0.21-0.44m0.1-.18a1.32,1.32,0,0,0,.53.89c0-.07-0.22-0.28-0.34-0.49S38.78,14,38.74,14m0.11-.17a3.33,3.33,0,0,1,.18.36c0.1,0.19.28,0.38,0.29,0.44a1.11,1.11,0,0,1-.47-0.8M39,13.65a3.3,3.3,0,0,1,.15.33,3.27,3.27,0,0,1,.24.39A1,1,0,0,1,39,13.65m0.14-.15a2.31,2.31,0,0,1,.14.28c0.07,0.15.19,0.29,0.2,0.34a0.8,0.8,0,0,1-.34-0.61M38,17.41a1.68,1.68,0,0,0,0-.21,7.44,7.44,0,0,0,1.2,1.4,13.3,13.3,0,0,0-1-1.18c-0.07-.13-0.14-0.25-0.19-0.35s0-.1,0-0.17a4.77,4.77,0,0,0,1.21,1.47c-0.07-.17-0.64-0.63-1-1.13a3.32,3.32,0,0,1-.24-0.48V16.67a5,5,0,0,0,1.21,1.47C39.23,18,38.63,17.49,38.34,17a4.15,4.15,0,0,1-.25-0.49V16.43A5.92,5.92,0,0,0,39.37,18c-0.06-.16-0.73-0.74-1-1.2a3.63,3.63,0,0,1-.25-0.51V16.15a4.71,4.71,0,0,0,1.24,1.55c-0.06-.16-0.7-0.69-1-1.13A3,3,0,0,1,38.13,16a0.67,0.67,0,0,1,0-.14,3.76,3.76,0,0,0,1.19,1.49c-0.06-.14-0.65-0.62-0.89-1a4.51,4.51,0,0,1-.29-0.58,0.91,0.91,0,0,1,0-.16,3.46,3.46,0,0,0,1.14,1.48c0-.14-0.6-0.58-0.84-1a3.84,3.84,0,0,1-.29-0.62v0c0-.06,0-0.12,0-0.18a3.12,3.12,0,0,0,1.08,1.54c0-.12-0.55-0.56-0.76-0.92a6.42,6.42,0,0,1-.32-0.66c0.16-1.34.73-2.13,1.56-2.27h0a0.89,0.89,0,0,0,.09.54,2.87,2.87,0,0,0,0-.38V13l0.07,0a0.44,0.44,0,0,0,.16.38A0.64,0.64,0,0,1,40,13.06l0.1,0a0.44,0.44,0,0,0,.16.42,0.56,0.56,0,0,1-.07-0.38h0a0.43,0.43,0,0,0,.08.19,0.31,0.31,0,0,0,0-.24,0.33,0.33,0,0,1,.35,0c0,0.06,0,.08,0,0.08H40.5l0.15,0.07s0,0,0,0l-0.06,0,0.2,0c0.07,0,.06,0,0,0.07l0,0.06a1.17,1.17,0,0,1,.56.15c0,0.07-.09.07-0.25,0,0,0.09.19,0.1,0.18,0.16s-0.24,0-.34.14h0.25c0.06,0,0,.07,0,0.07,0.13,0.16.23,0.2,0.27,0.09s0.07-.08.11,0,0.19,0.1.09,0.12l-0.15,0,0.18,0a0,0,0,0,1,0,.08c-0.12,0-.13,0,0.09,0s0.13,0.09.09,0.13c-0.2,0-.19,0,0,0.06a0.09,0.09,0,0,1,.07.09c-0.12,0-.1.06,0,0.06s0,0,0,.07-0.12.06,0.06,0.06c0,0.07.11,0.06,0.15,0.14s0.21,0.07.08,0.07v0c0.21,0,.31.07,0.28,0.2s-0.31-.11-0.19.34l0,0c0.08,0,0-.21.13-0.19a0.2,0.2,0,0,1,0,.19,0.12,0.12,0,0,1-.2.08,0.24,0.24,0,0,1-.14-0.2V15.44c-0.1,0-.12-0.06-0.13-0.16s0,0,0,0a0.22,0.22,0,0,0-.29.15s0,0-.07,0a0.18,0.18,0,0,0-.09,0,0.31,0.31,0,0,0,0-.06,0.15,0.15,0,0,1-.06,0s0-.07-0.07,0,0,0-.06,0,0-.14-0.06,0,0,0-.07,0-0.09-.17-0.11,0-0.06.07-.06,0C41,15,41,15,41,15.18s0,0.09-.09,0-0.09,0-.14-0.07a0.58,0.58,0,0,0-.13-0.32l0.07,0.33s-0.07.06-.08,0a1.45,1.45,0,0,0-.15-0.47l0.08,0.45s-0.09,0-.11,0l-0.11-.56a0.89,0.89,0,0,0,0,.49s-0.07,0-.07,0a2.46,2.46,0,0,0-.11-0.55,1,1,0,0,1,0,.51s-0.07-.54-0.08-0.55,0,0.51,0,.5A6.62,6.62,0,0,1,40,14.14s-0.07.61-.08,0.6a1.63,1.63,0,0,0,.42.63L40,15.23c0.07,0.14.19,0.29,0.26,0.45-0.08,0,0,.14.07,0.2s-0.07,0,.09.2a0.07,0.07,0,0,1,0,.08c-0.2,0-.21,0,0.1.21-0.2,0-.21,0,0,0.14a0.25,0.25,0,0,1,.09.14s0,0,0,0l-0.11-.07c-0.06,0,0,.07.24,0.26,0.07,0.06.09,0.1,0,.12-0.32-.2-0.3-0.15,0,0.15C41,17.25,41,17.31,41,17.33c-0.28-.23-0.47-0.38,0,0.1,0.08,0.08.1,0.14,0,.15-0.48-.36-0.22-0.12.1,0.21,0,0,0,0,0,0-0.47-.34-0.48-0.26,0,0.25a0.15,0.15,0,0,1,0,.12s0,0-.07,0c-0.33-.32-0.31-0.25.07,0.27,0.06,0.08.08,0.16,0,.11-0.42-.48-0.55-0.58,0,0.15,0.06,0.09.07,0.14,0,.11-0.38-.52-0.39-0.46,0,0.1,0,0.07,0,.07,0,0.07-0.34-.42-0.45-0.52,0,0.09,0.06,0.11,0,.13,0,0.07-0.42-.52-0.43-0.46,0,0.08,0,0.07.06,0.1,0,.07-0.48-.55-0.48-0.53,0,0.07,0,0.15,0,.14-0.08.07s0-.1-0.09-0.15c-0.3-.36-0.33-0.34,0,0.13a0.09,0.09,0,0,1-.14,0c-0.31-.4-0.34-0.4-0.09,0l-0.17,0a0.41,0.41,0,0,0-.09-0.12C40.09,19,40,19,40.27,19.32c0,0,0,0,0,0l-0.33-.06a0.16,0.16,0,0,1-.12-0.07,2.07,2.07,0,0,0-.46-0.56c0,0.08.2,0.23,0.34,0.47s-0.13.08-.19,0.06-0.14-.16-0.29-0.33c-0.42-.49-0.87-1.05-1.23-1.44m0,0.2,0-.15c0.28,0.35.83,1,1.15,1.41l0.25,0.3s0,0-.1,0L39.13,19c-0.39-.46-0.82-1-1.16-1.37m0,0.22c0.34,0.37.46,0.54,0.82,1,0,0.06.23,0.25,0.27,0.3s0.2,0.09.13,0,0,0-.09-0.14L38,17.65c0,0.07,0,.12,0,0.18m-0.06.2c0.32,0.36.61,0.69,0.94,1.09a0.13,0.13,0,0,0,.13,0l-0.3-.35-0.74-.88a0.84,0.84,0,0,1,0,.14m-0.07.23c0.24,0.28.48,0.52,0.73,0.83a0.14,0.14,0,0,0,.16,0c-0.24-.32-0.55-0.66-0.83-1,0,0,0,.08,0,0.12a0.08,0.08,0,0,0,0,0m0,0.3c0.2,0.2.34,0.32,0.52,0.5a0.1,0.1,0,0,0,.12,0c-0.21-.27-0.41-0.48-0.62-0.74a1.09,1.09,0,0,0,0,.24m0,0.26c0.09,0.09.19,0.15,0.28,0.25a0.13,0.13,0,0,0,.14,0c-0.15-.16-0.29-0.25-0.45-0.41l0,0.18M38,19.06c-0.14,0-.17,0-0.18-0.16C37.87,19,37.92,19,38,19.06m1.65-6a0.66,0.66,0,0,0,.15.57,1.58,1.58,0,0,0-.08-0.31,0.91,0.91,0,0,0-.07-0.26m0.14,5.1a0.41,0.41,0,0,0-.22-0.33s0.08,0.1.14,0.19a1.51,1.51,0,0,0,.08.14m0,0.36a2.13,2.13,0,0,1-.12-0.21c-0.07-.12-0.2-0.24-0.21-0.28a0.67,0.67,0,0,1,.33.49m0,0.35a2.8,2.8,0,0,1-.16-0.28c-0.09-.16-0.25-0.32-0.26-0.36a1,1,0,0,1,.42.64m0,0.28a0.93,0.93,0,0,0-.47-0.69c0,0.07.2,0.22,0.31,0.42a1.52,1.52,0,0,0,.16.27m-0.58-5.81a0.66,0.66,0,0,0,.26.52,2.58,2.58,0,0,0-.14-0.27,0.76,0.76,0,0,0-.12-0.25" transform="translate(-26.57 -9.07)" style="fill:#fff;fill-rule:evenodd"/><path d="M32.37,12.72c-0.13,0-.17,0-0.14.15,1.86,2.63,4.69,6.46,8,11l0,0.07,0.28,0.16-0.09-.37-0.06,0c-2.56-3.58-5.53-7.79-8-11M32,12.86c0,0.07,0,.11-0.08,0a0.35,0.35,0,0,1,0-.48,0.32,0.32,0,0,1,.48,0c0.09,0.07.07,0.08,0,.08-0.32,0-.44.16-0.38,0.4m-1.41-2.39c0.28,0.34.54,0.67,0.84,1.06a0.09,0.09,0,0,1-.1.1c-0.31-.44-0.54-0.79-0.77-1.13,0-.07,0-0.07,0,0" transform="translate(-26.57 -9.07)" style="fill:#ddb307;fill-rule:evenodd"/><path d="M37.35,13.54c-0.07,0-.09.07,0,0l0.16-.14c0.07-.13,0,0,0.07,0a0.31,0.31,0,0,0,.12-0.25l0.13-.07c0.07-.07.06-0.09,0-0.08a1.67,1.67,0,0,0-.34.34ZM37,13.46s0,0,0,.08A0,0,0,1,1,37,13.49a0.09,0.09,0,0,1,.08,0m-3.84-.21c-0.11,0-.11.08,0,0.1h0.12a0.09,0.09,0,0,1,.12.06c0,0.09.1,0.13,0.15,0.1s-0.18-.18-0.07-0.18h0.06a0.66,0.66,0,0,0,.3.2l-0.07-.17c0-.06.07,0,0.1,0l0.21,0.19s0,0,0-.15,0,0,.07,0a0.64,0.64,0,0,0,.29.27V13.6s0,0,.07,0a0.26,0.26,0,0,0,.17.14l0-.07s0,0,.08,0L35,13.85s0.08,0,.07,0l0-.06s0-.06,0,0l0.2,0.14s0,0,0-.09h0.11a0.23,0.23,0,0,0,.18.13s0,0,.09,0l0.27-.08c0.08,0,.07-0.08,0-0.07a1.77,1.77,0,0,1-1.24-.34,1.74,1.74,0,0,0-1.43-.18m0.46-.3s0,0,0,.06a0.14,0.14,0,0,1,.21,0c0-.12,0-0.11.15,0,0-.15,0-0.19.16,0,0-.12,0-0.14.11,0.07,0,0,.06,0,0.07,0-0.06-.21,0-0.2.09,0,0,0,.06,0,0.06,0s0.06-.12.2,0.08c0,0,.06.07,0.07,0s0-.11.15,0a0.63,0.63,0,0,1,.39.21s0,0,.06,0c-0.09-.17,0-0.1.17,0s0.1-.07,0-0.09a2.91,2.91,0,0,1-.76-0.37,5.15,5.15,0,0,0-.56-0.28,0.54,0.54,0,0,0-.59.09m1.05-.06a1.51,1.51,0,0,1,.61.2s0,0,0,0a0.35,0.35,0,0,0-.2-0.08c0,0.08,0,.12,0,0.11S34.94,13,34.89,13a0,0,0,0,1,0,0c-0.06-.12-0.08-0.12-0.11-0.07s-0.06-.07,0-0.07m-3.09,1.62c0.14-.21.25-0.28,0.33-0.11,0.09-.3.2-0.33,0.33-0.07,0.18,0,.21.27,0.19,0.67l-0.17-.45v0.29c-0.11-.49-0.83-0.2-0.67-0.34m1,0.11a0.12,0.12,0,0,1,.07.1,0.19,0.19,0,0,1,0,.12s-0.06,0-.07-0.1a0.19,0.19,0,0,1,0-.12m-1.06,1a0.56,0.56,0,0,1,.21-0.18l0,0.08L32,15.47l0,0.07,0.24-.13c-0.14.18-.17,0.25-0.12,0.25a0.56,0.56,0,0,1,.27-0.15c-0.12.19,0,.13,0.2,0,0.06,0-.07.15-0.06,0.17a0.53,0.53,0,0,0,.24-0.14s0.12-.12.14-0.07a0.17,0.17,0,0,1-.07.12c-0.15.18-.11,0.15,0.15,0a0.19,0.19,0,0,1,.13,0c-0.18.23-.1,0.19,0.16,0,0,0,.08-0.08.13,0-0.33.29-.27,0.33,0.15,0.12-0.2.22-.15,0.23,0.16,0a0.48,0.48,0,0,0,.1,0c-0.14.14-.16,0.24-0.09,0.2a0.61,0.61,0,0,1,.3-0.08c-0.13.13-.12,0.19,0,0.16s0,0.08-.17.2-0.06,0-.08-0.11c0,0.07,0,.07-0.07,0l0,0.24H33.63V16.11a0,0,0,0,0-.08,0l0,0.19-0.08,0a0.4,0.4,0,0,1-.13.18c-0.06-.07-0.09-0.06-0.11,0s-0.06,0-.09,0-0.06.1-.1,0a1.13,1.13,0,0,0-.21.17l0-.09a0.2,0.2,0,0,1-.16.13l-0.07-.07-0.1.17-0.17,0s0.07,0,.18,0A4.74,4.74,0,0,0,33,16.71a5.37,5.37,0,0,0,.61-0.18c0.18-.08.38-0.23,0.59-0.34,0,0,0,.13-0.38.44l-0.19-.06,0.1,0.14a0.14,0.14,0,0,1-.13.06l-0.17-.08,0.06,0.18a0.51,0.51,0,0,0-.29-0.08l0,0.14L33,16.85l0,0.17-0.21-.09,0,0.09a0.11,0.11,0,0,0-.11,0,2.74,2.74,0,0,0,1.59-.36s0,0,0,.06a1,1,0,0,1-.46.6l0.07-.3c-0.17.07-.35,0.44-0.49,0.48l0.15-.39-0.44.36a0.32,0.32,0,0,1,.11-0.28,2,2,0,0,0-.39.29c-0.09,0,.07-0.14.11-0.2a0.61,0.61,0,0,0-.31.16,0.36,0.36,0,0,1,.17-0.22l-0.36.17c0-.07.14-0.12,0.17-0.21a1,1,0,0,1-.35.18l0.11-.18-0.32.17,0.2-.21L32,17.33l0.09-.18-0.24.16,0.1-.2a0.61,0.61,0,0,1-.3.17,0.33,0.33,0,0,0,.1-0.2,0.66,0.66,0,0,1-.27.16l0-.16a0.79,0.79,0,0,1-.31.2l0.11-.19s0-.07,0,0l-0.25.2c0.06-.1.08-0.17,0-0.2l-0.18.09,0-.1-0.2.22a0.24,0.24,0,0,1,0-.17l-0.21.14a0.86,0.86,0,0,1,.55-0.45,4,4,0,0,1,.72-0.13,2.55,2.55,0,0,0,.79-0.2A1.41,1.41,0,0,0,33,16.26c0.07-.06,0-0.07,0-0.07l-0.34,0V16.06l-0.13.18,0-.18-0.11.31,0-.35-0.08.38,0-.37L32,16.45,32,16l-0.08.46L31.84,16l-0.06.47L31.69,16l0,0.42L31.54,16v0.45L31.39,16l0,0.38L31.26,16l0,0.34-0.07-.31,0,0.34a0.61,0.61,0,0,1-.1-0.6,0.54,0.54,0,0,1,.51-0.17m-1.18,2,0,0.1a0.26,0.26,0,0,0,.13-0.08l0,0.17a1,1,0,0,0,.28-0.2l-0.07.17a0.43,0.43,0,0,0,.2-0.19l0,0.18A0.6,0.6,0,0,0,31,17.58l0,0.17a0.58,0.58,0,0,0,.21-0.18l0,0.12a0.32,0.32,0,0,0,.16-0.12l0,0.11,0.14-.14,0,0.12,0.16-.06,0,0.07,0.13-.07v0.14l0.18-.07,0,0.09,0.13-.07v0.12l0.15,0v0.11l0.22-.09L32.56,18l0.2-.12,0,0.13,0.21-.09-0.12.2a0.47,0.47,0,0,0,.28-0.14L33,18.11a0.73,0.73,0,0,0,.38-0.29,0.3,0.3,0,0,1-.09.28,0.54,0.54,0,0,0,.28-0.28l0,0.2a0.41,0.41,0,0,0,.27-0.21V18A0.51,0.51,0,0,0,34,17.76a0.18,0.18,0,0,0,.23-0.17c0.06-.14,0-0.19-0.1-0.14a1.89,1.89,0,0,1-1.71.12,6.62,6.62,0,0,0-1.55-.18,0.47,0.47,0,0,0-.52.24m3.1,0.66a0.12,0.12,0,0,1,.08-0.07,0.15,0.15,0,0,1,0,.13,0.12,0.12,0,0,1-.09.07,0.15,0.15,0,0,1,0-.12m0.19,0c0-.07.08-0.1,0.1-0.08a0.18,0.18,0,0,1,0,.15c0,0.07-.09.1-0.11,0.08a0.16,0.16,0,0,1,0-.15m0.21-.11a0.15,0.15,0,0,1,.14-0.1,0.25,0.25,0,0,1-.06.19c-0.06.08-.12,0.13-0.14,0.1a0.27,0.27,0,0,1,.06-0.19m-0.63.13a0.17,0.17,0,0,1,.16.06,0.15,0.15,0,0,1-.16.07A0.16,0.16,0,0,1,33,18.34a0.18,0.18,0,0,1,.17-0.06m3.7-4.88A1.86,1.86,0,0,1,37.45,13a0.61,0.61,0,0,1,.39-0.15,0.44,0.44,0,0,0,.17,0c0.07,0,0,.08,0,0.1a0.1,0.1,0,0,0-.11,0,0.7,0.7,0,0,0-.15.09l0-.06a1.89,1.89,0,0,0-.27.38l0-.1a1.34,1.34,0,0,0-.18.2c0-.07,0-0.11,0-0.11a0.32,0.32,0,0,1-.28.1" transform="translate(-26.57 -9.07)" style="fill:#0095d7;fill-rule:evenodd"/></g></svg>