<svg xmlns="http://www.w3.org/2000/svg" xmlns:xlink="http://www.w3.org/1999/xlink" viewBox="0 0 595.28 202.59"><defs><radialGradient id="a" cx="174.42" cy="270.36" r="307.02" gradientTransform="translate(-91.31 -97.26) scale(2.24 0.49)" gradientUnits="userSpaceOnUse"><stop offset="0" stop-color="#c43944"/><stop offset="0.29" stop-color="#ba364b"/><stop offset="0.79" stop-color="#9e2f5d"/><stop offset="1" stop-color="#902c66"/></radialGradient><pattern id="b" width="1275.59" height="1275.59" patternTransform="translate(170.6 -202.49) scale(0.14)" patternUnits="userSpaceOnUse" viewBox="0 0 1275.59 1275.59"><rect width="1275.59" height="1275.59" style="fill:none"/><path d="M1275.59,0h-22.22q11.08,6.73,22.22,13.46V0Z" style="fill:#e4e1d9"/><path d="M0,1275.59H6.71L0,1271.53v4.07Z" style="fill:#e4e1d9"/><path d="M6.71,0Q19.44,7.69,32.22,15.33C32.69,10.05,33.11,5,33.49,0H41c-0.47,6.28-1,12.78-1.64,19.57,47.84,28.37,96,55.23,143,75.63C176,77.83,160.92,63,145.15,47.54c-14.87-14.62-30-29.55-39-47.54h8.58c8.67,15.62,22.3,29,35.68,42.19,7.79,7.66,15.42,15.17,22,23A55.61,55.61,0,0,1,185.5,63c0-9-6-18.9-12.79-30.16-6.05-10-12.6-20.8-16-32.88h7.88c3.3,10.44,9.12,20.08,14.52,29C186.25,40.72,193,51.88,193,63h0a102.57,102.57,0,0,1,29.9,6.31C216.27,46.94,209.19,23.65,201.46,0h15.78q3.8,11.74,7.41,23.33a152.93,152.93,0,0,1,35.47,14C260.61,23.41,258,11.39,254,0h11.17c-0.79.95-1.55,1.92-2.28,2.93a103.48,103.48,0,0,1,4.78,30.77q0,3.74-.29,7.67a391.67,391.67,0,0,1,33.82,22.58c5.83-26.38,9.9-45.17,5.53-63.95h7.71A77.94,77.94,0,0,1,316,11.39,109.22,109.22,0,0,0,337.8,0h12.8Q349,1.25,347.36,2.49c8.27,40.71,27.33,60.49,36.74,68a158.62,158.62,0,0,1,4.75-44.44Q382.21,13.17,376.93,0h16.15a313,313,0,0,0,30.43,54.93c13.55,1.25,28.11,4.3,42.64,8.19C460.6,52.15,451.64,31,449.78,5.5c-2.44-1.82-4.86-3.66-7.27-5.5h25.17c10.57,7.62,21.45,15,32.74,22.09A210,210,0,0,1,518.52,7.57L511.64,0h10.13l3,3.31c1.73-1.12,3.51-2.23,5.32-3.31h16.15c-16.12,7.27-31,19.11-39.13,26.2,12.76,7.72,26,15,40,21.74,10.15,4.88,20.68,9.46,31.48,13.76a74.26,74.26,0,0,1,11-11.23C584.1,42.11,570.33,19.29,567.46,0H575c2.74,15.43,13.56,35.12,20.38,45.79,13.33-9.94,29.76-18.45,42.37-24.28,4.65-2.15,8.78-3.95,12-5.31Q644.95,7.93,640,0h17.52Q670,20.45,681.43,42.21c10.92,3,20.61,6.57,30,10L713,52.8c3.13-15.6,5.67-29.62,7.71-42A47.66,47.66,0,0,0,708.87,0H721c0.42,0.39.84,0.77,1.25,1.18,0.06-.4.12-0.78,0.18-1.18H730c-2.37,15.54-5.57,34-9.87,55.38,22.35,8,43.69,13.76,77,8.24,1.86-14.92,3.39-28,4.25-35.47q-6.1-6.71-12.31-13.49Q782.38,7.4,775.64,0h20.3l4.15,4.53c14.36,15.69,28.43,31.06,41.31,46.32a418.47,418.47,0,0,1,43,6.51C885.94,37.89,882.06,19,874.84,0h22.55a155.93,155.93,0,0,1,28.22,16.69Q924.48,8.29,923.29,0h15.14c2.19,15.43,4.19,31.08,6.21,46.93,5.69,44.69,11.46,90,22.18,134,18.15,7.26,30.87,16.46,42.93,25.54,12.94-21.95,8.58-42.71,3.11-68.65-3.9-18.53-8.27-39.34-7.33-64.63C981.38,43.84,958.13,17.48,942.39,0h20.13c6.85,7.7,14.6,16.5,22.9,26.11,11.85-2.52,23.79.77,36.47,6.45a273.25,273.25,0,0,1-8-32.56h7.68a276.9,276.9,0,0,0,9.75,37.1c3.75,1.9,7.56,3.93,11.47,6,12.77,6.8,25.93,13.78,40.48,18.54-0.76-13.3-.87-27,0.45-38.41a137.37,137.37,0,0,1-24-23.24h20.16a101.07,101.07,0,0,0,24.73,18.8C1129.53,31.91,1153.76,54,1178.1,86a193.06,193.06,0,0,0,37-24.89c-10.9-18.59-24.67-35.1-38.05-51.08q-4.21-5-8.32-10h9.74l4.33,5.18c13.29,15.87,27,32.28,38.06,50.89a245.74,245.74,0,0,0,21.54-22Q1237.9,17.36,1234.89,0h15.23a356.35,356.35,0,0,0,22.34,75.58l3.13-.2V116a371.14,371.14,0,0,1-30.72-73.35c-25.71,28.62-50.07,43.27-62.19,49.4q9.62,13.1,19.28,28.25c2.88,4.52,5.72,9.14,8.53,13.8,16.25-.94,31.49,1.75,46.28,4.37,6.16,1.09,12.41,2.18,18.81,3v7.59c-6.88-.9-13.55-2.08-20.12-3.25-13.71-2.43-26.8-4.75-40.61-4.44,16.51,28.09,31.85,58.25,45.84,87.64,3.68-.87,8.79-2.24,14.89-4.3v8c-4.51,1.45-8.43,2.52-11.59,3.29q6,12.68,11.59,25v25.76q-24.11-4.9-45.43-11.11c2.29,7.83,4.75,15.28,7.16,22.54,7.78,23.48,15.13,45.73,15.85,77,7.43-1.34,14.91-2.55,22.42-3.35v7.58c-11.14,1.23-22.27,3.34-33.26,5.44-8.52,1.63-16.71,3.18-24.76,4.32,19.65,24.18,40.38,51.22,58,83.69v24c-18.62-5.82-37-12.16-55.16-19.25-15.63,11.1-26.56,22.88-37.72,35.26,25.16,9.68,48.31,12.44,68.88,14.88,8.42,1,16.45,2,24,3.34v7.6c-7.6-1.43-15.89-2.42-24.89-3.49-21.73-2.59-46.29-5.54-73.35-16.4A289,289,0,0,1,1155.56,541c18.26,6.36,35.36,15,50.24,27.79l16.44-4.38c17.59-4.69,35.37-9.42,53.35-14v19.46c-1.82-.83-3.62-1.68-5.34-2.59-14.85,3.85-29.56,7.77-44.15,11.66-42.2,11.26-83.55,22.27-124.81,30.67a439.9,439.9,0,0,0,78.35,17.34l-1-.93c22.19-24.24,52.29-26.1,85-24.23a70.89,70.89,0,0,1,12-15.39v11.16a57.15,57.15,0,0,0-3.56,4.79l3.56,0.27v7.51c-35.24-2.67-65.85-3.68-88.28,17.76l0.73,0.09a126.32,126.32,0,0,1,37.59,9.89c31,13.75,45.25,36.75,49.8,45.62l0.15-.07v8.31c-20,9.61-36.92,18.45-47.91,24.38a419.3,419.3,0,0,0,47.91,7.37v15.16l-2.68-.23a34.17,34.17,0,0,0,2.68,4.24V753.8a43.5,43.5,0,0,1-11.3-16.39c-7.27-.86-14.65-1.9-22.17-3.2a522.86,522.86,0,0,1-57.77-13.58c4.35,16.83,5.09,36.68,5.09,48.16,0,2.81,0,5.1-.09,6.74l0.42,0.16c25.32,9.77,51.45,19.85,74.3,34.71,2.69-8.94,8.42-28.76,11.51-45.06v32.24c-2.08,7.57-4,13.86-5,17.24q2.53,1.78,5,3.63v9.39q-5.62-4.34-11.53-8.42a237.25,237.25,0,0,0-36.45-20.14c-3.91,10.45-8,19-11.42,26-3.85,8-7,14.46-8.18,20.33a116.58,116.58,0,0,1,19.43,9.71c14.07,8.68,31.69,12.61,48.15,14.14v27.87a116.39,116.39,0,0,1-9.44,17.18c-2.83,4.48-5.41,8.61-6.81,12.31,5.39-.26,10.81-0.59,16.25-1v30c-7.66-4.92-15.57-9.52-23.75-13.72-9.5.36-18.94,0.57-28.27,0.57-9.94,0-20-.29-30.13-0.81,11.85,22.91,21.22,50.11,24,58.43,19.62,0.81,39.66.38,58.18-4.72v7.65c-1.46.37-2.92,0.73-4.39,1.05,1.33,3.51,2.8,7,4.39,10.34v16.13a166.15,166.15,0,0,1-11.85-25c-23.26,3.81-47.55,2.22-69,.8-26.84-1.77-50.51-3.33-61.79,6.42,26.83,16.93,53.7,34.81,77.26,54.29,14.05-1.87,47.14-8.19,65.39-27.28v10.24c-17.55,14.66-42.41,20.93-57.75,23.51,16.61,14.45,31.27,29.79,42.69,46.27a55.16,55.16,0,0,1,15.06.71v7.57a52.44,52.44,0,0,0-10.31-1,150.39,150.39,0,0,1,10.31,19.57v43.37c-15.73-9.7-30.93-19.59-45.69-29.21l-11.84-7.7c-22.75,5.76-39.74,6-54.87,6.22-7.51.1-14.28,0.21-21,.95,9.73,12.67,17.26,26.4,18.41,42.56,15.59,8.87,31.16,18,46.69,27.28a688.89,688.89,0,0,1,68.3-37.52V1201a684.59,684.59,0,0,0-61.06,33.53c14.26,8.55,28.49,17.19,42.66,25.79l18.4,11.16v4.07h-22.22l-3.65-2.22c0.13,0.74.27,1.48,0.4,2.22h-15.23q-1.08-6.16-2-12.41c-32.5-19.69-65.24-39.31-97.94-57.38,8.15,26.25,25.13,47.73,43.52,69.79h-9.74c-3.6-4.36-7.14-8.72-10.54-13.12a495.37,495.37,0,0,0-80.35,11.06c0.66,0.7,1.33,1.38,2,2.06h-20.17c-15.12-18.44-26.64-40.53-35.22-61.47-8.53,16.08-6.85,40.69-3,61.47h-7.68c-0.82-4.6-1.54-9.37-2.06-14.22-24.54-13.15-37.28-29.84-48.52-44.63-12-15.71-21.7-28.52-42.46-32.09,5.2,19.05,9.26,38.77,12.7,59,1.53,1.64,12.75,13.67,29,31.94H942.39l-4.69-5.19c0.25,1.72.49,3.46,0.73,5.19H923.29c-2.72-19-5.75-37.61-9.51-55.66-13.34-5.52-46.54-18.62-72.19-23.6L842,1197c14.64,24.61,28.86,48.51,38.41,72.51a112.64,112.64,0,0,1,17,6.11H874.84c-6.22-16.39-14.92-32.92-24.79-50.11-23.14,13.12-58.88,21.46-76.77,25.05,7.55,8.5,15.16,16.84,22.67,25.06h-20.3c-13.45-14.8-27-30.05-39.93-45.89-0.92,10.2-2.62,25.53-5.73,45.89h-7.58c4.18-27.11,5.84-45.28,6.48-54.39a471.91,471.91,0,0,1-32.46-46.15c-19,22.63-18.07,69-17.47,80.95,15,3.22,30.79,9.08,42,19.59H708.87c-18.7-12.29-46.09-15.19-61.3-15.8q5,7.8,9.93,15.8H640c-0.72-1.15-1.44-2.31-2.17-3.45q-12.9-20.28-26.35-38.44c-9.81,4-28.76,13.13-35.47,27.06-1.87,3.88-2,9.05-.94,14.82h-7.59a46.59,46.59,0,0,1-.53-6.07,69.25,69.25,0,0,0-20.68,6.07H530.1c11.56-6.89,24.75-12.67,37.58-13.68a21.66,21.66,0,0,1,1.54-4.39,43.8,43.8,0,0,1,9.12-12.23c-7-3.79-14.23-7.27-21.3-10.63-27.33-13-55.57-26.47-67.48-59.52-4.85.6-9.37,1.22-13.58,1.79-9.57,1.31-17.63,2.41-24.7,2.72l2.4,4c28.31,47.68,29.07,49,68.1,91.9H511.64c-18.08-19.92-27.33-30.4-35.81-42.22a204.68,204.68,0,0,1-39.86-2.26c-11-1.54-16.34-2.26-22.24,2.32,17.34,14.37,35.15,28.62,53.94,42.16H442.5c-22-16.74-42.74-34.2-63.17-51.41l-3-2.49a275.77,275.77,0,0,0,16.71,53.9H376.93q-3.74-9.3-6.81-18.73a143.82,143.82,0,0,1-19.52,18.73H337.8a129,129,0,0,0,13.37-10.32c-2-4.5-7.25-15.22-17.5-28.76-12-3.72-30.36-2.78-40-1.92q1.74,2.29,3.4,4.54c9.69,13.08,15,24.78,17.45,36.45h-7.71a76.82,76.82,0,0,0-9.22-22.19c-6.15,2.37-21.61,9.27-32.34,22.19H254c-3-8.48-6.69-16.61-10.51-24.91-0.95-2.06-1.9-4.13-2.84-6.22-15-4.58-28.4-7.58-37.12-9.31,4.79,13.54,9.33,27.06,13.66,40.44H201.46q-1.63-5-3.3-10a355.61,355.61,0,0,1-36.24-5.62,54.79,54.79,0,0,0,2.69,15.63h-7.88a59.66,59.66,0,0,1-2.31-17.27,392.77,392.77,0,0,1-48.85-14.72,69,69,0,0,0,9.17,32h-8.58A74.08,74.08,0,0,1,98,1240.72a519,519,0,0,1-54.09-25.17c-0.49,18.06-1.24,37.53-2.92,60H33.49c1.83-24.19,2.57-44.87,3.05-64-9-4.95-17.8-10.05-26.44-15.24Q5,1198.64,0,1201v-8.32l2.37-1.12L0,1190.15v-43.37a124.48,124.48,0,0,1,9.07,31.34c24,14.73,49.23,28.94,76.18,40.92-1-10-2.26-27.3-2.75-54.58-12.08-4.9-23.67-10.78-34.89-16.49C30.17,1139.1,14.32,1131,0,1128.25v-7.57c16,2.82,33.19,11.54,51,20.61,10,5.11,20.38,10.36,31,14.86-3.14-23.31-22.24-46.6-42.39-71.14-10.7-13-22.17-27-32.13-42.14A63.85,63.85,0,0,1,0,1050.18v-10.24c1.14-1.19,2.22-2.42,3.23-3.71-1.11-1.81-2.18-3.63-3.23-5.47v-16.13c11.23,23.93,28.55,45.07,45.41,65.62l0.94,1.14c6.22-7.24,22.2-22.62,50.56-30.18-17.45-24.53-36.93-47-58.83-66.42C26.55,994,13.58,999.75,0,1003.23v-7.65a92.06,92.06,0,0,0,32.33-15.79A306.52,306.52,0,0,0,0,955.85v-30c26.94-1.8,54.4-4.84,81.8-8.79a425.37,425.37,0,0,0-31.7-41.31A229.82,229.82,0,0,1,4,877.39c0,0.29,0,.58,0,0.87A49.12,49.12,0,0,1,0,897.32V869.46a226.4,226.4,0,0,0,44.05-.52A344.83,344.83,0,0,0,0,827.85v-9.39c27.34,20.23,50,44.74,66.14,64.79,3.14-14.93,2-25.85.62-39.19-1.51-14.37-3.19-30.63-.46-56.53C43,778.84,22.72,770.68,8.43,760.65,6.65,772.17,3.11,786.29,0,797.58V765.35c0.68-3.57,1.23-7,1.59-10.06C1,754.8.52,754.3,0,753.81V742.58c8,10.94,23.51,19.55,43.33,27.91,10.17-11.24,24.62-13.28,39.87-15.42,13.64-1.92,27.66-3.9,40.6-12.3q-12.65-5.25-25.73-11.53C69,739.29,36.1,741.73,0,738.57V723.41a305.6,305.6,0,0,0,51.43.65c9.43-11.53,27.91-22.79,50-33.36C83.24,673.21,56.79,669.54,52.09,669c-5.5,1.92-10.72,3.91-15.59,6C23.65,680.55,11.33,686.23,0,691.66v-8.31c9.92-4.72,20.56-9.59,31.58-14.37a284.26,284.26,0,0,0,2.33-31.18c0.11-9-.38-18.25-2.15-25.49-8.44-.42-16.79-1.07-25-1.72L0,610.06v-7.51l7.3,0.55c24,1.88,48.81,3.81,74-.25a97.67,97.67,0,0,1-11.47-17.93c-16.91-1.46-33.1-3.69-47.65-7.44C18.5,580.1,7.75,588,0,597.49V586.34a133.27,133.27,0,0,1,13.13-11.48,123.18,123.18,0,0,1-13.12-5V550.36q10.49-2.69,21.08-5.31A89.28,89.28,0,0,0,0,538.75v-7.6c11.84,2.15,22.54,5.32,31.82,11.28,25.05-6,50.6-11.62,76.76-16.33-36.33-8.77-72.8-18-108.58-29.19v-24c1.8,3.31,3.57,6.65,5.3,10.08,24.68,7.63,49.93,14.41,75.6,20.85-5.26-12.71-14.8-24.28-25.52-37.25C37,444.37,16.21,419.2,8.75,378.71c-2.92.18-5.84,0.46-8.75,0.78v-7.58c19.3-2.08,38.78-1.52,58.14,6.13A204.9,204.9,0,0,0,83.6,365.59c-39.12-29-53.94-47.62-58.69-74.14Q12.09,289.33,0,286.86V261.1c1.76,3.85,3.5,7.67,5.2,11.45Q50.84,281.71,106.47,286c-11.31-13.45-28.41-22.38-46.31-31.73C45,246.33,29.32,238.14,16.39,226.69c-6,2.56-11.55,4.56-16.39,6.12v-8A195.51,195.51,0,0,0,55.88,195c-8.36-9.61-16.46-19.53-24.19-29.87q-5.35-7.16-10.31-14.4A171.34,171.34,0,0,1,0,149.16v-7.59c5.3,0.71,10.71,1.27,16.25,1.51Q7.49,129.73,0,116.05V75.38c14-.84,40.08-1.62,59.17,2.53-0.07-9.46.05-19.09,0.76-28.92C39.9,37.44,19.9,25.48,0,13.46V0H6.71ZM48.87,163.06c11.49-17,11-42.08,10.51-70.62q-0.06-3.4-.12-6.83C41,81.24,14,82.07.05,82.91,13.3,112.43,30,138.8,48.87,163.06ZM117,236.69c-1.37-7.62-3-14.55-4.67-21.34-4.87-20.18-9.07-37.72-2.22-63a468,468,0,0,0-43.26-29.57C66,141,63,156.83,53.72,169.21,73.15,193.4,94.69,215.53,117,236.69Zm3.54-75.89q-2-1.68-4-3.33a87,87,0,0,0-1.56,33.9c9.55,4.24,19.64,11.57,31.12,19.92C159.39,221,174.3,231.8,190.56,239c-2.9-13-5.36-26.86-5.36-44.11C153.86,185.3,132.83,171.19,120.53,160.8Zm103.09,34.7c-7.77-27.73-54.7-51.47-71.61-59.22,2.38,18,3.75,33.48,4.2,39C173.15,183.81,195.39,191.68,223.62,195.5Zm690.84,29.92C914,232.34,917,242.85,920,253.89c3.47,12.38,7.29,26,7.29,38.2,0,1.36-.07,2.7-0.17,4,26.37,17.82,57,33.52,93.84,40.45-24.54-32.32-41.74-66.84-54.29-102.6C946.78,234.79,929.58,230.93,914.47,225.42Zm163.32-55.58c-10.29,27.11-7.41,54.95-4.61,82,1.69,16.34,3.3,31.83,1.69,46,20.72,5.11,42.15,8.21,63,5.36-10.48-23.07-15.68-48.07-12.24-77.62q-26.24-20.5-41.92-46.2Q1080.89,174.66,1077.79,169.84Zm18.76,1.7q25.48,41.85,82.57,69c-3.55-11.92-9.22-23.59-14.76-35-7.29-15-14.17-29.15-14.4-41.39a177.09,177.09,0,0,1-21.7-24.22c-17.58-23.56-50.42-22.08-66.65-19.63C1074.66,138,1086.72,155.39,1096.55,171.54ZM1035.06,294c-10.27-3.22-20.14-6.29-29.14-8.53A331,331,0,0,0,1071.38,370q6.05,5.65,12.24,11c16-5.91,30.5-7.3,45.75-8.75,14.7-1.4,29.83-2.85,48.13-8.3-14.12-17.73-26.8-35.14-36.21-53.65C1104.86,315.91,1066.35,303.84,1035.06,294Zm-87.9,330.11a184.24,184.24,0,0,1-16.77,13.65,103.57,103.57,0,0,1-9,5.74c37.31,33.91,75,54.23,111.84,60.72-3.18-7.46-8.42-14.27-13.52-20.91-9.57-12.44-19.41-25.26-15.85-42.12-2.05-1.19-4-2.34-5.87-3.43-10.85-6.4-18.36-11.15-21.71-13.31Q961.78,624.73,947.16,624.14Zm66.29,83.25c-0.35,13.55,6.7,28.78,13.75,43.62,15.13,8.18,27.33,15.61,38.11,22.19,23,14,39,23.73,61.53,26.83-10.57-19.24-19.37-37.72-18.29-56.43a101.81,101.81,0,0,1-26.73-31.25C1059.38,715.85,1036.51,714.18,1013.45,707.39ZM1006,705a205.78,205.78,0,0,1-29-12.52h0c0,19.48-7.71,36.22-12.67,45,23.9,16.36,47.3,33.51,69.76,51.89-2.27-11-7.81-22.68-13.24-34.1C1013,738.58,1004.78,721.32,1006,705Zm97.82,172.22q-16.36-18.89-34.14-36.12c-31.67,8.65-52.28,10.73-76.56,9,8.89,18.32,21.53,38.9,28.23,49.48q15.87,3.78,31.61,7.17C1071,893.8,1092.45,882.78,1103.85,877.26ZM1063.06,909c25.48,5.26,50.65,9.64,75.37,12.83q-14-20.21-29.51-38.64C1099.4,887.72,1080.21,897.41,1063.06,909Zm-47.71,82.86c-1.82-6.49-3.61-13.26-5.29-19.77-56.55-10-108.43-39.15-127.1-50.54A282,282,0,0,1,878,954a405.34,405.34,0,0,0,41.7,31.57c4.47,3,9,5.86,13.61,8.7C949.06,990,989.36,980.9,1015.35,991.83ZM326.22,1227.29c-3.28-3.82-6.92-7.79-11-11.84-20.77-20.77-51.75-35.68-66.49-42,10.26,16.52,22.56,32.36,34.18,47.32,1.82,2.33,3.58,4.61,5.31,6.86C294.27,1226.9,311.48,1225.26,326.22,1227.29Zm-73.15-1022a71.37,71.37,0,0,1,3.78,23.4c0,22.46-9.05,43-13.4,51.54,18.43,5.69,41.21,9.94,64.39,7.37a110.13,110.13,0,0,1-12.57-50.74,170.87,170.87,0,0,1-23.6-31.66Q262.05,205.55,253.07,205.31ZM706.59,631.12c20,0.88,40.48,1.78,56.44-3.55C740.11,612.44,718.24,597,698,580.91c-7.31,1.8-13.9,3.77-19.87,5.55-14.24,4.26-26.37,7.88-40.29,7.1a75,75,0,0,1-19.09-3.72,52.55,52.55,0,0,1-11.29,12.56c19.58,9.08,23.85,18.18,27.34,25.62a43.45,43.45,0,0,0,3,5.72,18.35,18.35,0,0,0,3.65,4h0c0.32,0.26.65,0.53,1,.79l2.43-.79h0c3.59-1.18,7.12-2.36,10.47-3.54C669,629.46,687.28,630.27,706.59,631.12ZM552.19,1164.27A760.14,760.14,0,0,0,481,1100.83c-13.6,21.43-12.76,56.3-11.87,69.45l5.79-.78C493.86,1166.92,518.88,1163.49,552.19,1164.27Zm-21.7-41.37c9.08-7.95,22.2-11.4,39.49-13.58-17.13-8.3-43.52-26.87-49.18-63.81-9.76-5.33-20.05-13.15-32.84-25.79-13.43,13.29-26.53,32.88-32.75,42.71A950.17,950.17,0,0,1,530.48,1122.89Zm-167-14.19c1-20.31-6.7-35.72-15.54-53.39-2.63-5.26-5.36-10.73-8-16.55-51.55-6.19-90,3-107.12,8.54,22.31,19,43.39,37.61,58,58.78C308.84,1099.33,331.86,1102.6,363.5,1108.71Zm-100.37-13.16a84.43,84.43,0,0,0-5.93,21.64c11.47,6,22.53,12.48,33.3,19.42C284.82,1121.85,275.21,1108.5,263.13,1095.55Zm107.78,14.61,6.7,1.33c11.63,2.3,24.64,4.88,38.76,7.35a385.31,385.31,0,0,1-14.16-75.54l-18.55-12.78c-16.44-11.3-32.61-22.44-48.46-33.76,3.18,22.59,11.44,39.14,19.47,55.21,8.42,16.81,16.42,32.81,16.42,53.21C371.08,1106.8,371,1108.47,370.91,1110.16ZM333.19,818.61c-1.51-7.25-4.73-19.78-10.34-29-12.86-2.37-26-4.42-39.55-6.53-22.78-3.55-46.85-7.31-72.37-13,4.89,14.1,9.56,27.88,12.16,42.42C255.84,810.76,298.48,808.72,333.19,818.61ZM420,740c8.37,6.07,16.57,14.27,20.37,24.64,6.69-.66,13.59-1.15,20.57-1.65,18.81-1.35,38.17-2.76,56.58-7.1-6-8.19-12.22-16.17-18.69-24C472.9,739.38,446.7,741.18,420,740Zm32.34-259.9c16.43,6.37,33.31,12.91,49.65,15.76-15.28-14.63-29.91-29.6-37-44.71a787.94,787.94,0,0,0-90.56-22.67c4.58,9,11.93,22.68,21.28,37.29C411.62,464.32,431.42,472,452.32,480.08ZM605.63,317.3c-7.47-18.91-31.06-29.55-40.38-33.11-1,3.78-2.08,7.45-3.09,11-3,10.53-5.71,20-6.47,27.44,7.49,2.31,14.79,4.54,22,6.73,7.77,2.38,15.27,4.67,22.58,6.94a163.94,163.94,0,0,1,5.57-19ZM637.8,421.58q3.4,1.69,6.81,3.64a46.39,46.39,0,0,0-6.81-14.58c-7.1-10.5-18-20-28.75-29.3-13.71-11.9-26.73-23.24-31.22-36.26l-4.55-1.39c-14.2-4.34-28.87-8.82-44.65-13.84A45.87,45.87,0,0,1,517,344.69c2.76,9.82,15.13,48.7,42,64.39l-0.21.37C585,407.32,610.87,408.21,637.8,421.58Zm-102.37-2.15c-8.26,1-16.7,1.93-25.32,2.63,14.86,12.43,27,26.06,34.8,41.88,25.13,10.13,49.29,20.84,72.67,31.66,1.2-28.92-4.41-40.55-17.54-67.68-1.66-3.44-3.45-7.13-5.34-11.12C575.49,414.8,556.12,417,535.43,419.42ZM534.57,412c4.44-.51,8.86-1,13.27-1.48-22.59-17.75-33.68-48.91-37.33-61.2-14.5,8.6-33.46,10.54-52.05,12.42-11.72,1.19-23.72,2.41-34.55,5.3l10.95,6.3c23.86,13.69,47.06,27,66.58,41.83C512.74,414.48,523.8,413.21,534.57,412ZM653,430.46a160.59,160.59,0,0,1,13.49,10.14,162.61,162.61,0,0,0,25.75,17.45c0.49-16.25,6.36-27.52,11.63-37.59,3.86-7.39,7.3-14,8.1-21.54C689.29,384.5,665.2,374,637.8,364.33c-15.6-5.5-32.27-10.75-50.38-16.31,5.35,9.23,15.71,18.25,26.54,27.65,8.13,7.06,16.75,14.55,23.83,22.78C646,408,652.11,418.47,653,430.46Zm1.24-76.09a183.46,183.46,0,0,0-16.48-42.09q-5-9.28-10.87-18.23c-11.08,12.53-17,33.64-19.49,44.47,10.55,3.31,20.64,6.58,30.36,9.93Q646.22,351.36,654.28,354.37Zm-91-94.81c-17.7-8.34-32.3-10.55-47.71-12.87-4.6-.69-9.25-1.39-14-2.27-0.53,13.53,2,27.46,4.84,43.36,1.18,6.56,2.39,13.32,3.49,20.5,6.64,2,13.42,4.13,20.41,6.36,6.22,2,12.26,3.88,18.17,5.72,1-7.87,3.63-17.07,6.54-27.24A334.51,334.51,0,0,0,563.25,259.56ZM443.73,304.74c-10.16-2.86-19.82-5.56-29-8.24,10.34,15.2,24.08,24.67,36.5,33.22,10.11,7,19.7,13.57,25.75,22.27,19.08-2.85,35.65-8.29,44.4-24.43C492.54,318.46,466.66,311.18,443.73,304.74Zm-60,14.33c-13.14-3.46-24.91-6.53-36.6-5.32,18.81,18.09,43,33.47,68,48.13,13.18-4.65,28.11-6.17,42.62-7.63,3.59-.36,7.15-0.73,10.65-1.13C463.05,347,455.47,341.76,447,335.9c-4.71-3.25-9.61-6.63-14.47-10.38C414.32,327.12,398.05,322.85,383.7,319.07Zm1.54,42.29c-0.59,11.07,7.45,23.79,15.29,36.18,5.3,8.38,10.36,16.41,12.51,23.77a882.12,882.12,0,0,1,108.38,33.46c-20.57-26.28-56.44-46.87-94-68.44C413.2,378.18,398.91,370,385.24,361.36Zm15.23,111.71c17.79,26.38,41.45,53.68,66.44,60.65,18.08,5,33.22,8,47.87,10.82,12.66,2.46,24.55,4.77,36.66,8.19-6.38-15.6-23.34-32.1-40.31-48.2-20.4-1.55-41.29-9.63-61.52-17.46C431.43,480,414.12,473.33,400.47,473.07Zm159.79,82.34a201.46,201.46,0,0,1,25.22,10.21c-1.76-12.16,1.8-22.58,5.27-32.72s6.83-19.95,4.39-31.08c-37.62-17-77.31-33.49-119.85-47.37,8.72,14,23.88,28.42,38.69,42.46C534.12,516,554.92,535.72,560.26,555.41Zm33.88,14.64c1.47,0.79,2.95,1.59,4.45,2.44,15.95,9,28.15,12.81,39.21,13.51,12.91,0.81,24.26-2.57,38.14-6.72,4.54-1.36,9.43-2.82,14.74-4.24a459.2,459.2,0,0,1-52.88-50.19q-2.4-2.71-4.73-5.45-14.67-6.93-29.74-13.86,0.19,2.05.19,4c0,9.23-2.87,17.58-5.67,25.75C594,546.61,590.34,557.27,594.13,570.05ZM706,537.51a219.24,219.24,0,0,1,18.56-29.35c-6.6-9.44-11.27-19.94-12.34-32.27-17.6-7.14-35.14-16.7-50.5-29.54A143.06,143.06,0,0,0,637.8,430a112.72,112.72,0,0,0-34.18-11.91l3.18,6.59c12.22,25.26,18.45,38.13,18.45,63.73,0,3.31-.12,6.85-0.32,10.63q6.47,3,12.87,6,16.69,7.88,32.91,15.67Q688.5,529.24,706,537.51Zm96.9-48.86c-28.83-39.56-55.48-65.81-84-85.18-1.48,7.33-4.85,13.78-8.36,20.47-5.53,10.56-11.21,21.5-10.78,38C738.83,481.34,782.19,487,802.9,488.65Zm49.17-45.54c-2.64-10.44-10.12-22.26-18.63-35.66-3.22-5.08-6.54-10.33-9.78-15.76l0.71,2.44c-10.72,3.1-19.54,6-27.32,8.56-13.71,4.51-25.24,8.29-40.67,11.08,7.61,6.77,15.17,14.17,22.72,22.29,11.82,2.2,24.56,3.06,37.92,3.94C828.17,440.72,839.89,441.49,852.08,443.12Zm-31-55.84C813,373.09,805.85,357.6,803,340.41c-19.82-9.33-38.56-19.14-56.38-28.67-13,6.68-46.21,20.54-86.21,13.24a187.06,187.06,0,0,1,10.65,36c26,10.87,49.44,23.75,72.33,41.83,1.87,1.48,3.74,3,5.6,4.56,18-2.73,30-6.66,45.74-11.84C802.26,393.08,810.79,390.28,821.09,387.28Zm-82.74-80-4.41-2.37c-34.66-18.64-66.11-35.54-96.15-45.14a190.19,190.19,0,0,0-22.25-5.73,332.62,332.62,0,0,1,22.25,29.14,236.79,236.79,0,0,1,19,33.36C692.11,324.55,723.08,314.19,738.35,307.32ZM573,230.46q0.11,2.48.11,4.93c0,14.49-2.65,28.54-5.91,41.49,8.81,3.25,31.42,13.06,42.29,31.32,3.39-7.49,7.71-14.83,13.14-20.53C608.68,267.79,591.62,249,573,230.46Zm-8.24-8.08c-12.4-12-25.37-23.91-38.5-36q-7.08-6.5-14.2-13.07a284,284,0,0,1-49.63-5.46c9.4,21.16,11.95,40.51,11.95,58.39,0,0.94,0,1.87,0,2.79,15.66,6.19,29.21,8.24,42.34,10.22,14.72,2.22,29.92,4.52,47.78,12.58A115,115,0,0,0,564.73,222.38ZM474.07,237c-0.34,7-.94,13.7-1.53,20.23-1.25,13.92-2.43,27.18-.78,39.86q14.38,4.1,30.1,8.79c-0.93-5.79-1.92-11.35-2.89-16.76-3-16.81-5.67-31.48-4.9-46.2A149.41,149.41,0,0,1,474.07,237Zm-10.31,36.23c-17.7-12.54-28.92-30.53-40.76-49.55l-0.22-.36c-26.41,8.29-47.09,10.86-57.26,11.65a167.85,167.85,0,0,1,17.27,35.87c18.86,6.52,40.32,12.54,65,19.47L464,294.85A140.85,140.85,0,0,1,463.76,273.22ZM311.58,251.63c3.57,21.46,14.17,39.57,29,55.54,15.09-3.21,29.67.62,45,4.64,12.13,3.19,24.62,6.46,38.31,6.54a95.64,95.64,0,0,1-19.93-25C365.78,281.91,335.92,270.57,311.58,251.63Zm-44.34,42.1c3.56,27.92,21,45.87,37.82,63.24,2.92,3,5.8,6,8.6,9,22.4-4.45,52.33,5.43,67.15,11.22-2.65-6.83-3.92-13.68-2.55-20.3-27.15-17.73-51.27-37.46-66.42-62.2A149.76,149.76,0,0,1,267.25,293.73ZM234,345c17.87,18.25,34.25,37.08,48.19,57.22q24.57,1.35,48,4.23c-4.16-17.14-17-30.39-30.49-44.29A272.52,272.52,0,0,1,280,340.39C275,339.79,256.59,338.3,234,345Zm104,62.42c22.87,3,44.93,7,66.29,11.82-2.33-5.36-6.17-11.44-10.15-17.74-2.92-4.61-5.94-9.4-8.59-14.26-6.55-2.87-40.8-17.2-65.95-14.64C328.47,383,335.51,394,338.05,407.46Zm-45.7,10.44a253.31,253.31,0,0,1,25.8,56.81q1,3.26,2.09,6.46c9.27,0.4,19.17,3.27,30.27,6.5,16.6,4.83,35.22,10.22,58.44,9.8-21.51-26.72-37.55-57.74-43.83-70.69A721.52,721.52,0,0,0,292.35,417.91Zm3.93,40.53c-18.39,1.06-35.79,8.07-51.82,15.78,4.34,4.22,8.67,8.72,12.87,13.11,19.74,20.57,40.1,41.76,67.76,41.7a269.06,269.06,0,0,1-21.28-49.89Q300.54,468.52,296.29,458.43Zm63.72,98c11-3,21.85-4.12,33.23-5.23,17.69-1.73,37.51-3.7,62.48-13.63-14.61-6.61-28.4-18.76-40.68-32.82-27.21,1.57-49-4.75-66.63-9.87-9.34-2.72-17.78-5.16-25.39-6C332.21,513.3,344.95,535.47,360,556.44Zm34,2.23c-10.06,1-19.68,1.94-29.2,4.27a586.33,586.33,0,0,0,39.57,46.76A438.69,438.69,0,0,1,455,614.45c30.57-30.45,81.66-42,125.78-7,12.33-3.91,23-9.22,30.66-20.23A146.63,146.63,0,0,1,594.88,579c-30.3-17.17-54-21.78-81.54-27.12-13.76-2.67-29.33-5.7-47.16-10.61C436.56,554.48,413.95,556.72,394,558.67Zm342.87,119.8q2.94-1.14,6-2.36c-26.68-8.94-48.68-20.48-58.48-38.13-10.09,0-19.22.8-26.51,3.36-6.31,2.21-13.16,4.45-20,6.59-12.64,3.94-25.38,7.57-35.1,10.26,8.7,3.53,17.14,7,25.3,10.42l9.8,4.06c21.55,8.91,40.51,16.49,57.3,21.15,3.19,0.88,6.64,1.73,10.29,2.54C715.69,686.68,725.6,682.83,736.83,678.47Zm2.71,7c-9.25,3.59-17.07,6.63-24.88,12.8,26.48,5,61.49,8.57,95.48,11a102.5,102.5,0,0,1,7.15-13.63q-7.14-1.74-14.43-3.47c-16.62-4-33.42-8-49.06-12.63C748.72,681.88,744.05,683.71,739.55,685.46Zm109.1,131.71-0.57-.95c24-14.45,40-35,45.71-43.23-12.29-5.58-24.09-12-34-20.85-34.56,16.36-68.67,18.46-99.3,14.94,3,12.65,12.26,19.16,24.73,27.87,7.87,5.5,16.74,11.73,25.39,20.63A172.41,172.41,0,0,1,848.64,817.17Zm-96-51.12a335.81,335.81,0,0,1-40.16-8.72c-13.55-3.73-32.66.86-51.12,8,19.48,16.55,29.46,32.14,33.87,40.51,24.2,6.69,49.11,14,74.54,21.68a96.12,96.12,0,0,1,31.3-10.74,182.46,182.46,0,0,0-20.17-15.66C767.32,791.59,755.54,783.32,752.66,766.05Zm-356,208c22.72,11.23,48.55,26.83,72.41,55.69a176.24,176.24,0,0,1,13.64-15.37c-20.93-22.54-31.14-50.2-41.9-79.44q-2.47-6.72-5-13.5C417.47,940.51,405.55,957.92,396.69,974Zm36.17-60.34c-5.69-14.52-12.14-29.12-20.68-43.46a199.55,199.55,0,0,1-40.31,62c11.55,5.06,21.89,11,29.64,19.51A268.13,268.13,0,0,1,432.86,913.68ZM528.94,984c-5.43-6.52-10.68-13.63-16.29-21.24s-11.33-15.35-18-23.6c-4.11,1.76-8,3.64-11.76,5.47-8.85,4.29-17.29,8.38-26.59,9.91,4.84,12.14,10.12,23.77,16.75,34.55C480.42,990.92,515.24,998.63,528.94,984Zm-49.35-46.13c14.41-7,30.44-14.73,54.07-14.48l-1.17-1.22c-24-25.05-46.67-48.72-69.2-68.93-5.57-5-11.14-9.57-16.73-13.8-6,2.18-18.93,6.75-37.16,12.81,18.68,26.36,28.74,53.61,38.46,80.05,1.87,5.07,3.72,10.09,5.61,15C462.29,946.25,470.37,942.34,479.59,937.86ZM270.78,818.58c5.78,20.57,22.4,41.66,30.35,50.92,26.16-7.29,49.87-14.4,70.16-20.76C349.54,824.66,309.29,819,270.78,818.58ZM379,846.29c23-7.31,41-13.44,52.42-17.42-31.94-20.52-64.48-30.47-99.14-37.41,5.48,11.48,8.14,24.61,9,29.74C356.37,826.57,369.47,834.56,379,846.29ZM576.83,946.45A289,289,0,0,0,572,875.11c-29.38-22.34-68.85-25-89.41-24.57,19.88,18.56,39.82,39.38,60.78,61.25C554.29,923.23,565.42,934.86,576.83,946.45Zm0.77-109.39a286.84,286.84,0,0,1,14.55,83.41c14.21,2.52,27.35,4.06,40,5.39a123.05,123.05,0,0,0-7.88-34.54C615,867.42,599.33,849.23,577.6,837.06ZM620,866.63c4.14-14.47,11.38-30.22,17.79-42.72,3.14-6.13,6.09-11.46,8.38-15.48q-4.21-1-8.38-2c-28.32-6.78-55.19-12.14-80.16-15.42A301.88,301.88,0,0,1,573.9,826.7,111.68,111.68,0,0,1,620,866.63Zm21.2,60.15c30.08,3.05,55.8,5.67,79.86,18.34,0.59-13.85-1.1-27.87-3.33-41.7-42-18.69-68.59-42.83-79.94-54.59-0.87-.9-1.65-1.72-2.34-2.47-4.31,9.91-8.09,20.26-10,29.46a119.72,119.72,0,0,1,6,13.06,131,131,0,0,1,6.39,22.4,120,120,0,0,1,2,15.35Zm75-32.28-0.86-4.94c-3.89-22.23-7.57-43.36-4.46-63.77-19.54-5.58-38.62-10.79-57.16-15.47-3.55,6.17-9.37,16.71-14.92,28.56C645.16,846,671.37,873.51,716.23,894.51ZM719,864.84c25.47,5.35,40.14,24.2,54.35,42.45,11,14.08,22.27,28.58,38.75,37.62-1.39-13.64-1.44-28.52,1.39-42.82a206.56,206.56,0,0,1-23.18-52.7c-24.51-7.46-48.62-14.72-72.12-21.5C716.51,839.74,717.27,852.07,719,864.84Zm196.45,6.52c-6.43-9.92-14.53-23.82-19-36.85l-2-.46c-41.14-9.54-80.25-18.58-114.27-3.39q18,5.46,36.33,11.06C849.36,851.71,882.42,861.79,915.43,871.36ZM653.49,768.5c-5.43,2.31-10.71,4.77-15.69,7.22h0c-7.65,3.76-14.58,7.51-20.2,10.69q10,2.15,20.2,4.56c15.31,3.62,31,7.66,47.09,12C679.32,794.2,669.51,781.51,653.49,768.5Zm-32.11,7.19c1.48-18.66,7.18-36.6,13.54-51.45-21.76-8.1-43.1-4.3-65.31,1.11,12.67,16.05,14.21,43,14.25,54.47q11.16,1.92,22.72,4.28C610.39,781.83,615.45,778.9,621.38,775.7ZM586.73,714l-0.12-.17A85.85,85.85,0,0,0,613,678.62c-19.23-8-39.91-16.34-62-24.08-17.73,27.17-11.54,59.65-8.94,69.84,5.75-1.29,11.4-2.71,17-4.12C568.39,717.91,577.59,715.59,586.73,714ZM638,717.38a232.33,232.33,0,0,1,12.59-23.31q-6.24-2.48-12.79-5.18-7.56-3.1-15.55-6.43l-2.32-1a95,95,0,0,1-20.31,30.87c12.59-1,25.2.05,38.18,4.95h0Zm-3.87-76.17a26.5,26.5,0,0,1-2.67-3.42,51.2,51.2,0,0,1-3.5-6.59c-3.51-7.5-7.15-15.25-27.88-23.83-9.81,5.61-21.07,8.53-32.7,11.54-12.29,3.18-24.88,6.45-37,13.06q9.17,2.82,18,5.83h0c14.86,5,29.09,10.38,42.69,15.76C600.43,651.07,617.29,646.43,634.13,641.21ZM565.5,611.65q3.18-.82,6.27-1.64c-37.7-26.8-80-18.25-107.45,6a522.11,522.11,0,0,1,56.37,13.11C535.56,619.42,551.33,615.31,565.5,611.65ZM333.79,590.22c0.09,5.8.18,13.57,0.18,21.61,0,7.34-.08,14.88-0.29,21.36q3.75,2.33,7.57,4.6c36.74,21.84,76.85,38.89,105.25,37q-6.62-6.78-13.25-13.51c-7.64-7.78-15.32-15.59-22.93-23.5-6.94-7.2-13.82-14.47-20.56-21.85A595.64,595.64,0,0,0,333.79,590.22ZM532.1,684.93A82.85,82.85,0,0,1,543.66,652c-15.46-5.23-31.6-10.08-48.41-14.23h0a454.69,454.69,0,0,0-75.95-12.27q5.9,6.13,11.91,12.27,6.32,6.48,12.73,13,10.72,10.91,21.43,21.94C479.4,675.46,510,681.33,532.1,684.93Zm-57.72-2.83c14.31,15.06,28.29,30.48,41.33,46.64a186.63,186.63,0,0,0,19-2.8,111.93,111.93,0,0,1-3.28-33.53C513.6,689.53,490.28,685.16,474.37,682.1Zm46.83,53.59a411.81,411.81,0,0,1,27.16,39.08q13.61,1.49,27.95,3.8c-0.19-12-2.13-38.37-14.91-51.17l-0.56.14C548.14,730.74,535.07,734,521.21,735.69Zm-46.72,33.79c8.13,13,19.59,22.35,30.71,31.36,16.74,13.56,32.55,26.44,35.94,50.14a122.63,122.63,0,0,1,28.44,13.3c-9.26-38.39-26.27-71.61-47.4-101.84C506.58,766.41,490.45,768.2,474.49,769.47Zm-8.33.63-4.71.34c-31.89,2.29-59.92,4.32-73.52,20.39,29,10.38,57.06,25.85,85.37,51.23l1.35,1.23c11.09-.74,34.06-1.13,58.47,5.31-4-18.67-17.34-29.55-32.64-42C488,796.51,475,786,466.17,770.11ZM263,818.56c-13.64.1-26.87,0.76-38.79,1.39a126.33,126.33,0,0,1,1,15.64,122.59,122.59,0,0,1-2.37,23.85A216.2,216.2,0,0,1,246.46,884c16.18-4.05,31.8-8.17,46.68-12.25C283.93,860.66,268.24,839.58,263,818.56Zm27.14,69.63c14.12,18.58,37.28,27.14,59.78,35.44,4.9,1.8,9.74,3.59,14.44,5.45,6.35-6.27,29.46-30.73,42.83-66.77-1.68-2.54-3.4-5.08-5.23-7.6C373.77,864,335,876,290.15,888.19Zm-7.78,2.1-0.22.06c-12.4,3.31-25.62,6.71-39.45,10.11,39.87,40.6,84.12,72.56,130.78,104.84,6.3-14.5,13.09-30,23.75-47C386.15,945,367.3,938,347.34,930.66,322.82,921.63,297.54,912.3,282.37,890.28ZM449.12,1058c3.47-5.48,8.87-13.67,15.28-22.21-23.35-28.71-48.85-44.1-71.24-55.15-5,9.79-9.08,19.08-12.94,28l-0.45,1,12.37,8.52C411,1031.11,430,1044.21,449.12,1058Zm137,49.66q6.35-.54,13.27-1.07l7.82-.62c-5.63-11.87-9.59-24.48-8.59-35.39,0-.44.08-0.9,0.12-1.35-15.81-5.25-28.1-8.14-39-10.69-11.48-2.69-21-4.94-30.56-9C538.8,1093.43,580.55,1106.16,586.12,1107.67Zm13.26-46.12c0.88-11.28,1.7-24.46,2.38-36.59-33.57-5.36-52.1-17.83-67.9-35.28-13.67,13.72-40.49,11.06-54.81,8.39a119.67,119.67,0,0,0,11.63,13.76c29.32,29.7,44,33.15,70.76,39.41C572.11,1053.74,584.09,1056.55,599.38,1061.55Zm2.8-44.11c0.53-9.88.94-18.51,1.2-24.08-22-20.56-42.68-41.8-62.17-62.1a91,91,0,0,0-39.27,5c6.16,7.7,11.53,15,16.73,22C540.7,988.14,556.8,1009.94,602.18,1017.44Zm35.62-13.24,1.89,1.63c14-8.47,28.45-11.53,43.79-9a218.26,218.26,0,0,0-12.48-59c-9.69-1.47-19.83-2.5-30.55-3.59L637.8,934c-13.83-1.41-29.1-3-45.52-5.87,0,0.52,0,1,0,1.56q0,14.95-1.44,30.87C605.94,975.47,621.52,990.19,637.8,1004.2Zm7.91,6.71a504.67,504.67,0,0,0,66.89,47.76c13.79-2.54,24.23-8.24,34.68-15.2C697.25,996.14,667.54,998.42,645.71,1010.92Zm76.42,53.21c32.71,18.1,68.35,31.77,107.89,38.48a810.33,810.33,0,0,0-42.83-76.06c-9.94,5.17-18.22,11-26.24,16.61C748.91,1051.61,737.38,1059.7,722.13,1064.13ZM783,1020.24c-11.18-16.8-23.34-33-35.65-45.71-21.18-21.86-43.1-30.59-67.92-35.25a221.7,221.7,0,0,1,11.6,59.19c19,5.24,39.53,18.72,62.52,40.68l3-2.12C764.68,1031.37,773,1025.54,783,1020.24Zm38.38-30.49a236.22,236.22,0,0,1-8.24-35.88c-20.47-9.5-33.34-26-45.78-42-13.4-17.22-26.12-33.54-47.26-39.06,0.8,5.08,1.7,10.23,2.61,15.44,2.93,16.71,5.94,33.89,5.94,51.16,0,3.29-.15,6.58-0.39,9.87a128.89,128.89,0,0,1,24.47,20c5.14,5.31,10.24,11.18,15.25,17.4,1.27,0,3.5-.19,5.54-0.34C783.94,985.58,803.47,984.09,821.43,989.75Zm9.13,3.63a51.38,51.38,0,0,1,16.09,12.06,96.31,96.31,0,0,0,47.2,29.19c-3.54-13.37-3.1-28,3.67-46.28-30.45-21.88-57.66-47.2-77.93-76.86C815.29,947.38,827.9,985.82,830.56,993.38Zm40.92-45.13A284.24,284.24,0,0,0,875.77,917l-0.12-.08,0.14-.21a199.07,199.07,0,0,0-.74-41.57c-21-6.28-42-12.68-62.87-19l-4.59-1.4C818.94,888.42,840,919.39,871.48,948.24ZM1011,897.15c-7.72-12.47-18.87-31.33-26.47-47.71-13-1.3-27.52-3.5-45.46-6.24-11.16-1.71-22.57-4.14-33.82-6.69,5.81,14.57,15.8,29.94,21.44,38.07C954.87,882.67,983,890.31,1011,897.15Zm-64.21-60.36a72.07,72.07,0,0,1,13.71-27.49c-12-13.35-30.22-20.95-49.49-28.95-3.39-1.41-6.79-2.82-10.18-4.28a167.14,167.14,0,0,1-42.63,42.59c12.66,2.2,25.4,5.15,38,8.08,14.52,3.36,29.53,6.84,44,9Zm18.54-33.33c2.15-2.45,4.31-4.79,6.42-7.05,6.89-7.41,13.46-14.48,17-23.28C968.13,758,947,743.59,925.61,729.68c-8.46-.17-38.87-0.87-76.15-2.83,13.18,25.29,39.16,36.11,64.39,46.58C933.56,781.62,952.24,789.39,965.29,803.46ZM840.88,726.37c-26.93-1.52-56.69-3.71-84-6.81-6.87,13.61-23.86,26.16-34,32.77,37.16,9.45,83.85,15.65,131.21-5.8A74.5,74.5,0,0,1,840.88,726.37Zm-92.07-7.76c-22.33-2.74-42.6-6.13-57.73-10.34-10.43-2.9-21.5-6.8-33.36-11.39a227,227,0,0,0-19.92,40.66,153.91,153.91,0,0,0-8.46,34c2.71-1.39,5.54-2.79,8.46-4.18,24.08-11.5,54.3-22.42,75.13-17.62C722.29,744.16,741,731.18,748.81,718.61ZM901.12,714c-18.45-11.65-37-23.06-55.43-34.39l-4.13-2.54c-6.09,6.23-16.66,18.28-23.45,32.81C850.08,712,880.44,713.3,901.12,714ZM835,673c-19.14-11.78-38-23.45-56.27-35.22q-4-2.58-8-5.18a72.88,72.88,0,0,1-18.5,5.18c-14.33,2.2-30.31,1.51-46,.81-4.4-.19-8.73-0.38-13-0.5,10.85,15.05,33.74,25.31,60,33.42h0v0c16.47,5.08,34.25,9.32,51.23,13.36q8.67,2.07,17.12,4.12A145.54,145.54,0,0,1,835,673Zm-94.34-78.89a69.18,69.18,0,0,1,14-18.13c-27.75-11.85-55.62-25.08-84.06-38.68C691.47,557.32,715.13,576,740.65,594.12Zm44.84-21.69c-8.34-12.27-19.86-22.74-31.1-33-8.8-8-17.74-16.11-25.12-25.11a220.5,220.5,0,0,0-16.46,26.34C737.27,552.14,761.41,562.95,785.49,572.43ZM803.16,542c13.11,4.36,26.6,8.83,41.81,11.22-12.69-21.34-24.74-40.07-36.39-56.61-14.6-.74-50.93-3.94-88.43-17.65,3.35,21.29,19.1,36.59,36.32,52.29C772.49,531.8,787.4,536.75,803.16,542Zm108.93-21.32c-3.87-16.18-6.77-34.59-3.93-54.09-32.72-15.2-64-17.29-91.62-19.1-10.18-.66-20-1.31-29.44-2.55,17.5,20,35.14,44,53.69,73,5.89,0,12.06-.12,18.51-0.27C878.37,517.19,898,516.75,912.09,520.66Zm-2.53-61.72A103.28,103.28,0,0,1,920.28,431c-10.16-18-21.48-37.41-33.7-58.26a561.48,561.48,0,0,1-75.19-28.43c4.94,22.11,17.29,41.63,28.39,59.13,9.6,15.14,18,28.36,20.21,40.85A195.4,195.4,0,0,1,909.56,458.94ZM875.33,353.51C863.54,333.35,851,311.81,838,288.85c-21.23-.45-37.91,11.21-53.86,25.64C812.24,328.76,842.51,342.64,875.33,353.51Zm-117.49-103c-17.37,15-32.55,23-42.93,27.24,8.53,4.48,17.23,9.15,26.14,13.95,11.59,6.23,23.6,12.68,36,19.1,8.51-7.85,17.19-15.06,26.64-20.4C789.08,274.62,776.52,261.5,757.83,250.55Zm-7-3.86c-22.93-11.8-55-20.91-107.94-28.12q0.28,1.8.57,3.61a244.45,244.45,0,0,1,3.06,24.68c19.24,6.52,38.84,15.68,59.33,26.21C714.49,270.28,731.07,263.27,750.8,246.7Zm-113.57-86c-26.34-16.57-90.25-11.17-125.5-8.13,8.19,7.66,16.43,15.24,24.64,22.79,22.37,20.55,44.29,40.7,63.84,61.57a177.48,177.48,0,0,1,37.58,7.17l1,0.3c-0.24-3-.59-6.09-1-9.27v0c-0.52-3.83-1.14-7.78-1.77-11.8C632.86,203.31,629.33,180.73,637.23,160.7Zm-184.05,5.13A274.41,274.41,0,0,1,400,147.06c-4.73,6.48-9.62,12.61-14.55,18.32,19.78,15.52,32.06,35.23,44,54.33,10.54,16.94,20.57,33,35,44.61q0.33-3.85.68-7.77C467.57,228.8,470.13,200.15,453.18,165.83ZM380.41,171c-14.89,16.22-30,28.25-42.62,33.65a108.6,108.6,0,0,1,22.73,23.09c6.47-.3,28.64-2,58.14-11C408.32,200.32,397,183.94,380.41,171Zm-51,37c-10.64,4.1-22.14,8.3-29.77,11,19.23,23.11,42.82,36.88,73.88,48.48C367.2,251.32,353.47,223.61,329.41,208Zm-124,65a146.33,146.33,0,0,1,1.54,21A158.41,158.41,0,0,1,205.17,317q11.73,10.94,22.9,22a129.27,129.27,0,0,1,46.17-6.65c-7.45-11.25-13.13-24.22-14.71-40.08A218.37,218.37,0,0,1,205.39,272.95Zm-36.53,31.21q-47.7-1.28-89.69-5.55a347.6,347.6,0,0,0,55.67,56.89c11-6.38,22.59-8.38,33.86-10.32,11.79-2,23-4,33.12-10.73C191.13,324.32,180.09,314.27,168.86,304.16Zm-27.56,56.37a239,239,0,0,0,52.63,30.54c13.59-8.49,27-16.33,42.8-21.33-9.3-10.18-19.15-20.14-29.38-30-11.78,8.4-24.76,10.65-37.38,12.83C159.9,354.31,150.3,356,141.29,360.54Zm51.38,40.18c-6.86,4.31-13.81,8.68-21.19,12.82,16,15.31,36.68,20.45,56.74,25.42,15.23,3.77,31,7.68,44.56,16a109,109,0,0,1,20.26-3.82c-12.56-27.25-30.16-51.85-50.79-75.2C223.8,381.16,208.63,390.68,192.67,400.72Zm-28.05,16.54a178.57,178.57,0,0,1-21.69,9.57c22.79,15.82,45.4,35,62.29,57.8,7.31-2.87,15.17-6.81,23.45-11,10.75-5.41,22.21-11.16,34.36-15.55-11.16-5.55-23.58-8.64-36.61-11.87C204.68,440.86,182.24,435.26,164.62,417.26Zm45,73.67c10.14,15.08,17.71,31.7,21.24,49.95,45.57,12.34,90.78,26.8,133.87,46.22a398.63,398.63,0,0,1-35.54-50.71c-33,2.27-56.47-22.16-77.31-43.88-5-5.23-9.79-10.18-14.64-14.78L232,480.36C224.23,484.29,216.78,488,209.67,490.93Zm70,79.92c-2.36,5-6.45,9.5-11.14,13.8,14.33,13.3,34.91,29.18,57.74,43.89,0.33-14.23.1-31.9-.07-41.29C310.92,581.31,295.38,575.88,279.7,570.85ZM262.88,589.6l-2.63,2.2c-5.24,4.37-10.22,8.53-13.41,12.63,1.12,0.84,2.23,1.7,3.27,2.61,12.45,10.78,25.36,20.78,37.84,30.44l0.4,0.31h0c13.37,10.35,26.07,20.21,37.09,30.13a55.36,55.36,0,0,0,34.7-11c-11.29-5.86-22.44-12.36-33.08-19.08C300.42,621,277,602.73,262.88,589.6Zm-50.53,7.48c-8.37,13.84-23.14,24.34-41.29,33,1.51,2,3.68,4.7,6.46,7.76,13,14.39,39.53,36.69,74.52,30.62,4.52-11.75,11.88-21.22,25.59-29.45l-1.51-1.17c-10.28-8-20.72-16.25-30.92-25.08C236.89,605.52,225.64,600.57,212.35,597.08Zm39.91,105.8c28.4,2.54,55.42,7,81.15,11.17q9.9,1.63,19.68,3.19c-8.4-26.19-36.7-48.25-69.07-73.31C260.75,656.8,256.62,671.42,252.26,702.88Zm109,15.63c44.13,6.73,86.36,10.76,126.76.74-11.27-12.88-23-25.36-34.93-37.65-23.7,3.9-54.82-5.87-85.61-21a61.2,61.2,0,0,1-34.29,14.6C347,688.8,357.25,702.77,361.26,718.51Zm-83.13,2.28c-24.22,11.73-30.53,30.93-32.15,41,13.64,2.44,26.84,4.51,39.64,6.5,33.43,5.21,64.62,10.09,94.8,20,10.69-14.64,29.91-20,52.21-22.79-5.46-12.49-19-21.46-28.73-26.56-23.83-2-48.09-6-72.91-10.06C313.56,726,296,723.13,278.13,720.79ZM174.41,760.64C168.8,787.1,146,799.73,132.54,805c28.74,12.29,58,27.55,83.72,48.81,5-31-3.42-55.32-13.1-83.2l-0.87-2.52C193.19,765.9,183.9,763.44,174.41,760.64Zm-13.38,66c-8.88,38.14-9.66,51.33-10.29,78.64,30.2-5.87,59.68-12.49,87.6-19.36C216.46,860.22,189.29,841.43,161,826.69Zm20.7,87.71c15.5,20.23,52.45,37.94,61.25,42,7.22-5.17,12.91-11.6,15.8-19.86-11.26-10.09-22.25-20.71-33-32C211.64,907.88,196.89,911.2,181.73,914.4Zm18.62,68-3.33,1c11.7,15.94,31.95,20.36,51.59,24.62,18.86,4.09,36.68,8,47.34,21.34a291.78,291.78,0,0,1,40.71,1.5,142,142,0,0,1-9.7-40c-21.4-15.52-42.17-31.54-62.14-49C254.61,965.85,224.84,974.92,200.34,982.36Zm-10.85,3.38c-6.85,2.25-12.83,4.56-16.65,7.18,16.48,17.5,35,33.17,53.2,48.6l0.11,0.1c9.77-3.51,30.59-9.72,59.87-11.77-9.48-8.09-23.88-11.24-39-14.52C226.16,1010.8,202.65,1005.69,189.5,985.73Zm-61.65-27.39c-9.07,26.2-6.94,48.59-6.18,54.3,4.92,3.55,10.08,7.77,16,12.65,8.2,6.71,18.21,14.91,31.37,24.47a223.52,223.52,0,0,1,11.06-28.58C160.61,1002.91,142,982.52,127.85,958.35Zm41.6,127.35a332.26,332.26,0,0,1,80.68,27.89,90.37,90.37,0,0,1,7.37-23.87c-12.12-12.18-26.24-24.14-41.15-36.76-10-8.44-20.27-17.16-30.41-26.39C180.62,1038.37,171.37,1061.75,169.45,1085.7Zm-26.51,10.77q9.29,16.8,17.71,34.23c10.06,4.29,26.12,12.73,34.6,25.49,0.86-7.76-1.52-16.18-4.19-25.53-2.21-7.73-4.62-16.31-5.5-25.66A318.74,318.74,0,0,0,142.94,1096.47Zm57.17,70.18c5.8,14.18,36.83,26,56.57,31.82-18.12-25.16-34.8-53.34-38.35-82.49q-12.15-4.81-25-8.71a148.35,148.35,0,0,0,4.93,21.34c2.38,8.36,4.68,16.44,4.68,24.32A32.79,32.79,0,0,1,200.11,1166.65Zm99.13,25.89c4.14-2.83,13.53-10,17.28-19.36-28.06-21.11-57.33-39.87-90.16-53.89,2.48,15,8.52,29.77,16.45,44.05l0.14-.4C244.49,1163.51,273,1174.14,299.24,1192.54Zm51.29-11.8c21.44-23.39,62.34-28.94,77.18-30.2-3.36-7.88-6.29-15.82-8.84-23.65-15.67-2.68-30-5.53-42.72-8-36.78-7.29-62.56-12.4-81-6.29a106.3,106.3,0,0,1,14.51,37C323.58,1159.4,337.12,1169.88,350.54,1180.74Zm96.33-8.53a120.3,120.3,0,0,0,14.82-1c-1-13.75-2.11-51.27,13.42-75.05-21.47-16.72-43.16-32.21-64.81-47.26C412.88,1073.23,421.26,1128.06,446.87,1172.21Zm153.37,23c17.31-14.27,26.19-30,33.27-48.26a235.35,235.35,0,0,1-22.64-33.8l-10.9.87c-30.37,2.38-51.78,4.08-63.86,13.94q12.59,11.55,25,24.06Q581.63,1172.8,600.25,1195.26Zm36.32-56.54q0.62-1.74,1.23-3.52c1.32-3.84,2.63-7.78,4-11.84,4.53-13.71,9.65-29.12,17.19-46a210.63,210.63,0,0,1-2.19-38.47q-9.64-7.37-19-15.11-13.95-11.57-27.22-23.73c-0.87,17.93-2.58,50.47-4.49,71.25C604,1093.67,627,1126.22,636.57,1138.72Zm53.35-8.64c13.42,4.18,38.72,12.49,56.23,20.83-7.37-15.43-19.09-44.14-16.37-65.89a428.51,428.51,0,0,1-48.7-28.6c-3.16-2.14-6.29-4.33-9.4-6.54C672.25,1078.3,679,1104.93,689.92,1130.08Zm67.84,27.13c15.14,9,44.27,8,56.53,7-9.91-17.84-19.27-36.41-27-56.31a357.62,357.62,0,0,1-50.37-19.45C735.19,1114.22,754.51,1151.19,757.76,1157.22Zm182.22-45c-6.87-11.52-13.89-21.55-20.26-30.65-9.61-13.73-18.07-25.83-23.13-38.64-7.86-1.46-33.81-8-55.57-32.55-18-20.3-52.24-17.68-66.88-16.55l-0.51,0c30.82,40.56,57,92.62,65.44,110.11a332,332,0,0,0,46.38,3.23A312,312,0,0,1,940,1112.26Zm9.77,1.87c31.24,6.41,62.89,17,94.75,30.35a202.24,202.24,0,0,0-41.19-75.62,585,585,0,0,1-77.79,8l0.34,0.49C933.35,1088,941.7,1099.93,949.75,1114.13Zm175.4-13.5c-11.82-5.13-25-10.55-38.87-16.25-16.59-6.82-34.52-14.2-53.09-22.3-6.48,1.91-13.71,3.64-21.36,5.17a205.39,205.39,0,0,1,24.36,36.45C1064.19,1104.45,1101.72,1102.29,1125.15,1100.63Zm-102.92-43.38c-39.45-17.61-81.08-38.55-118.38-64.42-11.19,32.11-.74,51.5,16.54,76.6C946.08,1069,990.73,1065,1022.23,1057.25Zm2.41-60.21c18.27,12.13,44.3,7.37,59.21,3-26.93-16.77-51.66-32.68-71.25-48.77C1015.76,964.25,1020.25,982.09,1024.65,997Zm-21.76-54.18c-14.12-12.91-24.66-26.05-30.13-40-29.86-7.9-59.88-16.53-89.85-25.44a188.62,188.62,0,0,1,1.17,21.33c0,4.9-.17,9.7-0.45,14.33,14.21,8.94,66.56,40,124.42,51C1005.93,955.64,1004.13,948.13,1002.89,942.86Zm60.5-107.79a776.36,776.36,0,0,0-68.5-57.32c-4.07,9.11-10.73,16.28-17.69,23.77-9.28,10-18.85,20.29-23,36.4C999.57,844.7,1020.62,846.31,1063.39,835.07Zm50.38-139.42-1.66-.68a931.47,931.47,0,0,1-101.29-49.75c-1.42,12.42,6.23,22.38,14.83,33.55,6.3,8.2,12.8,16.66,16,26.74A143.75,143.75,0,0,0,1113.77,695.65ZM914.21,647.14c-13.13,5.73-25.15,6.25-41.11,6a72.7,72.7,0,0,1,12.27,33.32c24.42,15.15,48.83,30.61,72.79,46.81,4.89-8.85,12.49-25.94,11.27-44.91Q941.78,672.54,914.21,647.14ZM851.37,639l-1.15-1.22c-9.17-9.69-18.45-19.87-24.18-35-21.26-6.66-42.39-14.64-63.56-23.48C754.9,585,749.74,593,746.84,598.47c19.1,13.31,39.17,26.33,59.85,39.32,15.34,9.65,31,19.28,46.85,29q11.67,7.17,23.38,14.4C873,661.91,862.46,650.72,851.37,639Zm19.85-39.65q-11-20.18-21.4-37.92c-18.33-2.15-33.92-7.32-49-12.34-12-4-23.5-7.8-35.15-9.5,12,11.06,23.64,22.77,31.22,37.2A545.12,545.12,0,0,0,871.23,599.37Zm7-18.29c12.89-.67,28-7,43.37-14.74,0.81-7.08-2-17.56-5.33-29.56-0.66-2.43-1.35-4.94-2-7.52-12.71-5.09-34.09-4.61-54.8-4.13-4.63.11-9.33,0.21-14,.25C856.07,542.24,866.95,560.75,878.26,581.08Zm51-18.66c3.21-1.68,6.43-3.39,9.63-5.09,12.64-6.72,24.66-13.11,36-17.47-7.66-12.81-11.84-25.7-11-39.44A90.78,90.78,0,0,1,943,473.12c-5.5-10.89-11.64-22.32-18.31-34.31-17.62,35.53-8.17,70.18-1.12,96C926.5,545.65,929,554.8,929.26,562.42ZM1019,511.9c-5.85-30.87-19.3-53.77-33.47-77.84-5.45-9.26-11-18.61-16.07-28.53-12.86,1.61-23.62-1.1-34.07-3.73a153.34,153.34,0,0,0-16.57-3.52c14.33,24.77,27,47.29,37.5,68.08C968.86,491.11,991.6,503.85,1019,511.9Zm-19.25-68.32c10.19-1.13,21-1.71,32.38-2.29,31-1.57,62.89-3.2,84.15-16.87a429.44,429.44,0,0,1-55.17-43.51A355.79,355.79,0,0,1,1035,353.8a238.1,238.1,0,0,1-80.8-24.31C958.32,373,975.43,402.08,992,430.25,994.61,434.65,997.21,439.08,999.78,443.58Zm-92.54-221c-9.34-3.86-17.85-8.2-25.72-12.22-9.43-4.82-17.87-9.11-25.66-11.57,5.19,15.29,8.43,28.83,8.43,41.41a67.93,67.93,0,0,1-.34,6.86c5,4,10.11,8.14,15.39,12.45,12.41,10.14,25.78,21.06,40.47,31.49-0.22-10.88-3.77-23.57-7-35.11C909.13,242.73,905.88,231.13,907.24,222.61ZM828.09,240c24.59,45.24,48.3,85.71,69.24,121.45q8.75,14.92,16.87,28.85c8.36,0.58,15.81,2.43,23.05,4.25,9.4,2.37,18.35,4.62,28.66,3.82A196.3,196.3,0,0,1,946.3,325.4c-29.8-16.14-54.56-36.37-76.46-54.26C854.65,258.73,840.84,247.46,828.09,240Zm-44.53-52.41c-50.79,24.23-111-2.16-140-22.37-5.08,14.23-4,30-1.83,45.66,111.51,14.93,135,39.33,169,76.08a63.61,63.61,0,0,1,23.16-5.55C817.53,252.32,800.58,221.05,783.57,187.56Zm-3.39-6.69q-14-27.88-28-57.81c-29.75-5-61.83-11.53-94-19.93,3.14,12.72,21.41,29.17,37.86,44,17,15.32,33.12,29.85,36.39,42.53C748.45,190.49,764.81,188.17,780.18,180.86ZM650.27,101Q644,99.33,637.8,97.53q-13.14-3.77-26.13-8c6.05,15,7.21,34.34,7.21,46.89,0,3.9-.11,7.13-0.22,9.37a79.18,79.18,0,0,1,19.15,6.62h0a45.15,45.15,0,0,1,6.31,3.91c16.53,12.43,47.18,28.71,80.19,32.61-4.27-10.11-19-23.37-33.29-36.26C671.55,135.16,651.54,117.12,650.27,101Zm-48.52-14.8C584.88,80.46,568.39,74.07,552.59,67c0.23,17.49,3.9,47.82,15.88,74.71,14.84-.16,29.62.49,42.71,2.64C611.62,133.32,611.79,102.88,601.75,86.23ZM547.63,98.1c-6.12-2-13.24-4.56-21.49-7.52-27.93-10-64.93-23.27-96.83-27.45,21.87,30.06,48,56.87,75.09,82.54l6.11-.53c14.21-1.22,31.83-2.74,49.86-3.26a199.7,199.7,0,0,1-12.52-44.47Zm-103,7.84a115.25,115.25,0,0,0-4,40.83A256.76,256.76,0,0,0,495,157.37C477.65,141,460.59,124,444.64,105.94Zm-11.41,20.21c-18.61-10.6-45.62-12.79-63.37-12.92,19,12,39.67,22.92,63.06,31A124.6,124.6,0,0,1,433.24,126.14ZM332.11,105.59a302.27,302.27,0,0,0-2.16,51.56c15.39,9.43,29.25,16.6,34.58,19.28a253.14,253.14,0,0,0,28.57-32.7C370.68,132.48,350.74,119.13,332.11,105.59Zm-6.87-5q-7.63-5.64-15-11.22c-7-5.24-13.74-10.32-20.38-15.14,0.06,1.4.11,2.81,0.11,4.21,0,14.12-3.1,28.58-7.62,41.75,9.63,11.16,24.95,22.52,39.92,32.16A303.07,303.07,0,0,1,325.24,100.56Zm-45.86,27.53a160.77,160.77,0,0,1-14.23,27.73c8.84,23.63,18.48,42.11,29.6,57,9-3.21,25.82-9.32,39.09-14.62,7.34-2.93,15.84-8.62,24.75-16.34C344,174.39,301.55,151.62,279.38,128.08ZM244.93,205a253.84,253.84,0,0,1-52.22-8c0.22,19.47,3.79,34.64,7.25,49.34,1.36,5.75,2.69,11.41,3.83,17.22a211,211,0,0,0,32.42,14.32C241.21,268.13,256.71,234,244.93,205Zm-93.46,83.58c-30.79-27.59-62.16-56-90.64-87.92A202.3,202.3,0,0,1,24,223.29c11.77,9.73,25.92,17.15,39.66,24.33,20.89,10.91,40.71,21.3,52.74,39.09Q133.48,287.87,151.48,288.58Zm47,22.19c2.94-25.82-1.3-43.81-5.76-62.73l0-.09c-19-7.36-36-19.7-51-30.59-8.86-6.45-17.35-12.62-25.07-16.81,0.88,4.23,1.91,8.53,3,13A291.6,291.6,0,0,1,125.86,245c13.27,12.36,26.74,24.42,40.15,36.43C177,291.28,187.83,301,198.43,310.77ZM90.49,361.35c8.32-5.45,15.66-11.63,19.2-17.88A366.78,366.78,0,0,1,68.9,297.52q-18.66-2.1-36.11-4.8C37.79,316.45,52.32,333.33,90.49,361.35ZM67.38,382.26c0.81,0.42,1.61.83,2.41,1.28,3.1,1.72,6.46,3.55,10,5.49,15.52,8.46,35.25,19.21,55.34,32.52,19.95-6.42,35.82-16.07,51-25.62-27.58-12.18-51.46-29.64-70.88-47.27C105.51,363.82,80.34,376.49,67.38,382.26ZM44,440.17c21.17-5.84,44.19-.21,70.69,6.32,17.34,4.27,35.19,8.65,54.52,10.39-30.77-27.32-67.65-47.43-93-61.25-3.59-2-7-3.79-10.07-5.52-16.32-9-33-11.89-49.83-11.68C21.28,404.26,32.08,423.68,44,440.17ZM222.78,538.7C216.27,510.1,199.14,485.64,178,465c-23.64-1-45.6-6.43-65-11.2-24.2-6-45.38-11.14-64-7.08C53,452,57.14,457,61.16,461.85c12,14.48,23.34,28.25,28.54,44.22,16.32,4,32.79,8,49.38,11.92C166.81,524.6,194.85,531.29,222.78,538.7Zm-95.45,41.82c-14.74-20.48-31.37-30.59-40.5-35-27.49,5.57-54.37,12-80.77,18.74,30,12.5,73,14.26,114.78,16Zm40.8,2.28c1.08-14.05,10.51-29.24,17.06-38.23q-19.4-4.82-38.72-9.39c-16.23,2.32-32.23,5-48,8.08,10.89,6.58,25.43,18.16,38.24,37.67C147.45,581.4,158,582,168.13,582.79Zm72.45,17.49c3.69-4.92,9.14-9.48,14.87-14.25,6.8-5.66,13.76-11.47,17-17.48-26.21-8.19-52.78-15.34-79.36-22-6,7.81-16.59,23.48-17.49,36.93C201.28,586,224,590.54,240.58,600.29ZM101.39,612.86c7.28,6.82,14.77,13.85,21.13,24.94,0.36,0.63.72,1.27,1.07,1.92q3.08-.95,6.14-1.92c32.6-10.41,61.59-22.9,74.87-42.53-24-5.07-53.54-6.27-84.06-7.52-14-.57-28.06-1.14-41.81-2.12C85.81,598.24,93.71,605.66,101.39,612.86Zm-61.84,52.8c15.86-6.25,34.51-11.57,54.11-17.17,7.54-2.15,15.11-4.31,22.59-6.54q-1.23-2.19-2.53-4.15c-5.26-8-11.23-13.62-17.47-19.47-3-2.83-6.08-5.7-9.12-8.88-16.2,3.06-32.07,3.63-47.64,3.16a117.7,117.7,0,0,1,1.93,23c0,0.74,0,1.49,0,2.23A275.65,275.65,0,0,1,39.56,665.66Zm69.13,21.66c24.76-11.3,53.05-21.73,77.93-30.75a127.59,127.59,0,0,1-19-18.77c-1.49-1.82-2.69-3.39-3.58-4.6q-5.55,2.4-11.42,4.6h0c-17.8,6.73-37.48,12.36-56.92,17.91-10,2.85-19.68,5.62-28.88,8.47C78.86,667.28,95.78,673.8,108.69,687.32Zm-45.81,35.6a214.07,214.07,0,0,0,33.81-6.86c53.19-15.53,102.41-17.3,148.08-13.8,1.31-9.68,2.64-18.23,4.7-25.88-22.27,2.74-41.14-4.77-55.57-14.46C150.19,677.73,88,700.42,62.88,722.92Zm175.78,37.54a61.26,61.26,0,0,1,27.06-41.19c-45.27-5.18-92.7-6.14-144.8,6C163.52,743.86,202.6,753.68,238.65,760.46ZM122,800.6c6.46-1.6,39.1-11.17,45.2-42.13-11.43-3.56-23.15-7.64-35.16-12.37-15.52,11.83-32.57,14.26-47.8,16.4-13.33,1.87-25.07,3.53-33.4,11.07,9.42,3.76,19.63,7.52,30.39,11.48C94.24,789.84,108,794.91,122,800.6ZM90,915.86c17.84-2.69,35.63-5.75,53.2-9.08,0.66-28.62,1.32-42.57,10.95-83.6-25.61-12.72-51.81-22.37-75.5-31.09l-5.09-1.88c-2.37,24-.76,39.41.67,53.06a197,197,0,0,1,1.44,20.82,101.52,101.52,0,0,1-3.6,26.64C80.36,901.52,86.45,910.44,90,915.86Zm77.75,71.51c6.65-5,17.56-8.28,30.42-12.19,12.19-3.7,25.8-7.85,37.22-14.08-14.29-6.84-47.79-24.47-61.65-45-14.85,3.06-30.06,6-45.5,8.72C137.46,948.85,151.43,969.15,167.75,987.37Zm-54.16,20a132.21,132.21,0,0,1,9.48-57.66,188.33,188.33,0,0,1-9.9-22.34C77.24,933.34,40.3,938.07,4,940.62c26.13,16.19,49.4,36.1,70.25,58.7C91.8,998.39,102.86,1001.16,113.59,1007.37Zm20.11,72.94q14.63,1.45,28.35,4a158.67,158.67,0,0,1,4.82-26.82c-14.42-10.38-25.19-19.19-33.91-26.33-20.4-16.71-29.9-24.47-52.08-24.49C100.58,1029.06,118.05,1053.92,133.69,1080.31Zm-51.9,51.05c12-2.86,19.5-7.44,27.36-12.27,6.57-4,13.34-8.19,22.85-11.32a564.44,564.44,0,0,0-30.49-50c-29.5,7.15-45.4,23.64-50.31,29.54C63.32,1102.19,74.57,1116.7,81.79,1131.36Zm40.51,102.21c7.05-10,23.64-30.24,49.17-41.06a829.8,829.8,0,0,0-35.87-78c-9.33,2.89-15.77,6.85-22.52,11-7.75,4.76-15.75,9.66-28.18,12.83A66.16,66.16,0,0,1,90,1161.86c0.53,32.89,2.19,51.74,3.22,60.63C102.67,1226.5,112.38,1230.21,122.3,1233.57Zm51.95-34.09c-22.06,9.44-37.2,26.77-44.43,36.55a352.13,352.13,0,0,0,63,13.86C187,1233.11,180.86,1216.24,174.25,1199.48Zm62.49,36c-5.13-12.11-9.64-25.14-11.86-40.56-14.94-6.79-29-16-32.43-27.37-3.52-11.77-16.09-20.56-26.72-26.11,13,28,24.54,56.77,34.91,85.51C208,1228.3,221.15,1231,236.74,1235.47ZM277,1225.34c-4.27-5.5-8.72-11.23-13.18-17.16a250.58,250.58,0,0,1-30.81-9.81c3.41,18.87,10.46,34.26,17.32,49.17,3.46,7.52,6.84,14.89,9.7,22.52,11.07-13,25.9-20.12,33.35-23.11-0.77-1.11-1.56-2.22-2.4-3.35C286.68,1237.78,282,1231.73,277,1225.34Zm81.64-18.51c-11.94-9.94-23.88-19.66-36-29-4.22,8.88-12,15.67-17,19.37a149.41,149.41,0,0,1,14.92,12.94c21.66,21.65,32.24,40.84,36.41,49.71a135.55,135.55,0,0,0,10.51-11.62A291.26,291.26,0,0,1,358.66,1206.83Zm72.29-49c-10.76.78-53.64,5.24-74.59,27.66,10.88,8.91,21.71,18,32.63,27.23q9.37,7.9,18.86,15.84c8.89-7.69,16.66-6.61,29.15-4.86a199.82,199.82,0,0,0,33.75,2.34c-6.29-9.46-13-20.82-23.54-38.51l-5.75-9.67A221.76,221.76,0,0,1,431,1157.82Zm175.84,69.66A644.42,644.42,0,0,0,559.68,1172a404.75,404.75,0,0,0-62.45,2.21c11.19,28.94,36.4,41,63,53.64,8,3.81,16.22,7.76,24.15,12.2A105.3,105.3,0,0,1,606.8,1227.48Zm85.61-59.19c-14.1-24.29-25.12-50-31-77.56-5.1,12.6-9,24.32-12.5,35-3.63,11-7,21.15-11.09,30.7-7.07,16.49-16.31,31.1-32.79,44.64q17.18,21.21,32.79,44.05,2.38,3.48,4.73,7a191.07,191.07,0,0,1,28.84,2.44C670.68,1239.1,670.56,1191.69,692.4,1168.3Zm125.93,3.17c-10,1-46.73,3.53-65.38-8.38-13.06-8.33-41.2-18.11-58.83-23.79,18.11,37.9,45.12,72.43,73.39,104.71,15.3-2.93,54.8-11.45,78.77-25-3.49-6-7.09-12-10.75-18.19C829.8,1191.16,824,1181.41,818.33,1171.46Zm62.58-49.28a338.91,338.91,0,0,1-84.5-11.65c11.26,27.66,25.7,52.92,40.16,77.32,24.75,3.63,58.25,16.27,75.29,23.16C904.78,1179.37,895.22,1149.49,880.92,1122.18Zm140.17,83.29a396.55,396.55,0,0,1-17.52-60.71c-35.88-12.53-71.23-20.63-105.66-22.23a343.4,343.4,0,0,1,20.66,54.22c26.05,3.11,37.54,18.19,50.67,35.46,10.09,13.27,21.44,28.14,41.83,40.16C1010.16,1234.94,1012.31,1217.58,1021.08,1205.47Zm104.72-4.7c-35.36-19.22-70.65-36.47-105.51-49.87,5.84,24.87,21.39,79.57,51.93,116.25a497.75,497.75,0,0,1,80.59-11.87C1140.72,1238.71,1130.78,1221.28,1125.81,1200.78Zm-7.6-56.69c-9.76-10.68-19.8-21.72-27-33.91-17,.82-35.34,1.37-51.18,1.11a195.37,195.37,0,0,1,13.34,37c32.94,14.34,66.08,31.55,99.18,50.14C1149,1177.87,1134,1161.38,1118.2,1144.09Zm44.88,7.87c13.12-.18,27.66-0.38,46.24-4.37-23.87-15.35-47-29.51-69.93-40.51-8.65.69-23.17,1.76-39.7,2.65,6.68,10.27,15.48,19.92,24,29.29,4.37,4.78,8.76,9.59,12.93,14.54C1145.43,1152.2,1154,1152.08,1163.09,1152Zm20.84-37.82c17.75,10.53,35.69,22.2,54.16,34.24,9.43,6.14,19,12.4,28.85,18.64-6.57-23.1-20.87-44.23-39.74-63.83C1208.74,1101.86,1193,1108.86,1183.93,1114.13Zm-39-75.7c-3.61,7-10.37,11.39-17.43,15.91-7.88,5-16.64,10.68-23.32,21.17,11.61,4.79,22.58,9.38,32.5,13.77a425.7,425.7,0,0,1,39.9,20.53c7.87-5.15,23.5-13.52,43-14.27C1198.13,1075,1172,1056.18,1144.9,1038.44Zm-46.87-29.6-5.75-3.56c-14.14,5-48.93,14.32-73-2.8-19.34-13.75-57-7.45-77-2.69,49.8,29.63,104.54,52.15,149.71,70.72l5.13,2.11c7.65-12.62,17.87-19.18,26.31-24.59,7-4.51,12.57-8.06,15.13-13.72C1125.05,1025.58,1111.39,1017.12,1098,1008.84Zm14.22-75.63c-11.53,19.61-29.13,34.56-39.35,42.2,10.68,6.83,21.79,13.72,33,20.68,6.74,4.18,13.56,8.4,20.4,12.68,12.95-13.43,39.13-11.71,68.89-9.75,4.65,0.3,9.38.62,14.14,0.88-3.77-11-13.34-37.68-24.68-58.53C1161,939.86,1136.8,937.06,1112.25,933.21Zm-8-1.31c-36.74-6.08-74.24-14.36-112.08-24,13.4,21,41.21,41.85,74,63.13C1074.86,964.71,1092.5,950.53,1104.26,931.9Zm77.87-84.81c5,17.55,14.31,31.24,23.31,44.5,8,11.74,15.56,22.92,19.91,36.09q12.87,0,26-.54c1.34-5.34,4.72-10.72,8.45-16.64,6.05-9.61,12.86-20.42,12.3-33.79-16.57-1.82-34.14-6.09-48.61-15C1209.74,853.21,1196.34,848.6,1182.12,847.09ZM1107.74,859A531.4,531.4,0,0,1,1158,924.07c20.16,2.1,40,3.34,59.36,3.55-4.17-11.24-11-21.3-18.14-31.82-9.78-14.4-19.87-29.27-25-49.22C1154.81,846.05,1133.58,850.79,1107.74,859Zm40.61-18c-4.95-11.23-11-22-16.79-32.44l-0.25-.45c-27.08-2.4-44.27-12.84-69.9-28.47-8.48-5.17-17.85-10.88-28.81-17,5.14,11.35,9.48,22.81,10.09,33.91a664.22,664.22,0,0,1,59.5,56.42C1119.23,847.38,1134.38,843.24,1148.35,841ZM1116,749.11c0.87,17.76,11.22,36.28,22.11,55.76,6.26,11.19,12.7,22.75,17.94,35,16-1.86,30.55-1,44.84,3.28,1.48-6.46,4.68-13.12,8.56-21.15,3.53-7.31,7.49-15.52,11.3-25.78-11.12-4.82-22.47-9.21-33.66-13.52C1161.27,772.74,1136.31,763.11,1116,749.11Zm7.53-49.52a159.52,159.52,0,0,1-33.9,11.33c18.34,31.54,53.83,46.81,92.27,61.74,0.14-10.79-.25-36.05-6.08-54.58Q1150.3,710.21,1123.52,699.59Zm111.39-48.43c-42.8,22.05-90.53,27.28-121.88,27.93,1.68,0.71,3.37,1.42,5.07,2.13,28.79,11.93,62.74,23.95,98.45,32.35,9.32-5.14,28.31-15.37,52.14-26.9C1265.19,679.88,1255.26,663.72,1234.91,651.16Zm-148.27-38.73a703.45,703.45,0,0,1-83.54,11c6.9,4.11,15.38,9,25.17,14.41,18.4,10.15,41.43,22,67.38,33.72,26.71,0.86,81.92-.87,131.34-24.78a111.44,111.44,0,0,0-25.33-8.94h0a130.21,130.21,0,0,0-14.43-2.43C1139,630,1102.73,618.36,1086.64,612.43Zm-251.23-6.81c5.47,11.39,13.26,19.64,21.41,28.24,1.24,1.3,2.48,2.61,3.71,3.94,2.32,2.48,4.61,5,6.82,7.69,20.33,0.49,33.36.56,48.87-7.69a116.36,116.36,0,0,0,20.21-14.21,458.14,458.14,0,0,1-52.3-6.32A466.75,466.75,0,0,1,835.41,605.62Zm198.23-.17-4.71-4.6c-20-19.6-37.93-37.12-49.88-54.52C967.71,550.52,955.4,557,942.4,564c-20.52,10.91-41.61,22.12-60.16,24.3q4,7.26,8.07,14.83C939.09,611.48,986.51,611.06,1033.64,605.45Zm63.47-63.22c-11.42,5.08-21.23,10.22-30.08,14.87-18.56,9.75-33.75,17.71-52.34,19.09,6.14,6.23,12.69,12.64,19.49,19.3l8.94,8.76c48-6.4,95.75-17.91,144.43-30.66C1162.07,555.65,1129.86,548,1097.1,542.23Zm-21.3-3.54c-39.28-6.36-77-12.49-104.39-32.26,1.16,21,15.62,40.76,36.2,62.45,20.1,0.36,35.22-7.54,55.93-18.42,6.27-3.29,13-6.83,20.5-10.43Zm112.61-43c-8.61-2.93-20-5.27-32-7.73-32.74-6.7-73.27-15-90.85-41.45-10.8,1.1-21.94,1.68-33,2.23-10.11.52-19.71,1-28.78,1.92,10.13,18.53,19.13,38.64,23.3,63.4,16,4.09,33.42,6.91,51.13,9.78,23.22,3.76,46.84,7.59,69,14.38,10.8-9.19,19.58-18.89,28.08-28.33C1179.55,505.23,1183.83,500.47,1188.4,495.73Zm23.81-21.35c-30.87-12.54-60.77-27.36-89.11-45.51-13.32,9.57-30.47,14.18-49,16.68,17.09,21.44,53.86,29,83.81,35.1,14.4,2.95,27,5.53,36.36,9.22A188.29,188.29,0,0,1,1212.22,474.38Zm-38.68-33.73c27.83,14.14,56.9,25.73,86.9,35.79a437.65,437.65,0,0,0-28.55-44.25C1209.16,427.64,1186.32,435.12,1173.53,440.66Zm14.79-13.29a324.25,324.25,0,0,0-24.93-25.72c-6.94-6.61-14.13-13.46-22.94-23.05-3.56.39-7,.72-10.37,1-13.4,1.28-26.21,2.5-39.8,6.91a444.15,444.15,0,0,0,74.79,49.71A134.63,134.63,0,0,1,1188.32,427.37Zm-5.78-57.21a200.2,200.2,0,0,1-32.89,7.31c7,7.42,13.05,13.17,18.91,18.75,8.89,8.47,17.33,16.51,27.91,29.19a97.16,97.16,0,0,1,29.07-1.73c-10.38-13.75-20.88-26.53-30.84-38.64Q1188.53,377.51,1182.55,370.16Zm52.69-54c-22.48,10.26-48.62,14.36-63,15.92,10,14.11,21.63,28.28,34.07,43.4l5.68,6.92c9.31-1.11,18.89-2.94,28.93-4.86l4.78-.91C1245.29,352.77,1240.82,334.16,1235.24,316.18Zm-13.61-43q-47.91-15-81.82-37.48c-2,34.4,9.38,62,27.56,89.33,12.63-1.19,41.79-5,65.57-16.07-0.9-2.77-1.81-5.53-2.74-8.31C1227.31,291.89,1224.32,282.88,1221.63,273.18Zm8.21-72.74c-25.55-1.81-49.93-11.79-71.41-29,2.12,9.14,7.28,19.74,12.66,30.8,6.31,13,13.33,27.41,16.84,42.27q32.6,14.27,74.59,24.05C1251.92,245.38,1241,222.45,1229.84,200.44ZM1151.15,76.7c-0.63,23.24-5.88,37.58-19.22,55.86,0.79,0.93,1.58,1.89,2.33,2.89,24.8,33.23,57,53.2,91.54,57.1C1202.56,147.75,1177.87,107.23,1151.15,76.7ZM1096.48,113c10.51,2,21.18,6.23,30.12,14.14,13.16-18.32,17.44-32.69,17.09-58.65-14.71-15.54-30-28-46.06-36.43q-3.52-1.85-6.87-4C1088.28,58.06,1094.71,101.8,1096.48,113Zm-40,.52a115.76,115.76,0,0,1,32.18-1.63c-1.24-8-3.55-24.27-4.93-42.22-16.38-5-31.31-12.89-44.54-19.93-17.75-9.45-33.52-17.84-48-16.85C1011.9,57,1035.3,85.33,1056.52,113.52ZM1015.78,211c13,9.74,27,19.58,48.56,27.69-2.19-24.49-2.7-50.92,8.45-76.47-17.15-25.81-38.6-53.82-59.89-80,0.25,20.58,3.95,38.18,7.29,54.06,2.85,13.54,5.52,26.19,5.52,38.58A67.32,67.32,0,0,1,1015.78,211Zm-46.66-21c7.77,29.76,18,58.88,32.18,86.75,10.91,2.28,23.15,6.1,36,10.13,9.75,3.06,19.88,6.23,30.22,9,1.32-13.1-.2-27.82-1.8-43.32-0.19-1.86-.39-3.74-0.58-5.63-26.69-9.49-42.46-21.35-57.69-32.84C995.8,205.31,984.66,196.92,969.13,190ZM830.57,133.93c3.45,8.85,6.8,17.17,10.07,25.28,4.5,11.15,8.64,21.42,12.16,31,10,2.2,20.32,7.46,32.13,13.48,20.76,10.6,46.2,23.57,79.24,22.81-9.16-27.6-15.71-55.89-20.87-84.43C927.84,141.64,885.1,139.95,830.57,133.93Zm-24.87-3c-11.21-1.43-23.15-3.1-35.61-5,15.37,32.59,30.95,63.33,46.3,92.23,13.11,4.07,26.3,12.57,40.37,23.29,0.4-21.3-9.75-46.47-23.06-79.46-3.73-9.24-7.56-18.76-11.53-29Q814.07,132,805.7,131Zm128-51.67c-32.08-12.5-66.6-18-85.42-20.17,17.67,21.65,32.61,43.16,42.25,65.13,22.77,1.65,40.27,2.4,50.16,2.73C938.08,111.13,935.82,95.2,933.71,79.3ZM891.77,58.95A321,321,0,0,1,932.6,70.86q-1.44-11-2.82-22Q928.39,38,927,27.29c-8-6.44-24.23-18.27-43.34-24.59C889,18,892.21,33.4,892.21,49.07Q892.21,54,891.77,58.95Zm-94.06,55.73c27.78,3.75,53.52,6.39,75.63,8.24C859,94.11,834.89,65.32,808,35.54,805.89,53.93,801.77,88,797.72,114.68ZM686.21,51.43q11.86,23.29,22.61,48.14c27.94,5.84,55.51,10.45,81.47,14.09,2-13.2,4-28.24,5.84-42.29-38.24,5.86-62.09-2.87-87.26-12.1C701.61,56.61,694.2,53.9,686.21,51.43ZM585.84,64.56c16.82,6.43,34.24,12.21,52,17.39h0c17.46,5.11,35.19,9.64,52.89,13.67a795.35,795.35,0,0,0-37-72.86c-4,1.67-9.56,4.08-15.86,7.08C620.37,38.12,597.27,50.84,585.84,64.56ZM476.23,66c18.71,5.48,37,12,52.44,17.56,6.78,2.43,12.78,4.58,18.06,6.37a184.14,184.14,0,0,1-1.67-26.33c-1.5-.7-3-1.39-4.49-2.1-30.28-14.57-57.37-31.69-82.66-50A153.24,153.24,0,0,0,476.23,66ZM397.05,107.5c12.66,1.71,26,4.91,37.17,10.65a111.24,111.24,0,0,1,4.66-18.86q-9.42-11-18.19-22.7a365.17,365.17,0,0,1-26.41-40.41C387.52,71.35,395.55,102.24,397.05,107.5ZM308.41,66.26l-0.56,2.56q5.67,4.21,11.39,8.53c12.56,9.44,25.54,19.19,39.38,28.52a232.24,232.24,0,0,1,30.41.73,165.22,165.22,0,0,1-4.36-26.43c-6.44-4-32.93-23.09-44-73A115.37,115.37,0,0,1,316,19.35C315.65,33.34,312.39,48.26,308.41,66.26Zm-62,29.68q4.33,14.81,8.48,28.86c2.31,7.78,4.66,15.11,7.06,22,12-20.26,23.16-51.72,19.93-78.34-17.42-12.19-34.22-22.22-51.94-28.06C235.69,59.5,241.14,78.1,246.36,95.93Zm-54.93,3.12c15.17,6.33,30.22,11.93,45.1,16.66Q234.27,108,232,100.15q-3.13-10.68-6.37-21.72c-23.59-9.68-40.23-8.41-48-6.82C184,80.11,189,89.08,191.43,99.06Zm-46.65-4.63c2.39,10.4,4.39,22,6,33.08,12.25,5.25,73.67,33.25,80.75,68.93a286.67,286.67,0,0,0,36,1.39C258,180.2,249.56,159,241.65,133,209.88,123.62,177.47,110.27,144.78,94.43ZM67.19,53.14c-0.77,13.33-.54,26.42-0.31,39.16,0.14,7.55.27,14.87,0.19,21.89,7.34,4.31,34.35,20.63,58.31,40.87A154.55,154.55,0,0,0,148.31,171c-1.42-15.58-5.43-54.32-12.3-80.86C113.14,78.76,90.16,66.26,67.19,53.14Z" style="fill:#e4e1d9"/></pattern></defs><g style="isolation:isolate"><rect width="595.28" height="202.59" style="fill:url(#a)"/><rect y="0.01" width="595.28" height="202.58" style="opacity:0.25;mix-blend-mode:overlay;fill:url(#b)"/></g></svg>