<svg xmlns="http://www.w3.org/2000/svg" viewBox="0 0 168.14 88.04"><title>promo-title</title><path d="M145.22,116.48a6.92,6.92,0,0,1-1.64-4.38V97.54h-6.7l8.22-15.46c2.78-.51,9.33-1.63,18.68-2.74a1.87,1.87,0,1,0-.29-2.39c-12.65,1.5-20.25,3-20.36,3v0l-9.26,17.5h-2.43V82.84a12,12,0,0,0-14.57,18.31,11.83,11.83,0,0,0,6.36,4.27l2.27-2.22a9.19,9.19,0,0,1-6-3.06,9.41,9.41,0,0,1,9.35-15.46V97.55h-6.12v2.64h6.12V113h2.64V100.19h9.49V112.1a9.78,9.78,0,0,0,2,5.64Z" transform="translate(-114.35 -70.99)" style="fill:#fff"/><path d="M165.4,94.42h-2.64v8.23a6.09,6.09,0,0,1-2.37.48h-0.58a7.48,7.48,0,0,0-2.09-6.54,7.18,7.18,0,0,0-5.3-2.21,7.3,7.3,0,0,0-3.11.69V94.64h-2.64l0,27.21h2.64V106.93a3.1,3.1,0,0,0,1.08,1.79,3,3,0,0,0,2,.74,7.08,7.08,0,0,0,6.43-3.69h1.53a8.65,8.65,0,0,0,2.38-.33,4.63,4.63,0,0,0,.23,1.22,4.07,4.07,0,0,0,.77,1.37,4.85,4.85,0,0,0,1.37,1.11,4.66,4.66,0,0,0,2.11.53,8.12,8.12,0,0,0,3.32-.34,6.31,6.31,0,0,0,2.48-1.5v1.63l4.64-3.32a5.4,5.4,0,0,0,1.74,3.32l4.68-2.48a5.28,5.28,0,0,0,.43.66,3.8,3.8,0,0,0,2.19,1.4,4,4,0,0,0,3-.74A8.2,8.2,0,0,0,191,107a17.9,17.9,0,0,0,1.26-1.79q0.61-1,1.16-2a19.61,19.61,0,0,0,.92-2v4.06a6,6,0,0,0,.42,2.27,4.82,4.82,0,0,0,1.43,1.9l6.85-7.12v2.85a5.24,5.24,0,0,0,2,4.16l6.34-3.1a8,8,0,0,0,.83,1,7.47,7.47,0,0,0,8.86,1.31l5-2.65v3.28h2.64v-7.38l3.27,1.16a2.18,2.18,0,0,1,1.27,2.16v4.06h2.69l7-3.49a7.85,7.85,0,0,0,1.2,1.54,7.26,7.26,0,0,0,5.33,2.21,7.38,7.38,0,0,0,4-1.11,9.25,9.25,0,0,0,.95,1.11l5.27-3.72a5.53,5.53,0,0,0,1.08,1.92,4.13,4.13,0,0,0,2.37,1.34,5.28,5.28,0,0,0,3.4-.71,7.15,7.15,0,0,0,1.9-1.77,20.77,20.77,0,0,0,2.06-3,0.36,0.36,0,0,0,.16,0,0.36,0.36,0,0,1,.16,0l0.05,1.85a5.24,5.24,0,0,0,2,4.16l6.7-3.27v-2.58l-5.91,2.8a1.63,1.63,0,0,1-.11-0.69v-4.32h-2a17.48,17.48,0,0,0,.76-2.29,8.65,8.65,0,0,0,.29-2.14,4.55,4.55,0,0,0-.37-1.85,3.14,3.14,0,0,0-1.16-1.37,5.62,5.62,0,0,0-2.58-.71,6.27,6.27,0,0,0-2.45.42,5.33,5.33,0,0,0-2,1.32,4.79,4.79,0,0,0-1.13,2,4.08,4.08,0,0,0,0,2.29,5.38,5.38,0,0,0,1.56,2.37,7.71,7.71,0,0,0,3.53,1.9,8.35,8.35,0,0,1-2.24,2.51,3.12,3.12,0,0,1-2.16.69,2.14,2.14,0,0,1-1.58-1.21,3.6,3.6,0,0,1-.35-1l0.17-.12-0.33-1.69c0-.15,0-0.31,0-0.47h-0.11l-0.1-.53-0.74.53h-1.16a7.3,7.3,0,0,0-.12.92l-4,2.88a2.14,2.14,0,0,1-.11-0.69V100.7h-2.64v4.53a1.7,1.7,0,0,0,.05.42,4.82,4.82,0,0,1-3.11,1.11,4.69,4.69,0,0,1-3.48-1.45,4.9,4.9,0,0,1,0-6.91A4.69,4.69,0,0,1,249.35,97a4.57,4.57,0,0,1,4.33,2.58L256,98.33a7,7,0,0,0-6.65-4,7.56,7.56,0,0,0-7.54,7.55,8,8,0,0,0,.11,1.28l-6.06,3v-1.05a5.84,5.84,0,0,0-.63-2.74,3.85,3.85,0,0,0-2.11-1.79l-2-.68,7.71-11.49L236.76,87,228.63,99V94.28H226v8.55l-6.22,3.37a4.63,4.63,0,0,1-2.27.58,4.69,4.69,0,0,1-3.48-1.45,4.89,4.89,0,0,1-1.43-3.56,4.86,4.86,0,0,1,4.9-4.91A4.61,4.61,0,0,1,220.56,98v2.27h2.64V94.49h-2.64v0.37a7.45,7.45,0,0,0-3.06-.63,7.56,7.56,0,0,0-7.54,7.55,8,8,0,0,0,.34,2.35l-4.5,2.13a1.62,1.62,0,0,1-.11-0.69V94.24H203v4.85l-6.11,6a0.75,0.75,0,0,1-.11-0.42V94.35H194.3q-0.42,1.58-1,3.22T192,100.71a27.38,27.38,0,0,1-1.45,2.77,12.61,12.61,0,0,1-1.55,2.11,2.15,2.15,0,0,1-1.29.77,1.28,1.28,0,0,1-1.13-.42,3.24,3.24,0,0,1-.71-1.5,6.5,6.5,0,0,1,0-2.43H183.6a5.77,5.77,0,0,0-.27,2.36l-3,1.59a4.15,4.15,0,0,1-.05-0.69V94.36h-2.64v9.07l-3.16,2.11a5.06,5.06,0,0,0,.32-1.79,6.14,6.14,0,0,0-.45-2.32,6,6,0,0,0-1.24-1.92,6.13,6.13,0,0,0-1.9-1.32,5.82,5.82,0,0,0-2.43-.5,10.88,10.88,0,0,0-1.71.16,8.45,8.45,0,0,0-1.66.42V94.42Zm-13,12.45a0.51,0.51,0,0,1-.58-0.58,0.49,0.49,0,0,1,.58-0.53h3.27A5.32,5.32,0,0,1,152.44,106.87Zm4.69-3.75h-4.69a3,3,0,0,0-2,.74,3.12,3.12,0,0,0-1.08,1.85V98.12A4.82,4.82,0,0,1,152.43,97a4.63,4.63,0,0,1,3.43,1.45,4.76,4.76,0,0,1,1.43,3.45A4.57,4.57,0,0,1,157.13,103.13Zm110.58-2.28A4.09,4.09,0,0,1,266,99.67a3.07,3.07,0,0,1-.66-1.45,2.49,2.49,0,0,1,.21-1.42,2.59,2.59,0,0,1,.9-1.08,2.24,2.24,0,0,1,1.37-.37,3.36,3.36,0,0,1,1.69.61,2,2,0,0,1,.5,1.11A4.41,4.41,0,0,1,270,98.4a8,8,0,0,1-.42,1.45q-0.29.74-.61,1.42l-0.63-.21Zm-100.83-.5a8.19,8.19,0,0,1,1.64-.19,3.26,3.26,0,0,1,2.64,1,4,4,0,0,1,.85,2.64,3.7,3.7,0,0,1-.58,2.06,3.39,3.39,0,0,1-1.63,1.32,4,4,0,0,1-1.19.26,3.21,3.21,0,0,1-1.29-.16,3.47,3.47,0,0,1-1.16-.66,2.08,2.08,0,0,1-.69-1.19,8.29,8.29,0,0,1-.05-1.4q0-1.29,0-3.14A4.41,4.41,0,0,1,166.88,100.35Z" transform="translate(-114.35 -70.99)" style="fill:#fff"/><path d="M227.63,135.43a5.49,5.49,0,0,0,1.8,4.17l5.55-2.95a8.38,8.38,0,0,0,.56.62,7.26,7.26,0,0,0,5.33,2.21,7.38,7.38,0,0,0,4-1.11,9.19,9.19,0,0,0,.95,1.11l7.49-5.28-0.53-2.69-6.06,4.33a2.14,2.14,0,0,1-.11-0.69v-4.38h-2.64v4.53a1.71,1.71,0,0,0,.05.42,4.82,4.82,0,0,1-3.11,1.11,4.69,4.69,0,0,1-3.48-1.45,4.9,4.9,0,0,1,0-6.91,4.69,4.69,0,0,1,3.48-1.45,4.57,4.57,0,0,1,4.33,2.58l2.32-1.21a7,7,0,0,0-6.65-4,7.56,7.56,0,0,0-7.54,7.54,7.59,7.59,0,0,0,.37,2.38l-3.38,1.79a4.16,4.16,0,0,1-.05-0.69V124.57h-2.64v4.85h-6.7v-5h-2.64v8.5l-6.22,3.37a4.63,4.63,0,0,1-2.27.58,4.69,4.69,0,0,1-3.48-1.45,4.88,4.88,0,0,1-1.43-3.56,4.86,4.86,0,0,1,4.9-4.91,4.61,4.61,0,0,1,3.06,1.11v2.27h2.64v-5.75h-2.64v0.37a7.45,7.45,0,0,0-3.06-.63,7.56,7.56,0,0,0-7.54,7.55,8.46,8.46,0,0,0,.12,1.39l-5.76,3a4.79,4.79,0,0,1-4.19.19,5.51,5.51,0,0,1-1.56-1.05,4.49,4.49,0,0,1-1.06-1.56,4.92,4.92,0,0,1-.37-1.9,4.86,4.86,0,0,1,4.9-4.91,4.63,4.63,0,0,1,3.53,1.53l-6.7,3.54v3l10.33-5.49a7.23,7.23,0,0,0-2.69-3.8,7.41,7.41,0,0,0-4.48-1.42,7.56,7.56,0,0,0-7.54,7.55c0,0.25,0,.49,0,0.72a6.08,6.08,0,0,1-2.4.49h-0.58q0.05-.32.08-0.63c0-.21,0-0.4,0-0.58a7.26,7.26,0,0,0-2.22-5.33,7.09,7.09,0,0,0-5.27-2.21,4.9,4.9,0,0,0-1.61.26,12.54,12.54,0,0,0-1.5.63,13.08,13.08,0,0,0,2.16-2.14,14.28,14.28,0,0,0,1.58-2.43,12.56,12.56,0,0,0,.95-2.4,7.65,7.65,0,0,0,.32-2,4.5,4.5,0,0,0-1.14-3.24,3.57,3.57,0,0,0-2.66-1.18,3.38,3.38,0,0,0-2.64,1.11,4.42,4.42,0,0,0-1.21,3.27v22.89h2.64V137a3.09,3.09,0,0,0,1.08,1.79,3,3,0,0,0,2,.74,7.08,7.08,0,0,0,6.43-3.69h1.53a8.56,8.56,0,0,0,3.11-.57,7.64,7.64,0,0,0,1.48,2,7.26,7.26,0,0,0,5.33,2.21,7.43,7.43,0,0,0,3.53-.9l5.39-2.88a7.69,7.69,0,0,0,1.2,1.56,7.47,7.47,0,0,0,8.86,1.31l5-2.65v3.28h2.64v-7.54h6.7v3.74Zm-54.27-19.06q0-1.74,1.21-1.74t1.32,1.79a4.61,4.61,0,0,1-.18,1.16,10.77,10.77,0,0,1-.5,1.42,10.07,10.07,0,0,1-.79,1.48,7.86,7.86,0,0,1-1.05,1.32v-5.43Zm3.12,20.57a0.58,0.58,0,1,1,0-1.16h3.27A5.17,5.17,0,0,1,176.48,136.94Zm4.69-3.75h-4.69a3,3,0,0,0-2,.74,3.12,3.12,0,0,0-1.08,1.85v-7.59a4.68,4.68,0,0,1,3.11-1.11,5,5,0,0,1,1.9.37,4.55,4.55,0,0,1,1.56,1.05,5,5,0,0,1,1,1.58A4.94,4.94,0,0,1,181.18,133.19Z" transform="translate(-114.35 -70.99)" style="fill:#fff"/><path d="M176.53,80l0.09,1.13,1.92-.16-0.09-1.13c2.23-.21,3.66-1.51,3.48-3.6s-1.84-3.11-4-3l-0.07-.89-1.92.16L176,73.39c-2.2.24-3.63,1.52-3.46,3.6S174.29,80.13,176.53,80Zm3.36-3.59c0.08,1-.33,1.54-1.59,1.67l-0.26-3A1.49,1.49,0,0,1,179.9,76.37Zm-3.76-1.22,0.26,3a1.44,1.44,0,0,1-1.82-1.38A1.49,1.49,0,0,1,176.13,75.15Z" transform="translate(-114.35 -70.99)" style="fill:#fff"/><polygon points="75.05 9.1 74.94 7.29 71.75 7.49 71.66 5.96 74.36 5.8 74.25 3.99 71.55 4.16 71.45 2.68 74.52 2.49 74.41 0.69 69.42 1 69.94 9.41 75.05 9.1" style="fill:#fff"/><path d="M195.59,79.94a3.89,3.89,0,0,0,2.7-1.09l-0.8-1.41a3.1,3.1,0,0,1-1.8.69A2.44,2.44,0,0,1,193,75.69,2.32,2.32,0,0,1,195.28,73a3,3,0,0,1,1.74.44L197.82,72a3.79,3.79,0,0,0-2.61-.77A4.11,4.11,0,0,0,191,75.78,4.16,4.16,0,0,0,195.59,79.94Z" transform="translate(-114.35 -70.99)" style="fill:#fff"/><polygon points="87.27 1.97 87.43 8.59 89.35 8.55 89.19 1.93 91.72 1.86 91.67 0.06 84.69 0.23 84.74 2.04 87.27 1.97" style="fill:#fff"/><polygon points="95.33 8.45 99.05 3.2 99.07 8.44 101 8.43 100.97 0 99.28 0.01 95.56 5.26 95.55 0.02 93.62 0.03 93.65 8.46 95.33 8.45" style="fill:#fff"/><path d="M223.75,77a1.92,1.92,0,0,0-1.17-1.95v0a2.07,2.07,0,0,0,1-1.86c0-1.17-.78-2.11-2.79-2.15-0.92,0-2.08,0-2.55,0l-0.15,8.38c0.49,0.06,1.61.1,2.42,0.12C222.33,79.58,223.72,78.77,223.75,77Zm-3.62-4.14a4.66,4.66,0,0,1,.6,0,0.82,0.82,0,0,1,.91.78,0.77,0.77,0,0,1-.91.8H220.1Zm-0.06,3.22h0.75a0.82,0.82,0,0,1,1,.78,0.92,0.92,0,0,1-1.14.87,2.2,2.2,0,0,1-.65-0.08Z" transform="translate(-114.35 -70.99)" style="fill:#fff"/><path d="M227.68,77.91L231,78l0.63,1.8,2.06,0.08-3.17-8.56-1.72-.07L225,79.58l1.94,0.08Zm1.84-4.12,0.84,2.42-1.89-.08Z" transform="translate(-114.35 -70.99)" style="fill:#fff"/><path d="M238.35,75.17l0.28-1.58,1.85,0.12-0.42,6.61L242,80.44,242.52,72l-5.58-.36-0.23,1.67c-0.63,4.64-1.37,4.86-2.06,4.7L234.5,80C236.45,80.42,237.57,79.57,238.35,75.17Z" transform="translate(-114.35 -70.99)" style="fill:#fff"/><path d="M250.8,78.17c0.15-1.72-.75-2.92-2.94-3.11a6.46,6.46,0,0,0-.75,0l0.23-2.63-1.92-.17-0.72,8.4,2.25,0.22C249.29,81.07,250.64,80,250.8,78.17ZM247,76.86a4,4,0,0,1,.58,0A1.1,1.1,0,0,1,248.75,78a1.11,1.11,0,0,1-1.42,1.05,5.14,5.14,0,0,1-.56-0.1Z" transform="translate(-114.35 -70.99)" style="fill:#fff"/><path d="M280.62,152.09a1.86,1.86,0,0,0-1.19.44c-8.18-1.48-16.67-2.69-25.26-3.6a417.87,417.87,0,0,0-83.56,0c-12.76,1.28-21.88,2.8-25.62,3.48a1.88,1.88,0,1,0,.61,2.34c3.79-.68,12.75-2.17,25.24-3.42a415.42,415.42,0,0,1,83.07,0c8.53,0.9,17,2.1,25.08,3.57A1.87,1.87,0,1,0,280.62,152.09Z" transform="translate(-114.35 -70.99)" style="fill:#fff"/><path d="M235.87,155.28a1.86,1.86,0,0,0-1.27.5,417.83,417.83,0,0,0-45.13.1,1.88,1.88,0,1,0,.12,2.41,415.4,415.4,0,0,1,44.71-.1A1.87,1.87,0,1,0,235.87,155.28Z" transform="translate(-114.35 -70.99)" style="fill:#fff"/><path d="M259.4,79.86a1.86,1.86,0,0,0,1.29-.52c6,0.75,12.14,1.66,18.31,2.78a1.88,1.88,0,1,0,.43-2.37C273.21,78.63,267,77.7,261,77A1.87,1.87,0,1,0,259.4,79.86Z" transform="translate(-114.35 -70.99)" style="fill:#fff"/></svg>